<svg width="876" height="300" viewBox="0 0 876 300" fill="none" xmlns="http://www.w3.org/2000/svg">
<path d="M296.667 134.387H308.335V142.61H309.002C309.669 141.203 310.558 139.906 311.669 138.721C312.854 137.462 314.151 136.424 315.558 135.61C317.04 134.721 318.559 134.054 320.114 133.609C321.744 133.091 323.3 132.831 324.782 132.831C326.56 132.831 328.078 132.98 329.338 133.276C330.597 133.572 331.745 133.98 332.782 134.498L329.226 145.944C328.412 145.574 327.486 145.314 326.448 145.166C325.485 144.944 324.3 144.833 322.892 144.833C320.892 144.833 319.04 145.24 317.336 146.055C315.707 146.87 314.262 147.981 313.003 149.389C311.743 150.796 310.743 152.463 310.002 154.389C309.335 156.315 309.002 158.353 309.002 160.501V188.837H296.667V134.387ZM386.509 175.836C384.213 180.059 380.953 183.578 376.731 186.393C372.508 189.208 367.322 190.615 361.173 190.615C357.099 190.615 353.321 189.912 349.839 188.504C346.431 187.022 343.468 184.985 340.949 182.392C338.43 179.799 336.467 176.762 335.06 173.28C333.652 169.724 332.948 165.835 332.948 161.612C332.948 157.686 333.615 153.982 334.948 150.5C336.282 146.944 338.134 143.87 340.505 141.277C342.949 138.61 345.875 136.499 349.283 134.943C352.691 133.387 356.469 132.609 360.618 132.609C364.84 132.609 368.582 133.313 371.841 134.721C375.175 136.128 377.99 138.091 380.287 140.61C382.583 143.129 384.324 146.166 385.509 149.722C386.769 153.278 387.398 157.167 387.398 161.39C387.398 161.76 387.398 162.094 387.398 162.39C387.324 162.761 387.287 163.094 387.287 163.39C387.213 163.687 387.176 163.983 387.176 164.279H345.283C345.505 166.872 346.135 169.132 347.172 171.058C348.209 172.984 349.468 174.577 350.95 175.836C352.506 177.095 354.21 178.021 356.062 178.614C357.914 179.207 359.729 179.503 361.507 179.503C365.063 179.503 367.989 178.651 370.285 176.947C372.582 175.243 374.471 173.132 375.953 170.613L386.509 175.836ZM375.064 154.834C374.916 153.723 374.545 152.5 373.953 151.167C373.434 149.759 372.582 148.5 371.397 147.389C370.285 146.203 368.804 145.203 366.952 144.388C365.174 143.573 362.988 143.166 360.396 143.166C356.84 143.166 353.765 144.24 351.172 146.388C348.654 148.463 346.95 151.278 346.061 154.834H375.064ZM434.614 181.503H433.948C432.318 184.096 429.984 186.282 426.947 188.06C423.984 189.763 420.613 190.615 416.835 190.615C409.945 190.615 404.796 188.578 401.389 184.504C397.981 180.355 396.277 174.873 396.277 168.057V134.387H408.612V166.391C408.612 171.132 409.686 174.466 411.834 176.392C414.057 178.244 416.946 179.17 420.502 179.17C422.576 179.17 424.428 178.725 426.058 177.836C427.762 176.947 429.206 175.762 430.392 174.28C431.577 172.725 432.466 170.984 433.059 169.058C433.651 167.057 433.948 164.983 433.948 162.835V134.387H446.282V188.837H434.614V181.503ZM465.229 145.277H455.672V134.387H465.229V117.719H477.563V134.387H491.009V145.277H477.563V169.502C477.563 170.836 477.711 172.058 478.008 173.169C478.304 174.28 478.749 175.206 479.341 175.947C480.601 177.355 482.193 178.058 484.12 178.058C485.305 178.058 486.231 177.984 486.898 177.836C487.564 177.614 488.268 177.318 489.009 176.947L492.787 187.837C491.231 188.43 489.602 188.874 487.898 189.171C486.194 189.541 484.268 189.726 482.119 189.726C479.526 189.726 477.23 189.319 475.23 188.504C473.229 187.689 471.489 186.578 470.007 185.17C466.821 181.985 465.229 177.651 465.229 172.169V145.277ZM501.225 134.387H512.893V142.61H513.559C514.226 141.203 515.115 139.906 516.226 138.721C517.412 137.462 518.708 136.424 520.116 135.61C521.597 134.721 523.116 134.054 524.672 133.609C526.301 133.091 527.857 132.831 529.339 132.831C531.117 132.831 532.635 132.98 533.895 133.276C535.154 133.572 536.302 133.98 537.34 134.498L533.784 145.944C532.969 145.574 532.043 145.314 531.006 145.166C530.043 144.944 528.857 144.833 527.45 144.833C525.449 144.833 523.597 145.24 521.893 146.055C520.264 146.87 518.819 147.981 517.56 149.389C516.3 150.796 515.3 152.463 514.559 154.389C513.893 156.315 513.559 158.353 513.559 160.501V188.837H501.225V134.387ZM576.259 182.17H575.592C573.962 184.318 571.851 186.282 569.258 188.06C566.665 189.763 563.368 190.615 559.368 190.615C556.479 190.615 553.775 190.134 551.256 189.171C548.737 188.282 546.552 187.022 544.7 185.393C542.848 183.689 541.366 181.726 540.255 179.503C539.218 177.207 538.699 174.688 538.699 171.947C538.699 169.058 539.255 166.465 540.366 164.168C541.551 161.872 543.144 159.945 545.144 158.39C547.219 156.834 549.663 155.649 552.478 154.834C555.293 153.945 558.331 153.5 561.59 153.5C565.22 153.5 568.258 153.871 570.702 154.612C573.147 155.278 574.999 155.908 576.259 156.501V154.389C576.259 152.76 575.888 151.241 575.147 149.833C574.481 148.426 573.518 147.24 572.258 146.277C571.073 145.24 569.702 144.462 568.147 143.944C566.591 143.351 564.961 143.055 563.257 143.055C560.516 143.055 558.034 143.61 555.812 144.722C553.664 145.759 551.738 147.463 550.034 149.833L540.255 143.388C542.848 139.832 546.07 137.165 549.922 135.387C553.775 133.535 558.146 132.609 563.035 132.609C571.11 132.609 577.333 134.609 581.704 138.61C586.149 142.61 588.371 148.315 588.371 155.723V188.837H576.259V182.17ZM576.259 166.168C574.629 165.205 572.814 164.427 570.814 163.835C568.813 163.242 566.517 162.946 563.924 162.946C560.072 162.946 556.997 163.835 554.701 165.613C552.404 167.391 551.256 169.539 551.256 172.058C551.256 173.391 551.552 174.577 552.145 175.614C552.738 176.577 553.478 177.429 554.367 178.17C555.33 178.91 556.405 179.466 557.59 179.836C558.849 180.207 560.109 180.392 561.368 180.392C563.368 180.392 565.257 180.022 567.035 179.281C568.887 178.466 570.48 177.429 571.814 176.169C573.147 174.836 574.221 173.317 575.036 171.613C575.851 169.909 576.259 168.094 576.259 166.168ZM649.772 174.947C648.735 177.095 647.439 179.133 645.883 181.059C644.401 182.911 642.624 184.578 640.549 186.059C638.549 187.467 636.215 188.578 633.548 189.393C630.882 190.208 627.955 190.615 624.77 190.615C620.621 190.615 616.806 189.912 613.324 188.504C609.842 187.022 606.842 184.985 604.323 182.392C601.804 179.799 599.841 176.725 598.434 173.169C597.026 169.613 596.322 165.761 596.322 161.612C596.322 157.464 597.026 153.611 598.434 150.056C599.841 146.5 601.804 143.425 604.323 140.832C606.842 138.239 609.842 136.239 613.324 134.832C616.806 133.35 620.621 132.609 624.77 132.609C627.955 132.609 630.845 133.017 633.437 133.832C636.104 134.646 638.438 135.795 640.438 137.276C642.512 138.684 644.29 140.351 645.772 142.277C647.254 144.129 648.439 146.092 649.328 148.166L637.993 152.945C636.734 150.13 634.993 147.944 632.771 146.388C630.548 144.833 627.733 144.055 624.325 144.055C622.251 144.055 620.251 144.499 618.325 145.388C616.473 146.203 614.806 147.389 613.324 148.944C611.917 150.426 610.768 152.241 609.879 154.389C609.064 156.538 608.657 158.945 608.657 161.612C608.657 164.279 609.064 166.687 609.879 168.835C610.768 170.984 611.917 172.836 613.324 174.391C614.806 175.873 616.473 177.058 618.325 177.947C620.251 178.762 622.251 179.17 624.325 179.17C627.733 179.17 630.622 178.392 632.993 176.836C635.438 175.206 637.327 172.984 638.66 170.169L649.772 174.947ZM658.685 109.273H671.019V155.389H671.464L692.355 134.387H707.801V135.054L687.132 155.501L709.135 188.171V188.837H694.466L678.354 164.057L671.019 171.28V188.837H658.685V109.273Z" fill="white" style="fill:white;fill-opacity:1;"/>
<path d="M288.424 159.917C301.067 158.863 303.614 146.22 302.648 142.796" stroke="#A855F7" style="stroke:#A855F7;stroke:color(display-p3 0.6588 0.3333 0.9686);stroke-opacity:1;" stroke-width="3.16083" stroke-linecap="round"/>
<path d="M170.42 180.647C171.473 168.003 184.117 165.457 187.541 166.423" stroke="#A855F7" style="stroke:#A855F7;stroke:color(display-p3 0.6588 0.3333 0.9686);stroke-opacity:1;" stroke-width="3.16083" stroke-linecap="round"/>
<path d="M244.699 168.346C244.699 184.348 231.727 197.32 215.725 197.32C199.723 197.32 186.751 184.348 186.751 168.346C186.751 152.344 199.723 139.371 215.725 139.371C231.727 139.371 244.699 152.344 244.699 168.346Z" fill="#F6EDFF" style="fill:#F6EDFF;fill:color(display-p3 0.9655 0.9292 1.0000);fill-opacity:1;"/>
<path d="M288.424 168.346C288.424 184.348 275.452 197.32 259.45 197.32C243.448 197.32 230.475 184.348 230.475 168.346C230.475 152.344 243.448 139.371 259.45 139.371C275.452 139.371 288.424 152.344 288.424 168.346Z" fill="#F6EDFF" style="fill:#F6EDFF;fill:color(display-p3 0.9655 0.9292 1.0000);fill-opacity:1;"/>
<path d="M266.825 136.737C266.825 152.739 253.853 165.712 237.851 165.712C221.849 165.712 208.877 152.739 208.877 136.737C208.877 120.735 221.849 107.763 237.851 107.763C253.853 107.763 266.825 120.735 266.825 136.737Z" fill="#F6EDFF" style="fill:#F6EDFF;fill:color(display-p3 0.9655 0.9292 1.0000);fill-opacity:1;"/>
<path d="M209.14 140.162C206.242 110.924 229.949 108.027 240.221 108.027C248.123 108.027 269.195 113.295 266.298 140.162" stroke="#A855F7" style="stroke:#A855F7;stroke:color(display-p3 0.6588 0.3333 0.9686);stroke-opacity:1;" stroke-width="3.16083" stroke-linecap="round"/>
<path d="M266.561 140.688C296.853 146.436 288.197 175.599 286.317 179.672C281.575 189.945 262.083 206.802 238.376 188.101" stroke="#A855F7" style="stroke:#A855F7;stroke:color(display-p3 0.6588 0.3333 0.9686);stroke-opacity:1;" stroke-width="3.16083" stroke-linecap="round"/>
<path d="M237.851 187.574C205.189 209.699 188.481 183.096 186.224 175.721C182.273 162.814 189.912 142.795 209.14 140.688" stroke="#A855F7" style="stroke:#A855F7;stroke:color(display-p3 0.6588 0.3333 0.9686);stroke-opacity:1;" stroke-width="3.16083" stroke-linecap="round"/>
<circle cx="217.305" cy="153.595" r="8.16547" stroke="#A855F7" style="stroke:#A855F7;stroke:color(display-p3 0.6588 0.3333 0.9686);stroke-opacity:1;" stroke-width="2.63402"/>
<circle cx="257.342" cy="153.595" r="8.16547" stroke="#A855F7" style="stroke:#A855F7;stroke:color(display-p3 0.6588 0.3333 0.9686);stroke-opacity:1;" stroke-width="2.63402"/>
<path d="M225.735 153.595C232.32 145.956 244.7 148.063 248.651 153.595" stroke="#A855F7" style="stroke:#A855F7;stroke:color(display-p3 0.6588 0.3333 0.9686);stroke-opacity:1;" stroke-width="3.16083" stroke-linecap="round"/>
<path d="M240.221 161.497C236.797 164.921 232.846 162.024 232.583 161.497" stroke="#A855F7" style="stroke:#A855F7;stroke:color(display-p3 0.6588 0.3333 0.9686);stroke-opacity:1;" stroke-width="1.62808" stroke-linecap="round"/>
<circle cx="216.779" cy="156.756" r="3.16083" fill="#A855F7" style="fill:#A855F7;fill:color(display-p3 0.6588 0.3333 0.9686);fill-opacity:1;"/>
<circle cx="257.342" cy="156.229" r="3.16083" fill="#A855F7" style="fill:#A855F7;fill:color(display-p3 0.6588 0.3333 0.9686);fill-opacity:1;"/>
<path d="M226.261 122.777C227.315 131.996 237.127 130.403 239.958 127.782C247.07 121.197 239.168 116.719 235.743 119.353C227.824 125.444 241.012 133.313 246.806 128.572" stroke="#A855F7" style="stroke:#A855F7;stroke:color(display-p3 0.6588 0.3333 0.9686);stroke-opacity:1;" stroke-width="3.16083" stroke-linecap="round"/>
</svg>
