<svg width="876" height="300" viewBox="0 0 876 300" fill="none" xmlns="http://www.w3.org/2000/svg">
<path d="M296.667 133.954H308.335V142.177H309.002C309.669 140.769 310.558 139.473 311.669 138.288C312.854 137.028 314.151 135.991 315.558 135.176C317.04 134.287 318.559 133.62 320.114 133.176C321.744 132.657 323.3 132.398 324.782 132.398C326.56 132.398 328.078 132.546 329.338 132.843C330.597 133.139 331.745 133.546 332.782 134.065L329.226 145.511C328.412 145.14 327.486 144.881 326.448 144.733C325.485 144.511 324.3 144.399 322.892 144.399C320.892 144.399 319.04 144.807 317.336 145.622C315.707 146.437 314.262 147.548 313.003 148.955C311.743 150.363 310.743 152.03 310.002 153.956C309.335 155.882 309.002 157.919 309.002 160.068V188.404H296.667V133.954ZM386.509 175.403C384.213 179.625 380.953 183.144 376.731 185.959C372.508 188.774 367.322 190.182 361.173 190.182C357.099 190.182 353.321 189.478 349.839 188.071C346.431 186.589 343.468 184.552 340.949 181.959C338.43 179.366 336.467 176.329 335.06 172.847C333.652 169.291 332.948 165.402 332.948 161.179C332.948 157.253 333.615 153.549 334.948 150.067C336.282 146.511 338.134 143.436 340.505 140.843C342.949 138.177 345.875 136.065 349.283 134.509C352.691 132.954 356.469 132.176 360.618 132.176C364.84 132.176 368.582 132.88 371.841 134.287C375.175 135.695 377.99 137.658 380.287 140.177C382.583 142.696 384.324 145.733 385.509 149.289C386.769 152.845 387.398 156.734 387.398 160.957C387.398 161.327 387.398 161.66 387.398 161.957C387.324 162.327 387.287 162.661 387.287 162.957C387.213 163.253 387.176 163.55 387.176 163.846H345.283C345.505 166.439 346.135 168.698 347.172 170.624C348.209 172.551 349.468 174.143 350.95 175.403C352.506 176.662 354.21 177.588 356.062 178.181C357.914 178.773 359.729 179.07 361.507 179.07C365.063 179.07 367.989 178.218 370.285 176.514C372.582 174.81 374.471 172.699 375.953 170.18L386.509 175.403ZM375.064 154.4C374.916 153.289 374.545 152.067 373.953 150.733C373.434 149.326 372.582 148.066 371.397 146.955C370.285 145.77 368.804 144.77 366.952 143.955C365.174 143.14 362.988 142.733 360.396 142.733C356.84 142.733 353.765 143.807 351.172 145.955C348.654 148.029 346.95 150.845 346.061 154.4H375.064ZM434.614 181.07H433.948C432.318 183.663 429.984 185.848 426.947 187.626C423.984 189.33 420.613 190.182 416.835 190.182C409.945 190.182 404.796 188.145 401.389 184.07C397.981 179.922 396.277 174.44 396.277 167.624V133.954H408.612V165.957C408.612 170.698 409.686 174.032 411.834 175.958C414.057 177.81 416.946 178.736 420.502 178.736C422.576 178.736 424.428 178.292 426.058 177.403C427.762 176.514 429.206 175.329 430.392 173.847C431.577 172.291 432.466 170.55 433.059 168.624C433.651 166.624 433.948 164.55 433.948 162.401V133.954H446.282V188.404H434.614V181.07ZM465.229 144.844H455.672V133.954H465.229V117.285H477.563V133.954H491.009V144.844H477.563V169.069C477.563 170.402 477.711 171.625 478.008 172.736C478.304 173.847 478.749 174.773 479.341 175.514C480.601 176.921 482.193 177.625 484.12 177.625C485.305 177.625 486.231 177.551 486.898 177.403C487.564 177.181 488.268 176.884 489.009 176.514L492.787 187.404C491.231 187.997 489.602 188.441 487.898 188.737C486.194 189.108 484.268 189.293 482.119 189.293C479.526 189.293 477.23 188.886 475.23 188.071C473.229 187.256 471.489 186.145 470.007 184.737C466.821 181.551 465.229 177.218 465.229 171.736V144.844ZM501.225 133.954H512.893V142.177H513.559C514.226 140.769 515.115 139.473 516.226 138.288C517.412 137.028 518.708 135.991 520.116 135.176C521.597 134.287 523.116 133.62 524.672 133.176C526.301 132.657 527.857 132.398 529.339 132.398C531.117 132.398 532.635 132.546 533.895 132.843C535.154 133.139 536.302 133.546 537.34 134.065L533.784 145.511C532.969 145.14 532.043 144.881 531.006 144.733C530.043 144.511 528.857 144.399 527.45 144.399C525.449 144.399 523.597 144.807 521.893 145.622C520.264 146.437 518.819 147.548 517.56 148.955C516.3 150.363 515.3 152.03 514.559 153.956C513.893 155.882 513.559 157.919 513.559 160.068V188.404H501.225V133.954ZM576.259 181.737H575.592C573.962 183.885 571.851 185.848 569.258 187.626C566.665 189.33 563.368 190.182 559.368 190.182C556.479 190.182 553.775 189.7 551.256 188.737C548.737 187.848 546.552 186.589 544.7 184.959C542.848 183.255 541.366 181.292 540.255 179.07C539.218 176.773 538.699 174.254 538.699 171.513C538.699 168.624 539.255 166.031 540.366 163.735C541.551 161.438 543.144 159.512 545.144 157.956C547.219 156.401 549.663 155.215 552.478 154.4C555.293 153.511 558.331 153.067 561.59 153.067C565.22 153.067 568.258 153.437 570.702 154.178C573.147 154.845 574.999 155.475 576.259 156.067V153.956C576.259 152.326 575.888 150.807 575.147 149.4C574.481 147.992 573.518 146.807 572.258 145.844C571.073 144.807 569.702 144.029 568.147 143.51C566.591 142.918 564.961 142.621 563.257 142.621C560.516 142.621 558.034 143.177 555.812 144.288C553.664 145.325 551.738 147.029 550.034 149.4L540.255 142.955C542.848 139.399 546.07 136.732 549.922 134.954C553.775 133.102 558.146 132.176 563.035 132.176C571.11 132.176 577.333 134.176 581.704 138.177C586.149 142.177 588.371 147.881 588.371 155.289V188.404H576.259V181.737ZM576.259 165.735C574.629 164.772 572.814 163.994 570.814 163.401C568.813 162.809 566.517 162.512 563.924 162.512C560.072 162.512 556.997 163.401 554.701 165.179C552.404 166.957 551.256 169.106 551.256 171.625C551.256 172.958 551.552 174.143 552.145 175.18C552.738 176.143 553.478 176.995 554.367 177.736C555.33 178.477 556.405 179.033 557.59 179.403C558.849 179.774 560.109 179.959 561.368 179.959C563.368 179.959 565.257 179.588 567.035 178.847C568.887 178.033 570.48 176.995 571.814 175.736C573.147 174.403 574.221 172.884 575.036 171.18C575.851 169.476 576.259 167.661 576.259 165.735ZM649.772 174.514C648.735 176.662 647.439 178.699 645.883 180.625C644.401 182.478 642.624 184.144 640.549 185.626C638.549 187.034 636.215 188.145 633.548 188.96C630.882 189.775 627.955 190.182 624.77 190.182C620.621 190.182 616.806 189.478 613.324 188.071C609.842 186.589 606.842 184.552 604.323 181.959C601.804 179.366 599.841 176.292 598.434 172.736C597.026 169.18 596.322 165.328 596.322 161.179C596.322 157.03 597.026 153.178 598.434 149.622C599.841 146.066 601.804 142.992 604.323 140.399C606.842 137.806 609.842 135.806 613.324 134.398C616.806 132.917 620.621 132.176 624.77 132.176C627.955 132.176 630.845 132.583 633.437 133.398C636.104 134.213 638.438 135.361 640.438 136.843C642.512 138.251 644.29 139.917 645.772 141.844C647.254 143.696 648.439 145.659 649.328 147.733L637.993 152.511C636.734 149.696 634.993 147.511 632.771 145.955C630.548 144.399 627.733 143.622 624.325 143.622C622.251 143.622 620.251 144.066 618.325 144.955C616.473 145.77 614.806 146.955 613.324 148.511C611.917 149.993 610.768 151.808 609.879 153.956C609.064 156.104 608.657 158.512 608.657 161.179C608.657 163.846 609.064 166.254 609.879 168.402C610.768 170.55 611.917 172.402 613.324 173.958C614.806 175.44 616.473 176.625 618.325 177.514C620.251 178.329 622.251 178.736 624.325 178.736C627.733 178.736 630.622 177.959 632.993 176.403C635.438 174.773 637.327 172.551 638.66 169.735L649.772 174.514ZM658.685 108.84H671.019V154.956H671.464L692.355 133.954H707.801V134.621L687.132 155.067L709.135 187.737V188.404H694.466L678.354 163.624L671.019 170.847V188.404H658.685V108.84Z" fill="#333A45" style="fill:#333A45;fill:color(display-p3 0.2000 0.2275 0.2706);fill-opacity:1;"/>
<path d="M288.424 159.483C301.067 158.43 303.614 145.787 302.648 142.362" stroke="#A855F7" style="stroke:#A855F7;stroke:color(display-p3 0.6588 0.3333 0.9686);stroke-opacity:1;" stroke-width="3.16083" stroke-linecap="round"/>
<path d="M170.42 180.213C171.473 167.57 184.117 165.024 187.541 165.989" stroke="#A855F7" style="stroke:#A855F7;stroke:color(display-p3 0.6588 0.3333 0.9686);stroke-opacity:1;" stroke-width="3.16083" stroke-linecap="round"/>
<path d="M244.699 167.912C244.699 183.914 231.727 196.886 215.725 196.886C199.723 196.886 186.751 183.914 186.751 167.912C186.751 151.91 199.723 138.938 215.725 138.938C231.727 138.938 244.699 151.91 244.699 167.912Z" fill="#F6EDFF" style="fill:#F6EDFF;fill:color(display-p3 0.9655 0.9292 1.0000);fill-opacity:1;"/>
<path d="M288.424 167.912C288.424 183.914 275.452 196.886 259.45 196.886C243.448 196.886 230.475 183.914 230.475 167.912C230.475 151.91 243.448 138.938 259.45 138.938C275.452 138.938 288.424 151.91 288.424 167.912Z" fill="#F6EDFF" style="fill:#F6EDFF;fill:color(display-p3 0.9655 0.9292 1.0000);fill-opacity:1;"/>
<path d="M266.825 136.304C266.825 152.306 253.853 165.278 237.851 165.278C221.849 165.278 208.877 152.306 208.877 136.304C208.877 120.302 221.849 107.33 237.851 107.33C253.853 107.33 266.825 120.302 266.825 136.304Z" fill="#F6EDFF" style="fill:#F6EDFF;fill:color(display-p3 0.9655 0.9292 1.0000);fill-opacity:1;"/>
<path d="M209.14 139.728C206.242 110.49 229.949 107.593 240.221 107.593C248.123 107.593 269.195 112.861 266.298 139.728" stroke="#A855F7" style="stroke:#A855F7;stroke:color(display-p3 0.6588 0.3333 0.9686);stroke-opacity:1;" stroke-width="3.16083" stroke-linecap="round"/>
<path d="M266.561 140.255C296.853 146.003 288.197 175.166 286.317 179.238C281.575 189.511 262.083 206.369 238.376 187.667" stroke="#A855F7" style="stroke:#A855F7;stroke:color(display-p3 0.6588 0.3333 0.9686);stroke-opacity:1;" stroke-width="3.16083" stroke-linecap="round"/>
<path d="M237.851 187.14C205.189 209.266 188.481 182.663 186.224 175.287C182.273 162.381 189.912 142.362 209.14 140.255" stroke="#A855F7" style="stroke:#A855F7;stroke:color(display-p3 0.6588 0.3333 0.9686);stroke-opacity:1;" stroke-width="3.16083" stroke-linecap="round"/>
<circle cx="217.305" cy="153.162" r="8.16547" stroke="#A855F7" style="stroke:#A855F7;stroke:color(display-p3 0.6588 0.3333 0.9686);stroke-opacity:1;" stroke-width="2.63402"/>
<circle cx="257.342" cy="153.162" r="8.16547" stroke="#A855F7" style="stroke:#A855F7;stroke:color(display-p3 0.6588 0.3333 0.9686);stroke-opacity:1;" stroke-width="2.63402"/>
<path d="M225.735 153.161C232.32 145.523 244.7 147.63 248.651 153.161" stroke="#A855F7" style="stroke:#A855F7;stroke:color(display-p3 0.6588 0.3333 0.9686);stroke-opacity:1;" stroke-width="3.16083" stroke-linecap="round"/>
<path d="M240.221 161.063C236.797 164.488 232.846 161.59 232.583 161.063" stroke="#A855F7" style="stroke:#A855F7;stroke:color(display-p3 0.6588 0.3333 0.9686);stroke-opacity:1;" stroke-width="1.62808" stroke-linecap="round"/>
<circle cx="216.779" cy="156.322" r="3.16083" fill="#A855F7" style="fill:#A855F7;fill:color(display-p3 0.6588 0.3333 0.9686);fill-opacity:1;"/>
<circle cx="257.342" cy="155.796" r="3.16083" fill="#A855F7" style="fill:#A855F7;fill:color(display-p3 0.6588 0.3333 0.9686);fill-opacity:1;"/>
<path d="M226.261 122.343C227.315 131.562 237.127 129.969 239.958 127.348C247.07 120.763 239.168 116.285 235.743 118.919C227.824 125.011 241.012 132.879 246.806 128.138" stroke="#A855F7" style="stroke:#A855F7;stroke:color(display-p3 0.6588 0.3333 0.9686);stroke-opacity:1;" stroke-width="3.16083" stroke-linecap="round"/>
</svg>
