<svg width="876" height="300" viewBox="0 0 876 300" fill="none" xmlns="http://www.w3.org/2000/svg">
<path d="M236.075 128.232H252.74V139.976H253.692C254.644 137.966 255.914 136.114 257.501 134.421C259.194 132.623 261.046 131.141 263.056 129.977C265.172 128.708 267.341 127.755 269.563 127.121C271.891 126.38 274.113 126.01 276.229 126.01C278.768 126.01 280.937 126.221 282.736 126.644C284.535 127.068 286.175 127.65 287.656 128.39L282.577 144.738C281.414 144.209 280.091 143.838 278.61 143.627C277.234 143.309 275.541 143.15 273.531 143.15C270.674 143.15 268.029 143.732 265.595 144.896C263.268 146.06 261.204 147.647 259.406 149.658C257.607 151.668 256.178 154.049 255.12 156.8C254.168 159.551 253.692 162.46 253.692 165.529V206H236.075V128.232ZM364.392 187.431C361.112 193.462 356.456 198.488 350.425 202.508C344.394 206.529 336.988 208.539 328.206 208.539C322.386 208.539 316.99 207.534 312.017 205.524C307.15 203.408 302.918 200.498 299.32 196.795C295.723 193.092 292.919 188.753 290.908 183.78C288.898 178.702 287.893 173.147 287.893 167.116C287.893 161.508 288.845 156.218 290.75 151.245C292.654 146.166 295.3 141.775 298.685 138.072C302.177 134.263 306.356 131.247 311.224 129.025C316.091 126.803 321.487 125.692 327.412 125.692C333.443 125.692 338.786 126.697 343.442 128.708C348.203 130.718 352.224 133.522 355.504 137.119C358.784 140.717 361.27 145.055 362.963 150.134C364.762 155.212 365.661 160.767 365.661 166.798C365.661 167.327 365.661 167.804 365.661 168.227C365.556 168.756 365.503 169.232 365.503 169.655C365.397 170.078 365.344 170.502 365.344 170.925H305.51C305.827 174.628 306.727 177.855 308.208 180.606C309.689 183.357 311.488 185.632 313.604 187.431C315.826 189.23 318.26 190.552 320.905 191.399C323.55 192.245 326.142 192.668 328.682 192.668C333.76 192.668 337.94 191.451 341.22 189.018C344.5 186.584 347.198 183.569 349.314 179.971L364.392 187.431ZM348.044 157.434C347.833 155.847 347.304 154.101 346.457 152.197C345.717 150.187 344.5 148.388 342.807 146.801C341.22 145.108 339.104 143.679 336.459 142.516C333.919 141.352 330.798 140.77 327.095 140.77C322.016 140.77 317.625 142.304 313.922 145.372C310.324 148.335 307.891 152.356 306.621 157.434H348.044ZM433.097 195.525H432.145C429.817 199.228 426.485 202.35 422.146 204.889C417.914 207.323 413.1 208.539 407.704 208.539C397.864 208.539 390.51 205.63 385.643 199.81C380.776 193.885 378.342 186.055 378.342 176.321V128.232H395.959V173.94C395.959 180.712 397.493 185.473 400.562 188.224C403.736 190.87 407.862 192.192 412.941 192.192C415.904 192.192 418.549 191.557 420.877 190.288C423.31 189.018 425.374 187.325 427.066 185.209C428.759 182.987 430.029 180.5 430.876 177.749C431.722 174.893 432.145 171.93 432.145 168.862V128.232H449.762V206H433.097V195.525ZM476.822 143.785H463.173V128.232H476.822V104.425H494.439V128.232H513.643V143.785H494.439V178.384C494.439 180.289 494.651 182.035 495.074 183.622C495.497 185.209 496.132 186.531 496.979 187.59C498.777 189.6 501.052 190.605 503.803 190.605C505.496 190.605 506.819 190.499 507.771 190.288C508.723 189.97 509.728 189.547 510.787 189.018L516.183 204.572C513.961 205.418 511.633 206.053 509.199 206.476C506.766 207.005 504.015 207.27 500.946 207.27C497.243 207.27 493.963 206.688 491.106 205.524C488.25 204.36 485.763 202.773 483.647 200.763C479.097 196.213 476.822 190.023 476.822 182.193V143.785ZM528.234 128.232H544.898V139.976H545.851C546.803 137.966 548.072 136.114 549.66 134.421C551.352 132.623 553.204 131.141 555.214 129.977C557.331 128.708 559.5 127.755 561.722 127.121C564.049 126.38 566.271 126.01 568.387 126.01C570.927 126.01 573.096 126.221 574.895 126.644C576.693 127.068 578.333 127.65 579.815 128.39L574.736 144.738C573.572 144.209 572.249 143.838 570.768 143.627C569.393 143.309 567.7 143.15 565.689 143.15C562.833 143.15 560.187 143.732 557.754 144.896C555.426 146.06 553.363 147.647 551.564 149.658C549.765 151.668 548.337 154.049 547.279 156.8C546.327 159.551 545.851 162.46 545.851 165.529V206H528.234V128.232ZM635.401 196.477H634.448C632.121 199.546 629.105 202.35 625.402 204.889C621.699 207.323 616.99 208.539 611.277 208.539C607.15 208.539 603.288 207.852 599.691 206.476C596.093 205.206 592.972 203.408 590.327 201.08C587.682 198.646 585.565 195.842 583.978 192.668C582.497 189.388 581.756 185.791 581.756 181.876C581.756 177.749 582.55 174.046 584.137 170.766C585.83 167.486 588.105 164.735 590.962 162.513C593.924 160.291 597.416 158.598 601.437 157.434C605.457 156.165 609.795 155.53 614.451 155.53C619.635 155.53 623.974 156.059 627.465 157.117C630.957 158.069 633.602 158.969 635.401 159.815V156.8C635.401 154.472 634.872 152.303 633.814 150.292C632.861 148.282 631.486 146.589 629.687 145.214C627.994 143.732 626.037 142.621 623.815 141.881C621.593 141.034 619.265 140.611 616.832 140.611C612.917 140.611 609.372 141.405 606.198 142.992C603.129 144.473 600.378 146.907 597.945 150.292L583.978 141.087C587.682 136.008 592.284 132.199 597.786 129.66C603.288 127.015 609.531 125.692 616.514 125.692C628.047 125.692 636.935 128.549 643.178 134.263C649.526 139.976 652.7 148.123 652.7 158.704V206H635.401V196.477ZM635.401 173.623C633.073 172.247 630.481 171.136 627.624 170.29C624.767 169.444 621.487 169.02 617.784 169.02C612.282 169.02 607.891 170.29 604.611 172.829C601.331 175.369 599.691 178.437 599.691 182.035C599.691 183.939 600.114 185.632 600.96 187.113C601.807 188.489 602.865 189.706 604.135 190.764C605.51 191.822 607.044 192.615 608.737 193.144C610.536 193.673 612.335 193.938 614.133 193.938C616.99 193.938 619.688 193.409 622.228 192.351C624.873 191.187 627.148 189.706 629.052 187.907C630.957 186.002 632.491 183.833 633.655 181.4C634.819 178.966 635.401 176.374 635.401 173.623ZM740.397 186.161C738.915 189.23 737.064 192.139 734.842 194.89C732.726 197.535 730.186 199.916 727.224 202.032C724.367 204.043 721.034 205.63 717.225 206.794C713.416 207.957 709.236 208.539 704.687 208.539C698.762 208.539 693.312 207.534 688.34 205.524C683.367 203.408 679.081 200.498 675.484 196.795C671.886 193.092 669.083 188.7 667.072 183.622C665.062 178.543 664.057 173.041 664.057 167.116C664.057 161.191 665.062 155.689 667.072 150.61C669.083 145.531 671.886 141.14 675.484 137.437C679.081 133.734 683.367 130.877 688.34 128.866C693.312 126.75 698.762 125.692 704.687 125.692C709.236 125.692 713.363 126.274 717.066 127.438C720.875 128.602 724.208 130.242 727.065 132.358C730.028 134.368 732.567 136.749 734.683 139.5C736.799 142.145 738.492 144.949 739.762 147.912L723.573 154.736C721.775 150.716 719.288 147.594 716.114 145.372C712.94 143.15 708.919 142.039 704.052 142.039C701.089 142.039 698.233 142.674 695.482 143.944C692.836 145.108 690.456 146.801 688.34 149.023C686.329 151.139 684.689 153.731 683.419 156.8C682.256 159.868 681.674 163.307 681.674 167.116C681.674 170.925 682.256 174.364 683.419 177.432C684.689 180.5 686.329 183.146 688.34 185.368C690.456 187.484 692.836 189.177 695.482 190.446C698.233 191.61 701.089 192.192 704.052 192.192C708.919 192.192 713.046 191.081 716.431 188.859C719.923 186.531 722.621 183.357 724.526 179.337L740.397 186.161ZM753.126 92.3629H770.743V158.228H771.378L801.215 128.232H823.276V129.184L793.756 158.387L825.181 205.048V206H804.231L781.218 170.607L770.743 180.924V206H753.126V92.3629Z" fill="white" style="fill:white;fill-opacity:1;"/>
<path d="M224.302 164.517C242.359 163.012 245.996 144.954 244.617 140.064" stroke="#A855F7" style="stroke:#A855F7;stroke:color(display-p3 0.6588 0.3333 0.9686);stroke-opacity:1;" stroke-width="4.51445" stroke-linecap="round"/>
<path d="M55.7617 194.124C57.2665 176.066 75.3243 172.43 80.215 173.809" stroke="#A855F7" style="stroke:#A855F7;stroke:color(display-p3 0.6588 0.3333 0.9686);stroke-opacity:1;" stroke-width="4.51445" stroke-linecap="round"/>
<path d="M161.852 176.555C161.852 199.41 143.324 217.938 120.469 217.938C97.6142 217.938 79.0867 199.41 79.0867 176.555C79.0867 153.7 97.6142 135.173 120.469 135.173C143.324 135.173 161.852 153.7 161.852 176.555Z" fill="#F6EDFF" style="fill:#F6EDFF;fill:color(display-p3 0.9655 0.9292 1.0000);fill-opacity:1;"/>
<path d="M224.301 176.555C224.301 199.41 205.774 217.938 182.919 217.938C160.064 217.938 141.537 199.41 141.537 176.555C141.537 153.7 160.064 135.173 182.919 135.173C205.774 135.173 224.301 153.7 224.301 176.555Z" fill="#F6EDFF" style="fill:#F6EDFF;fill:color(display-p3 0.9655 0.9292 1.0000);fill-opacity:1;"/>
<path d="M193.453 131.411C193.453 154.266 174.925 172.793 152.07 172.793C129.215 172.793 110.688 154.266 110.688 131.411C110.688 108.556 129.215 90.0283 152.07 90.0283C174.925 90.0283 193.453 108.556 193.453 131.411Z" fill="#F6EDFF" style="fill:#F6EDFF;fill:color(display-p3 0.9655 0.9292 1.0000);fill-opacity:1;"/>
<path d="M111.064 136.301C106.925 94.5428 140.784 90.4046 155.456 90.4045C166.742 90.4045 196.838 97.9286 192.7 136.301" stroke="#A855F7" style="stroke:#A855F7;stroke:color(display-p3 0.6588 0.3333 0.9686);stroke-opacity:1;" stroke-width="4.51445" stroke-linecap="round"/>
<path d="M193.076 137.054C236.34 145.263 223.977 186.915 221.292 192.732C214.52 207.404 186.68 231.481 152.821 204.77" stroke="#A855F7" style="stroke:#A855F7;stroke:color(display-p3 0.6588 0.3333 0.9686);stroke-opacity:1;" stroke-width="4.51445" stroke-linecap="round"/>
<path d="M152.07 204.018C105.421 235.619 81.5583 197.622 78.334 187.089C72.6914 168.655 83.6012 140.063 111.064 137.054" stroke="#A855F7" style="stroke:#A855F7;stroke:color(display-p3 0.6588 0.3333 0.9686);stroke-opacity:1;" stroke-width="4.51445" stroke-linecap="round"/>
<circle cx="122.727" cy="155.488" r="11.6623" stroke="#A855F7" style="stroke:#A855F7;stroke:color(display-p3 0.6588 0.3333 0.9686);stroke-opacity:1;" stroke-width="3.76204"/>
<circle cx="179.909" cy="155.488" r="11.6623" stroke="#A855F7" style="stroke:#A855F7;stroke:color(display-p3 0.6588 0.3333 0.9686);stroke-opacity:1;" stroke-width="3.76204"/>
<path d="M134.765 155.487C144.17 144.577 161.852 147.587 167.495 155.487" stroke="#A855F7" style="stroke:#A855F7;stroke:color(display-p3 0.6588 0.3333 0.9686);stroke-opacity:1;" stroke-width="4.51445" stroke-linecap="round"/>
<path d="M155.456 166.774C150.566 171.664 144.923 167.526 144.546 166.774" stroke="#A855F7" style="stroke:#A855F7;stroke:color(display-p3 0.6588 0.3333 0.9686);stroke-opacity:1;" stroke-width="2.3253" stroke-linecap="round"/>
<circle cx="121.974" cy="160.002" r="4.51445" fill="#A855F7" style="fill:#A855F7;fill:color(display-p3 0.6588 0.3333 0.9686);fill-opacity:1;"/>
<circle cx="179.909" cy="159.25" r="4.51445" fill="#A855F7" style="fill:#A855F7;fill:color(display-p3 0.6588 0.3333 0.9686);fill-opacity:1;"/>
<path d="M135.518 111.472C137.022 124.639 151.037 122.364 155.08 118.62C165.238 109.215 153.952 102.819 149.061 106.581C137.75 115.281 156.585 126.52 164.861 119.748" stroke="#A855F7" style="stroke:#A855F7;stroke:color(display-p3 0.6588 0.3333 0.9686);stroke-opacity:1;" stroke-width="4.51445" stroke-linecap="round"/>
<path d="M111.783 215.771L113.283 240.074L105.482 243.675" stroke="#A855F7" style="stroke:#A855F7;stroke:color(display-p3 0.6588 0.3333 0.9686);stroke-opacity:1;" stroke-width="3.60047" stroke-linecap="round"/>
<path d="M183.717 218.096L182.217 242.4L190.018 246" stroke="#A855F7" style="stroke:#A855F7;stroke:color(display-p3 0.6588 0.3333 0.9686);stroke-opacity:1;" stroke-width="3.60047" stroke-linecap="round"/>
</svg>
