<svg width="446" height="446" viewBox="0 0 446 446" fill="none" xmlns="http://www.w3.org/2000/svg">
<path d="M173.371 314.396L177.13 375.302L157.581 384.325" stroke="#A855F7" style="stroke:#A855F7;stroke:color(display-p3 0.6588 0.3333 0.9686);stroke-opacity:1;" stroke-width="9.02302" stroke-linecap="round"/>
<path d="M283.151 315.148L279.391 376.054L298.941 385.077" stroke="#A855F7" style="stroke:#A855F7;stroke:color(display-p3 0.6588 0.3333 0.9686);stroke-opacity:1;" stroke-width="9.02302" stroke-linecap="round"/>
<path d="M253.826 233.941C253.826 279.621 216.795 316.652 171.115 316.652C125.435 316.652 88.4038 279.621 88.4038 233.941C88.4038 188.261 125.435 151.23 171.115 151.23C216.795 151.23 253.826 188.261 253.826 233.941Z" fill="#F6EDFF" style="fill:#F6EDFF;fill:color(display-p3 0.9655 0.9292 1.0000);fill-opacity:1;"/>
<path d="M378.644 233.941C378.644 279.621 341.613 316.652 295.933 316.652C250.253 316.652 213.222 279.621 213.222 233.941C213.222 188.261 250.253 151.23 295.933 151.23C341.613 151.23 378.644 188.261 378.644 233.941Z" fill="#F6EDFF" style="fill:#F6EDFF;fill:color(display-p3 0.9655 0.9292 1.0000);fill-opacity:1;"/>
<path d="M316.987 143.711C316.987 189.391 279.956 226.422 234.276 226.422C188.596 226.422 151.565 189.391 151.565 143.711C151.565 98.031 188.596 61 234.276 61C279.956 61 316.987 98.031 316.987 143.711Z" fill="#F6EDFF" style="fill:#F6EDFF;fill:color(display-p3 0.9655 0.9292 1.0000);fill-opacity:1;"/>
<path d="M152.318 153.486C144.046 70.0231 211.719 61.752 241.044 61.752C263.602 61.7519 323.755 76.7904 315.484 153.486" stroke="#A855F7" style="stroke:#A855F7;stroke:color(display-p3 0.6588 0.3333 0.9686);stroke-opacity:1;" stroke-width="9.02302" stroke-linecap="round"/>
<path d="M316.234 154.99C402.707 171.398 377.995 254.648 372.629 266.274C359.094 295.598 303.451 343.721 235.776 290.335" stroke="#A855F7" style="stroke:#A855F7;stroke:color(display-p3 0.6588 0.3333 0.9686);stroke-opacity:1;" stroke-width="9.02302" stroke-linecap="round"/>
<path d="M234.276 288.831C141.038 351.992 93.3431 276.049 86.8987 254.995C75.621 218.151 97.4263 161.005 152.316 154.99" stroke="#A855F7" style="stroke:#A855F7;stroke:color(display-p3 0.6588 0.3333 0.9686);stroke-opacity:1;" stroke-width="9.02302" stroke-linecap="round"/>
<circle cx="175.626" cy="191.834" r="23.3095" stroke="#A855F7" style="stroke:#A855F7;stroke:color(display-p3 0.6588 0.3333 0.9686);stroke-opacity:1;" stroke-width="7.51918"/>
<circle cx="289.918" cy="191.834" r="23.3095" stroke="#A855F7" style="stroke:#A855F7;stroke:color(display-p3 0.6588 0.3333 0.9686);stroke-opacity:1;" stroke-width="7.51918"/>
<path d="M199.688 191.833C218.486 170.028 253.826 176.043 265.105 191.834" stroke="#A855F7" style="stroke:#A855F7;stroke:color(display-p3 0.6588 0.3333 0.9686);stroke-opacity:1;" stroke-width="9.02302" stroke-linecap="round"/>
<path d="M195.176 234.105C205.868 225.342 216.276 234.684 216.876 236.255" stroke="#A855F7" style="stroke:#A855F7;stroke:color(display-p3 0.6588 0.3333 0.9686);stroke-opacity:1;" stroke-width="4.51151" stroke-linecap="round"/>
<path d="M274.879 143.875C285.571 135.112 295.979 144.454 296.579 146.025" stroke="#A855F7" style="stroke:#A855F7;stroke:color(display-p3 0.6588 0.3333 0.9686);stroke-opacity:1;" stroke-width="4.51151" stroke-linecap="round"/>
<circle cx="181.642" cy="191.834" r="9.02302" fill="#A855F7" style="fill:#A855F7;fill:color(display-p3 0.6588 0.3333 0.9686);fill-opacity:1;"/>
<circle cx="291.421" cy="188.826" r="9.02302" fill="#A855F7" style="fill:#A855F7;fill:color(display-p3 0.6588 0.3333 0.9686);fill-opacity:1;"/>
<path d="M201.191 103.859C204.199 130.176 232.21 125.629 240.291 118.146C260.593 99.3477 238.035 86.5653 228.26 94.0844C205.654 111.474 243.299 133.936 259.841 120.401" stroke="#A855F7" style="stroke:#A855F7;stroke:color(display-p3 0.6588 0.3333 0.9686);stroke-opacity:1;" stroke-width="9.02302" stroke-linecap="round"/>
<path d="M168.859 154.99L189.161 148.974" stroke="#A855F7" style="stroke:#A855F7;stroke:color(display-p3 0.6588 0.3333 0.9686);stroke-opacity:1;" stroke-width="4.51151" stroke-linecap="round"/>
<path d="M229.013 261.762C120.737 292.591 92.9155 233.941 87.6521 209.88" stroke="#A855F7" style="stroke:#A855F7;stroke:color(display-p3 0.6588 0.3333 0.9686);stroke-opacity:1;" stroke-width="9.02302" stroke-linecap="round"/>
<path d="M251.57 262.514C359.846 293.343 368.869 223.414 377.892 206.746" stroke="#A855F7" style="stroke:#A855F7;stroke:color(display-p3 0.6588 0.3333 0.9686);stroke-opacity:1;" stroke-width="9.02302" stroke-linecap="round"/>
<ellipse cx="233.524" cy="260.258" rx="6.76726" ry="11.2788" fill="#A855F7" style="fill:#A855F7;fill:color(display-p3 0.6588 0.3333 0.9686);fill-opacity:1;"/>
<ellipse cx="244.051" cy="260.258" rx="6.76726" ry="11.2788" fill="#A855F7" style="fill:#A855F7;fill:color(display-p3 0.6588 0.3333 0.9686);fill-opacity:1;"/>
</svg>
