<svg width="446" height="446" viewBox="0 0 446 446" fill="none" xmlns="http://www.w3.org/2000/svg">
<path d="M392.968 233.696C370.863 208.335 339.848 222.749 334.048 230.19" stroke="#A855F7" style="stroke:#A855F7;stroke:color(display-p3 0.6588 0.3333 0.9686);stroke-opacity:1;" stroke-width="8.38171" stroke-linecap="round"/>
<path d="M67.7439 219.997C34.2171 217.203 22.7845 289.844 25.3456 280.764" stroke="#A855F7" style="stroke:#A855F7;stroke:color(display-p3 0.6588 0.3333 0.9686);stroke-opacity:1;" stroke-width="8.38171" stroke-linecap="round"/>
<path d="M248.159 317.085L244.667 373.661L262.827 382.043" stroke="#A855F7" style="stroke:#A855F7;stroke:color(display-p3 0.6588 0.3333 0.9686);stroke-opacity:1;" stroke-width="8.38171" stroke-linecap="round"/>
<path d="M147.579 315.688L144.086 372.264L162.247 380.646" stroke="#A855F7" style="stroke:#A855F7;stroke:color(display-p3 0.6588 0.3333 0.9686);stroke-opacity:1;" stroke-width="8.38171" stroke-linecap="round"/>
<path d="M220.919 241.649C220.919 284.083 186.52 318.482 144.086 318.482C101.653 318.482 67.2542 284.083 67.2542 241.649C67.2542 199.216 101.653 164.817 144.086 164.817C186.52 164.817 220.919 199.216 220.919 241.649Z" fill="#F6EDFF" style="fill:#F6EDFF;fill:color(display-p3 0.9655 0.9292 1.0000);fill-opacity:1;"/>
<path d="M336.866 241.649C336.866 284.083 302.467 318.482 260.033 318.482C217.6 318.482 183.201 284.083 183.201 241.649C183.201 199.216 217.6 164.817 260.033 164.817C302.467 164.817 336.866 199.216 336.866 241.649Z" fill="#F6EDFF" style="fill:#F6EDFF;fill:color(display-p3 0.9655 0.9292 1.0000);fill-opacity:1;"/>
<path d="M279.591 157.832C279.591 200.266 245.192 234.665 202.758 234.665C160.325 234.665 125.926 200.266 125.926 157.832C125.926 115.399 160.325 81 202.758 81C245.192 81 279.591 115.399 279.591 157.832Z" fill="#F6EDFF" style="fill:#F6EDFF;fill:color(display-p3 0.9655 0.9292 1.0000);fill-opacity:1;"/>
<path d="M126.625 166.913C118.941 89.3818 181.804 81.6985 209.045 81.6985C229.999 81.6984 285.877 95.668 278.194 166.913" stroke="#A855F7" style="stroke:#A855F7;stroke:color(display-p3 0.6588 0.3333 0.9686);stroke-opacity:1;" stroke-width="8.38171" stroke-linecap="round"/>
<path d="M278.892 168.309C359.218 183.551 336.263 260.884 331.278 271.684C318.705 298.924 267.016 343.627 204.152 294.035" stroke="#A855F7" style="stroke:#A855F7;stroke:color(display-p3 0.6588 0.3333 0.9686);stroke-opacity:1;" stroke-width="8.38171" stroke-linecap="round"/>
<path d="M202.758 292.638C116.147 351.31 71.8425 280.764 65.8561 261.207C55.38 226.981 75.6355 173.897 126.624 168.31" stroke="#A855F7" style="stroke:#A855F7;stroke:color(display-p3 0.6588 0.3333 0.9686);stroke-opacity:1;" stroke-width="8.38171" stroke-linecap="round"/>
<circle cx="148.277" cy="202.535" r="8.38171" fill="#A855F7" style="fill:#A855F7;fill:color(display-p3 0.6588 0.3333 0.9686);fill-opacity:1;"/>
<circle cx="254.446" cy="202.535" r="8.38171" fill="#A855F7" style="fill:#A855F7;fill:color(display-p3 0.6588 0.3333 0.9686);fill-opacity:1;"/>
<circle cx="148.277" cy="202.535" r="21.6527" stroke="#A855F7" style="stroke:#A855F7;stroke:color(display-p3 0.6588 0.3333 0.9686);stroke-opacity:1;" stroke-width="6.98476"/>
<circle cx="254.446" cy="202.535" r="21.6527" stroke="#A855F7" style="stroke:#A855F7;stroke:color(display-p3 0.6588 0.3333 0.9686);stroke-opacity:1;" stroke-width="6.98476"/>
<path d="M170.628 202.535C188.09 182.279 220.919 187.867 231.396 202.535" stroke="#A855F7" style="stroke:#A855F7;stroke:color(display-p3 0.6588 0.3333 0.9686);stroke-opacity:1;" stroke-width="8.38171" stroke-linecap="round"/>
<path d="M188.789 227.853C197.869 218.773 208.346 226.456 209.045 227.853" stroke="#A855F7" style="stroke:#A855F7;stroke:color(display-p3 0.6588 0.3333 0.9686);stroke-opacity:1;" stroke-width="4.19085" stroke-linecap="round"/>
<path d="M170.628 120.813C173.422 145.26 199.442 141.035 206.949 134.084C225.808 116.622 204.854 104.748 195.774 111.733C174.774 127.886 209.743 148.752 225.11 136.18" stroke="#A855F7" style="stroke:#A855F7;stroke:color(display-p3 0.6588 0.3333 0.9686);stroke-opacity:1;" stroke-width="8.38171" stroke-linecap="round"/>
<path d="M414.468 245.279C416.476 268.315 396.159 258.269 405.113 245.84L414.468 245.279Z" fill="#F6EDFF" stroke="#A855F7" style="fill:#F6EDFF;fill:color(display-p3 0.9647 0.9294 1.0000);fill-opacity:1;stroke:#A855F7;stroke:color(display-p3 0.6588 0.3333 0.9686);stroke-opacity:1;" stroke-width="8.38171" stroke-linecap="round"/>
<path d="M421.381 236.76C425.572 220.695 396.935 213.711 393.442 233.966L396.236 236.76C403.221 242.115 418.029 249.612 421.381 236.76Z" fill="#F6EDFF" stroke="#A855F7" style="fill:#F6EDFF;fill:color(display-p3 0.9647 0.9294 1.0000);fill-opacity:1;stroke:#A855F7;stroke:color(display-p3 0.6588 0.3333 0.9686);stroke-opacity:1;" stroke-width="8.38171" stroke-linecap="round"/>
</svg>
