<svg width="446" height="446" viewBox="0 0 446 446" fill="none" xmlns="http://www.w3.org/2000/svg">
<path d="M95.0001 201.158C64.9735 211.947 67.0177 244.316 71.5926 252.006" stroke="#A855F7" style="stroke:#A855F7;stroke:color(display-p3 0.6588 0.3333 0.9686);stroke-opacity:1;" stroke-width="7.94896" stroke-linecap="round"/>
<path d="M353.605 203.666C381.704 218.781 374.89 250.492 369.227 257.419" stroke="#A855F7" style="stroke:#A855F7;stroke:color(display-p3 0.6588 0.3333 0.9686);stroke-opacity:1;" stroke-width="7.94896" stroke-linecap="round"/>
<path d="M169.297 293.233L172.609 346.889L155.387 354.838" stroke="#A855F7" style="stroke:#A855F7;stroke:color(display-p3 0.6588 0.3333 0.9686);stroke-opacity:1;" stroke-width="7.94896" stroke-linecap="round"/>
<path d="M266.01 293.896L262.698 347.551L279.92 355.5" stroke="#A855F7" style="stroke:#A855F7;stroke:color(display-p3 0.6588 0.3333 0.9686);stroke-opacity:1;" stroke-width="7.94896" stroke-linecap="round"/>
<path d="M240.176 222.355C240.176 262.597 207.553 295.22 167.31 295.22C127.068 295.22 94.4448 262.597 94.4448 222.355C94.4448 182.113 127.068 149.49 167.31 149.49C207.553 149.49 240.176 182.113 240.176 222.355Z" fill="#F6EDFF" style="fill:#F6EDFF;fill:color(display-p3 0.9655 0.9292 1.0000);fill-opacity:1;"/>
<path d="M350.136 222.355C350.136 262.597 317.513 295.22 277.271 295.22C237.028 295.22 204.405 262.597 204.405 222.355C204.405 182.113 237.028 149.49 277.271 149.49C317.513 149.49 350.136 182.113 350.136 222.355Z" fill="#F6EDFF" style="fill:#F6EDFF;fill:color(display-p3 0.9655 0.9292 1.0000);fill-opacity:1;"/>
<path d="M295.818 142.865C295.818 183.108 263.195 215.731 222.953 215.731C182.71 215.731 150.088 183.108 150.088 142.865C150.088 102.623 182.71 70 222.953 70C263.195 70 295.818 102.623 295.818 142.865Z" fill="#F6EDFF" style="fill:#F6EDFF;fill:color(display-p3 0.9655 0.9292 1.0000);fill-opacity:1;"/>
<path d="M150.751 151.477C143.464 77.9489 203.081 70.6624 228.916 70.6624C248.788 70.6623 301.781 83.9107 294.494 151.477" stroke="#A855F7" style="stroke:#A855F7;stroke:color(display-p3 0.6588 0.3333 0.9686);stroke-opacity:1;" stroke-width="7.94896" stroke-linecap="round"/>
<path d="M295.155 152.802C371.334 167.256 349.565 240.597 344.837 250.839C332.913 276.673 283.893 319.067 224.275 272.036" stroke="#A855F7" style="stroke:#A855F7;stroke:color(display-p3 0.6588 0.3333 0.9686);stroke-opacity:1;" stroke-width="7.94896" stroke-linecap="round"/>
<path d="M222.953 270.711C140.814 326.354 98.7962 259.45 93.119 240.903C83.1837 208.444 102.393 158.101 150.749 152.802" stroke="#A855F7" style="stroke:#A855F7;stroke:color(display-p3 0.6588 0.3333 0.9686);stroke-opacity:1;" stroke-width="7.94896" stroke-linecap="round"/>
<circle cx="171.285" cy="185.26" r="20.5348" stroke="#A855F7" style="stroke:#A855F7;stroke:color(display-p3 0.6588 0.3333 0.9686);stroke-opacity:1;" stroke-width="6.62413"/>
<circle cx="271.971" cy="185.26" r="20.5348" stroke="#A855F7" style="stroke:#A855F7;stroke:color(display-p3 0.6588 0.3333 0.9686);stroke-opacity:1;" stroke-width="6.62413"/>
<path d="M192.482 185.26C209.042 166.05 240.176 171.349 250.112 185.26" stroke="#A855F7" style="stroke:#A855F7;stroke:color(display-p3 0.6588 0.3333 0.9686);stroke-opacity:1;" stroke-width="7.94896" stroke-linecap="round"/>
<path d="M228.915 205.132C220.303 213.743 210.367 206.457 209.705 205.132" stroke="#A855F7" style="stroke:#A855F7;stroke:color(display-p3 0.6588 0.3333 0.9686);stroke-opacity:1;" stroke-width="3.97448" stroke-linecap="round"/>
<circle cx="169.96" cy="193.209" r="7.94896" fill="#A855F7" style="fill:#A855F7;fill:color(display-p3 0.6588 0.3333 0.9686);fill-opacity:1;"/>
<circle cx="271.971" cy="191.884" r="7.94896" fill="#A855F7" style="fill:#A855F7;fill:color(display-p3 0.6588 0.3333 0.9686);fill-opacity:1;"/>
<path d="M193.807 107.757C196.456 130.942 221.132 126.936 228.252 120.343C246.137 103.783 226.265 92.5219 217.654 99.146C197.738 114.465 230.902 134.254 245.475 122.33" stroke="#A855F7" style="stroke:#A855F7;stroke:color(display-p3 0.6588 0.3333 0.9686);stroke-opacity:1;" stroke-width="7.94896" stroke-linecap="round"/>
</svg>
