<svg width="446" height="446" viewBox="0 0 446 446" fill="none" xmlns="http://www.w3.org/2000/svg">
<path d="M148.406 305.879L151.817 361.132L134.082 369.318" stroke="#A855F7" style="stroke:#A855F7;stroke:color(display-p3 0.6588 0.3333 0.9686);stroke-opacity:1;" stroke-width="8.18561" stroke-linecap="round"/>
<path d="M247.998 306.562L244.588 361.814L262.323 370" stroke="#A855F7" style="stroke:#A855F7;stroke:color(display-p3 0.6588 0.3333 0.9686);stroke-opacity:1;" stroke-width="8.18561" stroke-linecap="round"/>
<path d="M221.395 232.891C221.395 274.331 187.801 307.926 146.36 307.926C104.919 307.926 71.3252 274.331 71.3252 232.891C71.3252 191.45 104.919 157.856 146.36 157.856C187.801 157.856 221.395 191.45 221.395 232.891Z" fill="#F6EDFF" style="fill:#F6EDFF;fill:color(display-p3 0.9655 0.9292 1.0000);fill-opacity:1;"/>
<path d="M334.629 232.891C334.629 274.331 301.035 307.926 259.594 307.926C218.154 307.926 184.56 274.331 184.56 232.891C184.56 191.45 218.154 157.856 259.594 157.856C301.035 157.856 334.629 191.45 334.629 232.891Z" fill="#F6EDFF" style="fill:#F6EDFF;fill:color(display-p3 0.9655 0.9292 1.0000);fill-opacity:1;"/>
<path d="M278.694 151.035C278.694 192.475 245.1 226.07 203.659 226.07C162.219 226.07 128.624 192.475 128.624 151.035C128.624 109.594 162.219 76 203.659 76C245.1 76 278.694 109.594 278.694 151.035Z" fill="#F6EDFF" style="fill:#F6EDFF;fill:color(display-p3 0.9655 0.9292 1.0000);fill-opacity:1;"/>
<path d="M129.307 159.903C121.803 84.1856 183.195 76.6822 209.798 76.6821C230.262 76.6821 284.833 90.3249 277.33 159.903" stroke="#A855F7" style="stroke:#A855F7;stroke:color(display-p3 0.6588 0.3333 0.9686);stroke-opacity:1;" stroke-width="8.18561" stroke-linecap="round"/>
<path d="M278.01 161.267C356.457 176.152 334.039 251.675 329.171 262.223C316.892 288.826 266.413 332.482 205.019 284.051" stroke="#A855F7" style="stroke:#A855F7;stroke:color(display-p3 0.6588 0.3333 0.9686);stroke-opacity:1;" stroke-width="8.18561" stroke-linecap="round"/>
<path d="M203.659 282.687C119.074 339.986 75.8055 271.091 69.9592 251.991C59.7281 218.566 79.5098 166.724 129.305 161.267" stroke="#A855F7" style="stroke:#A855F7;stroke:color(display-p3 0.6588 0.3333 0.9686);stroke-opacity:1;" stroke-width="8.18561" stroke-linecap="round"/>
<circle cx="154.427" cy="196.056" r="21.1462" fill="#A855F7" stroke="#A855F7" style="fill:#A855F7;fill:color(display-p3 0.6588 0.3333 0.9686);fill-opacity:1;stroke:#A855F7;stroke:color(display-p3 0.6588 0.3333 0.9686);stroke-opacity:1;" stroke-width="6.82135"/>
<circle cx="258.112" cy="196.056" r="21.1462" fill="#A855F7" stroke="#A855F7" style="fill:#A855F7;fill:color(display-p3 0.6588 0.3333 0.9686);fill-opacity:1;stroke:#A855F7;stroke:color(display-p3 0.6588 0.3333 0.9686);stroke-opacity:1;" stroke-width="6.82135"/>
<path d="M176.255 196.056C193.308 176.274 225.369 181.731 235.601 196.056" stroke="#A855F7" style="stroke:#A855F7;stroke:color(display-p3 0.6588 0.3333 0.9686);stroke-opacity:1;" stroke-width="8.18561" stroke-linecap="round"/>
<path d="M209.655 229.182C200.198 237.418 190.507 229.228 189.92 227.82" stroke="#A855F7" style="stroke:#A855F7;stroke:color(display-p3 0.6588 0.3333 0.9686);stroke-opacity:1;" stroke-width="4.09281" stroke-linecap="round"/>
<path d="M189.971 228.579C189.494 250.919 209.008 245.15 210.197 229.491" stroke="#A855F7" style="stroke:#A855F7;stroke:color(display-p3 0.6588 0.3333 0.9686);stroke-opacity:1;" stroke-width="4.09281" stroke-linecap="round"/>
<path d="M136.758 171.749C141.794 160.263 154.055 163.532 155.186 164.555" stroke="#A855F7" style="stroke:#A855F7;stroke:color(display-p3 0.6588 0.3333 0.9686);stroke-opacity:1;" stroke-width="4.09281" stroke-linecap="round"/>
<path d="M265.868 153.846C256.581 162.273 246.725 154.283 246.11 152.887" stroke="#A855F7" style="stroke:#A855F7;stroke:color(display-p3 0.6588 0.3333 0.9686);stroke-opacity:1;" stroke-width="4.09281" stroke-linecap="round"/>
<path d="M173.645 114.882C176.374 138.756 201.784 134.631 209.116 127.842C227.534 110.789 207.07 99.1927 198.202 106.014C177.694 121.789 211.845 142.167 226.852 129.889" stroke="#A855F7" style="stroke:#A855F7;stroke:color(display-p3 0.6588 0.3333 0.9686);stroke-opacity:1;" stroke-width="8.18561" stroke-linecap="round"/>
<path d="M174.891 254.719C97.1276 303.833 75.4169 232.891 70.6419 211.063" stroke="#A855F7" style="stroke:#A855F7;stroke:color(display-p3 0.6588 0.3333 0.9686);stroke-opacity:1;" stroke-width="8.18561" stroke-linecap="round"/>
<path d="M365.207 125.796C404.088 208.22 350.882 236.984 333.947 208.22" stroke="#A855F7" style="stroke:#A855F7;stroke:color(display-p3 0.6588 0.3333 0.9686);stroke-opacity:1;" stroke-width="8.18561" stroke-linecap="round"/>
</svg>
