<svg width="446" height="446" viewBox="0 0 446 446" fill="none" xmlns="http://www.w3.org/2000/svg">
<path d="M161.999 313.209L165.712 373.348L146.408 382.258" stroke="#A855F7" style="stroke:#A855F7;stroke:color(display-p3 0.6588 0.3333 0.9686);stroke-opacity:1;" stroke-width="8.90952" stroke-linecap="round"/>
<path d="M270.399 313.951L266.687 374.09L285.991 383" stroke="#A855F7" style="stroke:#A855F7;stroke:color(display-p3 0.6588 0.3333 0.9686);stroke-opacity:1;" stroke-width="8.90952" stroke-linecap="round"/>
<path d="M241.443 233.766C241.443 278.871 204.878 315.436 159.772 315.436C114.667 315.436 78.1016 278.871 78.1016 233.766C78.1016 188.66 114.667 152.095 159.772 152.095C204.878 152.095 241.443 188.66 241.443 233.766Z" fill="#F6EDFF" style="fill:#F6EDFF;fill:color(display-p3 0.9655 0.9292 1.0000);fill-opacity:1;"/>
<path d="M364.691 233.766C364.691 278.871 328.126 315.436 283.021 315.436C237.915 315.436 201.35 278.871 201.35 233.766C201.35 188.66 237.915 152.095 283.021 152.095C328.126 152.095 364.691 188.66 364.691 233.766Z" fill="#F6EDFF" style="fill:#F6EDFF;fill:color(display-p3 0.9655 0.9292 1.0000);fill-opacity:1;"/>
<path d="M303.809 144.671C303.809 189.776 267.244 226.341 222.139 226.341C177.033 226.341 140.468 189.776 140.468 144.671C140.468 99.5652 177.033 63 222.139 63C267.244 63 303.809 99.5652 303.809 144.671Z" fill="#F6EDFF" style="fill:#F6EDFF;fill:color(display-p3 0.9655 0.9292 1.0000);fill-opacity:1;"/>
<path d="M141.212 154.322C133.044 71.9093 199.866 63.7422 228.822 63.7422C251.095 63.7421 310.492 78.5914 302.325 154.322" stroke="#A855F7" style="stroke:#A855F7;stroke:color(display-p3 0.6588 0.3333 0.9686);stroke-opacity:1;" stroke-width="8.90952" stroke-linecap="round"/>
<path d="M303.066 155.807C388.451 172.009 364.05 254.212 358.752 265.691C345.387 294.647 290.443 342.165 223.62 289.45" stroke="#A855F7" style="stroke:#A855F7;stroke:color(display-p3 0.6588 0.3333 0.9686);stroke-opacity:1;" stroke-width="8.90952" stroke-linecap="round"/>
<path d="M222.139 287.966C130.074 350.332 82.9788 275.344 76.6154 254.555C65.4796 218.174 87.0107 161.747 141.21 155.808" stroke="#A855F7" style="stroke:#A855F7;stroke:color(display-p3 0.6588 0.3333 0.9686);stroke-opacity:1;" stroke-width="8.90952" stroke-linecap="round"/>
<circle cx="164.227" cy="192.188" r="23.0163" stroke="#A855F7" style="stroke:#A855F7;stroke:color(display-p3 0.6588 0.3333 0.9686);stroke-opacity:1;" stroke-width="7.4246"/>
<circle cx="277.081" cy="192.188" r="23.0163" stroke="#A855F7" style="stroke:#A855F7;stroke:color(display-p3 0.6588 0.3333 0.9686);stroke-opacity:1;" stroke-width="7.4246"/>
<path d="M187.986 192.188C206.547 170.657 241.443 176.596 252.58 192.188" stroke="#A855F7" style="stroke:#A855F7;stroke:color(display-p3 0.6588 0.3333 0.9686);stroke-opacity:1;" stroke-width="8.90952" stroke-linecap="round"/>
<path d="M183.531 233.928C194.088 225.275 204.365 234.5 204.957 236.051" stroke="#A855F7" style="stroke:#A855F7;stroke:color(display-p3 0.6588 0.3333 0.9686);stroke-opacity:1;" stroke-width="4.45476" stroke-linecap="round"/>
<circle cx="161.41" cy="198.128" r="8.90952" fill="#A855F7" style="fill:#A855F7;fill:color(display-p3 0.6588 0.3333 0.9686);fill-opacity:1;"/>
<circle cx="278.718" cy="198.128" r="8.90952" fill="#A855F7" style="fill:#A855F7;fill:color(display-p3 0.6588 0.3333 0.9686);fill-opacity:1;"/>
<path d="M189.471 105.32C192.441 131.307 220.099 126.816 228.079 119.427C248.125 100.866 225.851 88.2439 216.199 95.6684C193.877 112.839 231.048 135.019 247.383 121.654" stroke="#A855F7" style="stroke:#A855F7;stroke:color(display-p3 0.6588 0.3333 0.9686);stroke-opacity:1;" stroke-width="8.90952" stroke-linecap="round"/>
<path d="M158.603 147.462L176.534 158.213" stroke="#A855F7" style="stroke:#A855F7;stroke:color(display-p3 0.6588 0.3333 0.9686);stroke-opacity:1;" stroke-width="4.45476" stroke-linecap="round"/>
<path d="M275.905 147.641L257.87 158.219" stroke="#A855F7" style="stroke:#A855F7;stroke:color(display-p3 0.6588 0.3333 0.9686);stroke-opacity:1;" stroke-width="4.45476" stroke-linecap="round"/>
<path d="M94.5874 287.223C-12.3266 317.664 82.5548 233.766 77.3576 210.007" stroke="#A855F7" style="stroke:#A855F7;stroke:color(display-p3 0.6588 0.3333 0.9686);stroke-opacity:1;" stroke-width="8.90952" stroke-linecap="round"/>
<path d="M357.419 271.631C464.333 302.072 355.039 223.371 363.948 206.913" stroke="#A855F7" style="stroke:#A855F7;stroke:color(display-p3 0.6588 0.3333 0.9686);stroke-opacity:1;" stroke-width="8.90952" stroke-linecap="round"/>
</svg>
