<svg width="446" height="446" viewBox="0 0 446 446" fill="none" xmlns="http://www.w3.org/2000/svg">
<g clip-path="url(#clip0_71_2112)">
<path d="M204.695 226.264C225.63 230.044 229.749 274.496 232.512 262.318" stroke="#A855F7" style="stroke:#A855F7;stroke:color(display-p3 0.6588 0.3333 0.9686);stroke-opacity:1;" stroke-width="5.30007" stroke-linecap="round"/>
<path d="M80.4758 286.701L78.2675 322.476L89.751 327.776" stroke="#A855F7" style="stroke:#A855F7;stroke:color(display-p3 0.6588 0.3333 0.9686);stroke-opacity:1;" stroke-width="5.30007" stroke-linecap="round"/>
<path d="M152.028 287.142L149.819 322.918L161.303 328.218" stroke="#A855F7" style="stroke:#A855F7;stroke:color(display-p3 0.6588 0.3333 0.9686);stroke-opacity:1;" stroke-width="5.30007" stroke-linecap="round"/>
<path d="M134.802 239.442C134.802 266.274 113.05 288.026 86.2178 288.026C59.3856 288.026 37.6338 266.274 37.6338 239.442C37.6338 212.609 59.3856 190.858 86.2178 190.858C113.05 190.858 134.802 212.609 134.802 239.442Z" fill="#F6EDFF" style="fill:#F6EDFF;fill:color(display-p3 0.9655 0.9292 1.0000);fill-opacity:1;"/>
<path d="M208.119 239.442C208.119 266.274 186.368 288.026 159.535 288.026C132.703 288.026 110.951 266.274 110.951 239.442C110.951 212.609 132.703 190.858 159.535 190.858C186.368 190.858 208.119 212.609 208.119 239.442Z" fill="#F6EDFF" style="fill:#F6EDFF;fill:color(display-p3 0.9655 0.9292 1.0000);fill-opacity:1;"/>
<path d="M171.902 186.441C171.902 213.273 150.151 235.025 123.318 235.025C96.4861 235.025 74.7343 213.273 74.7343 186.441C74.7343 159.609 96.4861 137.857 123.318 137.857C150.151 137.857 171.902 159.609 171.902 186.441Z" fill="#F6EDFF" style="fill:#F6EDFF;fill:color(display-p3 0.9655 0.9292 1.0000);fill-opacity:1;"/>
<path d="M75.177 192.182C70.3184 143.157 110.069 138.298 127.294 138.298C140.544 138.298 175.878 147.132 171.02 192.182" stroke="#A855F7" style="stroke:#A855F7;stroke:color(display-p3 0.6588 0.3333 0.9686);stroke-opacity:1;" stroke-width="5.30007" stroke-linecap="round"/>
<path d="M171.46 193.066C222.253 202.704 207.738 251.605 204.586 258.434C196.636 275.659 163.951 303.926 124.199 272.568" stroke="#A855F7" style="stroke:#A855F7;stroke:color(display-p3 0.6588 0.3333 0.9686);stroke-opacity:1;" stroke-width="5.30007" stroke-linecap="round"/>
<path d="M123.318 271.684C68.5502 308.784 40.5345 264.175 36.7491 251.809C30.1246 230.167 42.933 196.599 75.1747 193.066" stroke="#A855F7" style="stroke:#A855F7;stroke:color(display-p3 0.6588 0.3333 0.9686);stroke-opacity:1;" stroke-width="5.30007" stroke-linecap="round"/>
<circle cx="88.868" cy="214.708" r="13.6919" stroke="#A855F7" style="stroke:#A855F7;stroke:color(display-p3 0.6588 0.3333 0.9686);stroke-opacity:1;" stroke-width="4.41673"/>
<circle cx="156.001" cy="214.708" r="13.6919" stroke="#A855F7" style="stroke:#A855F7;stroke:color(display-p3 0.6588 0.3333 0.9686);stroke-opacity:1;" stroke-width="4.41673"/>
<path d="M103.002 214.708C114.044 201.899 134.802 205.433 141.427 214.708" stroke="#A855F7" style="stroke:#A855F7;stroke:color(display-p3 0.6588 0.3333 0.9686);stroke-opacity:1;" stroke-width="5.30007" stroke-linecap="round"/>
<circle cx="89.6254" cy="216.215" r="6.59886" transform="rotate(-18.3033 89.6254 216.215)" fill="#A855F7" style="fill:#A855F7;fill:color(display-p3 0.6588 0.3333 0.9686);fill-opacity:1;"/>
<circle cx="156.713" cy="216.215" r="6.59886" transform="rotate(-18.3033 156.713 216.215)" fill="#A855F7" style="fill:#A855F7;fill:color(display-p3 0.6588 0.3333 0.9686);fill-opacity:1;"/>
<path d="M82.3877 211.177H96.6852" stroke="#A855F7" style="stroke:#A855F7;stroke:color(display-p3 0.6588 0.3333 0.9686);stroke-opacity:1;" stroke-width="4.39924" stroke-linecap="round" stroke-linejoin="round"/>
<path d="M149.477 210.077H163.774" stroke="#A855F7" style="stroke:#A855F7;stroke:color(display-p3 0.6588 0.3333 0.9686);stroke-opacity:1;" stroke-width="4.39924" stroke-linecap="round" stroke-linejoin="round"/>
<path d="M35.3377 223.848C-20.9941 281.565 108.783 268.917 135.179 252.42" stroke="#A855F7" style="stroke:#A855F7;stroke:color(display-p3 0.6588 0.3333 0.9686);stroke-opacity:1;" stroke-width="5.30007" stroke-linecap="round"/>
<path d="M116.908 153.714C107.887 166.391 121.909 175.405 128.377 175.309C144.628 175.071 139.794 160.628 132.571 160.074C115.867 158.793 123.491 183.388 136.032 183.972" stroke="#A855F7" style="stroke:#A855F7;stroke:color(display-p3 0.6588 0.3333 0.9686);stroke-opacity:1;" stroke-width="5.30007" stroke-linecap="round"/>
<path d="M114.269 234.602C120.136 240.469 126.907 235.504 127.358 234.602" stroke="#A855F7" style="stroke:#A855F7;stroke:color(display-p3 0.6588 0.3333 0.9686);stroke-opacity:1;" stroke-width="2.70816" stroke-linecap="round"/>
<g clip-path="url(#clip1_71_2112)">
<path d="M191.559 274.772C180.069 274.498 171.315 272.857 171.315 270.668C171.315 270.121 171.863 269.711 172.683 269.3C172.683 269.3 175.692 268.069 177.881 268.069H178.155C178.018 265.471 178.018 262.598 178.291 259.862C179.249 248.646 183.079 237.84 185.131 237.84C187.182 237.84 190.875 248.099 191.97 259.726C192.243 262.461 192.243 265.197 192.243 267.933C192.243 268.89 192.107 269.711 192.107 270.668L191.833 274.498V274.772H191.559ZM217.822 270.668C217.822 272.72 209.068 274.498 197.578 274.772V274.498L197.167 270.668C197.031 269.848 197.031 268.89 197.031 267.933C196.894 265.197 197.031 262.461 197.304 259.726C198.398 248.099 201.955 237.84 204.143 237.84C206.332 237.84 210.025 248.646 210.983 259.862C211.256 262.598 211.256 265.471 211.119 268.069H211.393C214.265 268.069 216.454 269.3 216.454 269.3C217.275 269.711 217.822 270.121 217.822 270.668Z" fill="#ECF4F7" style="fill:#ECF4F7;fill:color(display-p3 0.9255 0.9569 0.9686);fill-opacity:1;"/>
<path d="M191.833 259.726H197.304C197.03 262.462 197.03 265.197 197.03 267.933H196.62H192.243H191.833C192.106 265.197 191.97 262.462 191.833 259.726ZM217.822 289.955V311.704C217.822 311.704 211.803 317.175 194.568 317.175C177.607 317.175 171.315 311.704 171.315 311.704V289.818C171.315 289.818 178.154 295.29 194.568 295.29C202.776 295.29 211.119 293.785 217.822 289.955ZM178.155 259.863C177.881 262.599 177.881 265.471 178.018 268.07H177.744C175.692 268.07 172.546 269.301 172.546 269.301C171.726 269.711 171.179 270.258 171.179 270.669C171.179 272.72 180.07 274.498 191.422 274.772C192.38 274.772 193.337 274.772 194.432 274.772C195.526 274.772 196.483 274.772 197.578 274.772C208.931 274.498 217.822 272.857 217.822 270.669C217.822 270.122 217.274 269.711 216.317 269.301C216.317 269.301 214.128 268.07 211.256 268.07H210.982C211.119 265.334 211.119 262.599 210.846 259.863H211.119C213.445 259.863 216.317 260.547 216.317 260.547C226.986 262.735 234.099 266.565 234.099 270.806C234.099 274.909 227.533 278.602 217.548 280.791C210.982 282.295 203.049 283.116 194.432 283.116C185.814 283.116 177.881 282.295 171.315 280.791C161.193 278.602 154.765 274.909 154.765 270.806C154.765 266.565 161.877 262.735 172.546 260.547C172.546 260.547 174.735 259.863 177.744 259.863H178.155Z" fill="#A855F7" style="fill:#A855F7;fill:color(display-p3 0.6588 0.3333 0.9686);fill-opacity:1;"/>
<path d="M197.303 270.669L197.714 274.499V274.772C196.756 274.772 195.662 274.772 194.568 274.772C193.61 274.772 192.516 274.772 191.559 274.772V274.499L191.832 270.669C191.969 269.848 191.969 268.891 191.969 267.933H192.379H196.756H197.167C197.167 268.891 197.167 269.848 197.303 270.669Z" fill="#AAB1BA" style="fill:#AAB1BA;fill:color(display-p3 0.6667 0.6941 0.7294);fill-opacity:1;"/>
<path d="M217.822 281.612V289.955C211.119 293.785 202.776 295.29 194.569 295.29C178.155 295.29 171.315 289.819 171.315 289.819V281.612L171.452 280.654C178.018 282.159 185.951 282.98 194.568 282.98C203.186 282.98 211.119 282.159 217.685 280.654L217.822 281.612Z" fill="#C991FF" style="fill:#C991FF;fill:color(display-p3 0.7899 0.5692 1.0000);fill-opacity:1;"/>
<path d="M175.419 247.415C176.174 247.415 176.786 246.803 176.786 246.047C176.786 245.292 176.174 244.68 175.419 244.68C174.663 244.68 174.051 245.292 174.051 246.047C174.051 246.803 174.663 247.415 175.419 247.415Z" fill="#FFD0A1" style="fill:#FFD0A1;fill:color(display-p3 1.0000 0.8157 0.6314);fill-opacity:1;"/>
<path d="M194.569 239.208C195.324 239.208 195.937 238.596 195.937 237.84C195.937 237.085 195.324 236.473 194.569 236.473C193.814 236.473 193.201 237.085 193.201 237.84C193.201 238.596 193.814 239.208 194.569 239.208Z" fill="#7EE1E6" style="fill:#7EE1E6;fill:color(display-p3 0.4941 0.8824 0.9020);fill-opacity:1;"/>
<path d="M221.925 251.519C222.681 251.519 223.293 250.906 223.293 250.151C223.293 249.396 222.681 248.783 221.925 248.783C221.17 248.783 220.558 249.396 220.558 250.151C220.558 250.906 221.17 251.519 221.925 251.519Z" fill="#C49AE9" style="fill:#C49AE9;fill:color(display-p3 0.7686 0.6039 0.9137);fill-opacity:1;"/>
<path d="M194.568 317.859C177.47 317.859 171.178 312.388 170.904 312.251C170.768 312.114 170.631 311.977 170.631 311.704V285.715C170.631 285.305 170.904 285.031 171.315 285.031C171.725 285.031 171.999 285.305 171.999 285.715V289.408C173.366 290.365 180.342 294.606 194.568 294.606C202.912 294.606 208.793 293.101 212.076 291.87C212.487 291.733 212.76 291.87 212.897 292.28C213.034 292.691 212.897 292.964 212.487 293.101C209.067 294.332 203.049 295.837 194.431 295.837C181.437 295.837 174.461 292.554 171.862 290.913V311.157C173.093 312.114 179.659 316.217 194.431 316.217C209.341 316.217 215.769 311.977 217 311.157V285.715C217 285.305 217.274 285.031 217.684 285.031C218.095 285.031 218.368 285.305 218.368 285.715V311.704C218.368 311.84 218.232 312.114 218.095 312.251C217.958 312.388 211.803 317.859 194.568 317.859ZM194.568 283.663C171.999 283.663 154.217 277.918 154.217 270.669C154.217 266.155 160.919 262.188 172.546 259.726C172.956 259.589 173.23 259.863 173.367 260.273C173.503 260.683 173.23 260.957 172.82 261.094C162.15 263.282 155.585 266.975 155.585 270.669C155.585 276.277 171.315 282.295 194.568 282.295C217.821 282.295 233.551 276.277 233.551 270.669C233.551 266.975 226.986 263.282 216.317 261.094C215.906 260.957 215.77 260.683 215.77 260.273C215.906 259.863 216.18 259.726 216.59 259.726C228.217 262.188 234.919 266.155 234.919 270.669C234.919 277.918 217.137 283.663 194.568 283.663ZM194.568 275.456C186.224 275.456 170.631 274.499 170.631 270.669C170.631 269.848 171.178 269.301 172.409 268.617C172.683 268.48 173.093 268.617 173.366 268.891C173.503 269.164 173.366 269.575 173.093 269.848C172.272 270.258 172.135 270.532 172.135 270.669C172.135 271.763 180.069 274.088 194.705 274.088C209.341 274.088 217.274 271.763 217.274 270.669C217.274 270.669 217.274 270.395 216.18 269.848C215.906 269.711 215.632 269.301 215.906 268.891C216.18 268.48 216.453 268.344 216.863 268.617C217.274 268.891 218.641 269.438 218.641 270.669C218.505 274.499 202.912 275.456 194.568 275.456ZM197.303 271.353C196.893 271.353 196.62 271.079 196.62 270.669C195.388 256.717 199.766 240.987 202.638 237.841C203.595 236.746 204.553 236.746 205.51 237.841C208.657 241.397 212.76 257.127 211.529 269.301C211.529 269.711 211.119 269.985 210.845 269.848C210.435 269.848 210.161 269.438 210.298 269.164C211.666 254.939 206.058 238.661 204.143 238.388C202.228 238.661 196.62 255.212 197.987 270.532C197.987 270.942 197.714 271.353 197.303 271.353ZM191.832 271.353C191.422 271.353 191.148 270.942 191.148 270.669C192.516 255.349 186.908 238.798 184.993 238.525C183.078 238.798 177.47 254.939 178.838 269.301C178.838 269.711 178.564 269.985 178.291 269.985C177.88 269.985 177.607 269.711 177.607 269.438C176.376 257.401 180.479 241.534 183.625 237.978C184.583 236.883 185.54 236.883 186.498 237.978C189.37 241.124 193.884 256.854 192.516 270.806C192.516 271.079 192.243 271.353 191.832 271.353ZM204.143 270.669C203.732 270.669 203.459 270.395 203.459 269.985V251.519C203.459 251.109 203.732 250.835 204.143 250.835C204.553 250.835 204.827 251.109 204.827 251.519V269.985C204.827 270.395 204.553 270.669 204.143 270.669ZM184.993 270.669C184.583 270.669 184.309 270.395 184.309 269.985V251.519C184.309 251.109 184.583 250.835 184.993 250.835C185.403 250.835 185.677 251.109 185.677 251.519V269.985C185.677 270.395 185.403 270.669 184.993 270.669ZM223.292 241.26C222.882 241.26 222.608 240.987 222.608 240.576V239.893H221.924C221.514 239.893 221.24 239.619 221.24 239.209C221.24 238.798 221.514 238.525 221.924 238.525H222.608V237.841C222.608 237.43 222.882 237.157 223.292 237.157C223.703 237.157 223.976 237.43 223.976 237.841V238.525H224.66C225.071 238.525 225.344 238.798 225.344 239.209C225.344 239.619 225.071 239.893 224.66 239.893H223.976V240.576C223.976 240.987 223.703 241.26 223.292 241.26Z" fill="#643ABA" style="fill:#643ABA;fill:color(display-p3 0.3922 0.2275 0.7294);fill-opacity:1;"/>
</g>
<path d="M120.103 260.493L146.585 240.052L152.708 238.225L149.389 243.684L122.906 264.125C121.903 264.899 120.463 264.713 119.689 263.71C118.915 262.707 119.1 261.267 120.103 260.493Z" fill="#47423F" style="fill:#47423F;fill:color(display-p3 0.2784 0.2588 0.2471);fill-opacity:1;"/>
<path d="M151.304 236.411C152.307 235.637 153.747 235.823 154.521 236.825C155.295 237.828 155.11 239.269 154.107 240.043L149.389 243.684L146.586 240.052L151.304 236.411Z" fill="#D5D2BD" style="fill:#D5D2BD;fill:color(display-p3 0.8353 0.8235 0.7412);fill-opacity:1;"/>
<path d="M135.939 249.039L134.881 254.09L131.793 251.525C130.343 252.394 128.46 251.754 127.84 250.181C127.35 248.936 127.832 247.52 128.979 246.833L133.125 244.347C134.575 243.478 136.458 244.118 137.078 245.691C137.567 246.935 137.085 248.351 135.939 249.039Z" fill="#BB74FF" style="fill:#BB74FF;fill:color(display-p3 0.7334 0.4533 1.0000);fill-opacity:1;"/>
<path d="M128.517 258.89C129.638 261.739 132.857 263.14 135.706 262.018L137.694 261.236C141.64 259.682 143.581 255.223 142.027 251.277C141.046 248.783 138.059 247.767 135.761 249.145L130.824 252.105C128.5 253.499 127.524 256.369 128.517 258.89Z" fill="#A855F7" style="fill:#A855F7;fill:color(display-p3 0.6588 0.3333 0.9686);fill-opacity:1;"/>
<path d="M159.64 157.828V116.597C159.64 112.082 155.98 108.422 151.465 108.422H102.417C97.9019 108.422 94.2422 112.082 94.2422 116.597V144.495C109.812 153.441 127.86 158.56 147.105 158.56C151.346 158.56 155.529 158.311 159.64 157.828Z" fill="#47423F" style="fill:#47423F;fill:color(display-p3 0.2784 0.2588 0.2471);fill-opacity:1;"/>
<path d="M147.104 160.603C123.948 160.603 101.859 153.399 83.225 139.77C82.314 139.104 82.1157 137.825 82.7818 136.914C83.4485 136.003 84.7271 135.805 85.6379 136.471C103.567 149.584 124.821 156.516 147.104 156.516C155.225 156.516 163.318 155.577 171.158 153.725C172.257 153.466 173.357 154.146 173.617 155.244C173.876 156.342 173.196 157.443 172.098 157.703C163.951 159.628 155.542 160.603 147.104 160.603Z" fill="#47423F" style="fill:#47423F;fill:color(display-p3 0.2784 0.2588 0.2471);fill-opacity:1;"/>
<path d="M82.3877 187.256C85.6871 179.557 97.2351 179.557 99.4347 187.256" stroke="#A855F7" style="stroke:#A855F7;stroke:color(display-p3 0.6588 0.3333 0.9686);stroke-opacity:1;" stroke-width="4.39924" stroke-linecap="round" stroke-linejoin="round"/>
<path d="M153.325 189.73L167.623 196.879" stroke="#A855F7" style="stroke:#A855F7;stroke:color(display-p3 0.6588 0.3333 0.9686);stroke-opacity:1;" stroke-width="4.39924" stroke-linecap="round" stroke-linejoin="round"/>
<path d="M310.899 291.866L313.108 327.641L301.624 332.941" stroke="#A855F7" style="stroke:#A855F7;stroke:color(display-p3 0.6588 0.3333 0.9686);stroke-opacity:1;" stroke-width="5.30007" stroke-linecap="round"/>
<path d="M382.45 292.307L384.658 328.082L373.175 333.382" stroke="#A855F7" style="stroke:#A855F7;stroke:color(display-p3 0.6588 0.3333 0.9686);stroke-opacity:1;" stroke-width="5.30007" stroke-linecap="round"/>
<path d="M358.158 244.606C358.158 271.438 336.406 293.19 309.574 293.19C282.742 293.19 260.99 271.438 260.99 244.606C260.99 217.774 282.742 196.022 309.574 196.022C336.406 196.022 358.158 217.774 358.158 244.606Z" fill="#F6EDFF" style="fill:#F6EDFF;fill:color(display-p3 0.9655 0.9292 1.0000);fill-opacity:1;"/>
<path d="M431.476 244.606C431.476 271.438 409.724 293.19 382.892 293.19C356.06 293.19 334.308 271.438 334.308 244.606C334.308 217.774 356.06 196.022 382.892 196.022C409.724 196.022 431.476 217.774 431.476 244.606Z" fill="#F6EDFF" style="fill:#F6EDFF;fill:color(display-p3 0.9655 0.9292 1.0000);fill-opacity:1;"/>
<path d="M395.259 191.605C395.259 218.438 373.507 240.189 346.675 240.189C319.843 240.189 298.091 218.438 298.091 191.605C298.091 164.773 319.843 143.021 346.675 143.021C373.507 143.021 395.259 164.773 395.259 191.605Z" fill="#F6EDFF" style="fill:#F6EDFF;fill:color(display-p3 0.9655 0.9292 1.0000);fill-opacity:1;"/>
<path d="M377.657 218.276V214.183" stroke="#A855F7" style="stroke:#A855F7;stroke:color(display-p3 0.6588 0.3333 0.9686);stroke-opacity:1;" stroke-width="2.31706" stroke-linecap="round"/>
<path d="M383.115 219.467L385.621 216.229" stroke="#A855F7" style="stroke:#A855F7;stroke:color(display-p3 0.6588 0.3333 0.9686);stroke-opacity:1;" stroke-width="2.31706" stroke-linecap="round"/>
<path d="M373.463 219.367L370.833 216.229" stroke="#A855F7" style="stroke:#A855F7;stroke:color(display-p3 0.6588 0.3333 0.9686);stroke-opacity:1;" stroke-width="2.31706" stroke-linecap="round"/>
<path d="M311.773 219.439V215.345" stroke="#A855F7" style="stroke:#A855F7;stroke:color(display-p3 0.6588 0.3333 0.9686);stroke-opacity:1;" stroke-width="2.31706" stroke-linecap="round"/>
<path d="M317.231 220.629L319.737 217.392" stroke="#A855F7" style="stroke:#A855F7;stroke:color(display-p3 0.6588 0.3333 0.9686);stroke-opacity:1;" stroke-width="2.31706" stroke-linecap="round"/>
<path d="M307.58 220.53L304.95 217.392" stroke="#A855F7" style="stroke:#A855F7;stroke:color(display-p3 0.6588 0.3333 0.9686);stroke-opacity:1;" stroke-width="2.31706" stroke-linecap="round"/>
<path d="M298.533 197.347C293.675 148.322 333.425 143.463 350.651 143.463C363.901 143.463 399.235 152.297 394.376 197.347" stroke="#A855F7" style="stroke:#A855F7;stroke:color(display-p3 0.6588 0.3333 0.9686);stroke-opacity:1;" stroke-width="5.30007" stroke-linecap="round"/>
<path d="M394.817 198.231C445.61 207.869 431.095 256.769 427.943 263.599C419.992 280.824 387.307 309.091 347.556 277.732" stroke="#A855F7" style="stroke:#A855F7;stroke:color(display-p3 0.6588 0.3333 0.9686);stroke-opacity:1;" stroke-width="5.30007" stroke-linecap="round"/>
<path d="M346.674 276.848C291.907 313.949 263.891 269.34 260.106 256.973C253.481 235.331 266.289 201.764 298.531 198.231" stroke="#A855F7" style="stroke:#A855F7;stroke:color(display-p3 0.6588 0.3333 0.9686);stroke-opacity:1;" stroke-width="5.30007" stroke-linecap="round"/>
<circle cx="312.224" cy="219.873" r="13.6919" stroke="#A855F7" style="stroke:#A855F7;stroke:color(display-p3 0.6588 0.3333 0.9686);stroke-opacity:1;" stroke-width="4.41673"/>
<circle cx="379.358" cy="219.873" r="13.6919" stroke="#A855F7" style="stroke:#A855F7;stroke:color(display-p3 0.6588 0.3333 0.9686);stroke-opacity:1;" stroke-width="4.41673"/>
<path d="M326.357 219.872C337.399 207.063 358.158 210.597 364.783 219.872" stroke="#A855F7" style="stroke:#A855F7;stroke:color(display-p3 0.6588 0.3333 0.9686);stroke-opacity:1;" stroke-width="5.30007" stroke-linecap="round"/>
<path d="M341.138 242.777C340.038 238.928 343.338 238.928 343.887 239.478C344.437 240.028 348.837 237.279 347.737 243.328" stroke="#FF8D8D" style="stroke:#FF8D8D;stroke:color(display-p3 1.0000 0.5533 0.5533);stroke-opacity:1;" stroke-width="3.29943" stroke-linecap="round" stroke-linejoin="round"/>
<path d="M347.914 247.727C349.014 251.576 345.714 251.576 345.164 251.026C344.614 250.476 340.215 253.226 341.314 247.177" stroke="#FF8D8D" style="stroke:#FF8D8D;stroke:color(display-p3 1.0000 0.5533 0.5533);stroke-opacity:1;" stroke-width="3.29943" stroke-linecap="round" stroke-linejoin="round"/>
<circle cx="403.201" cy="235.814" r="6.82298" fill="#FFD4D4" style="fill:#FFD4D4;fill:color(display-p3 1.0000 0.8300 0.8300);fill-opacity:1;"/>
<circle cx="288.575" cy="235.814" r="6.82298" fill="#FFD4D4" style="fill:#FFD4D4;fill:color(display-p3 1.0000 0.8300 0.8300);fill-opacity:1;"/>
<g clip-path="url(#clip2_71_2112)">
<path d="M390.145 326.411C390.572 327.548 390.968 331.081 389.99 332.861L390.048 334.701C390.048 334.701 389.257 335.647 387.94 335.688C385.804 335.755 382.656 335.393 381.161 335.44C379.701 335.485 376.497 336.737 373.286 335.502C373.034 335.418 372.781 335.288 372.53 335.249C371.954 335.083 370.91 334.748 370.475 334.485C369.929 334.134 369.397 331.94 371.967 330.939C374.573 329.937 376.316 328.685 376.316 328.685L377.086 330.503C377.086 330.502 388.091 327.994 390.145 326.411Z" fill="#FFE100" style="fill:#FFE100;fill:color(display-p3 1.0000 0.8824 0.0000);fill-opacity:1;"/>
<path d="M373.229 333.662C372.977 333.578 372.723 333.447 372.437 333.41C371.862 333.244 370.818 332.909 370.417 332.645C370.417 332.645 370.309 332.602 370.199 332.514C370.431 331.954 370.982 331.338 372.003 330.938C374.574 329.936 376.317 328.685 376.317 328.685L377.086 330.502C377.398 331.367 377.52 332.975 377.556 334.125C376.241 334.258 374.745 334.259 373.229 333.662Z" fill="#E4667F" style="fill:#E4667F;fill:color(display-p3 0.8941 0.4000 0.4980);fill-opacity:1;"/>
<path d="M390.047 334.701C390.047 334.701 389.257 335.647 387.939 335.688C385.803 335.755 382.655 335.393 381.16 335.44C379.7 335.485 376.496 336.737 373.285 335.502C373.033 335.418 372.78 335.288 372.529 335.249C371.954 335.083 370.91 334.748 370.474 334.485C370.146 334.265 369.834 333.4 370.198 332.514C370.343 332.601 370.416 332.645 370.416 332.645C370.816 332.909 371.896 333.243 372.472 333.409C372.724 333.494 372.976 333.578 373.228 333.662C376.438 334.897 379.643 333.646 381.102 333.6C382.598 333.553 385.745 333.915 387.882 333.848C389.199 333.807 389.989 332.861 389.989 332.861L390.047 334.701Z" fill="#FDCC00" style="fill:#FDCC00;fill:color(display-p3 0.9922 0.8000 0.0000);fill-opacity:1;"/>
<path d="M388.979 334.735L388.922 332.895C389.763 331.303 389.566 328.409 389.199 326.947C389.621 326.749 389.935 326.555 390.145 326.411C390.572 327.548 390.968 331.081 389.99 332.861L390.048 334.701C390.048 334.701 389.257 335.647 387.94 335.688C387.691 335.696 387.406 335.705 387.121 335.714C388.292 335.539 388.979 334.735 388.979 334.735Z" fill="white" style="fill:white;fill-opacity:1;"/>
<path d="M388.98 334.735L388.944 333.585C389.612 333.288 389.99 332.861 389.99 332.861L390.048 334.701C390.048 334.701 389.258 335.647 387.94 335.688C387.691 335.696 387.406 335.705 387.121 335.714C388.292 335.539 388.98 334.735 388.98 334.735Z" fill="white" style="fill:white;fill-opacity:1;"/>
<path d="M371.967 330.939C374.538 329.938 376.281 328.686 376.281 328.686L376.51 329.185C375.74 329.624 374.549 330.306 373.036 330.905C370.465 331.907 370.962 334.101 371.543 334.451C372.088 334.803 373.957 335.297 373.957 335.297C375.042 335.815 376.189 336.01 377.259 336.022C375.907 336.111 374.372 336.02 372.855 335.377C372.855 335.377 371.022 334.882 370.44 334.532C369.893 334.135 369.361 331.941 371.967 330.939Z" fill="#DD3859" style="fill:#DD3859;fill:color(display-p3 0.8667 0.2196 0.3490);fill-opacity:1;"/>
<path d="M370.163 332.515C370.308 332.602 370.381 332.646 370.381 332.646C370.526 332.734 370.78 332.864 371.069 332.993C370.948 333.687 371.216 334.277 371.508 334.498C372.054 334.85 373.922 335.344 373.922 335.344C375.042 335.815 376.189 336.01 377.258 336.022C375.907 336.11 374.371 336.02 372.854 335.377C372.854 335.377 371.021 334.882 370.44 334.532C370.111 334.266 369.799 333.401 370.163 332.515Z" fill="#FFA800" style="fill:#FFA800;fill:color(display-p3 1.0000 0.6588 0.0000);fill-opacity:1;"/>
<path d="M387.954 336.148C389.414 336.102 390.272 335.063 390.306 335.015C390.376 334.967 390.408 334.828 390.403 334.69L390.35 332.988C391.356 330.977 390.887 327.354 390.459 326.217C390.419 326.08 390.345 325.99 390.238 325.993C390.13 325.951 390.023 325.954 389.953 326.002C388.143 327.394 378.91 329.571 377.283 329.99L376.63 328.491C376.592 328.4 376.518 328.31 376.41 328.268C376.301 328.225 376.195 328.228 376.125 328.276C376.125 328.276 374.382 329.528 371.881 330.481C370.05 331.183 369.697 332.437 369.683 333.128C369.638 333.958 369.98 334.638 370.345 334.903C370.745 335.167 371.718 335.505 372.473 335.711C372.725 335.796 372.941 335.881 373.193 335.965C374.312 336.391 375.458 336.585 376.775 336.544C377.915 336.508 378.977 336.291 379.793 336.173C380.323 336.018 380.819 335.911 381.175 335.9L381.21 335.899C381.887 335.877 382.922 335.937 384.029 335.994C385.315 336.092 386.779 336.185 387.954 336.148ZM389.684 334.482C389.442 334.72 388.815 335.2 387.925 335.228C386.786 335.264 385.322 335.171 384.071 335.072C382.965 335.015 381.929 334.955 381.217 334.978L381.146 334.98C380.754 334.992 380.259 335.1 379.692 335.209C378.877 335.373 377.849 335.543 376.745 335.578C375.499 335.617 374.425 335.466 373.415 335.084C373.128 335 372.874 334.87 372.622 334.786C371.651 334.494 370.93 334.24 370.675 334.064C370.566 334.022 370.377 333.659 370.434 333.197C370.455 332.736 370.714 331.899 372.158 331.347C374.13 330.595 375.598 329.674 376.228 329.286L376.842 330.694C376.919 330.876 377.064 330.964 377.205 330.913C377.56 330.856 387.221 328.666 389.951 327.061C390.277 328.386 390.472 331.189 389.696 332.594C389.663 332.687 389.631 332.781 389.633 332.873L389.684 334.482L389.684 334.482Z" fill="#A855F7" style="fill:#A855F7;fill:color(display-p3 0.6588 0.3333 0.9686);fill-opacity:1;"/>
<path d="M387.954 336.148C389.414 336.103 390.272 335.063 390.306 335.016C390.376 334.968 390.407 334.829 390.403 334.691L390.345 332.851C390.34 332.667 390.263 332.485 390.119 332.443C389.973 332.356 389.832 332.406 389.729 332.502C389.729 332.502 389.007 333.353 387.867 333.389C386.728 333.424 385.264 333.332 384.013 333.233C382.907 333.175 381.871 333.116 381.159 333.138L381.088 333.14C380.696 333.152 380.201 333.26 379.634 333.37C378.819 333.533 377.791 333.704 376.687 333.738C375.441 333.777 374.367 333.627 373.357 333.244C373.105 333.16 372.816 333.031 372.564 332.947C371.593 332.655 370.872 332.401 370.617 332.225C370.617 332.225 370.509 332.182 370.363 332.094C370.182 332.008 370.006 332.06 369.906 332.293C369.673 332.807 369.656 333.406 369.78 333.954C369.9 334.365 370.089 334.727 370.344 334.904C370.745 335.167 371.717 335.505 372.472 335.712C372.724 335.796 372.941 335.881 373.193 335.966C374.311 336.391 375.458 336.585 376.775 336.544C377.914 336.509 378.977 336.291 379.793 336.173C380.323 336.019 380.818 335.911 381.174 335.9L381.21 335.899C381.886 335.878 382.922 335.937 384.028 335.995C385.315 336.093 386.779 336.185 387.954 336.148ZM389.684 334.483C389.442 334.721 388.815 335.201 387.925 335.228C386.786 335.264 385.321 335.172 384.071 335.073C382.964 335.015 381.929 334.956 381.217 334.978L381.146 334.98C380.754 334.992 380.258 335.1 379.692 335.21C378.877 335.373 377.849 335.544 376.745 335.578C375.499 335.617 374.425 335.467 373.415 335.084C373.127 335.001 372.874 334.871 372.622 334.786C371.65 334.495 370.929 334.241 370.674 334.065C370.637 334.02 370.526 333.885 370.448 333.657C370.408 333.52 370.402 333.336 370.431 333.105C370.902 333.367 371.765 333.616 372.413 333.826C372.665 333.91 372.882 333.996 373.134 334.08C374.217 334.506 375.397 334.654 376.715 334.612C377.854 334.577 378.916 334.359 379.732 334.242C380.265 334.179 380.761 334.071 381.117 334.06L381.152 334.059C381.829 334.038 382.864 334.098 383.971 334.155C385.257 334.253 386.721 334.345 387.896 334.309C388.644 334.285 389.276 333.989 389.659 333.701L389.683 334.483L389.684 334.483Z" fill="#A855F7" style="fill:#A855F7;fill:color(display-p3 0.6588 0.3333 0.9686);fill-opacity:1;"/>
<path d="M376.682 334.659C377.002 334.649 377.287 334.64 377.57 334.585C377.748 334.58 377.919 334.344 377.876 334.115C377.785 332.323 377.638 331.038 377.365 330.31L376.594 328.446C376.556 328.355 376.482 328.266 376.373 328.223C376.302 328.225 376.195 328.229 376.126 328.277C376.126 328.277 374.383 329.528 371.882 330.481C370.861 330.882 370.202 331.455 369.87 332.248C369.838 332.341 369.806 332.48 369.846 332.617C369.886 332.754 369.96 332.844 370.033 332.887L370.251 333.019C370.651 333.283 371.624 333.62 372.379 333.827C372.595 333.912 372.847 333.997 373.064 334.082L373.137 334.126C374.218 334.506 375.364 334.701 376.682 334.659ZM377.187 333.723C377.009 333.728 376.866 333.733 376.688 333.738C375.442 333.777 374.368 333.627 373.358 333.244L373.286 333.2C373.034 333.116 372.817 333.031 372.565 332.946C371.738 332.696 371.125 332.485 370.763 332.312C371.037 331.935 371.525 331.598 372.124 331.395C374.097 330.642 375.565 329.722 376.194 329.334L376.808 330.742C376.967 331.243 377.105 332.252 377.187 333.723Z" fill="#A855F7" style="fill:#A855F7;fill:color(display-p3 0.6588 0.3333 0.9686);fill-opacity:1;"/>
</g>
<g clip-path="url(#clip3_71_2112)">
<path d="M315.642 326.351C316.069 327.488 316.465 331.021 315.487 332.801L315.545 334.641C315.545 334.641 314.755 335.587 313.437 335.628C311.301 335.695 308.153 335.333 306.658 335.38C305.198 335.425 301.994 336.677 298.783 335.442C298.531 335.358 298.278 335.227 298.027 335.189C297.452 335.023 296.407 334.687 295.972 334.425C295.426 334.074 294.894 331.88 297.464 330.879C300.07 329.877 301.813 328.625 301.813 328.625L302.583 330.443C302.583 330.442 313.588 327.934 315.642 326.351Z" fill="#FFE100" style="fill:#FFE100;fill:color(display-p3 1.0000 0.8824 0.0000);fill-opacity:1;"/>
<path d="M298.726 333.602C298.474 333.518 298.221 333.387 297.934 333.35C297.359 333.184 296.315 332.848 295.914 332.585C295.914 332.585 295.806 332.542 295.697 332.453C295.928 331.894 296.479 331.278 297.5 330.878C300.071 329.876 301.814 328.625 301.814 328.625L302.583 330.442C302.896 331.307 303.017 332.915 303.053 334.065C301.739 334.198 300.242 334.199 298.726 333.602Z" fill="#E4667F" style="fill:#E4667F;fill:color(display-p3 0.8941 0.4000 0.4980);fill-opacity:1;"/>
<path d="M315.544 334.641C315.544 334.641 314.754 335.587 313.436 335.628C311.3 335.695 308.152 335.333 306.657 335.38C305.197 335.425 301.993 336.677 298.783 335.442C298.53 335.358 298.277 335.228 298.026 335.189C297.451 335.023 296.407 334.688 295.971 334.425C295.643 334.205 295.331 333.34 295.695 332.454C295.841 332.541 295.913 332.585 295.913 332.585C296.314 332.849 297.393 333.183 297.969 333.349C298.221 333.434 298.473 333.518 298.725 333.602C301.936 334.837 305.14 333.585 306.599 333.54C308.095 333.493 311.242 333.855 313.379 333.788C314.696 333.747 315.486 332.801 315.486 332.801L315.544 334.641Z" fill="#FDCC00" style="fill:#FDCC00;fill:color(display-p3 0.9922 0.8000 0.0000);fill-opacity:1;"/>
<path d="M314.476 334.675L314.418 332.835C315.259 331.243 315.062 328.348 314.695 326.887C315.117 326.689 315.431 326.495 315.641 326.351C316.068 327.488 316.464 331.021 315.486 332.801L315.544 334.641C315.544 334.641 314.754 335.587 313.436 335.628C313.187 335.636 312.902 335.645 312.617 335.654C313.788 335.479 314.476 334.675 314.476 334.675Z" fill="white" style="fill:white;fill-opacity:1;"/>
<path d="M314.475 334.675L314.439 333.525C315.107 333.227 315.485 332.801 315.485 332.801L315.543 334.641C315.543 334.641 314.753 335.587 313.435 335.628C313.186 335.636 312.901 335.645 312.616 335.654C313.787 335.479 314.475 334.675 314.475 334.675Z" fill="white" style="fill:white;fill-opacity:1;"/>
<path d="M297.464 330.879C300.035 329.878 301.778 328.626 301.778 328.626L302.007 329.125C301.237 329.564 300.046 330.246 298.533 330.845C295.962 331.847 296.459 334.041 297.04 334.391C297.585 334.743 299.454 335.237 299.454 335.237C300.539 335.755 301.686 335.95 302.756 335.962C301.404 336.05 299.869 335.96 298.352 335.317C298.352 335.317 296.519 334.822 295.937 334.472C295.39 334.075 294.859 331.881 297.464 330.879Z" fill="#DD3859" style="fill:#DD3859;fill:color(display-p3 0.8667 0.2196 0.3490);fill-opacity:1;"/>
<path d="M295.66 332.455C295.805 332.542 295.878 332.586 295.878 332.586C296.023 332.674 296.277 332.804 296.566 332.933C296.445 333.627 296.713 334.217 297.005 334.438C297.551 334.79 299.42 335.284 299.42 335.284C300.539 335.755 301.686 335.95 302.755 335.962C301.404 336.05 299.868 335.96 298.351 335.317C298.351 335.317 296.518 334.822 295.937 334.472C295.608 334.206 295.296 333.341 295.66 332.455Z" fill="#FFA800" style="fill:#FFA800;fill:color(display-p3 1.0000 0.6588 0.0000);fill-opacity:1;"/>
<path d="M313.451 336.088C314.911 336.042 315.769 335.002 315.804 334.955C315.873 334.907 315.905 334.768 315.9 334.63L315.847 332.928C316.853 330.917 316.384 327.294 315.956 326.156C315.916 326.02 315.842 325.93 315.735 325.933C315.627 325.891 315.52 325.894 315.45 325.942C313.641 327.334 304.407 329.511 302.78 329.93L302.128 328.431C302.089 328.34 302.015 328.25 301.907 328.208C301.798 328.165 301.692 328.168 301.622 328.216C301.622 328.216 299.879 329.468 297.378 330.421C295.547 331.123 295.194 332.377 295.18 333.068C295.135 333.898 295.477 334.578 295.842 334.843C296.242 335.107 297.215 335.445 297.97 335.651C298.222 335.736 298.438 335.821 298.69 335.905C299.809 336.331 300.955 336.525 302.273 336.484C303.412 336.448 304.474 336.231 305.29 336.113C305.82 335.958 306.316 335.851 306.672 335.84L306.707 335.838C307.384 335.817 308.419 335.877 309.526 335.934C310.812 336.032 312.276 336.125 313.451 336.088ZM315.181 334.422C314.939 334.66 314.312 335.14 313.422 335.168C312.283 335.204 310.819 335.111 309.568 335.012C308.462 334.955 307.426 334.895 306.714 334.917L306.643 334.92C306.251 334.932 305.756 335.04 305.189 335.149C304.374 335.313 303.346 335.483 302.242 335.518C300.996 335.557 299.922 335.406 298.912 335.023C298.625 334.94 298.371 334.81 298.119 334.726C297.148 334.434 296.427 334.18 296.172 334.004C296.064 333.962 295.874 333.599 295.931 333.137C295.952 332.676 296.211 331.839 297.655 331.287C299.627 330.535 301.095 329.614 301.725 329.226L302.339 330.634C302.416 330.816 302.561 330.904 302.702 330.853C303.057 330.796 312.718 328.606 315.448 327.001C315.774 328.326 315.969 331.129 315.193 332.534C315.16 332.627 315.128 332.721 315.131 332.813L315.181 334.422L315.181 334.422Z" fill="#A855F7" style="fill:#A855F7;fill:color(display-p3 0.6588 0.3333 0.9686);fill-opacity:1;"/>
<path d="M313.451 336.088C314.911 336.042 315.769 335.002 315.803 334.955C315.873 334.907 315.904 334.768 315.9 334.63L315.842 332.79C315.837 332.606 315.76 332.424 315.616 332.383C315.471 332.295 315.33 332.346 315.226 332.441C315.226 332.441 314.504 333.292 313.364 333.328C312.225 333.364 310.761 333.271 309.51 333.172C308.404 333.115 307.368 333.055 306.656 333.077L306.585 333.08C306.193 333.092 305.698 333.2 305.131 333.309C304.316 333.473 303.288 333.643 302.184 333.678C300.938 333.717 299.864 333.566 298.854 333.183C298.602 333.099 298.313 332.97 298.061 332.886C297.09 332.594 296.369 332.34 296.114 332.164C296.114 332.164 296.006 332.122 295.86 332.034C295.679 331.948 295.503 331.999 295.403 332.232C295.17 332.746 295.153 333.345 295.277 333.894C295.397 334.304 295.586 334.667 295.841 334.843C296.242 335.107 297.214 335.445 297.969 335.651C298.221 335.736 298.438 335.821 298.69 335.905C299.808 336.33 300.955 336.525 302.272 336.484C303.412 336.448 304.474 336.231 305.29 336.113C305.82 335.958 306.315 335.851 306.671 335.839L306.707 335.838C307.383 335.817 308.419 335.877 309.525 335.934C310.812 336.032 312.276 336.125 313.451 336.088ZM315.181 334.422C314.939 334.66 314.312 335.14 313.422 335.168C312.283 335.204 310.819 335.111 309.568 335.012C308.461 334.955 307.426 334.895 306.714 334.917L306.643 334.92C306.251 334.932 305.755 335.039 305.189 335.149C304.374 335.313 303.346 335.483 302.242 335.518C300.996 335.557 299.922 335.406 298.912 335.023C298.624 334.94 298.371 334.81 298.119 334.726C297.147 334.434 296.427 334.18 296.171 334.004C296.134 333.959 296.023 333.825 295.945 333.597C295.905 333.46 295.899 333.276 295.928 333.045C296.399 333.306 297.262 333.556 297.91 333.766C298.162 333.85 298.379 333.935 298.631 334.019C299.714 334.446 300.894 334.593 302.212 334.552C303.351 334.516 304.413 334.299 305.23 334.181C305.762 334.118 306.258 334.011 306.614 334L306.649 333.999C307.326 333.977 308.361 334.037 309.468 334.095C310.754 334.192 312.218 334.285 313.393 334.248C314.141 334.225 314.773 333.929 315.156 333.64L315.181 334.422L315.181 334.422Z" fill="#A855F7" style="fill:#A855F7;fill:color(display-p3 0.6588 0.3333 0.9686);fill-opacity:1;"/>
<path d="M302.179 334.599C302.499 334.589 302.784 334.58 303.067 334.525C303.245 334.519 303.416 334.284 303.373 334.055C303.282 332.262 303.135 330.978 302.862 330.249L302.091 328.386C302.053 328.295 301.979 328.205 301.87 328.162C301.799 328.165 301.692 328.168 301.623 328.216C301.623 328.216 299.88 329.468 297.379 330.421C296.358 330.821 295.699 331.394 295.367 332.187C295.335 332.281 295.303 332.42 295.343 332.557C295.383 332.693 295.457 332.783 295.53 332.827L295.748 332.958C296.148 333.222 297.121 333.56 297.876 333.766C298.092 333.852 298.344 333.936 298.561 334.021L298.634 334.065C299.715 334.446 300.861 334.64 302.179 334.599ZM302.684 333.662C302.506 333.668 302.364 333.672 302.185 333.678C300.939 333.717 299.865 333.566 298.856 333.183L298.783 333.14C298.531 333.055 298.314 332.97 298.062 332.886C297.235 332.636 296.622 332.424 296.26 332.252C296.534 331.875 297.022 331.537 297.622 331.334C299.594 330.582 301.062 329.661 301.691 329.273L302.306 330.681C302.464 331.183 302.602 332.191 302.684 333.662Z" fill="#A855F7" style="fill:#A855F7;fill:color(display-p3 0.6588 0.3333 0.9686);fill-opacity:1;"/>
</g>
<path d="M259.752 229.58C273.5 260.924 297.696 277.971 333.44 251.576" stroke="#A855F7" style="stroke:#A855F7;stroke:color(display-p3 0.6588 0.3333 0.9686);stroke-opacity:1;" stroke-width="5.30007" stroke-linecap="round"/>
<path d="M428.051 231.427C406.028 274.672 368.634 276.322 353.787 253.775" stroke="#A855F7" style="stroke:#A855F7;stroke:color(display-p3 0.6588 0.3333 0.9686);stroke-opacity:1;" stroke-width="5.30007" stroke-linecap="round"/>
<ellipse cx="344.438" cy="245.527" rx="4.39924" ry="6.04895" fill="#A855F7" style="fill:#A855F7;fill:color(display-p3 0.6588 0.3333 0.9686);fill-opacity:1;"/>
<circle cx="311.444" cy="224.081" r="6.59886" fill="#A855F7" style="fill:#A855F7;fill:color(display-p3 0.6588 0.3333 0.9686);fill-opacity:1;"/>
<circle cx="378.532" cy="222.981" r="6.59886" fill="#A855F7" style="fill:#A855F7;fill:color(display-p3 0.6588 0.3333 0.9686);fill-opacity:1;"/>
<path d="M304.845 193.561C308.144 185.862 319.692 185.862 321.892 193.561" stroke="#A855F7" style="stroke:#A855F7;stroke:color(display-p3 0.6588 0.3333 0.9686);stroke-opacity:1;" stroke-width="4.39924" stroke-linecap="round" stroke-linejoin="round"/>
<path d="M369.733 196.86C373.033 189.162 384.581 189.162 386.78 196.86" stroke="#A855F7" style="stroke:#A855F7;stroke:color(display-p3 0.6588 0.3333 0.9686);stroke-opacity:1;" stroke-width="4.39924" stroke-linecap="round" stroke-linejoin="round"/>
<path d="M297.732 176.237C298.099 173.495 298.837 170.185 300.175 166.22C301.018 165.718 306.027 162.928 310.073 161.003C315.13 158.596 352.64 145.06 390.15 163.409C393.723 167.47 399.763 177.917 397.073 188.769C396.835 189.728 395.653 190.017 394.862 189.426C384.569 181.728 371.538 189.653 354.326 185.368C336.203 180.856 346.318 170.629 327.353 169.726C317.981 169.28 310.377 173.708 305.139 178.601C302.365 181.192 297.228 180 297.732 176.237Z" fill="#D8B21A" stroke="#BB9910" style="fill:#D8B21A;fill:color(display-p3 0.8466 0.6976 0.1016);fill-opacity:1;stroke:#BB9910;stroke:color(display-p3 0.7333 0.5993 0.0636);stroke-opacity:1;" stroke-width="4.09379" stroke-linecap="round"/>
<path d="M309.701 140.567C300.184 139.337 281.878 149.492 297.195 167.769C299.871 170.962 304.776 170.579 307.923 167.849C311.032 165.153 314.918 162.392 318.781 161.049C326.851 158.242 362.946 153.099 383.607 170.364C385.629 172.054 388.275 173.076 390.796 172.307C410.604 166.267 401.167 142.32 382.877 143.837C381.558 143.946 380.434 142.427 380.887 141.184C385.714 127.953 370.348 117.09 353.64 126.921C352.695 127.477 351.436 126.923 351.159 125.862C345.914 105.805 312.575 108.755 313.276 137.889C313.31 139.297 311.097 140.748 309.701 140.567Z" fill="#D8B21A" stroke="#BB9910" style="fill:#D8B21A;fill:color(display-p3 0.8466 0.6976 0.1016);fill-opacity:1;stroke:#BB9910;stroke:color(display-p3 0.7333 0.5993 0.0636);stroke-opacity:1;" stroke-width="5.16657" stroke-linecap="round"/>
</g>
<defs>
<clipPath id="clip0_71_2112">
<rect width="446" height="446" fill="white" style="fill:white;fill-opacity:1;"/>
</clipPath>
<clipPath id="clip1_71_2112">
<rect width="81.3859" height="81.3859" fill="white" style="fill:white;fill-opacity:1;" transform="translate(153.875 236.473)"/>
</clipPath>
<clipPath id="clip2_71_2112">
<rect width="21.3791" height="10.7715" fill="white" style="fill:white;fill-opacity:1;" transform="matrix(-0.999511 0.0312705 0.0312705 0.999511 390.819 325.323)"/>
</clipPath>
<clipPath id="clip3_71_2112">
<rect width="21.3791" height="10.7715" fill="white" style="fill:white;fill-opacity:1;" transform="matrix(-0.999511 0.0312705 0.0312705 0.999511 316.315 325.263)"/>
</clipPath>
</defs>
</svg>
