<svg width="446" height="446" viewBox="0 0 446 446" fill="none" xmlns="http://www.w3.org/2000/svg">
<path d="M296.924 166.96C296.924 196.005 273.379 219.55 244.334 219.55C215.29 219.55 191.744 196.005 191.744 166.96C191.744 137.916 215.29 114.371 244.334 114.371C273.379 114.371 296.924 137.916 296.924 166.96Z" fill="#A855F7" style="fill:#A855F7;fill:color(display-p3 0.6588 0.3333 0.9686);fill-opacity:1;"/>
<path d="M376.287 166.96C376.287 196.005 352.741 219.55 323.697 219.55C294.652 219.55 271.107 196.005 271.107 166.96C271.107 137.916 294.652 114.371 323.697 114.371C352.741 114.371 376.287 137.916 376.287 166.96Z" fill="#A855F7" style="fill:#A855F7;fill:color(display-p3 0.6588 0.3333 0.9686);fill-opacity:1;"/>
<path d="M337.083 109.59C337.083 138.634 313.538 162.179 284.494 162.179C255.449 162.179 231.904 138.634 231.904 109.59C231.904 80.5452 255.449 57 284.494 57C313.538 57 337.083 80.5452 337.083 109.59Z" fill="#A855F7" style="fill:#A855F7;fill:color(display-p3 0.6588 0.3333 0.9686);fill-opacity:1;"/>
<path d="M264.414 140.188C264.414 149.693 256.708 157.399 247.203 157.399C237.697 157.399 229.991 149.693 229.991 140.188C229.991 130.682 237.697 122.976 247.203 122.976C256.708 122.976 264.414 130.682 264.414 140.188Z" fill="#A855F7" style="fill:#A855F7;fill:color(display-p3 0.6588 0.3333 0.9686);fill-opacity:1;"/>
<path d="M337.084 140.188C337.084 149.693 329.378 157.399 319.872 157.399C310.367 157.399 302.661 149.693 302.661 140.188C302.661 130.682 310.367 122.977 319.872 122.977C329.378 122.977 337.084 130.682 337.084 140.188Z" fill="#A855F7" style="fill:#A855F7;fill:color(display-p3 0.6588 0.3333 0.9686);fill-opacity:1;"/>
<path d="M287.362 92.8146C286.452 93.6568 285.146 94.4405 283.601 95.0672C276.064 91.6495 271.252 84.0238 279.712 77.5157C285.928 72.7349 300.27 80.8623 287.362 92.8146Z" fill="#A855F7" style="fill:#A855F7;fill:color(display-p3 0.6588 0.3333 0.9686);fill-opacity:1;"/>
<path d="M245.768 218.116L248.159 256.842L235.729 262.579M315.57 218.594L313.179 257.319L325.609 263.056M232.382 115.805C227.123 62.7371 270.151 57.4781 288.796 57.4781C303.139 57.4781 341.386 67.0399 336.127 115.805M336.605 116.761C391.586 127.194 375.874 180.126 372.462 187.518C363.856 206.164 328.477 236.761 285.448 202.817M284.493 201.861C225.21 242.021 194.885 193.734 190.787 180.347C183.617 156.921 197.481 120.586 232.381 116.762M262.501 140.187C274.453 126.323 296.924 130.148 304.095 140.188M288.797 154.53C282.581 160.745 275.41 155.487 274.932 154.53M254.374 140.187C248.159 146.402 240.987 141.144 240.509 140.187M328 139.231C321.785 145.447 314.613 140.188 314.135 139.231M262.501 83.7309C264.075 97.5022 276.417 97.9813 283.601 95.0672M283.601 95.0672C285.146 94.4405 286.452 93.6568 287.362 92.8146C300.27 80.8623 285.928 72.7349 279.712 77.5157C271.252 84.0238 276.064 91.6495 283.601 95.0672ZM283.601 95.0672C288.868 97.4558 295.465 97.789 299.792 94.2488M296.924 166.96C296.924 196.005 273.379 219.55 244.334 219.55C215.29 219.55 191.744 196.005 191.744 166.96C191.744 137.916 215.29 114.371 244.334 114.371C273.379 114.371 296.924 137.916 296.924 166.96ZM376.287 166.96C376.287 196.005 352.741 219.55 323.697 219.55C294.652 219.55 271.107 196.005 271.107 166.96C271.107 137.916 294.652 114.371 323.697 114.371C352.741 114.371 376.287 137.916 376.287 166.96ZM337.083 109.59C337.083 138.634 313.538 162.179 284.494 162.179C255.449 162.179 231.904 138.634 231.904 109.59C231.904 80.5452 255.449 57 284.494 57C313.538 57 337.083 80.5452 337.083 109.59ZM264.414 140.188C264.414 149.693 256.708 157.399 247.203 157.399C237.697 157.399 229.991 149.693 229.991 140.188C229.991 130.682 237.697 122.976 247.203 122.976C256.708 122.976 264.414 130.682 264.414 140.188ZM337.084 140.188C337.084 149.693 329.378 157.399 319.872 157.399C310.367 157.399 302.661 149.693 302.661 140.188C302.661 130.682 310.367 122.977 319.872 122.977C329.378 122.977 337.084 130.682 337.084 140.188Z" stroke="#A855F7" style="stroke:#A855F7;stroke:color(display-p3 0.6588 0.3333 0.9686);stroke-opacity:1;" stroke-width="5.73708" stroke-linecap="round"/>
<path d="M194.686 149.785C158.875 170.946 161.587 176.372 164.3 186.681C166.471 194.929 187.452 194.64 199.027 193.193" stroke="#A855F7" style="stroke:#A855F7;stroke:color(display-p3 0.6588 0.3333 0.9686);stroke-opacity:1;" stroke-width="5.42599" stroke-linecap="round"/>
<path d="M366.442 135.554C394.74 139.236 416.971 112.814 416.999 98.7686" stroke="#A855F7" style="stroke:#A855F7;stroke:color(display-p3 0.6588 0.3333 0.9686);stroke-opacity:1;" stroke-width="6.33394" stroke-linecap="round"/>
<circle cx="413.88" cy="99.1153" r="6.31387" transform="rotate(-36.0395 413.88 99.1153)" fill="#A855F7" style="fill:#A855F7;fill:color(display-p3 0.6588 0.3333 0.9686);fill-opacity:1;"/>
<ellipse cx="392.798" cy="122.483" rx="19.2089" ry="8.28621" transform="rotate(-36.0395 392.798 122.483)" fill="#A855F7" style="fill:#A855F7;fill:color(display-p3 0.6588 0.3333 0.9686);fill-opacity:1;"/>
<path d="M75.3137 381.773L233.753 266.986H250.031L75.3137 381.773Z" fill="#A855F7" style="fill:#A855F7;fill:color(display-p3 0.6588 0.3333 0.9686);fill-opacity:1;"/>
<path d="M233.753 266.986L74.2285 382.559L75.3137 381.773L250.031 266.986H233.753Z" stroke="#A855F7" style="stroke:#A855F7;stroke:color(display-p3 0.6588 0.3333 0.9686);stroke-opacity:1;" stroke-width="5.42599" stroke-linecap="round"/>
<path d="M162.642 309.457C178.858 308.106 182.123 291.891 180.884 287.499" stroke="#A855F7" style="stroke:#A855F7;stroke:color(display-p3 0.6588 0.3333 0.9686);stroke-opacity:1;" stroke-width="4.05387" stroke-linecap="round"/>
<path d="M32.4795 309.795C16.2641 308.444 12.9985 292.229 14.2371 287.837" stroke="#A855F7" style="stroke:#A855F7;stroke:color(display-p3 0.6588 0.3333 0.9686);stroke-opacity:1;" stroke-width="4.05387" stroke-linecap="round"/>
<path d="M70.4165 356.415L73.1431 385.272L63.3223 387.832" stroke="#A855F7" style="stroke:#A855F7;stroke:color(display-p3 0.6588 0.3333 0.9686);stroke-opacity:1;" stroke-width="4.05387" stroke-linecap="round"/>
<path d="M119.738 356.752L118.049 384.115L126.833 388.169" stroke="#A855F7" style="stroke:#A855F7;stroke:color(display-p3 0.6588 0.3333 0.9686);stroke-opacity:1;" stroke-width="4.05387" stroke-linecap="round"/>
<path d="M106.563 320.268C106.563 340.791 89.9256 357.428 69.4025 357.428C48.8794 357.428 32.2422 340.791 32.2422 320.268C32.2422 299.745 48.8794 283.107 69.4025 283.107C89.9256 283.107 106.563 299.745 106.563 320.268Z" fill="#F6EDFF" style="fill:#F6EDFF;fill:color(display-p3 0.9655 0.9292 1.0000);fill-opacity:1;"/>
<path d="M162.641 320.268C162.641 340.791 146.004 357.428 125.481 357.428C104.958 357.428 88.3205 340.791 88.3205 320.268C88.3205 299.745 104.958 283.107 125.481 283.107C146.004 283.107 162.641 299.745 162.641 320.268Z" fill="#F6EDFF" style="fill:#F6EDFF;fill:color(display-p3 0.9655 0.9292 1.0000);fill-opacity:1;"/>
<path d="M134.94 279.729C134.94 300.252 118.303 316.89 97.7795 316.89C77.2564 316.89 60.6192 300.252 60.6192 279.729C60.6192 259.206 77.2564 242.569 97.7795 242.569C118.303 242.569 134.94 259.206 134.94 279.729Z" fill="#F6EDFF" style="fill:#F6EDFF;fill:color(display-p3 0.9655 0.9292 1.0000);fill-opacity:1;"/>
<path d="M60.9574 284.12C57.2412 246.622 87.6452 242.906 100.82 242.906C110.955 242.906 137.981 249.663 134.265 284.12" stroke="#A855F7" style="stroke:#A855F7;stroke:color(display-p3 0.6588 0.3333 0.9686);stroke-opacity:1;" stroke-width="4.05387" stroke-linecap="round"/>
<path d="M134.603 284.796C173.453 292.168 162.351 329.571 159.94 334.794C153.859 347.969 128.859 369.59 98.4544 345.604" stroke="#A855F7" style="stroke:#A855F7;stroke:color(display-p3 0.6588 0.3333 0.9686);stroke-opacity:1;" stroke-width="4.05387" stroke-linecap="round"/>
<path d="M97.7795 344.929C55.8897 373.306 34.4614 339.186 31.5661 329.727C26.4992 313.174 36.2959 287.5 60.9566 284.797" stroke="#A855F7" style="stroke:#A855F7;stroke:color(display-p3 0.6588 0.3333 0.9686);stroke-opacity:1;" stroke-width="4.05387" stroke-linecap="round"/>
<circle cx="71.4296" cy="301.35" r="10.4725" stroke="#A855F7" style="stroke:#A855F7;stroke:color(display-p3 0.6588 0.3333 0.9686);stroke-opacity:1;" stroke-width="3.37822"/>
<circle cx="122.779" cy="301.35" r="10.4725" stroke="#A855F7" style="stroke:#A855F7;stroke:color(display-p3 0.6588 0.3333 0.9686);stroke-opacity:1;" stroke-width="3.37822"/>
<path d="M82.2397 301.349C90.6853 291.552 106.563 294.255 111.63 301.349" stroke="#A855F7" style="stroke:#A855F7;stroke:color(display-p3 0.6588 0.3333 0.9686);stroke-opacity:1;" stroke-width="4.05387" stroke-linecap="round"/>
<path d="M100.82 311.484C96.4286 315.876 91.3613 312.16 91.0235 311.484" stroke="#A855F7" style="stroke:#A855F7;stroke:color(display-p3 0.6588 0.3333 0.9686);stroke-opacity:1;" stroke-width="2.02693" stroke-linecap="round"/>
<path d="M76.4971 301.35C72.1054 305.741 67.0381 302.025 66.7003 301.35" stroke="#A855F7" style="stroke:#A855F7;stroke:color(display-p3 0.6588 0.3333 0.9686);stroke-opacity:1;" stroke-width="2.02693" stroke-linecap="round"/>
<path d="M128.522 300.674C124.13 305.066 119.063 301.35 118.725 300.674" stroke="#A855F7" style="stroke:#A855F7;stroke:color(display-p3 0.6588 0.3333 0.9686);stroke-opacity:1;" stroke-width="2.02693" stroke-linecap="round"/>
<path d="M82.2397 261.457C83.591 273.281 96.1756 271.238 99.8065 267.876C108.928 259.43 98.793 253.687 94.4013 257.065C84.2448 264.878 101.158 274.97 108.59 268.889" stroke="#A855F7" style="stroke:#A855F7;stroke:color(display-p3 0.6588 0.3333 0.9686);stroke-opacity:1;" stroke-width="4.05387" stroke-linecap="round"/>
<path d="M135 265.358H406.842" stroke="#A855F7" style="stroke:#A855F7;stroke:color(display-p3 0.6588 0.3333 0.9686);stroke-opacity:1;" stroke-width="5.42599" stroke-linecap="round"/>
<path d="M306.461 268.071L119.807 384.73L327.08 268.071H306.461Z" fill="#A855F7" stroke="#A855F7" style="fill:#A855F7;fill:color(display-p3 0.6588 0.3333 0.9686);fill-opacity:1;stroke:#A855F7;stroke:color(display-p3 0.6588 0.3333 0.9686);stroke-opacity:1;" stroke-width="5.42599" stroke-linecap="round"/>
<path d="M398.607 170.546C384.879 168.202 385.214 161.171 367.133 134.049L327.623 155.144C331.864 175.569 344.23 220.838 359.767 238.517C379.187 260.616 386.218 249.567 389.232 243.874C392.245 238.182 382.2 220.436 401.955 228.807C421.711 237.178 420.036 222.445 416.353 218.092C412.67 213.74 405.973 202.69 416.353 201.686C426.733 200.681 432.76 193.984 430.081 182.935C427.403 171.885 412.335 172.89 398.607 170.546Z" fill="#A855F7" stroke="#A855F7" style="fill:#A855F7;fill:color(display-p3 0.6588 0.3333 0.9686);fill-opacity:1;stroke:#A855F7;stroke:color(display-p3 0.6588 0.3333 0.9686);stroke-opacity:1;" stroke-width="3.34833" stroke-linecap="round"/>
</svg>
