<svg width="446" height="446" viewBox="0 0 446 446" fill="none" xmlns="http://www.w3.org/2000/svg">
<g clip-path="url(#clip0_60_236)">
<mask id="path-1-outside-1_60_236" maskUnits="userSpaceOnUse" x="58.5" y="142" width="344" height="156" fill="black">
<rect fill="white" x="58.5" y="142" width="344" height="156"/>
<path d="M70.5 154V270.5C84 258 95.9723 253.008 112.5 248C145.5 238 240.5 216.5 328 242C362.5 252.054 376.5 258 390.5 270.5V154H70.5Z"/>
</mask>
<path d="M70.5 154V270.5C84 258 95.9723 253.008 112.5 248C145.5 238 240.5 216.5 328 242C362.5 252.054 376.5 258 390.5 270.5V154H70.5Z" fill="#956D5C" style="fill:#956D5C;fill:color(display-p3 0.5833 0.4281 0.3616);fill-opacity:1;"/>
<path d="M70.5 270.5H58.5V297.965L78.6529 279.305L70.5 270.5ZM70.5 154V142C63.8726 142 58.5 147.373 58.5 154H70.5ZM390.5 154H402.5C402.5 147.373 397.127 142 390.5 142V154ZM390.5 270.5L382.508 279.451L402.5 297.301V270.5H390.5ZM328 242L324.643 253.521L324.643 253.521L328 242ZM112.5 248L115.98 259.484L115.98 259.484L112.5 248ZM82.5 270.5V154H58.5V270.5H82.5ZM70.5 166H390.5V142H70.5V166ZM378.5 154V270.5H402.5V154H378.5ZM398.492 261.549C382.329 247.117 366.026 240.583 331.357 230.479L324.643 253.521C358.974 263.526 370.671 268.883 382.508 279.451L398.492 261.549ZM331.357 230.479C240.48 203.995 142.738 226.298 109.02 236.516L115.98 259.484C148.262 249.702 240.52 229.005 324.643 253.521L331.357 230.479ZM109.02 236.516C91.6124 241.791 77.7134 247.467 62.3471 261.695L78.6529 279.305C90.2866 268.533 100.332 264.226 115.98 259.484L109.02 236.516Z" fill="#5A3392" style="fill:#5A3392;fill:color(display-p3 0.3529 0.2000 0.5725);fill-opacity:1;" mask="url(#path-1-outside-1_60_236)"/>
<path d="M45 438C45 441.314 47.6863 444 51 444H94.5C97.8137 444 100.5 441.314 100.5 438V398H363V438C363 441.314 365.686 444 369 444H406C409.314 444 412 441.314 412 438V354.5C412 351.186 409.314 348.5 406 348.5H51C47.6863 348.5 45 351.186 45 354.5V438Z" fill="#956D5C" stroke="#5A3392" style="fill:#956D5C;fill:color(display-p3 0.5843 0.4275 0.3608);fill-opacity:1;stroke:#5A3392;stroke:color(display-p3 0.3529 0.2000 0.5725);stroke-opacity:1;" stroke-width="12" stroke-linecap="round" stroke-linejoin="round"/>
<path d="M168.016 294.135L171.52 350.891L153.302 359.299" stroke="#A855F7" style="stroke:#A855F7;stroke:color(display-p3 0.6588 0.3333 0.9686);stroke-opacity:1;" stroke-width="8.40835" stroke-linecap="round"/>
<path d="M270.318 294.835L266.815 351.591L285.033 360" stroke="#A855F7" style="stroke:#A855F7;stroke:color(display-p3 0.6588 0.3333 0.9686);stroke-opacity:1;" stroke-width="8.40835" stroke-linecap="round"/>
<path d="M242.991 219.16C242.991 261.728 208.483 296.237 165.914 296.237C123.346 296.237 88.8379 261.728 88.8379 219.16C88.8379 176.592 123.346 142.084 165.914 142.084C208.483 142.084 242.991 176.592 242.991 219.16Z" fill="#F6EDFF" style="fill:#F6EDFF;fill:color(display-p3 0.9655 0.9292 1.0000);fill-opacity:1;"/>
<path d="M359.307 219.16C359.307 261.728 324.798 296.237 282.23 296.237C239.662 296.237 205.153 261.728 205.153 219.16C205.153 176.592 239.662 142.084 282.23 142.084C324.798 142.084 359.307 176.592 359.307 219.16Z" fill="#F6EDFF" style="fill:#F6EDFF;fill:color(display-p3 0.9655 0.9292 1.0000);fill-opacity:1;"/>
<path d="M301.85 135.077C301.85 177.645 267.341 212.153 224.773 212.153C182.205 212.153 147.696 177.645 147.696 135.077C147.696 92.5084 182.205 58 224.773 58C267.341 58 301.85 92.5084 301.85 135.077Z" fill="#F6EDFF" style="fill:#F6EDFF;fill:color(display-p3 0.9655 0.9292 1.0000);fill-opacity:1;"/>
<path d="M148.397 144.186C140.689 66.4084 203.752 58.7007 231.079 58.7007C252.1 58.7006 308.155 72.7146 300.448 144.186" stroke="#A855F7" style="stroke:#A855F7;stroke:color(display-p3 0.6588 0.3333 0.9686);stroke-opacity:1;" stroke-width="8.40835" stroke-linecap="round"/>
<path d="M301.148 145.587C381.73 160.877 358.702 238.456 353.701 249.29C341.088 276.617 289.235 321.462 226.171 271.712" stroke="#A855F7" style="stroke:#A855F7;stroke:color(display-p3 0.6588 0.3333 0.9686);stroke-opacity:1;" stroke-width="8.40835" stroke-linecap="round"/>
<path d="M224.773 270.311C137.886 329.17 93.4407 258.399 87.4353 238.78C76.9258 204.446 97.2458 151.193 148.396 145.587" stroke="#A855F7" style="stroke:#A855F7;stroke:color(display-p3 0.6588 0.3333 0.9686);stroke-opacity:1;" stroke-width="8.40835" stroke-linecap="round"/>
<circle cx="170.119" cy="179.921" r="21.7216" stroke="#A855F7" style="stroke:#A855F7;stroke:color(display-p3 0.6588 0.3333 0.9686);stroke-opacity:1;" stroke-width="7.00696"/>
<circle cx="276.624" cy="179.921" r="21.7216" stroke="#A855F7" style="stroke:#A855F7;stroke:color(display-p3 0.6588 0.3333 0.9686);stroke-opacity:1;" stroke-width="7.00696"/>
<path d="M192.541 179.921C210.058 159.601 242.991 165.207 253.501 179.921" stroke="#A855F7" style="stroke:#A855F7;stroke:color(display-p3 0.6588 0.3333 0.9686);stroke-opacity:1;" stroke-width="8.40835" stroke-linecap="round"/>
<path d="M231.079 200.942C221.97 210.051 211.46 202.343 210.759 200.942" stroke="#A855F7" style="stroke:#A855F7;stroke:color(display-p3 0.6588 0.3333 0.9686);stroke-opacity:1;" stroke-width="4.20418" stroke-linecap="round"/>
<path d="M180.629 179.921C171.52 189.03 161.009 181.322 160.309 179.921" stroke="#A855F7" style="stroke:#A855F7;stroke:color(display-p3 0.6588 0.3333 0.9686);stroke-opacity:1;" stroke-width="4.20418" stroke-linecap="round"/>
<path d="M288.536 178.52C279.427 187.629 268.917 179.921 268.216 178.52" stroke="#A855F7" style="stroke:#A855F7;stroke:color(display-p3 0.6588 0.3333 0.9686);stroke-opacity:1;" stroke-width="4.20418" stroke-linecap="round"/>
<path d="M192.541 97.1774C195.343 121.702 221.446 117.464 228.977 110.491C247.896 92.9731 226.875 81.0614 217.766 88.0683C196.699 104.273 231.78 125.205 247.195 112.593" stroke="#A855F7" style="stroke:#A855F7;stroke:color(display-p3 0.6588 0.3333 0.9686);stroke-opacity:1;" stroke-width="8.40835" stroke-linecap="round"/>
<g clip-path="url(#clip1_60_236)">
<path d="M375.886 181.015C372.287 179.927 368.584 180.569 365.693 182.459C370.603 188.648 373.467 196.302 373.669 204.288C378.394 203.852 382.589 200.673 384.027 195.917C385.93 189.622 382.285 182.95 375.886 181.015Z" fill="#DDB185" style="fill:#DDB185;fill:color(display-p3 0.8667 0.6941 0.5216);fill-opacity:1;"/>
<path d="M372.993 198.201C375.312 198.003 377.381 196.449 378.085 194.12C379.011 191.058 377.232 187.802 374.119 186.861C372.352 186.326 370.529 186.653 369.114 187.594C370.94 190.901 372.256 194.479 372.993 198.201Z" fill="white" style="fill:white;fill-opacity:1;"/>
<path d="M347.97 250.584L320.671 265.229C319.929 265.626 319.06 265.715 318.254 265.471C317.447 265.227 316.772 264.673 316.376 263.931L301.761 236.613C301.415 235.966 301.118 235.303 300.863 234.628L294.13 256.899C293.625 258.572 294.593 260.345 296.293 260.859L339.091 273.797C340.792 274.311 342.58 273.371 343.086 271.699L349.818 249.427C349.232 249.849 348.617 250.238 347.97 250.584Z" fill="#DDB185" style="fill:#DDB185;fill:color(display-p3 0.8667 0.6941 0.5216);fill-opacity:1;"/>
<path d="M324.746 170.081C323.387 166.906 320.659 164.32 317.061 163.232C310.661 161.298 303.931 164.833 302.028 171.128C300.59 175.885 302.321 180.855 306.014 183.836C310.606 177.299 317.231 172.513 324.746 170.081Z" fill="#DDB185" style="fill:#DDB185;fill:color(display-p3 0.8667 0.6941 0.5216);fill-opacity:1;"/>
<path d="M309.949 179.142C312.624 176.452 315.701 174.203 319.054 172.461C318.398 170.893 317.061 169.612 315.294 169.078C312.181 168.137 308.896 169.862 307.97 172.924C307.266 175.253 308.127 177.692 309.949 179.142Z" fill="white" style="fill:white;fill-opacity:1;"/>
<path d="M308.469 214.423C312.327 212.356 316.76 211.915 320.95 213.182C325.14 214.448 328.586 217.271 330.653 221.13L331.295 222.33L332.495 221.686C336.353 219.619 340.785 219.178 344.977 220.445C349.165 221.711 352.612 224.534 354.678 228.393C355.928 230.728 356.579 233.273 356.621 235.847C363.84 231.343 369.497 224.348 372.133 215.626C377.975 196.306 366.788 175.83 347.148 169.893C327.507 163.955 306.851 174.804 301.01 194.125C298.374 202.847 299.208 211.803 302.722 219.552C304.184 217.433 306.135 215.675 308.469 214.423Z" fill="#EDD7BE" style="fill:#EDD7BE;fill:color(display-p3 0.9294 0.8431 0.7451);fill-opacity:1;"/>
<path opacity="0.1" d="M307.154 215.21C305.645 209.107 305.702 202.555 307.644 196.13C313.152 177.91 331.836 167.227 350.419 171.048C349.356 170.618 348.266 170.231 347.148 169.893C327.507 163.955 306.851 174.804 301.01 194.125C298.374 202.847 299.208 211.803 302.722 219.552C303.9 217.844 305.395 216.372 307.154 215.21Z" fill="#A855F7" style="fill:#A855F7;fill:color(display-p3 0.6588 0.3333 0.9686);fill-opacity:1;"/>
<path d="M320.951 213.181C325.14 214.448 328.587 217.271 330.654 221.13L331.296 222.33L332.496 221.686C336.354 219.619 340.786 219.178 344.978 220.445C345.465 220.592 345.94 220.762 346.406 220.951C347.676 214.058 343.503 207.135 336.527 205.026C329.551 202.917 322.24 206.369 319.48 212.811C319.972 212.912 320.463 213.034 320.951 213.181Z" fill="white" style="fill:white;fill-opacity:1;"/>
<path d="M318.254 265.471C317.447 265.228 316.772 264.673 316.376 263.931L301.761 236.613C299.693 232.756 299.253 228.321 300.52 224.131C301.787 219.939 304.61 216.492 308.47 214.423C312.328 212.355 316.761 211.915 320.95 213.181C325.14 214.448 328.586 217.27 330.654 221.129L331.296 222.33L332.495 221.686C336.353 219.619 340.786 219.178 344.977 220.445C349.165 221.711 352.612 224.534 354.678 228.392C356.745 232.253 357.186 236.687 355.919 240.879C354.652 245.069 351.828 248.517 347.969 250.585L320.671 265.229C319.929 265.627 319.06 265.715 318.254 265.471Z" fill="#FF8163" style="fill:#FF8163;fill:color(display-p3 1.0000 0.5059 0.3882);fill-opacity:1;"/>
<g opacity="0.1">
<path d="M309.035 236.388C306.967 232.53 306.527 228.096 307.793 223.906C309.061 219.714 311.883 216.267 315.743 214.197C316.9 213.578 318.109 213.107 319.346 212.782C315.645 212.053 311.838 212.618 308.469 214.423C304.61 216.492 301.787 219.939 300.52 224.131C299.253 228.321 299.693 232.755 301.761 236.613L316.376 263.931C316.772 264.672 317.447 265.227 318.254 265.471C319.06 265.715 319.929 265.627 320.671 265.229L323.619 263.648L309.035 236.388Z" fill="#A855F7" style="fill:#A855F7;fill:color(display-p3 0.6588 0.3333 0.9686);fill-opacity:1;"/>
</g>
<path d="M348.258 241.378C347.221 244.808 349.207 248.441 352.693 249.495C356.179 250.549 359.845 248.624 360.882 245.194L362.164 240.954C363.2 237.524 361.215 233.891 357.729 232.837C354.243 231.783 350.577 233.708 349.54 237.138L348.258 241.378Z" fill="#EDD7BE" style="fill:#EDD7BE;fill:color(display-p3 0.9294 0.8431 0.7451);fill-opacity:1;"/>
<path d="M293.178 224.727C292.141 228.156 294.126 231.79 297.612 232.844C301.098 233.898 304.765 231.972 305.801 228.543L307.083 224.303C308.12 220.873 306.134 217.239 302.648 216.185C299.162 215.132 295.496 217.057 294.459 220.486L293.178 224.727Z" fill="#EDD7BE" style="fill:#EDD7BE;fill:color(display-p3 0.9294 0.8431 0.7451);fill-opacity:1;"/>
<path d="M340.492 209.696C339.809 211.954 337.395 213.222 335.099 212.528L333.559 212.063C331.263 211.369 329.956 208.976 330.639 206.718C331.322 204.459 333.735 203.191 336.032 203.885L337.571 204.35C339.867 205.044 341.174 207.437 340.492 209.696Z" fill="#8C6239" style="fill:#8C6239;fill:color(display-p3 0.5490 0.3843 0.2235);fill-opacity:1;"/>
<path d="M307.824 256.004C306.084 261.76 299.931 264.991 294.08 263.223C288.229 261.454 284.897 255.355 286.637 249.599L288.06 244.892C289.799 239.137 295.953 235.905 301.803 237.674C307.654 239.442 310.986 245.542 309.247 251.297L307.824 256.004Z" fill="#EDD7BE" style="fill:#EDD7BE;fill:color(display-p3 0.9294 0.8431 0.7451);fill-opacity:1;"/>
<path opacity="0.1" d="M297.515 226.038L298.797 221.798C299.607 219.118 302.023 217.357 304.704 217.217C304.101 216.77 303.411 216.416 302.649 216.186C299.163 215.132 295.497 217.058 294.46 220.487L293.178 224.727C292.141 228.156 294.127 231.79 297.613 232.844C298.375 233.074 299.146 233.162 299.895 233.123C297.74 231.522 296.705 228.718 297.515 226.038Z" fill="#A855F7" style="fill:#A855F7;fill:color(display-p3 0.6588 0.3333 0.9686);fill-opacity:1;"/>
<path opacity="0.1" d="M290.974 250.911L292.397 246.204C293.916 241.18 298.798 238.079 303.906 238.549C303.249 238.194 302.547 237.899 301.804 237.674C295.953 235.905 289.8 239.137 288.06 244.893L286.637 249.6C284.897 255.355 288.23 261.454 294.08 263.223C294.823 263.448 295.571 263.591 296.315 263.659C291.802 261.22 289.455 255.935 290.974 250.911Z" fill="#A855F7" style="fill:#A855F7;fill:color(display-p3 0.6588 0.3333 0.9686);fill-opacity:1;"/>
<path d="M295.81 257.499C298.067 258.181 300.442 256.934 301.113 254.713C301.784 252.492 300.499 250.138 298.241 249.456C295.983 248.773 293.609 250.021 292.938 252.241C292.266 254.462 293.552 256.816 295.81 257.499Z" fill="#DDB185" style="fill:#DDB185;fill:color(display-p3 0.8667 0.6941 0.5216);fill-opacity:1;"/>
<path d="M354.429 270.094C352.689 275.849 346.536 279.081 340.685 277.312C334.835 275.543 331.502 269.444 333.242 263.689L334.665 258.982C336.405 253.227 342.558 249.994 348.409 251.763C354.26 253.532 357.592 259.631 355.852 265.387L354.429 270.094Z" fill="#EDD7BE" style="fill:#EDD7BE;fill:color(display-p3 0.9294 0.8431 0.7451);fill-opacity:1;"/>
<path d="M342.415 271.587C344.672 272.27 347.047 271.023 347.718 268.802C348.389 266.581 347.104 264.227 344.846 263.545C342.588 262.862 340.214 264.109 339.543 266.33C338.871 268.551 340.157 270.905 342.415 271.587Z" fill="#DDB185" style="fill:#DDB185;fill:color(display-p3 0.8667 0.6941 0.5216);fill-opacity:1;"/>
<path d="M296.108 245L296.175 244.778C296.439 243.904 295.945 242.981 295.071 242.717C294.197 242.453 293.274 242.947 293.01 243.821L292.943 244.043C292.679 244.917 293.173 245.84 294.047 246.104C294.921 246.368 295.843 245.874 296.108 245Z" fill="#A855F7" style="fill:#A855F7;fill:color(display-p3 0.6588 0.3333 0.9686);fill-opacity:1;"/>
<path d="M304.616 245.603C303.742 245.339 302.819 245.833 302.555 246.707L302.488 246.929C302.223 247.803 302.718 248.726 303.592 248.99C304.466 249.254 305.388 248.76 305.652 247.886L305.72 247.664C305.984 246.789 305.489 245.867 304.616 245.603Z" fill="#A855F7" style="fill:#A855F7;fill:color(display-p3 0.6588 0.3333 0.9686);fill-opacity:1;"/>
<path d="M299.423 245.682C300.297 245.946 301.219 245.452 301.484 244.578L301.551 244.356C301.815 243.482 301.321 242.56 300.447 242.295C299.573 242.031 298.65 242.525 298.386 243.399L298.319 243.621C298.055 244.495 298.549 245.417 299.423 245.682Z" fill="#A855F7" style="fill:#A855F7;fill:color(display-p3 0.6588 0.3333 0.9686);fill-opacity:1;"/>
<path d="M342.713 259.089L342.78 258.867C343.044 257.993 342.55 257.07 341.676 256.806C340.802 256.542 339.879 257.036 339.615 257.91L339.548 258.132C339.284 259.006 339.778 259.929 340.652 260.193C341.526 260.457 342.448 259.963 342.713 259.089Z" fill="#A855F7" style="fill:#A855F7;fill:color(display-p3 0.6588 0.3333 0.9686);fill-opacity:1;"/>
<path d="M352.257 261.975L352.324 261.752C352.588 260.878 352.094 259.956 351.22 259.692C350.346 259.428 349.424 259.922 349.159 260.796L349.092 261.018C348.828 261.892 349.322 262.814 350.196 263.079C351.07 263.343 351.993 262.849 352.257 261.975Z" fill="#A855F7" style="fill:#A855F7;fill:color(display-p3 0.6588 0.3333 0.9686);fill-opacity:1;"/>
<path d="M348.089 258.666L348.156 258.445C348.42 257.571 347.926 256.648 347.052 256.384C346.178 256.12 345.256 256.614 344.991 257.488L344.924 257.71C344.66 258.584 345.154 259.506 346.028 259.77C346.903 260.035 347.825 259.54 348.089 258.666Z" fill="#A855F7" style="fill:#A855F7;fill:color(display-p3 0.6588 0.3333 0.9686);fill-opacity:1;"/>
<path d="M298.72 247.874C295.594 246.929 292.29 248.673 291.356 251.763C290.422 254.853 292.206 258.136 295.332 259.081C298.459 260.026 301.762 258.281 302.697 255.191C303.631 252.102 301.847 248.819 298.72 247.874ZM296.289 255.916C294.908 255.499 294.115 254.064 294.521 252.72C294.928 251.375 296.382 250.621 297.764 251.038C299.145 251.456 299.938 252.89 299.532 254.234C299.125 255.579 297.67 256.334 296.289 255.916Z" fill="#A855F7" style="fill:#A855F7;fill:color(display-p3 0.6588 0.3333 0.9686);fill-opacity:1;"/>
<path d="M341.937 273.17C345.064 274.115 348.367 272.37 349.301 269.28C350.236 266.191 348.452 262.908 345.325 261.963C342.199 261.018 338.895 262.762 337.961 265.852C337.027 268.942 338.811 272.225 341.937 273.17ZM344.369 265.128C345.75 265.545 346.543 266.979 346.137 268.324C345.73 269.669 344.275 270.423 342.894 270.006C341.512 269.588 340.719 268.154 341.126 266.809C341.532 265.464 342.987 264.71 344.369 265.128Z" fill="#A855F7" style="fill:#A855F7;fill:color(display-p3 0.6588 0.3333 0.9686);fill-opacity:1;"/>
<path d="M322.132 199.669C323.781 200.167 325.52 199.237 326.018 197.592C326.515 195.947 325.582 194.209 323.933 193.711C322.284 193.212 320.545 194.142 320.047 195.787C319.55 197.432 320.483 199.17 322.132 199.669Z" fill="#A855F7" style="fill:#A855F7;fill:color(display-p3 0.6588 0.3333 0.9686);fill-opacity:1;"/>
<path d="M352.095 208.727C353.743 209.225 355.483 208.295 355.981 206.65C356.478 205.005 355.545 203.267 353.896 202.769C352.247 202.27 350.507 203.2 350.01 204.845C349.513 206.49 350.446 208.228 352.095 208.727Z" fill="#A855F7" style="fill:#A855F7;fill:color(display-p3 0.6588 0.3333 0.9686);fill-opacity:1;"/>
<path d="M311.824 235.351L316.342 236.717C316.891 236.883 317.451 236.583 317.617 236.034C317.784 235.485 317.483 234.925 316.934 234.759L313.483 233.716L315.296 227.718C315.477 227.12 315.15 226.51 314.552 226.329C313.954 226.148 313.344 226.475 313.163 227.073L311.08 233.962C310.899 234.561 311.226 235.171 311.824 235.351Z" fill="#A855F7" style="fill:#A855F7;fill:color(display-p3 0.6588 0.3333 0.9686);fill-opacity:1;"/>
<path d="M321.664 238.489C324.333 239.296 327.038 237.898 327.822 235.305L327.83 235.28C328.622 232.658 327.184 230.066 324.484 229.249C321.815 228.442 319.109 229.841 318.325 232.434L318.318 232.459C317.526 235.08 318.964 237.673 321.664 238.489ZM320.554 233.08C321.004 231.589 322.426 230.791 323.86 231.225C325.308 231.663 326.057 233.128 325.602 234.634L325.595 234.658C325.144 236.149 323.722 236.947 322.288 236.513C320.84 236.076 320.091 234.61 320.546 233.105L320.554 233.08Z" fill="#A855F7" style="fill:#A855F7;fill:color(display-p3 0.6588 0.3333 0.9686);fill-opacity:1;"/>
<path d="M329.583 239.969C329.647 240.577 329.97 240.987 330.516 241.152L330.641 241.19C331.188 241.355 331.683 241.193 332.074 240.721L336.998 234.748C337.053 234.684 337.188 234.514 337.248 234.314C337.423 233.736 337.097 233.144 336.506 232.966C335.987 232.809 335.516 233.038 335.278 233.336L331.516 238.159L331.063 232.129C331.023 231.603 330.714 231.214 330.215 231.064C329.617 230.883 329.008 231.204 328.83 231.795C328.773 231.982 328.781 232.164 328.798 232.334L329.583 239.969Z" fill="#A855F7" style="fill:#A855F7;fill:color(display-p3 0.6588 0.3333 0.9686);fill-opacity:1;"/>
<path d="M336.537 242.822L341.442 244.305C341.974 244.466 342.538 244.169 342.697 243.643C342.858 243.11 342.555 242.545 342.022 242.384L338.171 241.22L338.662 239.596L341.889 240.572C342.422 240.733 342.985 240.436 343.144 239.91C343.305 239.377 343.003 238.812 342.47 238.651L339.243 237.676L339.715 236.114L343.503 237.26C344.036 237.421 344.599 237.124 344.758 236.598C344.92 236.065 344.617 235.5 344.084 235.339L339.241 233.875C338.643 233.694 338.033 234.021 337.852 234.619L335.792 241.433C335.612 242.031 335.939 242.642 336.537 242.822Z" fill="#A855F7" style="fill:#A855F7;fill:color(display-p3 0.6588 0.3333 0.9686);fill-opacity:1;"/>
<path d="M385.609 196.395C387.773 189.237 383.626 181.629 376.364 179.433C372.797 178.355 369.135 178.785 366.073 180.346C361.379 174.844 355.085 170.565 347.626 168.31C340.167 166.055 332.557 166.131 325.6 168.111C323.916 165.115 321.106 162.728 317.539 161.65C310.277 159.455 302.609 163.492 300.445 170.649C298.965 175.548 300.443 180.654 303.85 184.094C301.975 186.99 300.473 190.189 299.428 193.647C297.314 200.641 297.345 207.787 299.139 214.398C296.255 214.959 293.776 217.035 292.877 220.008L291.595 224.248C290.296 228.544 292.781 233.11 297.134 234.426C297.786 234.623 298.443 234.735 299.093 234.77L298.859 235.546C293.309 235.416 288.138 238.919 286.477 244.415L285.054 249.121C283.053 255.74 286.888 262.776 293.601 264.805C296.558 265.699 299.587 265.474 302.223 264.379L323.121 270.696C323.995 270.961 324.917 270.466 325.182 269.592C325.446 268.718 324.952 267.796 324.078 267.532L321.386 266.718C321.408 266.706 321.431 266.698 321.452 266.686L332.381 260.824L331.659 263.21C330.991 265.42 330.976 267.675 331.499 269.775L330.407 269.445C329.533 269.181 328.61 269.675 328.346 270.549C328.082 271.423 328.576 272.346 329.45 272.61L333.265 273.763C334.853 276.135 337.25 278 340.206 278.894C346.245 280.72 352.771 277.847 355.386 272.213C355.771 271.385 355.411 270.402 354.583 270.018C353.754 269.632 352.772 269.993 352.388 270.821C350.461 274.971 345.635 277.081 341.163 275.729C336.195 274.227 333.351 269.04 334.824 264.167L336.247 259.46C337.72 254.586 342.961 251.843 347.93 253.345C352.899 254.847 355.743 260.035 354.27 264.908C354.005 265.782 354.5 266.705 355.374 266.969C356.248 267.233 357.17 266.739 357.434 265.865C359.208 259.996 356.393 253.802 351.052 251.059L351.167 250.68C351.503 250.833 351.852 250.968 352.215 251.078C356.568 252.394 361.166 249.969 362.465 245.673L363.747 241.432C364.569 238.711 363.872 235.882 362.145 233.839C364.068 232.191 365.832 230.352 367.405 228.33C367.965 227.609 367.835 226.571 367.114 226.01C366.393 225.449 365.355 225.58 364.794 226.3C363.221 228.324 361.436 230.146 359.48 231.758C359.076 231.559 358.652 231.389 358.208 231.255C357.99 231.189 357.772 231.135 357.553 231.088C357.205 229.896 356.735 228.732 356.136 227.612C354.333 224.245 351.573 221.599 348.211 219.95C348.748 214.375 346.176 208.935 341.627 205.706C340.903 204.342 339.65 203.253 338.049 202.769L336.51 202.303C334.909 201.819 333.263 202.033 331.904 202.766C326.328 202.935 321.172 206.04 318.531 210.979C314.818 210.488 311.055 211.163 307.688 212.967C306.533 213.586 305.465 214.323 304.491 215.154C304.06 214.935 303.605 214.749 303.127 214.604C302.949 214.55 302.771 214.505 302.593 214.464C300.7 208.174 300.565 201.312 302.593 194.604C308.161 176.187 327.934 165.811 346.67 171.476C365.406 177.14 376.119 196.731 370.552 215.148C369.986 217.019 369.261 218.847 368.396 220.581C367.988 221.398 368.32 222.39 369.137 222.798C369.953 223.205 370.946 222.874 371.354 222.057C372.302 220.157 373.097 218.154 373.717 216.105C374.762 212.648 375.283 209.153 375.327 205.703C380.069 204.725 384.129 201.293 385.609 196.395ZM306.241 255.526C304.768 260.4 299.527 263.143 294.558 261.64C289.589 260.138 286.746 254.951 288.219 250.078L289.642 245.371C291.115 240.497 296.356 237.754 301.325 239.256C306.294 240.758 309.138 245.946 307.664 250.819L306.241 255.526ZM305.903 262.037C307.501 260.578 308.738 258.692 309.406 256.483L309.807 255.157L314.918 264.711C314.93 264.733 314.944 264.752 314.956 264.774L305.903 262.037ZM357.251 234.419C359.859 235.208 361.353 237.925 360.582 240.476L359.3 244.716C358.529 247.267 355.779 248.702 353.171 247.913C352.803 247.802 352.458 247.651 352.137 247.469L352.166 247.374C352.143 247.398 352.119 247.421 352.096 247.445C350.174 246.327 349.183 244.032 349.841 241.857L351.123 237.616C351.894 235.065 354.643 233.631 357.251 234.419ZM335.553 205.468L337.093 205.933C338.512 206.362 339.327 207.836 338.909 209.218C338.491 210.6 336.996 211.375 335.577 210.946L334.038 210.481C332.618 210.052 331.803 208.578 332.221 207.196C332.639 205.814 334.134 205.039 335.553 205.468ZM328.975 206.536C328.226 209.574 330.016 212.719 333.081 213.645L334.62 214.111C337.685 215.037 340.918 213.41 341.977 210.467C343.935 212.748 345.03 215.686 344.968 218.728C340.593 217.535 336.009 218.012 331.972 220.094C329.764 216.124 326.211 213.187 321.908 211.757C323.542 209.19 326.081 207.351 328.975 206.536ZM309.25 215.88C312.719 214.021 316.704 213.625 320.472 214.764C324.239 215.903 327.338 218.441 329.196 221.909L329.838 223.11C330.045 223.497 330.397 223.785 330.817 223.912C331.237 224.039 331.69 223.994 332.077 223.787L333.276 223.144C336.744 221.285 340.73 220.888 344.498 222.027C348.265 223.166 351.363 225.704 353.22 229.173C353.552 229.793 353.835 230.431 354.073 231.08C351.252 231.682 348.841 233.737 347.958 236.66L346.676 240.9C345.854 243.617 346.548 246.442 348.269 248.484C347.919 248.712 347.56 248.928 347.188 249.128L346.175 249.672C341.196 249.276 336.413 251.832 334.054 256.174L319.891 263.772C319.531 263.965 319.119 264.006 318.732 263.889C318.35 263.774 318.022 263.505 317.833 263.151L311.12 250.604C312.276 244.802 309.12 238.928 303.618 236.58L303.218 235.832C302.939 235.313 302.696 234.781 302.484 234.241C304.766 233.374 306.63 231.514 307.384 229.021L308.665 224.781C309.478 222.093 308.81 219.3 307.129 217.263C307.789 216.748 308.497 216.284 309.25 215.88ZM302.17 217.768C304.778 218.557 306.272 221.274 305.501 223.825L304.219 228.065C303.448 230.616 300.699 232.05 298.091 231.262C295.483 230.474 293.988 227.756 294.76 225.205L296.041 220.965C296.813 218.414 299.562 216.98 302.17 217.768ZM310.031 176.791C309.407 175.809 309.194 174.586 309.552 173.403C310.214 171.213 312.575 169.983 314.815 170.66C315.583 170.892 316.236 171.32 316.738 171.869C314.334 173.261 312.084 174.909 310.031 176.791ZM319.724 170.306C318.785 169.01 317.426 167.995 315.772 167.495C311.787 166.29 307.577 168.511 306.387 172.446C305.665 174.835 306.221 177.315 307.661 179.164C307.016 179.869 306.397 180.6 305.806 181.356C303.503 178.765 302.55 175.113 303.61 171.606C305.246 166.193 311.065 163.147 316.582 164.814C319.076 165.568 321.086 167.159 322.39 169.175C321.486 169.519 320.597 169.897 319.724 170.306ZM374.227 196.198C373.561 193.494 372.6 190.875 371.37 188.384C372.092 188.205 372.873 188.211 373.641 188.443C375.881 189.121 377.165 191.453 376.503 193.642C376.145 194.825 375.29 195.726 374.227 196.198ZM375.216 202.339C375.142 201.382 375.032 200.431 374.886 199.487C377.109 198.745 378.945 196.988 379.667 194.599C380.857 190.665 378.582 186.484 374.597 185.279C372.942 184.778 371.249 184.87 369.75 185.429C369.249 184.605 368.718 183.798 368.157 183.011C370.36 182.055 372.914 181.844 375.408 182.598C380.924 184.266 384.081 190.026 382.445 195.439C381.384 198.946 378.568 201.457 375.216 202.339Z" fill="#A855F7" style="fill:#A855F7;fill:color(display-p3 0.6588 0.3333 0.9686);fill-opacity:1;"/>
</g>
<path d="M315.14 85V81.7L323.42 69.97C323.7 69.57 323.97 69.21 324.23 68.89C324.51 68.57 324.72 68.34 324.86 68.2L325.07 68.02V67.96C324.61 68.02 324.06 68.05 323.42 68.05H315.53V63.55H331.73V66.79L323.42 78.58C323.14 78.98 322.86 79.34 322.58 79.66C322.32 79.98 322.12 80.2 321.98 80.32L321.77 80.53V80.59C322.23 80.53 322.78 80.5 323.42 80.5H331.88V85H315.14Z" fill="#A855F7" style="fill:#A855F7;fill:color(display-p3 0.6588 0.3333 0.9686);fill-opacity:1;"/>
<path d="M342.14 67V63.7L350.42 51.97C350.7 51.57 350.97 51.21 351.23 50.89C351.51 50.57 351.72 50.34 351.86 50.2L352.07 50.02V49.96C351.61 50.02 351.06 50.05 350.42 50.05H342.53V45.55H358.73V48.79L350.42 60.58C350.14 60.98 349.86 61.34 349.58 61.66C349.32 61.98 349.12 62.2 348.98 62.32L348.77 62.53V62.59C349.23 62.53 349.78 62.5 350.42 62.5H358.88V67H342.14Z" fill="#A855F7" style="fill:#A855F7;fill:color(display-p3 0.6588 0.3333 0.9686);fill-opacity:1;"/>
<path d="M369.14 53V49.7L377.42 37.97C377.7 37.57 377.97 37.21 378.23 36.89C378.51 36.57 378.72 36.34 378.86 36.2L379.07 36.02V35.96C378.61 36.02 378.06 36.05 377.42 36.05H369.53V31.55H385.73V34.79L377.42 46.58C377.14 46.98 376.86 47.34 376.58 47.66C376.32 47.98 376.12 48.2 375.98 48.32L375.77 48.53V48.59C376.23 48.53 376.78 48.5 377.42 48.5H385.88V53H369.14Z" fill="#A855F7" style="fill:#A855F7;fill:color(display-p3 0.6588 0.3333 0.9686);fill-opacity:1;"/>
<path d="M48.5 353.498V359.498H54.5H406H411.702L411.992 353.803C412.422 345.38 412.542 329.842 408.877 313.724C405.228 297.676 397.634 280.228 381.974 269.106C353.897 249.164 310.455 239.053 267.768 234.904C224.872 230.735 181.604 232.488 153.048 237.076C119.261 242.505 92.6917 250.462 74.7834 268.233C56.663 286.214 48.5 313.079 48.5 353.498Z" fill="#D5EAFF" stroke="#5A3392" style="fill:#D5EAFF;fill:color(display-p3 0.8367 0.9183 1.0000);fill-opacity:1;stroke:#5A3392;stroke:color(display-p3 0.3529 0.2000 0.5725);stroke-opacity:1;" stroke-width="12" stroke-linecap="round"/>
<path d="M376.5 209C391.5 220 388 283.5 293.5 236" stroke="#A855F7" style="stroke:#A855F7;stroke:color(display-p3 0.6588 0.3333 0.9686);stroke-opacity:1;" stroke-width="8.40835" stroke-linecap="round"/>
<path d="M87.9253 194C38.0962 209.562 111 312 280.5 252.5" stroke="#A855F7" style="stroke:#A855F7;stroke:color(display-p3 0.6588 0.3333 0.9686);stroke-opacity:1;" stroke-width="8.40835" stroke-linecap="round"/>
</g>
<defs>
<clipPath id="clip0_60_236">
<rect width="446" height="446" fill="white" style="fill:white;fill-opacity:1;"/>
</clipPath>
<clipPath id="clip1_60_236">
<rect width="108" height="108" fill="white" style="fill:white;fill-opacity:1;" transform="translate(295.937 152.684) rotate(16.8204)"/>
</clipPath>
</defs>
</svg>
