<svg width="446" height="446" viewBox="0 0 446 446" fill="none" xmlns="http://www.w3.org/2000/svg">
<path d="M167.016 308.135L170.52 364.891L152.302 373.299" stroke="#A855F7" style="stroke:#A855F7;stroke:color(display-p3 0.6588 0.3333 0.9686);stroke-opacity:1;" stroke-width="8.40835" stroke-linecap="round"/>
<path d="M269.318 308.835L265.815 365.591L284.033 374" stroke="#A855F7" style="stroke:#A855F7;stroke:color(display-p3 0.6588 0.3333 0.9686);stroke-opacity:1;" stroke-width="8.40835" stroke-linecap="round"/>
<path d="M241.991 233.16C241.991 275.728 207.483 310.237 164.914 310.237C122.346 310.237 87.8379 275.728 87.8379 233.16C87.8379 190.592 122.346 156.084 164.914 156.084C207.483 156.084 241.991 190.592 241.991 233.16Z" fill="#F6EDFF" style="fill:#F6EDFF;fill:color(display-p3 0.9655 0.9292 1.0000);fill-opacity:1;"/>
<path d="M358.307 233.16C358.307 275.728 323.798 310.237 281.23 310.237C238.662 310.237 204.153 275.728 204.153 233.16C204.153 190.592 238.662 156.084 281.23 156.084C323.798 156.084 358.307 190.592 358.307 233.16Z" fill="#F6EDFF" style="fill:#F6EDFF;fill:color(display-p3 0.9655 0.9292 1.0000);fill-opacity:1;"/>
<path d="M300.85 149.077C300.85 191.645 266.341 226.153 223.773 226.153C181.205 226.153 146.696 191.645 146.696 149.077C146.696 106.508 181.205 72 223.773 72C266.341 72 300.85 106.508 300.85 149.077Z" fill="#F6EDFF" style="fill:#F6EDFF;fill:color(display-p3 0.9655 0.9292 1.0000);fill-opacity:1;"/>
<path d="M147.397 158.186C139.689 80.4084 202.752 72.7007 230.079 72.7007C251.1 72.7006 307.155 86.7146 299.448 158.186" stroke="#A855F7" style="stroke:#A855F7;stroke:color(display-p3 0.6588 0.3333 0.9686);stroke-opacity:1;" stroke-width="8.40835" stroke-linecap="round"/>
<path d="M300.148 159.587C380.73 174.877 357.702 252.456 352.701 263.29C340.088 290.617 288.235 335.462 225.171 285.712" stroke="#A855F7" style="stroke:#A855F7;stroke:color(display-p3 0.6588 0.3333 0.9686);stroke-opacity:1;" stroke-width="8.40835" stroke-linecap="round"/>
<path d="M223.773 284.311C136.886 343.17 92.4407 272.399 86.4353 252.78C75.9258 218.446 96.2458 165.193 147.396 159.587" stroke="#A855F7" style="stroke:#A855F7;stroke:color(display-p3 0.6588 0.3333 0.9686);stroke-opacity:1;" stroke-width="8.40835" stroke-linecap="round"/>
<circle cx="169.119" cy="193.921" r="21.7216" stroke="#A855F7" style="stroke:#A855F7;stroke:color(display-p3 0.6588 0.3333 0.9686);stroke-opacity:1;" stroke-width="7.00696"/>
<circle cx="275.624" cy="193.921" r="21.7216" stroke="#A855F7" style="stroke:#A855F7;stroke:color(display-p3 0.6588 0.3333 0.9686);stroke-opacity:1;" stroke-width="7.00696"/>
<path d="M191.541 193.921C209.058 173.601 241.991 179.207 252.501 193.921" stroke="#A855F7" style="stroke:#A855F7;stroke:color(display-p3 0.6588 0.3333 0.9686);stroke-opacity:1;" stroke-width="8.40835" stroke-linecap="round"/>
<path d="M179.629 193.921C170.52 203.03 160.009 195.322 159.309 193.921" stroke="#A855F7" style="stroke:#A855F7;stroke:color(display-p3 0.6588 0.3333 0.9686);stroke-opacity:1;" stroke-width="4.20418" stroke-linecap="round"/>
<path d="M287.536 192.52C278.427 201.629 267.917 193.921 267.216 192.52" stroke="#A855F7" style="stroke:#A855F7;stroke:color(display-p3 0.6588 0.3333 0.9686);stroke-opacity:1;" stroke-width="4.20418" stroke-linecap="round"/>
<path d="M191.541 111.177C194.343 135.702 220.446 131.464 227.977 124.491C246.896 106.973 225.875 95.0614 216.766 102.068C195.699 118.273 230.78 139.205 246.195 126.593" stroke="#A855F7" style="stroke:#A855F7;stroke:color(display-p3 0.6588 0.3333 0.9686);stroke-opacity:1;" stroke-width="8.40835" stroke-linecap="round"/>
<g clip-path="url(#clip0_65_838)">
<path d="M243.302 222.005C246.615 218.871 251.455 217.965 255.677 219.69C259.899 221.414 262.722 225.449 262.894 230.006L263.296 240.657L264.766 251.073C265.677 257.537 262.065 263.79 256.011 266.23L253.8 267.121C248.386 269.302 242.196 267.089 239.392 261.97C239.065 261.373 238.364 261.086 237.712 261.284C232.126 262.977 226.156 260.225 223.817 254.877L222.862 252.693C220.246 246.713 222.043 239.719 227.219 235.741L235.559 229.331L243.302 222.005Z" fill="#A7DB53" stroke="#A855F7" style="fill:#A7DB53;fill:color(display-p3 0.6545 0.8599 0.3239);fill-opacity:1;stroke:#A855F7;stroke:color(display-p3 0.6588 0.3333 0.9686);stroke-opacity:1;" stroke-width="5.75"/>
<path d="M254.524 213.007C255.14 214.035 256.287 216.677 255.949 219.024C255.612 221.37 254.36 223.55 253.776 224.347" stroke="#A855F7" style="stroke:#A855F7;stroke:color(display-p3 0.6588 0.3333 0.9686);stroke-opacity:1;" stroke-width="5.75" stroke-linecap="round"/>
<path d="M233.075 244.62C234.545 245.22 236.224 244.515 236.824 243.045C237.424 241.575 236.719 239.897 235.249 239.296C233.779 238.696 232.101 239.401 231.501 240.871C230.9 242.341 231.605 244.019 233.075 244.62Z" fill="white" style="fill:white;fill-opacity:1;"/>
<path d="M232.476 253.691C233.946 254.292 235.624 253.587 236.225 252.117C236.825 250.647 236.12 248.968 234.65 248.368C233.18 247.768 231.502 248.473 230.901 249.943C230.301 251.413 231.006 253.091 232.476 253.691Z" fill="white" style="fill:white;fill-opacity:1;"/>
<path d="M241.304 251.085C242.774 251.686 244.452 250.981 245.052 249.511C245.653 248.041 244.948 246.362 243.478 245.762C242.008 245.162 240.329 245.867 239.729 247.337C239.129 248.807 239.834 250.485 241.304 251.085Z" fill="white" style="fill:white;fill-opacity:1;"/>
</g>
<path d="M358.306 210.738C403.5 250 341 299.5 263 253" stroke="#A855F7" style="stroke:#A855F7;stroke:color(display-p3 0.6588 0.3333 0.9686);stroke-opacity:1;" stroke-width="8.40835" stroke-linecap="round"/>
<path d="M86 210C104.5 263.498 153 285 228.5 250" stroke="#A855F7" style="stroke:#A855F7;stroke:color(display-p3 0.6588 0.3333 0.9686);stroke-opacity:1;" stroke-width="8.40835" stroke-linecap="round"/>
<ellipse cx="210.5" cy="222" rx="8.5" ry="9" fill="#A855F7" style="fill:#A855F7;fill:color(display-p3 0.6588 0.3333 0.9686);fill-opacity:1;"/>
<defs>
<clipPath id="clip0_65_838">
<rect width="69" height="69" fill="white" style="fill:white;fill-opacity:1;" transform="translate(228.085 196) rotate(22.2129)"/>
</clipPath>
</defs>
</svg>
