<svg width="446" height="446" viewBox="0 0 446 446" fill="none" xmlns="http://www.w3.org/2000/svg">
<path d="M213.013 51.7564L213.009 51.7653L166.766 145.213L63.4904 160.188L63.4848 160.188C53.842 161.609 45.7576 168.246 42.7577 177.404C39.7683 186.529 42.1908 196.613 49.1452 203.364L124.082 276.185L106.39 379.096L106.389 379.101C104.77 388.642 108.819 398.322 116.809 403.95C124.784 409.567 135.323 410.275 144.013 405.77L144.024 405.765L236.296 357.38L328.567 405.765L328.578 405.77C337.255 410.268 347.802 409.65 355.796 403.94C363.764 398.249 367.822 388.652 366.202 379.101L366.2 379.094L348.437 276.184L423.373 203.364C423.373 203.364 423.374 203.363 423.374 203.363C430.316 196.624 432.833 186.537 429.754 177.385C426.683 168.256 418.69 161.611 409.033 160.188L409.028 160.188L305.68 145.213L259.44 51.773C259.44 51.7716 259.439 51.7702 259.438 51.7688C255.146 43.0235 246.105 37.5 236.223 37.5C226.326 37.5 217.373 43.0348 213.013 51.7564Z" fill="#FFD11A" stroke="#A855F7" style="fill:#FFD11A;fill:color(display-p3 1.0000 0.8207 0.1033);fill-opacity:1;stroke:#A855F7;stroke:color(display-p3 0.6588 0.3333 0.9686);stroke-opacity:1;" stroke-width="5"/>
<path d="M250.522 249.191C250.522 281.467 224.358 307.631 192.083 307.631C159.808 307.631 133.644 281.467 133.644 249.191C133.644 216.916 159.808 190.752 192.083 190.752C224.358 190.752 250.522 216.916 250.522 249.191Z" fill="#F6EDFF" style="fill:#F6EDFF;fill:color(display-p3 0.9655 0.9292 1.0000);fill-opacity:1;"/>
<path d="M338.713 249.191C338.713 281.467 312.549 307.631 280.273 307.631C247.998 307.631 221.834 281.467 221.834 249.191C221.834 216.916 247.998 190.752 280.273 190.752C312.549 190.752 338.713 216.916 338.713 249.191Z" fill="#F6EDFF" style="fill:#F6EDFF;fill:color(display-p3 0.9655 0.9292 1.0000);fill-opacity:1;"/>
<path d="M295.149 185.439C295.149 217.715 268.985 243.879 236.709 243.879C204.434 243.879 178.27 217.715 178.27 185.439C178.27 153.164 204.434 127 236.709 127C268.985 127 295.149 153.164 295.149 185.439Z" fill="#F6EDFF" style="fill:#F6EDFF;fill:color(display-p3 0.9655 0.9292 1.0000);fill-opacity:1;"/>
<path d="M178.801 192.346C172.957 133.375 220.771 127.531 241.491 127.531C257.429 127.531 299.93 138.157 294.086 192.346" stroke="#A855F7" style="stroke:#A855F7;stroke:color(display-p3 0.6588 0.3333 0.9686);stroke-opacity:1;" stroke-width="6.37521" stroke-linecap="round"/>
<path d="M294.617 193.409C355.714 205.002 338.254 263.822 334.463 272.036C324.899 292.756 285.585 326.757 237.769 289.037" stroke="#A855F7" style="stroke:#A855F7;stroke:color(display-p3 0.6588 0.3333 0.9686);stroke-opacity:1;" stroke-width="6.37521" stroke-linecap="round"/>
<path d="M236.709 287.974C170.832 332.601 137.133 278.943 132.58 264.067C124.612 238.035 140.018 197.659 178.8 193.409" stroke="#A855F7" style="stroke:#A855F7;stroke:color(display-p3 0.6588 0.3333 0.9686);stroke-opacity:1;" stroke-width="6.37521" stroke-linecap="round"/>
<circle cx="195.271" cy="219.441" r="16.4693" stroke="#A855F7" style="stroke:#A855F7;stroke:color(display-p3 0.6588 0.3333 0.9686);stroke-opacity:1;" stroke-width="5.31267"/>
<circle cx="276.023" cy="219.441" r="16.4693" stroke="#A855F7" style="stroke:#A855F7;stroke:color(display-p3 0.6588 0.3333 0.9686);stroke-opacity:1;" stroke-width="5.31267"/>
<path d="M212.271 219.441C225.553 204.034 250.522 208.284 258.491 219.441" stroke="#A855F7" style="stroke:#A855F7;stroke:color(display-p3 0.6588 0.3333 0.9686);stroke-opacity:1;" stroke-width="6.37521" stroke-linecap="round"/>
<path d="M241.491 235.379C234.584 242.285 226.615 236.441 226.084 235.379" stroke="#A855F7" style="stroke:#A855F7;stroke:color(display-p3 0.6588 0.3333 0.9686);stroke-opacity:1;" stroke-width="3.1876" stroke-linecap="round"/>
<path d="M203.24 219.441C196.333 226.347 188.364 220.503 187.833 219.441" stroke="#A855F7" style="stroke:#A855F7;stroke:color(display-p3 0.6588 0.3333 0.9686);stroke-opacity:1;" stroke-width="3.1876" stroke-linecap="round"/>
<path d="M285.055 218.378C278.148 225.285 270.179 219.441 269.648 218.378" stroke="#A855F7" style="stroke:#A855F7;stroke:color(display-p3 0.6588 0.3333 0.9686);stroke-opacity:1;" stroke-width="3.1876" stroke-linecap="round"/>
<path d="M212.271 156.705C214.396 175.299 234.187 172.086 239.897 166.799C254.241 153.517 238.303 144.485 231.397 149.798C215.424 162.084 242.022 177.955 253.71 168.392" stroke="#A855F7" style="stroke:#A855F7;stroke:color(display-p3 0.6588 0.3333 0.9686);stroke-opacity:1;" stroke-width="6.37521" stroke-linecap="round"/>
<path d="M276.687 305.935C276.687 302.075 302.484 335.676 261.947 345.455C261.074 345.666 260.819 346.844 261.575 347.328L276.687 357" stroke="#A855F7" style="stroke:#A855F7;stroke:color(display-p3 0.6588 0.3333 0.9686);stroke-opacity:1;" stroke-width="6.82379" stroke-linecap="round"/>
<path d="M189.5 306.5C227.099 336.548 142.5 350 189.5 359" stroke="#A855F7" style="stroke:#A855F7;stroke:color(display-p3 0.6588 0.3333 0.9686);stroke-opacity:1;" stroke-width="6.82379" stroke-linecap="round"/>
<path d="M132.003 232.723C110 223.5 82 251.5 92.5 269.5" stroke="#A855F7" style="stroke:#A855F7;stroke:color(display-p3 0.6588 0.3333 0.9686);stroke-opacity:1;" stroke-width="6.37521" stroke-linecap="round"/>
<path d="M94.3252 280.851C103.262 279.704 97.0932 269.939 92.1 269.785C89.879 269.717 77.1508 280.871 94.3252 280.851Z" stroke="#A855F7" style="stroke:#A855F7;stroke:color(display-p3 0.6588 0.3333 0.9686);stroke-opacity:1;" stroke-width="6.82379" stroke-linecap="round"/>
<path d="M339.997 239.63C365.497 237.505 370.633 212.004 368.685 205.098" stroke="#A855F7" style="stroke:#A855F7;stroke:color(display-p3 0.6588 0.3333 0.9686);stroke-opacity:1;" stroke-width="6.37521" stroke-linecap="round"/>
<path d="M371.325 204.851C380.262 203.704 374.093 193.939 369.1 193.785C366.879 193.717 354.151 204.871 371.325 204.851Z" stroke="#A855F7" style="stroke:#A855F7;stroke:color(display-p3 0.6588 0.3333 0.9686);stroke-opacity:1;" stroke-width="6.82379" stroke-linecap="round"/>
<path d="M205.28 185.382C198.374 192.288 190.405 186.444 189.874 185.382" stroke="#A855F7" style="stroke:#A855F7;stroke:color(display-p3 0.6588 0.3333 0.9686);stroke-opacity:1;" stroke-width="3.1876" stroke-linecap="round"/>
<path d="M280.342 185.382C273.435 192.288 265.466 186.444 264.935 185.382" stroke="#A855F7" style="stroke:#A855F7;stroke:color(display-p3 0.6588 0.3333 0.9686);stroke-opacity:1;" stroke-width="3.1876" stroke-linecap="round"/>
<path d="M80.3756 333.617C36.5151 378.809 13.9329 400.624 8.1244 405.882" stroke="#FFD11A" style="stroke:#FFD11A;stroke:color(display-p3 1.0000 0.8207 0.1033);stroke-opacity:1;" stroke-width="14" stroke-linecap="round"/>
<path d="M101.251 359.479C73.5 388.5 73 390.5 66.5 398" stroke="#FFD11A" style="stroke:#FFD11A;stroke:color(display-p3 1.0000 0.8207 0.1033);stroke-opacity:1;" stroke-width="14" stroke-linecap="round"/>
<path d="M56.5548 319.199C19 337 27 334 10.1961 342.489" stroke="#FFD11A" style="stroke:#FFD11A;stroke:color(display-p3 1.0000 0.8207 0.1033);stroke-opacity:1;" stroke-width="14" stroke-linecap="round"/>
<path d="M103.057 83.5735C102.585 82.6119 101.588 82 100.494 82C99.3988 82 98.4109 82.6119 97.9302 83.5735L92.2072 95.1386L79.426 96.9918C78.3579 97.1492 77.4679 97.8835 77.1385 98.8887C76.8092 99.894 77.0762 101.004 77.8417 101.747L87.1161 110.76L84.9265 123.496C84.7485 124.545 85.1935 125.612 86.0747 126.232C86.9559 126.853 88.1218 126.932 89.0831 126.433L100.503 120.445L111.922 126.433C112.883 126.932 114.049 126.862 114.93 126.232C115.811 125.603 116.257 124.545 116.078 123.496L113.88 110.76L123.154 101.747C123.92 101.004 124.196 99.894 123.858 98.8887C123.519 97.8835 122.638 97.1492 121.57 96.9918L108.78 95.1386L103.057 83.5735Z" fill="#FFD11A" style="fill:#FFD11A;fill:color(display-p3 1.0000 0.8207 0.1033);fill-opacity:1;"/>
<path d="M357.057 83.5735C356.585 82.6119 355.588 82 354.494 82C353.399 82 352.411 82.6119 351.93 83.5735L346.207 95.1386L333.426 96.9918C332.358 97.1492 331.468 97.8835 331.139 98.8887C330.809 99.894 331.076 101.004 331.842 101.747L341.116 110.76L338.927 123.496C338.749 124.545 339.194 125.612 340.075 126.232C340.956 126.853 342.122 126.932 343.083 126.433L354.503 120.445L365.922 126.433C366.883 126.932 368.049 126.862 368.93 126.232C369.811 125.603 370.257 124.545 370.078 123.496L367.88 110.76L377.154 101.747C377.92 101.004 378.196 99.894 377.858 98.8887C377.519 97.8835 376.638 97.1492 375.57 96.9918L362.78 95.1386L357.057 83.5735Z" fill="#FFD11A" style="fill:#FFD11A;fill:color(display-p3 1.0000 0.8207 0.1033);fill-opacity:1;"/>
</svg>
