<svg width="446" height="446" viewBox="0 0 446 446" fill="none" xmlns="http://www.w3.org/2000/svg">
<g clip-path="url(#clip0_71_1707)">
<path d="M117.726 254.506C114.297 241.074 108.209 198.005 111.296 133.187C150.021 141.475 248.133 152.393 330.784 129.758C345.188 158.223 335.642 224.784 329.069 254.506C322.21 258.221 270.339 263.423 117.726 254.506Z" fill="#8F3529" style="fill:#8F3529;fill:color(display-p3 0.5625 0.2085 0.1617);fill-opacity:1;"/>
<path d="M175.854 210.123L178.694 256.125L163.927 262.941" stroke="#A855F7" style="stroke:#A855F7;stroke:color(display-p3 0.6588 0.3333 0.9686);stroke-opacity:1;" stroke-width="6.81524" stroke-linecap="round"/>
<path d="M258.773 210.69L255.933 256.693L270.699 263.509" stroke="#A855F7" style="stroke:#A855F7;stroke:color(display-p3 0.6588 0.3333 0.9686);stroke-opacity:1;" stroke-width="6.81524" stroke-linecap="round"/>
<path d="M236.623 149.353C236.623 183.856 208.653 211.826 174.15 211.826C139.647 211.826 111.677 183.856 111.677 149.353C111.677 114.851 139.647 86.8804 174.15 86.8804C208.653 86.8804 236.623 114.851 236.623 149.353Z" fill="#F6EDFF" style="fill:#F6EDFF;fill:color(display-p3 0.9655 0.9292 1.0000);fill-opacity:1;"/>
<path d="M330.901 149.353C330.901 183.856 302.931 211.826 268.428 211.826C233.925 211.826 205.955 183.856 205.955 149.353C205.955 114.851 233.925 86.8804 268.428 86.8804C302.931 86.8804 330.901 114.851 330.901 149.353Z" fill="#F6EDFF" style="fill:#F6EDFF;fill:color(display-p3 0.9655 0.9292 1.0000);fill-opacity:1;"/>
<path d="M284.33 81.2011C284.33 115.704 256.36 143.674 221.857 143.674C187.354 143.674 159.384 115.704 159.384 81.2011C159.384 46.6982 187.354 18.728 221.857 18.728C256.36 18.728 284.33 46.6982 284.33 81.2011Z" fill="#F6EDFF" style="fill:#F6EDFF;fill:color(display-p3 0.9655 0.9292 1.0000);fill-opacity:1;"/>
<path d="M159.952 88.5837C153.705 25.5427 204.819 19.2955 226.969 19.2954C244.007 19.2954 289.442 30.6542 283.195 88.5837" stroke="#A855F7" style="stroke:#A855F7;stroke:color(display-p3 0.6588 0.3333 0.9686);stroke-opacity:1;" stroke-width="6.81524" stroke-linecap="round"/>
<path d="M283.762 89.7202C349.076 102.113 330.411 164.994 326.358 173.775C316.134 195.924 274.106 232.272 222.99 191.949" stroke="#A855F7" style="stroke:#A855F7;stroke:color(display-p3 0.6588 0.3333 0.9686);stroke-opacity:1;" stroke-width="6.81524" stroke-linecap="round"/>
<path d="M221.857 190.813C151.433 238.519 115.408 181.158 110.54 165.256C102.022 137.427 118.492 94.2636 159.951 89.7201" stroke="#A855F7" style="stroke:#A855F7;stroke:color(display-p3 0.6588 0.3333 0.9686);stroke-opacity:1;" stroke-width="6.81524" stroke-linecap="round"/>
<circle cx="177.558" cy="117.549" r="17.606" stroke="#A855F7" style="stroke:#A855F7;stroke:color(display-p3 0.6588 0.3333 0.9686);stroke-opacity:1;" stroke-width="5.67937"/>
<circle cx="263.884" cy="117.549" r="17.606" stroke="#A855F7" style="stroke:#A855F7;stroke:color(display-p3 0.6588 0.3333 0.9686);stroke-opacity:1;" stroke-width="5.67937"/>
<path d="M195.732 117.549C209.93 101.078 236.623 105.622 245.142 117.549" stroke="#A855F7" style="stroke:#A855F7;stroke:color(display-p3 0.6588 0.3333 0.9686);stroke-opacity:1;" stroke-width="6.81524" stroke-linecap="round"/>
<path d="M226.968 134.587C219.585 141.97 211.066 135.723 210.498 134.587" stroke="#A855F7" style="stroke:#A855F7;stroke:color(display-p3 0.6588 0.3333 0.9686);stroke-opacity:1;" stroke-width="3.40762" stroke-linecap="round"/>
<circle cx="176.422" cy="124.364" r="6.81524" fill="#A855F7" style="fill:#A855F7;fill:color(display-p3 0.6588 0.3333 0.9686);fill-opacity:1;"/>
<circle cx="263.884" cy="123.228" r="6.81524" fill="#A855F7" style="fill:#A855F7;fill:color(display-p3 0.6588 0.3333 0.9686);fill-opacity:1;"/>
<path d="M196.868 51.1001C199.139 70.9778 220.296 67.5429 226.4 61.8909C241.735 47.6923 224.697 38.0375 217.313 43.7168C200.239 56.8512 228.672 73.8174 241.167 63.5946" stroke="#A855F7" style="stroke:#A855F7;stroke:color(display-p3 0.6588 0.3333 0.9686);stroke-opacity:1;" stroke-width="6.81524" stroke-linecap="round"/>
<path d="M219.754 185.059C199.034 176.342 147.477 152.136 113.868 128.472C101.436 141.762 109.709 174.467 121.584 185.059C137.446 199.206 159.309 228.357 219.754 192.776C277.627 231.786 314.922 194.49 327.354 174.342C337.3 158.223 331.498 137.618 327.354 129.33L219.754 185.059Z" fill="#FECEC8" style="fill:#FECEC8;fill:color(display-p3 0.9958 0.8089 0.7842);fill-opacity:1;"/>
<path d="M333.875 133.331C355.648 136.189 393.372 129.33 399.803 100.608M113.868 128.472C147.477 152.136 199.034 176.342 219.754 185.059L327.354 129.33C331.498 137.618 337.3 158.223 327.354 174.342C314.922 194.49 277.627 231.786 219.754 192.776C159.309 228.357 137.446 199.206 121.584 185.059C109.709 174.467 101.436 141.762 113.868 128.472Z" stroke="#A855F7" style="stroke:#A855F7;stroke:color(display-p3 0.6588 0.3333 0.9686);stroke-opacity:1;" stroke-width="6.81524" stroke-linecap="round"/>
<path d="M131.444 179.914C184.602 195.776 287.058 193.632 330.355 159.337" stroke="#552C12" style="stroke:#552C12;stroke:color(display-p3 0.3333 0.1723 0.0722);stroke-opacity:1;" stroke-width="9.43113" stroke-linecap="round"/>
<path d="M112.153 131.179C71.4278 159.766 106.151 200.92 169.597 192.346" stroke="#A855F7" style="stroke:#A855F7;stroke:color(display-p3 0.6588 0.3333 0.9686);stroke-opacity:1;" stroke-width="6.81524" stroke-linecap="round"/>
<path d="M77.0051 167.054C76.5764 143.047 103.151 129.758 113.011 126.328C114.44 133.33 118.502 151.278 106.156 167.054C124.675 158.823 137.307 166.482 141.308 171.341C140.451 179.486 136.936 197.833 129.734 206.064C105.299 209.922 77.4338 191.06 77.0051 167.054Z" fill="#8F3529" style="fill:#8F3529;fill:color(display-p3 0.5625 0.2085 0.1617);fill-opacity:1;"/>
<path d="M358.649 111.753C355.791 116.611 348.532 124.957 328.641 122.899C327.497 126.471 314.665 136.874 296.489 146.477C315.494 153.907 361.735 164.31 384.37 146.477C381.941 138.189 373.396 119.641 358.649 111.753Z" fill="#8F3529" style="fill:#8F3529;fill:color(display-p3 0.5625 0.2085 0.1617);fill-opacity:1;"/>
<path d="M77.0051 167.054C76.5764 143.047 103.151 129.758 113.011 126.328C114.44 133.33 118.502 151.278 106.156 167.054C124.675 158.823 137.307 166.482 141.308 171.341C140.451 179.486 136.936 197.833 129.734 206.064C105.299 209.922 77.4338 191.06 77.0051 167.054Z" stroke="#A855F7" style="stroke:#A855F7;stroke:color(display-p3 0.6588 0.3333 0.9686);stroke-opacity:1;" stroke-width="6.00163"/>
<path d="M358.649 111.753C355.791 116.611 348.532 124.957 328.641 122.899C327.497 126.471 314.665 136.874 296.489 146.477C315.494 153.907 361.735 164.31 384.37 146.477C381.941 138.189 373.396 119.641 358.649 111.753Z" stroke="#A855F7" style="stroke:#A855F7;stroke:color(display-p3 0.6588 0.3333 0.9686);stroke-opacity:1;" stroke-width="6.00163"/>
<g filter="url(#filter0_f_71_1707)">
<rect width="175.967" height="8.39058" rx="4.19529" transform="matrix(0.905754 -0.423804 0.518387 0.855146 186.49 178.548)" fill="#249234" style="fill:#249234;fill:color(display-p3 0.1403 0.5708 0.2049);fill-opacity:1;"/>
</g>
<rect width="175.967" height="8.39058" rx="4.19529" transform="matrix(0.905754 -0.423804 0.518387 0.855146 186.49 178.548)" fill="#1FE36A" style="fill:#1FE36A;fill:color(display-p3 0.1226 0.8917 0.4174);fill-opacity:1;"/>
<g opacity="0.57" filter="url(#filter1_f_71_1707)">
<rect width="178.483" height="12.754" rx="6.00163" transform="matrix(0.905754 -0.423804 0.518387 0.855146 186.745 176.678)" fill="#8EFF92" style="fill:#8EFF92;fill:color(display-p3 0.5584 1.0000 0.5731);fill-opacity:1;"/>
</g>
<rect width="36.8671" height="12.438" transform="translate(163.596 187.565) rotate(-25.2772)" fill="#643ABA" style="fill:#643ABA;fill:color(display-p3 0.3922 0.2275 0.7294);fill-opacity:1;"/>
<path d="M259.508 394.282L261.016 418.717L250.036 415.651" stroke="#A855F7" style="stroke:#A855F7;stroke:color(display-p3 0.6588 0.3333 0.9686);stroke-opacity:1;" stroke-width="3.62002" stroke-linecap="round"/>
<path d="M303.551 394.583L302.043 419.018L314.476 416.789" stroke="#A855F7" style="stroke:#A855F7;stroke:color(display-p3 0.6588 0.3333 0.9686);stroke-opacity:1;" stroke-width="3.62002" stroke-linecap="round"/>
<path d="M291.786 362.003C291.786 380.33 276.93 395.187 258.603 395.187C240.276 395.187 225.419 380.33 225.419 362.003C225.419 343.677 240.276 328.82 258.603 328.82C276.93 328.82 291.786 343.677 291.786 362.003Z" fill="#F6EDFF" style="fill:#F6EDFF;fill:color(display-p3 0.9655 0.9292 1.0000);fill-opacity:1;"/>
<path d="M341.863 362.003C341.863 380.33 327.007 395.187 308.68 395.187C290.353 395.187 275.496 380.33 275.496 362.003C275.496 343.677 290.353 328.82 308.68 328.82C327.007 328.82 341.863 343.677 341.863 362.003Z" fill="#F6EDFF" style="fill:#F6EDFF;fill:color(display-p3 0.9655 0.9292 1.0000);fill-opacity:1;"/>
<path d="M317.127 325.803C317.127 344.13 302.27 358.987 283.943 358.987C265.616 358.987 250.76 344.13 250.76 325.803C250.76 307.476 265.616 292.62 283.943 292.62C302.27 292.62 317.127 307.476 317.127 325.803Z" fill="#F6EDFF" style="fill:#F6EDFF;fill:color(display-p3 0.9655 0.9292 1.0000);fill-opacity:1;"/>
<path d="M251.062 329.724C247.743 296.239 274.893 292.921 286.659 292.921C295.709 292.921 319.842 298.954 316.524 329.724" stroke="#A855F7" style="stroke:#A855F7;stroke:color(display-p3 0.6588 0.3333 0.9686);stroke-opacity:1;" stroke-width="3.62002" stroke-linecap="round"/>
<path d="M316.825 330.328C351.517 336.911 341.603 370.311 339.45 374.975C334.02 386.74 311.696 406.047 284.545 384.628" stroke="#A855F7" style="stroke:#A855F7;stroke:color(display-p3 0.6588 0.3333 0.9686);stroke-opacity:1;" stroke-width="3.62002" stroke-linecap="round"/>
<path d="M283.943 384.025C246.536 409.365 227.401 378.896 224.816 370.45C220.291 355.668 229.039 332.741 251.061 330.328" stroke="#A855F7" style="stroke:#A855F7;stroke:color(display-p3 0.6588 0.3333 0.9686);stroke-opacity:1;" stroke-width="3.62002" stroke-linecap="round"/>
<path d="M286.658 354.16C282.737 358.082 278.211 354.763 277.91 354.16" stroke="#A855F7" style="stroke:#A855F7;stroke:color(display-p3 0.6588 0.3333 0.9686);stroke-opacity:1;" stroke-width="1.81001" stroke-linecap="round"/>
<path d="M234.78 295.669C235.986 306.228 247.224 304.403 250.467 301.401C258.612 293.859 249.562 288.731 245.64 291.748C236.57 298.724 251.673 307.736 258.31 302.306" stroke="#A855F7" style="stroke:#A855F7;stroke:color(display-p3 0.6588 0.3333 0.9686);stroke-opacity:1;" stroke-width="3.62002" stroke-linecap="round"/>
<path d="M282.826 380.968C271.82 376.338 244.435 363.481 226.583 350.912C219.979 357.97 224.373 375.342 230.681 380.968C239.106 388.483 250.719 403.967 282.826 385.067C313.566 405.788 333.376 385.978 339.979 375.276C345.262 366.714 342.18 355.769 339.979 351.367L282.826 380.968Z" fill="#FECEC8" style="fill:#FECEC8;fill:color(display-p3 0.9958 0.8089 0.7842);fill-opacity:1;"/>
<path d="M343.443 353.492C355.008 355.01 375.046 351.367 378.461 336.111M226.583 350.912C244.435 363.481 271.82 376.338 282.826 380.968L339.979 351.367C342.18 355.769 345.262 366.714 339.979 375.276C333.376 385.978 313.566 405.788 282.826 385.067C250.719 403.967 239.106 388.483 230.681 380.968C224.373 375.342 219.979 357.97 226.583 350.912Z" stroke="#A855F7" style="stroke:#A855F7;stroke:color(display-p3 0.6588 0.3333 0.9686);stroke-opacity:1;" stroke-width="3.62002" stroke-linecap="round"/>
<path d="M235.919 378.236C264.154 386.661 318.576 385.522 341.574 367.306" stroke="#552C12" style="stroke:#552C12;stroke:color(display-p3 0.3333 0.1723 0.0722);stroke-opacity:1;" stroke-width="5.00949" stroke-linecap="round"/>
<path d="M225.672 352.35C204.04 367.534 222.484 389.393 256.185 384.839" stroke="#A855F7" style="stroke:#A855F7;stroke:color(display-p3 0.6588 0.3333 0.9686);stroke-opacity:1;" stroke-width="3.62002" stroke-linecap="round"/>
<path d="M207.003 371.405C206.775 358.654 220.89 351.595 226.128 349.773C226.887 353.492 229.045 363.026 222.487 371.405C232.324 367.033 239.033 371.101 241.158 373.682C240.703 378.008 238.836 387.754 235.01 392.126C222.031 394.175 207.23 384.157 207.003 371.405Z" fill="#8F3529" style="fill:#8F3529;fill:color(display-p3 0.5625 0.2085 0.1617);fill-opacity:1;"/>
<path d="M356.602 342.031C355.084 344.612 351.228 349.045 340.663 347.952C340.056 349.849 333.24 355.375 323.585 360.475C333.68 364.422 358.241 369.948 370.264 360.475C368.974 356.073 364.435 346.221 356.602 342.031Z" fill="#8F3529" style="fill:#8F3529;fill:color(display-p3 0.5625 0.2085 0.1617);fill-opacity:1;"/>
<path d="M207.003 371.405C206.775 358.654 220.89 351.595 226.128 349.773C226.887 353.492 229.045 363.026 222.487 371.405C232.324 367.033 239.033 371.101 241.158 373.682C240.703 378.008 238.836 387.754 235.01 392.126C222.031 394.175 207.23 384.157 207.003 371.405Z" stroke="#A855F7" style="stroke:#A855F7;stroke:color(display-p3 0.6588 0.3333 0.9686);stroke-opacity:1;" stroke-width="3.18786"/>
<path d="M356.602 342.031C355.084 344.612 351.228 349.045 340.663 347.952C340.056 349.849 333.24 355.375 323.585 360.475C333.68 364.422 358.241 369.948 370.264 360.475C368.974 356.073 364.435 346.221 356.602 342.031Z" stroke="#A855F7" style="stroke:#A855F7;stroke:color(display-p3 0.6588 0.3333 0.9686);stroke-opacity:1;" stroke-width="3.18786"/>
<path d="M228.632 417.857C226.811 410.722 224.943 381.996 226.583 347.567C247.152 351.97 296.989 359.59 340.89 347.567C348.541 362.687 344.382 402.069 340.89 417.857C337.247 419.83 309.695 422.593 228.632 417.857Z" fill="#8F3529" stroke="#A855F7" style="fill:#8F3529;fill:color(display-p3 0.5625 0.2085 0.1617);fill-opacity:1;stroke:#A855F7;stroke:color(display-p3 0.6588 0.3333 0.9686);stroke-opacity:1;" stroke-width="2.27704"/>
<g filter="url(#filter2_f_71_1707)">
<rect width="70.9842" height="3.38472" rx="1.69236" transform="matrix(0.525977 -0.850499 0.901947 0.431847 378.693 333.553)" fill="#245B92" style="fill:#245B92;fill:color(display-p3 0.1403 0.3556 0.5708);fill-opacity:1;"/>
</g>
<rect width="70.9842" height="3.38472" rx="1.69236" transform="matrix(0.525977 -0.850499 0.901947 0.431847 378.693 333.553)" fill="#1FBFE3" style="fill:#1FBFE3;fill:color(display-p3 0.1226 0.7507 0.8917);fill-opacity:1;"/>
<g opacity="0.57" filter="url(#filter3_f_71_1707)">
<rect width="71.9992" height="5.14492" rx="2.42103" transform="matrix(0.525977 -0.850499 0.901947 0.431847 378.366 332.865)" fill="#8EFFF9" style="fill:#8EFFF9;fill:color(display-p3 0.5584 1.0000 0.9779);fill-opacity:1;"/>
</g>
<rect width="14.872" height="5.01745" transform="translate(372.956 341.652) rotate(-58.4682)" fill="#643ABA" style="fill:#643ABA;fill:color(display-p3 0.3922 0.2275 0.7294);fill-opacity:1;"/>
<path d="M78.5079 393.282L80.0162 417.717L69.0361 414.651" stroke="#A855F7" style="stroke:#A855F7;stroke:color(display-p3 0.6588 0.3333 0.9686);stroke-opacity:1;" stroke-width="3.62002" stroke-linecap="round"/>
<path d="M122.551 393.583L121.043 418.018L133.476 415.789" stroke="#A855F7" style="stroke:#A855F7;stroke:color(display-p3 0.6588 0.3333 0.9686);stroke-opacity:1;" stroke-width="3.62002" stroke-linecap="round"/>
<path d="M110.786 361.003C110.786 379.33 95.9297 394.187 77.6029 394.187C59.2762 394.187 44.4194 379.33 44.4194 361.003C44.4194 342.677 59.2762 327.82 77.6029 327.82C95.9297 327.82 110.786 342.677 110.786 361.003Z" fill="#F6EDFF" style="fill:#F6EDFF;fill:color(display-p3 0.9655 0.9292 1.0000);fill-opacity:1;"/>
<path d="M160.863 361.003C160.863 379.33 146.007 394.187 127.68 394.187C109.353 394.187 94.4964 379.33 94.4964 361.003C94.4964 342.677 109.353 327.82 127.68 327.82C146.007 327.82 160.863 342.677 160.863 361.003Z" fill="#F6EDFF" style="fill:#F6EDFF;fill:color(display-p3 0.9655 0.9292 1.0000);fill-opacity:1;"/>
<path d="M136.127 324.803C136.127 343.13 121.27 357.987 102.943 357.987C84.6163 357.987 69.7596 343.13 69.7596 324.803C69.7596 306.476 84.6163 291.62 102.943 291.62C121.27 291.62 136.127 306.476 136.127 324.803Z" fill="#F6EDFF" style="fill:#F6EDFF;fill:color(display-p3 0.9655 0.9292 1.0000);fill-opacity:1;"/>
<path d="M70.0617 328.724C66.7432 295.239 93.8934 291.921 105.659 291.921C114.709 291.921 138.842 297.954 135.524 328.724" stroke="#A855F7" style="stroke:#A855F7;stroke:color(display-p3 0.6588 0.3333 0.9686);stroke-opacity:1;" stroke-width="3.62002" stroke-linecap="round"/>
<path d="M135.825 329.328C170.517 335.911 160.603 369.311 158.45 373.975C153.02 385.74 130.696 405.047 103.545 383.628" stroke="#A855F7" style="stroke:#A855F7;stroke:color(display-p3 0.6588 0.3333 0.9686);stroke-opacity:1;" stroke-width="3.62002" stroke-linecap="round"/>
<path d="M102.943 383.025C65.5363 408.365 46.4013 377.896 43.8158 369.45C39.2912 354.668 48.0395 331.741 70.061 329.328" stroke="#A855F7" style="stroke:#A855F7;stroke:color(display-p3 0.6588 0.3333 0.9686);stroke-opacity:1;" stroke-width="3.62002" stroke-linecap="round"/>
<path d="M105.658 353.16C101.737 357.082 97.2115 353.763 96.9098 353.16" stroke="#A855F7" style="stroke:#A855F7;stroke:color(display-p3 0.6588 0.3333 0.9686);stroke-opacity:1;" stroke-width="1.81001" stroke-linecap="round"/>
<path d="M53.7798 294.669C54.9865 305.228 66.2242 303.403 69.4665 300.401C77.6116 292.859 68.5615 287.731 64.6398 290.748C55.5703 297.724 70.6732 306.736 77.3099 301.306" stroke="#A855F7" style="stroke:#A855F7;stroke:color(display-p3 0.6588 0.3333 0.9686);stroke-opacity:1;" stroke-width="3.62002" stroke-linecap="round"/>
<path d="M101.826 379.968C90.8199 375.338 63.4348 362.481 45.5828 349.912C38.9794 356.97 43.3735 374.342 49.6814 379.968C58.1064 387.483 69.7193 402.967 101.826 384.067C132.566 404.788 152.376 384.978 158.979 374.276C164.262 365.714 161.18 354.769 158.979 350.367L101.826 379.968Z" fill="#FECEC8" style="fill:#FECEC8;fill:color(display-p3 0.9958 0.8089 0.7842);fill-opacity:1;"/>
<path d="M162.443 352.492C174.008 354.01 194.046 350.367 197.461 335.111M45.5828 349.912C63.4348 362.481 90.8199 375.338 101.826 379.968L158.979 350.367C161.18 354.769 164.262 365.714 158.979 374.276C152.376 384.978 132.566 404.788 101.826 384.067C69.7193 402.967 58.1064 387.483 49.6814 379.968C43.3735 374.342 38.9794 356.97 45.5828 349.912Z" stroke="#A855F7" style="stroke:#A855F7;stroke:color(display-p3 0.6588 0.3333 0.9686);stroke-opacity:1;" stroke-width="3.62002" stroke-linecap="round"/>
<path d="M54.9189 377.236C83.1542 385.661 137.576 384.522 160.574 366.306" stroke="#552C12" style="stroke:#552C12;stroke:color(display-p3 0.3333 0.1723 0.0722);stroke-opacity:1;" stroke-width="5.00949" stroke-linecap="round"/>
<path d="M44.6722 351.35C23.0404 366.534 41.4844 388.393 75.1846 383.839" stroke="#A855F7" style="stroke:#A855F7;stroke:color(display-p3 0.6588 0.3333 0.9686);stroke-opacity:1;" stroke-width="3.62002" stroke-linecap="round"/>
<path d="M26.0027 370.405C25.775 357.654 39.8904 350.595 45.1276 348.773C45.8866 352.492 48.0446 362.026 41.4867 370.405C51.3235 366.033 58.0332 370.101 60.1584 372.682C59.703 377.008 57.8358 386.754 54.0104 391.126C41.0313 393.175 26.2304 383.157 26.0027 370.405Z" fill="#8F3529" style="fill:#8F3529;fill:color(display-p3 0.5625 0.2085 0.1617);fill-opacity:1;"/>
<path d="M175.602 341.031C174.084 343.612 170.228 348.045 159.663 346.952C159.056 348.849 152.24 354.375 142.585 359.475C152.68 363.422 177.241 368.948 189.264 359.475C187.974 355.073 183.435 345.221 175.602 341.031Z" fill="#8F3529" style="fill:#8F3529;fill:color(display-p3 0.5625 0.2085 0.1617);fill-opacity:1;"/>
<path d="M26.0027 370.405C25.775 357.654 39.8904 350.595 45.1276 348.773C45.8866 352.492 48.0446 362.026 41.4867 370.405C51.3235 366.033 58.0332 370.101 60.1584 372.682C59.703 377.008 57.8358 386.754 54.0104 391.126C41.0313 393.175 26.2304 383.157 26.0027 370.405Z" stroke="#A855F7" style="stroke:#A855F7;stroke:color(display-p3 0.6588 0.3333 0.9686);stroke-opacity:1;" stroke-width="3.18786"/>
<path d="M175.602 341.031C174.084 343.612 170.228 348.045 159.663 346.952C159.056 348.849 152.24 354.375 142.585 359.475C152.68 363.422 177.241 368.948 189.264 359.475C187.974 355.073 183.435 345.221 175.602 341.031Z" stroke="#A855F7" style="stroke:#A855F7;stroke:color(display-p3 0.6588 0.3333 0.9686);stroke-opacity:1;" stroke-width="3.18786"/>
<path d="M47.6323 416.857C45.8107 409.722 43.943 380.996 45.5825 346.567C66.1518 350.97 115.989 358.59 159.89 346.567C167.541 361.687 163.382 401.069 159.89 416.857C156.247 418.83 128.695 421.593 47.6323 416.857Z" fill="#8F3529" stroke="#A855F7" style="fill:#8F3529;fill:color(display-p3 0.5625 0.2085 0.1617);fill-opacity:1;stroke:#A855F7;stroke:color(display-p3 0.6588 0.3333 0.9686);stroke-opacity:1;" stroke-width="2.27704"/>
<g filter="url(#filter4_f_71_1707)">
<rect width="70.9842" height="3.38472" rx="1.69236" transform="matrix(0.525977 -0.850499 0.901947 0.431847 197.693 332.553)" fill="#245B92" style="fill:#245B92;fill:color(display-p3 0.1403 0.3556 0.5708);fill-opacity:1;"/>
</g>
<rect width="70.9842" height="3.38472" rx="1.69236" transform="matrix(0.525977 -0.850499 0.901947 0.431847 197.693 332.553)" fill="#1FBFE3" style="fill:#1FBFE3;fill:color(display-p3 0.1226 0.7507 0.8917);fill-opacity:1;"/>
<g opacity="0.57" filter="url(#filter5_f_71_1707)">
<rect width="71.9992" height="5.14492" rx="2.42103" transform="matrix(0.525977 -0.850499 0.901947 0.431847 197.366 331.865)" fill="#8EFFF9" style="fill:#8EFFF9;fill:color(display-p3 0.5584 1.0000 0.9779);fill-opacity:1;"/>
</g>
<rect width="14.872" height="5.01745" transform="translate(191.956 340.652) rotate(-58.4682)" fill="#643ABA" style="fill:#643ABA;fill:color(display-p3 0.3922 0.2275 0.7294);fill-opacity:1;"/>
</g>
<defs>
<filter id="filter0_f_71_1707" x="181.432" y="98.9146" width="173.849" height="91.8675" filterUnits="userSpaceOnUse" color-interpolation-filters="sRGB">
<feFlood flood-opacity="0" result="BackgroundImageFix"/>
<feBlend mode="normal" in="SourceGraphic" in2="BackgroundImageFix" result="shape"/>
<feGaussianBlur stdDeviation="2.52926" result="effect1_foregroundBlur_71_1707"/>
</filter>
<filter id="filter1_f_71_1707" x="181.687" y="95.9776" width="178.39" height="96.6654" filterUnits="userSpaceOnUse" color-interpolation-filters="sRGB">
<feFlood flood-opacity="0" result="BackgroundImageFix"/>
<feBlend mode="normal" in="SourceGraphic" in2="BackgroundImageFix" result="shape"/>
<feGaussianBlur stdDeviation="2.52926" result="effect1_foregroundBlur_71_1707"/>
</filter>
<filter id="filter2_f_71_1707" x="376.653" y="271.14" width="44.4698" height="65.9151" filterUnits="userSpaceOnUse" color-interpolation-filters="sRGB">
<feFlood flood-opacity="0" result="BackgroundImageFix"/>
<feBlend mode="normal" in="SourceGraphic" in2="BackgroundImageFix" result="shape"/>
<feGaussianBlur stdDeviation="1.02029" result="effect1_foregroundBlur_71_1707"/>
</filter>
<filter id="filter3_f_71_1707" x="376.326" y="269.589" width="46.5914" height="67.5382" filterUnits="userSpaceOnUse" color-interpolation-filters="sRGB">
<feFlood flood-opacity="0" result="BackgroundImageFix"/>
<feBlend mode="normal" in="SourceGraphic" in2="BackgroundImageFix" result="shape"/>
<feGaussianBlur stdDeviation="1.02029" result="effect1_foregroundBlur_71_1707"/>
</filter>
<filter id="filter4_f_71_1707" x="195.653" y="270.14" width="44.4698" height="65.9151" filterUnits="userSpaceOnUse" color-interpolation-filters="sRGB">
<feFlood flood-opacity="0" result="BackgroundImageFix"/>
<feBlend mode="normal" in="SourceGraphic" in2="BackgroundImageFix" result="shape"/>
<feGaussianBlur stdDeviation="1.02029" result="effect1_foregroundBlur_71_1707"/>
</filter>
<filter id="filter5_f_71_1707" x="195.326" y="268.589" width="46.5914" height="67.5382" filterUnits="userSpaceOnUse" color-interpolation-filters="sRGB">
<feFlood flood-opacity="0" result="BackgroundImageFix"/>
<feBlend mode="normal" in="SourceGraphic" in2="BackgroundImageFix" result="shape"/>
<feGaussianBlur stdDeviation="1.02029" result="effect1_foregroundBlur_71_1707"/>
</filter>
<clipPath id="clip0_71_1707">
<rect width="446" height="446" fill="white" style="fill:white;fill-opacity:1;"/>
</clipPath>
</defs>
</svg>
