<svg width="446" height="446" viewBox="0 0 446 446" fill="none" xmlns="http://www.w3.org/2000/svg">
<rect width="165.788" height="264.919" transform="translate(267.045 136.081)" fill="#C991FF" style="fill:#C991FF;fill:color(display-p3 0.7899 0.5692 1.0000);fill-opacity:1;"/>
<rect width="144.424" height="182.025" transform="translate(177.314 218.975)" fill="#643ABA" style="fill:#643ABA;fill:color(display-p3 0.3922 0.2275 0.7294);fill-opacity:1;"/>
<rect width="136.733" height="119.641" transform="translate(96.9834 281.359)" fill="#C991FF" style="fill:#C991FF;fill:color(display-p3 0.7899 0.5692 1.0000);fill-opacity:1;"/>
<rect width="123.914" height="77.7667" transform="translate(25.1987 323.233)" fill="#643ABA" style="fill:#643ABA;fill:color(display-p3 0.3922 0.2275 0.7294);fill-opacity:1;"/>
<g clip-path="url(#clip0_65_864)">
<circle cx="252.533" cy="137.83" r="53.754" fill="#E5E5E5" style="fill:#E5E5E5;fill:color(display-p3 0.8999 0.8999 0.8999);fill-opacity:1;"/>
<path d="M254.182 162.927C255.345 162.819 256.515 162.605 257.68 162.28C268.179 159.35 274.315 148.463 271.385 137.963C268.791 128.67 259.963 122.795 250.689 123.6C251.285 103.851 260.534 93.5156 278.436 92.5924L288.858 97.2949L300.811 93.9587L311.754 107.808L302.817 119.418L306.979 134.329L322.323 145.676L318.64 157.84L306.687 161.176L295.906 171.686L300.926 189.673L288.198 203.092L268.21 193.795L258.262 196.572L250.225 213.69L233.815 208.404L228.794 190.417C245.366 191.313 253.829 182.15 254.182 162.927ZM254.142 149.606C250.642 150.583 247.013 148.538 246.036 145.038C245.06 141.538 247.105 137.909 250.605 136.932C254.105 135.955 257.734 138.001 258.711 141.5C259.687 145 257.642 148.629 254.142 149.606Z" fill="#D8D8D8" style="fill:#D8D8D8;fill:color(display-p3 0.8471 0.8471 0.8471);fill-opacity:1;"/>
<mask id="mask0_65_864" style="mask-type:luminance" maskUnits="userSpaceOnUse" x="228" y="92" width="95" height="122">
<path d="M254.182 162.927C255.345 162.819 256.515 162.605 257.68 162.28C268.179 159.35 274.315 148.463 271.385 137.963C268.791 128.67 259.963 122.795 250.689 123.6C251.285 103.851 260.534 93.5156 278.436 92.5924L288.858 97.2949L300.811 93.9587L311.754 107.808L302.817 119.418L306.979 134.329L322.323 145.676L318.64 157.84L306.687 161.176L295.906 171.686L300.926 189.673L288.198 203.092L268.21 193.795L258.262 196.572L250.225 213.69L233.815 208.404L228.794 190.417C245.366 191.313 253.829 182.15 254.182 162.927ZM254.142 149.606C250.642 150.583 247.013 148.538 246.036 145.038C245.06 141.538 247.105 137.909 250.605 136.932C254.105 135.955 257.734 138.001 258.711 141.5C259.687 145 257.642 148.629 254.142 149.606Z" fill="white" style="fill:white;fill-opacity:1;"/>
</mask>
<g mask="url(#mask0_65_864)">
<path d="M307.194 45.9999L155.104 88.4487L197.553 240.538L349.643 198.089L307.194 45.9999Z" fill="#FFA0A0" style="fill:#FFA0A0;fill:color(display-p3 1.0000 0.6275 0.6275);fill-opacity:1;"/>
</g>
<path d="M189.798 139.332C197.878 141.226 204.704 147.35 207.093 155.907C209.481 164.465 206.812 173.239 200.882 179.043C202.265 181.034 203.756 182.932 205.345 184.731C212.397 180.359 221.553 179.862 229.292 184.224C237.031 188.586 241.347 196.676 241.259 204.973C243.621 205.4 246.017 205.692 248.437 205.845C250.331 197.765 256.454 190.939 265.012 188.55C273.569 186.162 282.343 188.83 288.147 194.761C290.138 193.378 292.036 191.887 293.836 190.298C289.463 183.246 288.967 174.09 293.328 166.351C297.69 158.612 305.78 154.295 314.077 154.384C314.504 152.022 314.797 149.626 314.949 147.206C306.869 145.312 300.043 139.189 297.654 130.631C295.266 122.074 297.935 113.3 303.865 107.496C302.482 105.505 300.991 103.606 299.403 101.807C292.35 106.179 283.195 106.676 275.456 102.314C267.716 97.9527 263.4 89.863 263.488 81.566C261.126 81.1388 258.73 80.8461 256.311 80.694C254.416 88.7734 248.293 95.6 239.736 97.9884C231.178 100.377 222.404 97.7081 216.6 91.7775C214.609 93.1606 212.711 94.6518 210.912 96.2403C215.284 103.292 215.78 112.448 211.419 120.187C207.057 127.926 198.967 132.243 190.67 132.155C190.243 134.517 189.95 136.913 189.798 139.332ZM176.666 138.506C176.849 135.588 177.202 132.685 177.722 129.813C178.864 123.499 184.394 118.929 190.81 118.997C194.573 119.037 198.078 117.058 199.955 113.727C201.833 110.396 201.711 106.372 199.728 103.174C196.347 97.7203 197.392 90.6232 202.203 86.3763C204.391 84.4444 206.691 82.6393 209.092 80.9707C214.366 77.3075 221.513 77.9849 226.004 82.5735C228.636 85.2629 232.515 86.3423 236.198 85.3143C239.881 84.2863 242.641 81.3542 243.5 77.6904C244.965 71.4392 250.728 67.1585 257.137 67.5614C260.055 67.745 262.958 68.0981 265.83 68.6176C272.144 69.7596 276.714 75.2895 276.646 81.7059C276.606 85.4684 278.585 88.9738 281.916 90.8511C285.247 92.7285 289.271 92.6065 292.469 90.6238C297.923 87.2426 305.02 88.2881 309.267 93.0982C311.199 95.2863 313.004 97.5863 314.672 99.9881C318.335 105.261 317.658 112.408 313.069 116.899C310.38 119.532 309.301 123.411 310.329 127.094C311.357 130.777 314.289 133.536 317.953 134.395C324.204 135.861 328.484 141.624 328.081 148.032C327.898 150.951 327.545 153.853 327.025 156.726C325.883 163.04 320.353 167.61 313.937 167.541C310.175 167.501 306.669 169.481 304.792 172.812C302.914 176.143 303.036 180.167 305.019 183.365C308.4 188.818 307.355 195.915 302.545 200.162C300.357 202.094 298.057 203.899 295.655 205.568C290.382 209.231 283.235 208.554 278.743 203.965C276.111 201.276 272.232 200.196 268.549 201.224C264.866 202.252 262.107 205.184 261.248 208.848C259.782 215.099 254.019 219.38 247.611 218.977C244.692 218.794 241.79 218.441 238.917 217.921C232.603 216.779 228.033 211.249 228.102 204.833C228.142 201.07 226.162 197.565 222.831 195.687C219.5 193.81 215.476 193.932 212.278 195.915C206.825 199.296 199.728 198.25 195.481 193.44C193.549 191.252 191.744 188.952 190.075 186.55C186.412 181.277 187.089 174.13 191.678 169.639C194.367 167.007 195.447 163.128 194.419 159.445C193.391 155.762 190.459 153.002 186.795 152.143C180.543 150.678 176.263 144.914 176.666 138.506ZM259.448 168.618C273.448 164.71 281.629 150.194 277.722 136.194C273.815 122.195 259.298 114.014 245.299 117.921C231.299 121.828 223.118 136.345 227.025 150.344C230.933 164.344 245.449 172.525 259.448 168.618ZM255.911 155.943C248.911 157.897 241.653 153.806 239.699 146.807C237.746 139.807 241.836 132.549 248.836 130.595C255.836 128.642 263.094 132.732 265.048 139.732C267.001 146.732 262.911 153.99 255.911 155.943Z" fill="black" style="fill:black;fill-opacity:1;"/>
<mask id="mask1_65_864" style="mask-type:luminance" maskUnits="userSpaceOnUse" x="176" y="67" width="153" height="153">
<path d="M189.798 139.332C197.878 141.226 204.704 147.35 207.093 155.907C209.481 164.465 206.812 173.239 200.882 179.043C202.265 181.034 203.756 182.932 205.345 184.731C212.397 180.359 221.553 179.862 229.292 184.224C237.031 188.586 241.347 196.676 241.259 204.973C243.621 205.4 246.017 205.692 248.437 205.845C250.331 197.765 256.454 190.939 265.012 188.55C273.569 186.162 282.343 188.83 288.147 194.761C290.138 193.378 292.036 191.887 293.836 190.298C289.463 183.246 288.967 174.09 293.328 166.351C297.69 158.612 305.78 154.295 314.077 154.384C314.504 152.022 314.797 149.626 314.949 147.206C306.869 145.312 300.043 139.189 297.654 130.631C295.266 122.074 297.935 113.3 303.865 107.496C302.482 105.505 300.991 103.606 299.403 101.807C292.35 106.179 283.195 106.676 275.456 102.314C267.716 97.9527 263.4 89.863 263.488 81.566C261.126 81.1388 258.73 80.8461 256.311 80.694C254.416 88.7734 248.293 95.6 239.736 97.9884C231.178 100.377 222.404 97.7081 216.6 91.7775C214.609 93.1606 212.711 94.6518 210.912 96.2403C215.284 103.292 215.78 112.448 211.419 120.187C207.057 127.926 198.967 132.243 190.67 132.155C190.243 134.517 189.95 136.913 189.798 139.332ZM176.666 138.506C176.849 135.588 177.202 132.685 177.722 129.813C178.864 123.499 184.394 118.929 190.81 118.997C194.573 119.037 198.078 117.058 199.955 113.727C201.833 110.396 201.711 106.372 199.728 103.174C196.347 97.7203 197.392 90.6232 202.203 86.3763C204.391 84.4444 206.691 82.6393 209.092 80.9707C214.366 77.3075 221.513 77.9849 226.004 82.5735C228.636 85.2629 232.515 86.3423 236.198 85.3143C239.881 84.2863 242.641 81.3542 243.5 77.6904C244.965 71.4392 250.728 67.1585 257.137 67.5614C260.055 67.745 262.958 68.0981 265.83 68.6176C272.144 69.7596 276.714 75.2895 276.646 81.7059C276.606 85.4684 278.585 88.9738 281.916 90.8511C285.247 92.7285 289.271 92.6065 292.469 90.6238C297.923 87.2426 305.02 88.2881 309.267 93.0982C311.199 95.2863 313.004 97.5863 314.672 99.9881C318.335 105.261 317.658 112.408 313.069 116.899C310.38 119.532 309.301 123.411 310.329 127.094C311.357 130.777 314.289 133.536 317.953 134.395C324.204 135.861 328.484 141.624 328.081 148.032C327.898 150.951 327.545 153.853 327.025 156.726C325.883 163.04 320.353 167.61 313.937 167.541C310.175 167.501 306.669 169.481 304.792 172.812C302.914 176.143 303.036 180.167 305.019 183.365C308.4 188.818 307.355 195.915 302.545 200.162C300.357 202.094 298.057 203.899 295.655 205.568C290.382 209.231 283.235 208.554 278.743 203.965C276.111 201.276 272.232 200.196 268.549 201.224C264.866 202.252 262.107 205.184 261.248 208.848C259.782 215.099 254.019 219.38 247.611 218.977C244.692 218.794 241.79 218.441 238.917 217.921C232.603 216.779 228.033 211.249 228.102 204.833C228.142 201.07 226.162 197.565 222.831 195.687C219.5 193.81 215.476 193.932 212.278 195.915C206.825 199.296 199.728 198.25 195.481 193.44C193.549 191.252 191.744 188.952 190.075 186.55C186.412 181.277 187.089 174.13 191.678 169.639C194.367 167.007 195.447 163.128 194.419 159.445C193.391 155.762 190.459 153.002 186.795 152.143C180.543 150.678 176.263 144.914 176.666 138.506ZM259.448 168.618C273.448 164.71 281.629 150.194 277.722 136.194C273.815 122.195 259.298 114.014 245.299 117.921C231.299 121.828 223.118 136.345 227.025 150.344C230.933 164.344 245.449 172.525 259.448 168.618ZM255.911 155.943C248.911 157.897 241.653 153.806 239.699 146.807C237.746 139.807 241.836 132.549 248.836 130.595C255.836 128.642 263.094 132.732 265.048 139.732C267.001 146.732 262.911 153.99 255.911 155.943Z" fill="white" style="fill:white;fill-opacity:1;"/>
</mask>
<g mask="url(#mask1_65_864)">
<path d="M307.194 46.0003L155.104 88.4492L197.553 240.539L349.643 198.09L307.194 46.0003Z" fill="#A855F7" style="fill:#A855F7;fill:color(display-p3 0.6588 0.3333 0.9686);fill-opacity:1;"/>
</g>
</g>
<path d="M73.4825 237.499L71.1135 312.602L83.4321 323.729" stroke="#A855F7" style="stroke:#A855F7;stroke:color(display-p3 0.6588 0.3333 0.9686);stroke-opacity:1;" stroke-width="5.62219" stroke-linecap="round"/>
<path d="M149.305 237.955L161.462 257.456L146.963 275.904L159.144 281.527" stroke="#A855F7" style="stroke:#A855F7;stroke:color(display-p3 0.6588 0.3333 0.9686);stroke-opacity:1;" stroke-width="5.62219" stroke-linecap="round"/>
<path d="M131.034 187.355C131.034 215.818 107.96 238.892 79.4967 238.892C51.0338 238.892 27.96 215.818 27.96 187.355C27.96 158.892 51.0338 135.818 79.4967 135.818C107.96 135.818 131.034 158.892 131.034 187.355Z" fill="#F6EDFF" style="fill:#F6EDFF;fill:color(display-p3 0.9655 0.9292 1.0000);fill-opacity:1;"/>
<path d="M208.807 187.355C208.807 215.818 185.733 238.892 157.27 238.892C128.807 238.892 105.734 215.818 105.734 187.355C105.734 158.892 128.807 135.818 157.27 135.818C185.733 135.818 208.807 158.892 208.807 187.355Z" fill="#F6EDFF" style="fill:#F6EDFF;fill:color(display-p3 0.9655 0.9292 1.0000);fill-opacity:1;"/>
<path d="M170.389 131.133C170.389 159.596 147.315 182.67 118.852 182.67C90.3891 182.67 67.3153 159.596 67.3153 131.133C67.3153 102.67 90.3891 79.5962 118.852 79.5962C147.315 79.5962 170.389 102.67 170.389 131.133Z" fill="#F6EDFF" style="fill:#F6EDFF;fill:color(display-p3 0.9655 0.9292 1.0000);fill-opacity:1;"/>
<path d="M67.7839 137.224C62.63 85.2186 104.797 80.065 123.069 80.0649C137.124 80.0649 174.605 89.4353 169.452 137.224" stroke="#A855F7" style="stroke:#A855F7;stroke:color(display-p3 0.6588 0.3333 0.9686);stroke-opacity:1;" stroke-width="5.62219" stroke-linecap="round"/>
<path d="M169.92 138.161C223.8 148.384 208.403 200.257 205.059 207.501C196.626 225.773 161.954 255.758 119.787 222.494" stroke="#A855F7" style="stroke:#A855F7;stroke:color(display-p3 0.6588 0.3333 0.9686);stroke-opacity:1;" stroke-width="5.62219" stroke-linecap="round"/>
<path d="M118.852 221.557C60.756 260.912 31.0376 213.592 27.0222 200.473C19.9951 177.516 33.5819 141.909 67.7832 138.161" stroke="#A855F7" style="stroke:#A855F7;stroke:color(display-p3 0.6588 0.3333 0.9686);stroke-opacity:1;" stroke-width="5.62219" stroke-linecap="round"/>
<circle cx="82.3075" cy="161.118" r="14.524" stroke="#A855F7" style="stroke:#A855F7;stroke:color(display-p3 0.6588 0.3333 0.9686);stroke-opacity:1;" stroke-width="4.68516"/>
<circle cx="153.522" cy="161.118" r="14.524" stroke="#A855F7" style="stroke:#A855F7;stroke:color(display-p3 0.6588 0.3333 0.9686);stroke-opacity:1;" stroke-width="4.68516"/>
<path d="M97.3003 161.118C109.013 147.532 131.033 151.28 138.061 161.119" stroke="#A855F7" style="stroke:#A855F7;stroke:color(display-p3 0.6588 0.3333 0.9686);stroke-opacity:1;" stroke-width="5.62219" stroke-linecap="round"/>
<path d="M89.335 161.118C83.2443 167.209 76.2165 162.055 75.748 161.118" stroke="#A855F7" style="stroke:#A855F7;stroke:color(display-p3 0.6588 0.3333 0.9686);stroke-opacity:1;" stroke-width="2.8111" stroke-linecap="round"/>
<path d="M161.487 160.181C155.396 166.272 148.368 161.118 147.9 160.181" stroke="#A855F7" style="stroke:#A855F7;stroke:color(display-p3 0.6588 0.3333 0.9686);stroke-opacity:1;" stroke-width="2.8111" stroke-linecap="round"/>
<path d="M97.3003 105.792C99.1744 122.19 116.628 119.356 121.663 114.693C134.313 102.98 120.258 95.0156 114.167 99.7008C100.081 110.536 123.537 124.532 133.845 116.099" stroke="#A855F7" style="stroke:#A855F7;stroke:color(display-p3 0.6588 0.3333 0.9686);stroke-opacity:1;" stroke-width="5.62219" stroke-linecap="round"/>
<path d="M208.807 172.363C211.945 186.245 226.216 179.265 231.815 172.363" stroke="#963EE9" style="stroke:#963EE9;stroke:color(display-p3 0.5867 0.2435 0.9133);stroke-opacity:1;" stroke-width="5.62219" stroke-linecap="round"/>
<path d="M30.5 164C36.0994 211.595 87.5 226.5 216.697 189.904" stroke="#963EE9" style="stroke:#963EE9;stroke:color(display-p3 0.5882 0.2431 0.9137);stroke-opacity:1;" stroke-width="5.62219" stroke-linecap="round"/>
<path d="M96.9837 184.364C103.197 179.271 109.246 184.701 109.594 185.614" stroke="#A855F7" style="stroke:#A855F7;stroke:color(display-p3 0.6588 0.3333 0.9686);stroke-opacity:1;" stroke-width="2.62184" stroke-linecap="round"/>
<path d="M82.3128 133.474L92.8663 139.802" stroke="#A855F7" style="stroke:#A855F7;stroke:color(display-p3 0.6588 0.3333 0.9686);stroke-opacity:1;" stroke-width="2.62184" stroke-linecap="round"/>
<path d="M151.351 133.58L140.737 139.806" stroke="#A855F7" style="stroke:#A855F7;stroke:color(display-p3 0.6588 0.3333 0.9686);stroke-opacity:1;" stroke-width="2.62184" stroke-linecap="round"/>
<defs>
<clipPath id="clip0_65_864">
<rect width="157.902" height="157.902" fill="white" style="fill:white;fill-opacity:1;" transform="translate(155.104 88.4492) rotate(-15.5947)"/>
</clipPath>
</defs>
</svg>
