<svg width="446" height="446" viewBox="0 0 446 446" fill="none" xmlns="http://www.w3.org/2000/svg">
<g clip-path="url(#clip0_65_1006)">
<path d="M329.019 152.946C383.661 186.871 365.325 95.2613 360.788 86.9552" stroke="#A855F7" style="stroke:#A855F7;stroke:color(display-p3 0.6588 0.3333 0.9686);stroke-opacity:1;" stroke-width="8.40835" stroke-linecap="round"/>
<path d="M66.0059 213.875C32.9613 225.606 -2.38911 252.677 63.3446 295.591" stroke="#A855F7" style="stroke:#A855F7;stroke:color(display-p3 0.6588 0.3333 0.9686);stroke-opacity:1;" stroke-width="8.40835" stroke-linecap="round"/>
<path d="M289.887 254.591L327.141 266.201L334.24 298.364C334.923 301.46 338.277 303.146 341.169 301.848L362 292.5" stroke="#A855F7" style="stroke:#A855F7;stroke:color(display-p3 0.6588 0.3333 0.9686);stroke-opacity:1;" stroke-width="9.98914" stroke-linecap="round"/>
<path d="M142.301 292L136.783 307.534C133.791 315.958 126.823 322.355 118.175 324.617L97.4937 330.029C96.6137 330.259 95.9999 331.054 95.9999 331.963L95.9999 359.5" stroke="#A855F7" style="stroke:#A855F7;stroke:color(display-p3 0.6588 0.3333 0.9686);stroke-opacity:1;" stroke-width="8.40835" stroke-linecap="round"/>
<path d="M220.64 200.759C230.139 242.254 204.202 283.592 162.707 293.092C121.212 302.591 79.8733 276.653 70.3742 235.158C60.875 193.663 86.8126 152.325 128.307 142.826C169.802 133.326 211.141 159.264 220.64 200.759Z" fill="#F6EDFF" style="fill:#F6EDFF;fill:color(display-p3 0.9655 0.9292 1.0000);fill-opacity:1;"/>
<path d="M334.023 174.803C343.522 216.298 317.584 257.636 276.089 267.136C234.595 276.635 193.256 250.697 183.757 209.202C174.258 167.708 200.195 126.369 241.69 116.87C283.185 107.37 324.524 133.308 334.023 174.803Z" fill="#F6EDFF" style="fill:#F6EDFF;fill:color(display-p3 0.9655 0.9292 1.0000);fill-opacity:1;"/>
<path d="M259.251 105.661C268.75 147.156 242.813 188.495 201.318 197.994C159.823 207.493 118.484 181.555 108.985 140.061C99.486 98.5659 125.424 57.2271 166.918 47.728C208.413 38.2288 249.752 64.1664 259.251 105.661Z" fill="#F6EDFF" style="fill:#F6EDFF;fill:color(display-p3 0.9655 0.9292 1.0000);fill-opacity:1;"/>
<path d="M111.701 148.784C86.8312 74.6879 146.584 53.1021 173.222 47.0039C193.713 42.3131 251.482 43.4649 259.918 114.853" stroke="#A855F7" style="stroke:#A855F7;stroke:color(display-p3 0.6588 0.3333 0.9686);stroke-opacity:1;" stroke-width="8.40835" stroke-linecap="round"/>
<path d="M260.913 116.063C342.874 112.986 337.739 193.747 335.282 205.424C329.085 234.876 288.547 290.161 215.971 255.739" stroke="#A855F7" style="stroke:#A855F7;stroke:color(display-p3 0.6588 0.3333 0.9686);stroke-opacity:1;" stroke-width="8.40835" stroke-linecap="round"/>
<path d="M214.295 254.686C142.734 331.449 83.617 272.381 73.385 254.596C55.4788 223.473 63.403 167.029 112.012 150.15" stroke="#A855F7" style="stroke:#A855F7;stroke:color(display-p3 0.6588 0.3333 0.9686);stroke-opacity:1;" stroke-width="8.40835" stroke-linecap="round"/>
<circle cx="140.849" cy="178.771" r="21.7216" transform="rotate(-12.8942 140.849 178.771)" stroke="#A855F7" style="stroke:#A855F7;stroke:color(display-p3 0.6588 0.3333 0.9686);stroke-opacity:1;" stroke-width="7.00696"/>
<circle cx="244.669" cy="155.004" r="21.7216" transform="rotate(-12.8942 244.669 155.004)" stroke="#A855F7" style="stroke:#A855F7;stroke:color(display-p3 0.6588 0.3333 0.9686);stroke-opacity:1;" stroke-width="7.00696"/>
<path d="M162.706 173.768C175.247 150.051 208.6 148.166 222.129 160.164" stroke="#A855F7" style="stroke:#A855F7;stroke:color(display-p3 0.6588 0.3333 0.9686);stroke-opacity:1;" stroke-width="8.40835" stroke-linecap="round"/>
<path d="M204.963 185.658C198.117 196.57 186.151 191.403 185.156 190.193" stroke="#A855F7" style="stroke:#A855F7;stroke:color(display-p3 0.6588 0.3333 0.9686);stroke-opacity:1;" stroke-width="4.20418" stroke-linecap="round"/>
<circle cx="148.589" cy="179.618" r="8.47409" transform="rotate(-12.8942 148.589 179.618)" fill="#A855F7" style="fill:#A855F7;fill:color(display-p3 0.6588 0.3333 0.9686);fill-opacity:1;"/>
<circle cx="248.992" cy="156.634" r="8.47409" transform="rotate(-12.8942 248.992 156.634)" fill="#A855F7" style="fill:#A855F7;fill:color(display-p3 0.6588 0.3333 0.9686);fill-opacity:1;"/>
<path d="M144.241 93.1101C152.446 116.391 176.945 106.435 182.73 97.9568C197.262 76.6593 174.113 69.7388 166.798 78.6017C149.879 99.0987 188.745 111.675 200.957 95.9404" stroke="#A855F7" style="stroke:#A855F7;stroke:color(display-p3 0.6588 0.3333 0.9686);stroke-opacity:1;" stroke-width="8.40835" stroke-linecap="round"/>
<path d="M156.538 140.558C141.121 137.589 133.905 135.486 129.774 135.136" stroke="#A855F7" style="stroke:#A855F7;stroke:color(display-p3 0.6588 0.3333 0.9686);stroke-opacity:1;" stroke-width="4.20418" stroke-linecap="round"/>
<path d="M220 122.749C234.124 115.892 241.162 113.254 244.679 111.06" stroke="#A855F7" style="stroke:#A855F7;stroke:color(display-p3 0.6588 0.3333 0.9686);stroke-opacity:1;" stroke-width="4.20418" stroke-linecap="round"/>
<path d="M265.5 436V396.5H274.5V436H265.5Z" fill="#F6EDFF" stroke="#A855F7" style="fill:#F6EDFF;fill:color(display-p3 0.9647 0.9294 1.0000);fill-opacity:1;stroke:#A855F7;stroke:color(display-p3 0.6588 0.3333 0.9686);stroke-opacity:1;" stroke-width="5" stroke-linecap="round"/>
<path d="M408 400V359H417V400H408Z" fill="#F6EDFF" stroke="#A855F7" style="fill:#F6EDFF;fill:color(display-p3 0.9647 0.9294 1.0000);fill-opacity:1;stroke:#A855F7;stroke:color(display-p3 0.6588 0.3333 0.9686);stroke-opacity:1;" stroke-width="5" stroke-linecap="round"/>
<path d="M260 406V371L424 334V368L260 406Z" fill="#F6EDFF" stroke="#A855F7" style="fill:#F6EDFF;fill:color(display-p3 0.9647 0.9294 1.0000);fill-opacity:1;stroke:#A855F7;stroke:color(display-p3 0.6588 0.3333 0.9686);stroke-opacity:1;" stroke-width="5" stroke-linecap="round"/>
<path d="M273 402L283 366.5L303 362.5L292.5 397.5L273 402Z" fill="#A855F7" stroke="#A855F7" style="fill:#A855F7;fill:color(display-p3 0.6588 0.3333 0.9686);fill-opacity:1;stroke:#A855F7;stroke:color(display-p3 0.6588 0.3333 0.9686);stroke-opacity:1;" stroke-width="5" stroke-linecap="round"/>
<path d="M331 388.5L341 353L361 349L350.5 384L331 388.5Z" fill="#A855F7" stroke="#A855F7" style="fill:#A855F7;fill:color(display-p3 0.6588 0.3333 0.9686);fill-opacity:1;stroke:#A855F7;stroke:color(display-p3 0.6588 0.3333 0.9686);stroke-opacity:1;" stroke-width="5" stroke-linecap="round"/>
<path d="M383 376.5L393 341L413 337L402.5 372L383 376.5Z" fill="#A855F7" stroke="#A855F7" style="fill:#A855F7;fill:color(display-p3 0.6588 0.3333 0.9686);fill-opacity:1;stroke:#A855F7;stroke:color(display-p3 0.6588 0.3333 0.9686);stroke-opacity:1;" stroke-width="5" stroke-linecap="round"/>
</g>
<defs>
<clipPath id="clip0_65_1006">
<rect width="446" height="446" fill="white" style="fill:white;fill-opacity:1;"/>
</clipPath>
</defs>
</svg>
