<svg width="446" height="446" viewBox="0 0 446 446" fill="none" xmlns="http://www.w3.org/2000/svg">
<path d="M150.838 309.981L154.369 367.181L136.009 375.655" stroke="#A855F7" style="stroke:#A855F7;stroke:color(display-p3 0.6588 0.3333 0.9686);stroke-opacity:1;" stroke-width="8.47409" stroke-linecap="round"/>
<path d="M253.94 310.687L250.409 367.887L268.769 376.361" stroke="#A855F7" style="stroke:#A855F7;stroke:color(display-p3 0.6588 0.3333 0.9686);stroke-opacity:1;" stroke-width="8.47409" stroke-linecap="round"/>
<path d="M226.399 234.42C226.399 277.321 191.621 312.099 148.72 312.099C105.819 312.099 71.0405 277.321 71.0405 234.42C71.0405 191.519 105.819 156.741 148.72 156.741C191.621 156.741 226.399 191.519 226.399 234.42Z" fill="#F6EDFF" style="fill:#F6EDFF;fill:color(display-p3 0.9655 0.9292 1.0000);fill-opacity:1;"/>
<path d="M343.624 234.42C343.624 277.321 308.846 312.099 265.945 312.099C223.044 312.099 188.265 277.321 188.265 234.42C188.265 191.519 223.044 156.741 265.945 156.741C308.846 156.741 343.624 191.519 343.624 234.42Z" fill="#F6EDFF" style="fill:#F6EDFF;fill:color(display-p3 0.9655 0.9292 1.0000);fill-opacity:1;"/>
<path d="M285.718 149.679C285.718 192.58 250.939 227.358 208.038 227.358C165.137 227.358 130.359 192.58 130.359 149.679C130.359 106.778 165.137 72 208.038 72C250.939 72 285.718 106.778 285.718 149.679Z" fill="#F6EDFF" style="fill:#F6EDFF;fill:color(display-p3 0.9655 0.9292 1.0000);fill-opacity:1;"/>
<path d="M131.066 158.86C123.297 80.4745 186.853 72.7066 214.394 72.7065C235.579 72.7065 292.073 86.8301 284.306 158.86" stroke="#A855F7" style="stroke:#A855F7;stroke:color(display-p3 0.6588 0.3333 0.9686);stroke-opacity:1;" stroke-width="8.47409" stroke-linecap="round"/>
<path d="M285.011 160.272C366.222 175.682 343.014 253.867 337.975 264.786C325.263 292.327 273.004 337.522 209.447 287.383" stroke="#A855F7" style="stroke:#A855F7;stroke:color(display-p3 0.6588 0.3333 0.9686);stroke-opacity:1;" stroke-width="8.47409" stroke-linecap="round"/>
<path d="M208.038 285.971C120.473 345.289 75.6794 273.966 69.6271 254.193C59.0355 219.59 79.5143 165.921 131.064 160.272" stroke="#A855F7" style="stroke:#A855F7;stroke:color(display-p3 0.6588 0.3333 0.9686);stroke-opacity:1;" stroke-width="8.47409" stroke-linecap="round"/>
<circle cx="152.957" cy="194.874" r="21.8914" stroke="#A855F7" style="stroke:#A855F7;stroke:color(display-p3 0.6588 0.3333 0.9686);stroke-opacity:1;" stroke-width="7.06174"/>
<circle cx="260.295" cy="194.874" r="21.8914" stroke="#A855F7" style="stroke:#A855F7;stroke:color(display-p3 0.6588 0.3333 0.9686);stroke-opacity:1;" stroke-width="7.06174"/>
<path d="M175.554 194.874C193.209 174.395 226.399 180.045 236.991 194.874" stroke="#A855F7" style="stroke:#A855F7;stroke:color(display-p3 0.6588 0.3333 0.9686);stroke-opacity:1;" stroke-width="8.47409" stroke-linecap="round"/>
<path d="M171.317 234.574C181.358 226.344 191.133 235.118 191.696 236.593" stroke="#A855F7" style="stroke:#A855F7;stroke:color(display-p3 0.6588 0.3333 0.9686);stroke-opacity:1;" stroke-width="4.23705" stroke-linecap="round"/>
<path d="M246.172 149.833C256.212 141.603 265.987 150.378 266.551 151.853" stroke="#A855F7" style="stroke:#A855F7;stroke:color(display-p3 0.6588 0.3333 0.9686);stroke-opacity:1;" stroke-width="4.23705" stroke-linecap="round"/>
<circle cx="158.606" cy="194.874" r="8.47409" fill="#A855F7" style="fill:#A855F7;fill:color(display-p3 0.6588 0.3333 0.9686);fill-opacity:1;"/>
<circle cx="261.707" cy="192.05" r="8.47409" fill="#A855F7" style="fill:#A855F7;fill:color(display-p3 0.6588 0.3333 0.9686);fill-opacity:1;"/>
<path d="M176.967 112.252C179.791 136.968 206.098 132.697 213.688 125.67C232.754 108.015 211.569 96.0103 202.389 103.072C181.158 119.403 216.512 140.499 232.048 127.788" stroke="#A855F7" style="stroke:#A855F7;stroke:color(display-p3 0.6588 0.3333 0.9686);stroke-opacity:1;" stroke-width="8.47409" stroke-linecap="round"/>
<path d="M146.601 160.272L165.668 154.623" stroke="#A855F7" style="stroke:#A855F7;stroke:color(display-p3 0.6588 0.3333 0.9686);stroke-opacity:1;" stroke-width="4.23705" stroke-linecap="round"/>
<path d="M203.095 260.549C101.406 289.502 75.2774 234.42 70.3342 211.823" stroke="#A855F7" style="stroke:#A855F7;stroke:color(display-p3 0.6588 0.3333 0.9686);stroke-opacity:1;" stroke-width="8.47409" stroke-linecap="round"/>
<path d="M224.28 261.255C325.969 290.208 334.443 224.534 342.917 208.88" stroke="#A855F7" style="stroke:#A855F7;stroke:color(display-p3 0.6588 0.3333 0.9686);stroke-opacity:1;" stroke-width="8.47409" stroke-linecap="round"/>
<ellipse cx="207.332" cy="259.137" rx="6.35557" ry="10.5926" fill="#A855F7" style="fill:#A855F7;fill:color(display-p3 0.6588 0.3333 0.9686);fill-opacity:1;"/>
<ellipse cx="217.218" cy="259.137" rx="6.35557" ry="10.5926" fill="#A855F7" style="fill:#A855F7;fill:color(display-p3 0.6588 0.3333 0.9686);fill-opacity:1;"/>
<g clip-path="url(#clip0_64_511)">
<path d="M321.458 123.736L312.716 118.922C308.693 116.707 307.227 111.649 309.443 107.626L316.664 94.5137L339.975 107.351L332.754 120.463C330.538 124.487 325.481 125.952 321.458 123.736Z" fill="#62C9CC" style="fill:#62C9CC;fill:color(display-p3 0.3843 0.7882 0.8000);fill-opacity:1;"/>
<path d="M313.976 110.122L321.197 97.0098L316.664 94.5137L309.443 107.626C307.227 111.649 308.693 116.707 312.716 118.922L317.249 121.418C313.226 119.203 311.76 114.145 313.976 110.122Z" fill="#50A9A9" style="fill:#50A9A9;fill:color(display-p3 0.3137 0.6627 0.6627);fill-opacity:1;"/>
<path d="M351.141 59.4911C340.592 53.6814 327.33 57.5239 321.52 68.0737C317.234 75.8563 318.202 85.1145 323.24 91.7684L320.193 97.3013L335.733 105.859L338.78 100.327C347.096 101.027 355.438 96.8952 359.724 89.1126C365.534 78.5627 361.691 65.3009 351.141 59.4911Z" fill="#F7D04A" style="fill:#F7D04A;fill:color(display-p3 0.9686 0.8157 0.2902);fill-opacity:1;"/>
<path d="M326.053 70.5698C331.44 60.7871 343.235 56.7733 353.334 60.8736C352.639 60.3763 351.909 59.9135 351.141 59.4911C340.592 53.6814 327.33 57.5239 321.52 68.0737C317.234 75.8563 318.202 85.1145 323.24 91.7684L320.193 97.3013L324.725 99.7974L327.772 94.2645C322.735 87.6106 321.767 78.3525 326.053 70.5698Z" fill="#F3B41B" style="fill:#F3B41B;fill:color(display-p3 0.9529 0.7059 0.1059);fill-opacity:1;"/>
<path d="M349.513 75.4725C352.016 76.851 355.163 75.9393 356.542 73.436C357.92 70.9327 357.009 67.7858 354.505 66.4072C352.002 65.0287 348.855 65.9405 347.477 68.4437C346.098 70.947 347.01 74.0939 349.513 75.4725Z" fill="#FEE7BE" style="fill:#FEE7BE;fill:color(display-p3 0.9961 0.9059 0.7451);fill-opacity:1;"/>
<path d="M351.81 58.2769C347.587 55.9516 342.832 55.0054 338.057 55.5404C337.297 55.6257 336.749 56.3115 336.834 57.0722C336.92 57.8331 337.606 58.3805 338.366 58.2953C342.568 57.8245 346.755 58.6577 350.473 60.7052C360.336 66.137 363.941 78.5805 358.51 88.4438C354.624 95.499 346.926 99.6212 338.896 98.9452C338.351 98.8994 337.83 99.1785 337.566 99.6578L335.544 103.329L334.097 102.532L343.159 86.0767L345.33 87.2722C346.85 88.1097 348.691 87.9273 350.017 86.8075C351.344 85.6878 351.833 83.9043 351.263 82.2644L350.78 80.8763C350.233 79.3031 348.863 78.2388 347.203 78.0983C345.544 77.958 344.014 78.7771 343.21 80.2358L342.068 82.3111L336.706 79.3588L337.849 77.2835C338.653 75.8245 338.527 74.0938 337.521 72.7664C336.515 71.4389 334.883 70.8497 333.261 71.2285L331.83 71.5629C330.14 71.9579 328.894 73.3243 328.657 75.0442C328.419 76.764 329.249 78.4167 330.77 79.2542L332.941 80.4498L323.879 96.9051L322.431 96.1079L324.453 92.4368C324.717 91.9575 324.674 91.3677 324.344 90.9316C319.48 84.5073 318.848 75.7974 322.734 68.7422C325.008 64.612 328.511 61.4859 332.864 59.7021C333.572 59.4116 333.911 58.6021 333.621 57.894C333.331 57.1861 332.521 56.847 331.813 57.1371C326.939 59.135 322.852 62.7816 320.306 67.405C316.039 75.1522 316.568 84.6552 321.601 91.8705L320.003 94.7708L317.332 93.2999C316.662 92.9306 315.819 93.1748 315.45 93.8454L308.229 106.958C305.648 111.644 307.361 117.556 312.047 120.137L320.789 124.951C325.475 127.531 331.387 125.819 333.968 121.132L335.84 117.733C336.209 117.062 335.965 116.219 335.294 115.85C334.624 115.481 333.781 115.725 333.412 116.396L332.208 118.581L311.325 107.081L313.643 102.872L331.207 112.544C331.878 112.914 332.721 112.67 333.09 111.999C333.459 111.328 333.215 110.486 332.545 110.116L314.981 100.444L317.209 96.3967L338.092 107.897L336.978 109.92C336.608 110.591 336.852 111.434 337.523 111.803C338.194 112.172 339.036 111.928 339.406 111.258L341.189 108.02C341.558 107.349 341.314 106.506 340.643 106.137L337.972 104.666L339.569 101.766C348.357 102.161 356.671 97.5279 360.938 89.7811C367.107 78.5787 363.012 64.446 351.81 58.2769ZM345.639 81.5729C346.042 80.8414 346.759 80.8427 346.97 80.8604C347.18 80.8784 347.888 80.9976 348.162 81.7863L348.644 83.1744C348.935 84.0092 348.4 84.5444 348.229 84.6888C348.059 84.833 347.441 85.2701 346.667 84.8437L344.496 83.6482L345.639 81.5729ZM322.126 122.523L313.384 117.709C310.453 116.094 309.15 112.655 310.111 109.576L330.749 120.942C328.661 123.399 325.058 124.137 322.126 122.523ZM332.107 76.8259C331.012 76.223 331.237 74.5478 332.46 74.2621L333.891 73.9277C335.048 73.6575 335.989 74.9153 335.421 75.9462L334.278 78.0215L332.107 76.8259ZM335.369 81.787L340.73 84.7394L331.668 101.195L326.307 98.2423L335.369 81.787Z" fill="#A855F7" style="fill:#A855F7;fill:color(display-p3 0.6588 0.3333 0.9686);fill-opacity:1;"/>
<path d="M354.752 52.9349C355.422 53.3042 356.265 53.06 356.635 52.3894L360.379 45.5904C360.748 44.9198 360.504 44.077 359.833 43.7077C359.163 43.3384 358.32 43.5826 357.951 44.2532L354.206 51.0522C353.837 51.7227 354.081 52.5656 354.752 52.9349Z" fill="#A855F7" style="fill:#A855F7;fill:color(display-p3 0.6588 0.3333 0.9686);fill-opacity:1;"/>
<path d="M338.43 47.9041C338.446 48.7186 339.189 49.3566 339.998 49.2502C340.689 49.1593 341.216 48.5441 341.201 47.8481L341.045 40.0879C341.029 39.3227 340.396 38.7146 339.631 38.7302C338.866 38.7456 338.258 39.3787 338.273 40.144L338.43 47.9041Z" fill="#A855F7" style="fill:#A855F7;fill:color(display-p3 0.6588 0.3333 0.9686);fill-opacity:1;"/>
<path d="M325.565 51.6312L321.549 44.9891C321.153 44.3339 320.301 44.1241 319.646 44.5202C318.991 44.9162 318.781 45.7684 319.177 46.4234L323.193 53.0655C323.616 53.7642 324.578 53.9429 325.224 53.4472C325.777 53.0231 325.926 52.2268 325.565 51.6312Z" fill="#A855F7" style="fill:#A855F7;fill:color(display-p3 0.6588 0.3333 0.9686);fill-opacity:1;"/>
<path d="M314.461 64.6085C314.831 63.9379 314.587 63.0951 313.916 62.7258L307.117 58.9816C306.446 58.6123 305.604 58.8565 305.234 59.5271C304.865 60.1977 305.109 61.0405 305.78 61.4098L312.579 65.154C313.249 65.5232 314.092 65.2791 314.461 64.6085Z" fill="#A855F7" style="fill:#A855F7;fill:color(display-p3 0.6588 0.3333 0.9686);fill-opacity:1;"/>
<path d="M309.375 78.1585L301.614 78.3154C300.918 78.3293 300.325 78.8806 300.262 79.5748C300.189 80.3858 300.854 81.1038 301.67 81.087L309.431 80.9301C310.196 80.9146 310.804 80.2816 310.788 79.5163C310.773 78.751 310.14 78.143 309.375 78.1585Z" fill="#A855F7" style="fill:#A855F7;fill:color(display-p3 0.6588 0.3333 0.9686);fill-opacity:1;"/>
<path d="M361.709 111.41L357.694 104.768C357.297 104.113 356.445 103.903 355.79 104.299C355.135 104.695 354.925 105.547 355.321 106.202L359.337 112.844C359.76 113.543 360.722 113.722 361.368 113.226C361.921 112.802 362.07 112.006 361.709 111.41Z" fill="#A855F7" style="fill:#A855F7;fill:color(display-p3 0.6588 0.3333 0.9686);fill-opacity:1;"/>
<path d="M375.107 96.4236L368.308 92.6793C367.637 92.3101 366.794 92.5543 366.425 93.2248C366.056 93.8954 366.3 94.7383 366.971 95.1076L373.77 98.8518C374.44 99.2211 375.283 98.9768 375.652 98.3063C376.022 97.6359 375.777 96.7928 375.107 96.4236Z" fill="#A855F7" style="fill:#A855F7;fill:color(display-p3 0.6588 0.3333 0.9686);fill-opacity:1;"/>
<path d="M370.817 79.5038C371.023 79.6171 371.261 79.6797 371.513 79.6745L379.273 79.5176C380.038 79.5021 380.646 78.8691 380.63 78.1038C380.615 77.3386 379.982 76.7307 379.217 76.7461L371.456 76.9031C370.691 76.9185 370.083 77.5516 370.099 78.3168C370.109 78.8303 370.397 79.2727 370.817 79.5038Z" fill="#A855F7" style="fill:#A855F7;fill:color(display-p3 0.6588 0.3333 0.9686);fill-opacity:1;"/>
<path d="M365.826 63.5698C366.217 64.2169 367.083 64.4294 367.729 64.0388L374.371 60.0228C375.026 59.6267 375.236 58.7746 374.84 58.1196C374.444 57.4645 373.592 57.2546 372.937 57.6506L366.295 61.6666C365.64 62.0626 365.43 62.9148 365.826 63.5698Z" fill="#A855F7" style="fill:#A855F7;fill:color(display-p3 0.6588 0.3333 0.9686);fill-opacity:1;"/>
</g>
<defs>
<clipPath id="clip0_64_511">
<rect width="90" height="90" fill="white" style="fill:white;fill-opacity:1;" transform="translate(320.415 22) rotate(28.8416)"/>
</clipPath>
</defs>
</svg>
