<svg width="446" height="446" viewBox="0 0 446 446" fill="none" xmlns="http://www.w3.org/2000/svg">
<g clip-path="url(#clip0_71_1588)">
<path d="M441.267 362.855C441.267 419.504 395.343 465.428 338.693 465.428C282.043 465.428 236.12 419.504 236.12 362.855C236.12 306.205 282.043 260.281 338.693 260.281C395.343 260.281 441.267 306.205 441.267 362.855Z" fill="#F6EDFF" style="fill:#F6EDFF;fill:color(display-p3 0.9655 0.9292 1.0000);fill-opacity:1;"/>
<path d="M596.059 362.855C596.059 419.504 550.136 465.428 493.486 465.428C436.836 465.428 390.912 419.504 390.912 362.855C390.912 306.205 436.836 260.281 493.486 260.281C550.136 260.281 596.059 306.205 596.059 362.855Z" fill="#F6EDFF" style="fill:#F6EDFF;fill:color(display-p3 0.9655 0.9292 1.0000);fill-opacity:1;"/>
<path d="M519.596 250.956C519.596 307.606 473.672 353.53 417.022 353.53C360.372 353.53 314.448 307.606 314.448 250.956C314.448 194.307 360.372 148.383 417.022 148.383C473.672 148.383 519.596 194.307 519.596 250.956Z" fill="#F6EDFF" style="fill:#F6EDFF;fill:color(display-p3 0.9655 0.9292 1.0000);fill-opacity:1;"/>
<path d="M343.338 291.719V283.076" stroke="#A855F7" style="stroke:#A855F7;stroke:color(display-p3 0.6588 0.3333 0.9686);stroke-opacity:1;" stroke-width="4.89191" stroke-linecap="round"/>
<path d="M352 294.834L357.291 288" stroke="#A855F7" style="stroke:#A855F7;stroke:color(display-p3 0.6588 0.3333 0.9686);stroke-opacity:1;" stroke-width="4.89191" stroke-linecap="round"/>
<path d="M334.484 294.023L328.933 287.399" stroke="#A855F7" style="stroke:#A855F7;stroke:color(display-p3 0.6588 0.3333 0.9686);stroke-opacity:1;" stroke-width="4.89191" stroke-linecap="round"/>
<path d="M315.383 263.079C305.125 159.573 389.049 149.316 425.416 149.316C453.391 149.316 527.989 167.966 517.732 263.079" stroke="#A855F7" style="stroke:#A855F7;stroke:color(display-p3 0.6588 0.3333 0.9686);stroke-opacity:1;" stroke-width="11.1898" stroke-linecap="round"/>
<path d="M518.663 264.945C625.901 285.293 595.255 388.535 588.6 402.953C571.815 439.32 502.809 498.999 418.883 432.792" stroke="#A855F7" style="stroke:#A855F7;stroke:color(display-p3 0.6588 0.3333 0.9686);stroke-opacity:1;" stroke-width="11.1898" stroke-linecap="round"/>
<path d="M417.022 430.927C301.393 509.256 242.245 415.075 234.253 388.965C220.267 343.273 247.309 272.404 315.38 264.944" stroke="#A855F7" style="stroke:#A855F7;stroke:color(display-p3 0.6588 0.3333 0.9686);stroke-opacity:1;" stroke-width="11.1898" stroke-linecap="round"/>
<circle cx="344.289" cy="310.637" r="28.9071" stroke="#A855F7" style="stroke:#A855F7;stroke:color(display-p3 0.6588 0.3333 0.9686);stroke-opacity:1;" stroke-width="9.32486"/>
<path d="M374.128 310.635C397.44 283.593 441.267 291.053 455.254 310.635" stroke="#A855F7" style="stroke:#A855F7;stroke:color(display-p3 0.6588 0.3333 0.9686);stroke-opacity:1;" stroke-width="11.1898" stroke-linecap="round"/>
<circle cx="411.04" cy="360.138" r="7.20254" fill="#FF8D8D" style="fill:#FF8D8D;fill:color(display-p3 1.0000 0.5533 0.5533);fill-opacity:1;"/>
<path d="M397.914 352.635C410.302 365.023 424.596 354.541 425.549 352.635" stroke="#A855F7" style="stroke:#A855F7;stroke:color(display-p3 0.6588 0.3333 0.9686);stroke-opacity:1;" stroke-width="5.71763" stroke-linecap="round"/>
<path d="M403.838 355.817C406.719 347.174 418.243 350.055 418.243 355.817" stroke="#A855F7" style="stroke:#A855F7;stroke:color(display-p3 0.6588 0.3333 0.9686);stroke-opacity:1;" stroke-width="5.76203" stroke-linecap="round"/>
<path d="M419.684 358.698C419.684 368.781 403.838 371.663 402.397 358.698" stroke="#A855F7" style="stroke:#A855F7;stroke:color(display-p3 0.6588 0.3333 0.9686);stroke-opacity:1;" stroke-width="5.76203" stroke-linecap="round"/>
<circle cx="294.359" cy="344.293" r="14.4051" fill="#FFD4D4" style="fill:#FFD4D4;fill:color(display-p3 1.0000 0.8300 0.8300);fill-opacity:1;"/>
<circle cx="344" cy="301" r="11" fill="#A855F7" style="fill:#A855F7;fill:color(display-p3 0.6588 0.3333 0.9686);fill-opacity:1;"/>
<path d="M313.692 218.51C314.467 212.721 316.025 205.733 318.849 197.361C320.628 196.302 331.204 190.411 339.746 186.346C350.424 181.266 429.617 152.687 508.81 191.427C516.353 200 529.105 222.057 523.426 244.968C522.924 246.992 520.427 247.604 518.757 246.355C497.027 230.104 469.516 246.835 433.176 237.788C394.915 228.261 416.27 206.669 376.229 204.764C356.441 203.822 340.389 213.171 329.329 223.501C323.473 228.971 312.628 226.453 313.692 218.51Z" fill="#D8B21A" stroke="#BB9910" style="fill:#D8B21A;fill:color(display-p3 0.8466 0.6976 0.1016);fill-opacity:1;stroke:#BB9910;stroke:color(display-p3 0.7333 0.5993 0.0636);stroke-opacity:1;" stroke-width="8.64305" stroke-linecap="round"/>
<path d="M338.961 143.201C318.868 140.605 280.22 162.044 312.558 200.632C318.209 207.374 328.563 206.565 335.208 200.801C341.771 195.108 349.976 189.28 358.131 186.444C375.17 180.517 451.376 169.66 494.997 206.11C499.266 209.678 504.852 211.836 510.174 210.213C551.995 197.46 532.069 146.902 493.455 150.105C490.671 150.336 488.297 147.127 489.255 144.503C499.445 116.569 467.004 93.634 431.728 114.39C429.733 115.564 427.075 114.395 426.489 112.156C415.416 69.8099 345.03 76.0368 346.509 137.548C346.581 140.52 341.91 143.583 338.961 143.201Z" fill="#D8B21A" stroke="#BB9910" style="fill:#D8B21A;fill:color(display-p3 0.8466 0.6976 0.1016);fill-opacity:1;stroke:#BB9910;stroke:color(display-p3 0.7333 0.5993 0.0636);stroke-opacity:1;" stroke-width="10.908" stroke-linecap="round"/>
<path d="M150.15 97.4304V92.7923L162.226 73.7151H171.59V91.0859H175.309V97.4304H171.59V105H164.02V97.4304H150.15ZM157.938 91.0859H164.02V84.0851L164.283 80.5847H164.195C163.758 81.8681 163.247 82.9474 162.664 83.8225L157.938 90.9984V91.0859ZM178.09 106.838L189.291 72.1837H195.592L184.391 106.838H178.09ZM198.593 105C198.36 103.687 198.243 102.564 198.243 101.631C198.243 99.8223 198.579 98.145 199.25 96.599C199.921 95.053 200.752 93.7841 201.744 92.7923C202.736 91.8005 203.815 90.8525 204.982 89.9482C206.178 89.044 207.272 88.2856 208.263 87.673C209.255 87.0312 210.086 86.3603 210.757 85.6602C211.428 84.931 211.764 84.2163 211.764 83.5162C211.764 82.4953 211.428 81.7223 210.757 81.1972C210.086 80.6722 209.299 80.4096 208.395 80.4096C207.52 80.4096 206.688 80.6867 205.901 81.241C205.142 81.7952 204.602 82.3494 204.282 82.9037L203.757 83.735L198.068 79.9283C198.156 79.7533 198.273 79.5199 198.418 79.2282C198.593 78.9074 198.987 78.3677 199.6 77.6093C200.242 76.8217 200.942 76.1362 201.7 75.5528C202.458 74.9402 203.494 74.4006 204.807 73.9339C206.149 73.438 207.578 73.19 209.095 73.19C211.953 73.19 214.447 74.0214 216.577 75.6841C218.706 77.3176 219.771 79.6804 219.771 82.7724C219.771 84.581 219.333 86.2291 218.458 87.7167C217.612 89.2044 216.562 90.4296 215.308 91.3922C214.054 92.3256 212.799 93.1861 211.545 93.9737C210.32 94.7321 209.255 95.4906 208.351 96.249C207.447 96.9782 206.98 97.7075 206.951 98.4367H220.252V105H198.593ZM225.485 90.2545V84.5664H247.625V90.2545H225.485ZM225.485 100.318V94.63H247.625V100.318H225.485ZM253.159 105C252.926 103.687 252.809 102.564 252.809 101.631C252.809 99.8223 253.145 98.145 253.815 96.599C254.486 95.053 255.318 93.7841 256.31 92.7923C257.301 91.8005 258.381 90.8525 259.547 89.9482C260.743 89.044 261.837 88.2856 262.829 87.673C263.821 87.0312 264.652 86.3603 265.323 85.6602C265.994 84.931 266.329 84.2163 266.329 83.5162C266.329 82.4953 265.994 81.7223 265.323 81.1972C264.652 80.6722 263.865 80.4096 262.96 80.4096C262.085 80.4096 261.254 80.6867 260.466 81.241C259.708 81.7952 259.168 82.3494 258.847 82.9037L258.322 83.735L252.634 79.9283C252.722 79.7533 252.838 79.5199 252.984 79.2282C253.159 78.9074 253.553 78.3677 254.166 77.6093C254.807 76.8217 255.507 76.1362 256.266 75.5528C257.024 74.9402 258.06 74.4006 259.372 73.9339C260.714 73.438 262.144 73.19 263.66 73.19C266.519 73.19 269.013 74.0214 271.142 75.6841C273.272 77.3176 274.337 79.6804 274.337 82.7724C274.337 84.581 273.899 86.2291 273.024 87.7167C272.178 89.2044 271.128 90.4296 269.874 91.3922C268.619 92.3256 267.365 93.1861 266.111 93.9737C264.886 94.7321 263.821 95.4906 262.917 96.249C262.012 96.9782 261.546 97.7075 261.516 98.4367H274.818V105H253.159Z" fill="#A855F7" style="fill:#A855F7;fill:color(display-p3 0.6588 0.3333 0.9686);fill-opacity:1;"/>
<path d="M148.749 157C148.516 155.687 148.399 154.564 148.399 153.631C148.399 151.822 148.735 150.145 149.406 148.599C150.077 147.053 150.908 145.784 151.9 144.792C152.892 143.801 153.971 142.853 155.138 141.948C156.334 141.044 157.427 140.286 158.419 139.673C159.411 139.031 160.242 138.36 160.913 137.66C161.584 136.931 161.92 136.216 161.92 135.516C161.92 134.495 161.584 133.722 160.913 133.197C160.242 132.672 159.455 132.41 158.551 132.41C157.675 132.41 156.844 132.687 156.056 133.241C155.298 133.795 154.758 134.349 154.438 134.904L153.912 135.735L148.224 131.928C148.312 131.753 148.429 131.52 148.574 131.228C148.749 130.907 149.143 130.368 149.756 129.609C150.398 128.822 151.098 128.136 151.856 127.553C152.614 126.94 153.65 126.401 154.963 125.934C156.304 125.438 157.734 125.19 159.251 125.19C162.109 125.19 164.603 126.021 166.733 127.684C168.862 129.318 169.927 131.68 169.927 134.772C169.927 136.581 169.489 138.229 168.614 139.717C167.768 141.204 166.718 142.43 165.464 143.392C164.21 144.326 162.955 145.186 161.701 145.974C160.476 146.732 159.411 147.491 158.507 148.249C157.603 148.978 157.136 149.707 157.107 150.437H170.408V157H148.749ZM173.234 157L180.322 145.842L173.059 134.466H181.591L184.042 139.498L184.742 140.986H184.829C185.121 140.373 185.354 139.877 185.529 139.498L187.98 134.466H196.512L189.292 145.842L196.381 157H188.067L185.354 151.924L184.829 150.787H184.742C184.538 151.283 184.363 151.662 184.217 151.924L181.548 157H173.234ZM199.427 157C199.193 155.687 199.077 154.564 199.077 153.631C199.077 151.822 199.412 150.145 200.083 148.599C200.754 147.053 201.585 145.784 202.577 144.792C203.569 143.801 204.648 142.853 205.815 141.948C207.011 141.044 208.105 140.286 209.097 139.673C210.088 139.031 210.92 138.36 211.591 137.66C212.262 136.931 212.597 136.216 212.597 135.516C212.597 134.495 212.262 133.722 211.591 133.197C210.92 132.672 210.132 132.41 209.228 132.41C208.353 132.41 207.521 132.687 206.734 133.241C205.975 133.795 205.436 134.349 205.115 134.904L204.59 135.735L198.902 131.928C198.989 131.753 199.106 131.52 199.252 131.228C199.427 130.907 199.82 130.368 200.433 129.609C201.075 128.822 201.775 128.136 202.533 127.553C203.292 126.94 204.327 126.401 205.64 125.934C206.982 125.438 208.411 125.19 209.928 125.19C212.787 125.19 215.281 126.021 217.41 127.684C219.539 129.318 220.604 131.68 220.604 134.772C220.604 136.581 220.167 138.229 219.292 139.717C218.446 141.204 217.395 142.43 216.141 143.392C214.887 144.326 213.633 145.186 212.378 145.974C211.153 146.732 210.088 147.491 209.184 148.249C208.28 148.978 207.813 149.707 207.784 150.437H221.085V157H199.427ZM226.318 142.255V136.566H248.458V142.255H226.318ZM226.318 152.318V146.63H248.458V152.318H226.318ZM252.68 149.43V144.792L264.756 125.715H274.12V143.086H277.839V149.43H274.12V157H266.55V149.43H252.68ZM260.468 143.086H266.55V136.085L266.813 132.585H266.725C266.288 133.868 265.777 134.947 265.194 135.823L260.468 142.998V143.086Z" fill="#A855F7" style="fill:#A855F7;fill:color(display-p3 0.6588 0.3333 0.9686);fill-opacity:1;"/>
<path d="M63.2652 357.472C63.2652 414.122 17.3415 460.045 -39.3083 460.045C-95.9581 460.045 -141.882 414.122 -141.882 357.472C-141.882 300.822 -95.9581 254.898 -39.3083 254.898C17.3415 254.898 63.2652 300.822 63.2652 357.472Z" fill="#F6EDFF" style="fill:#F6EDFF;fill:color(display-p3 0.9655 0.9292 1.0000);fill-opacity:1;"/>
<path d="M218.058 357.472C218.058 414.122 172.134 460.045 115.484 460.045C58.8346 460.045 12.9109 414.122 12.9109 357.472C12.9109 300.822 58.8346 254.898 115.484 254.898C172.134 254.898 218.058 300.822 218.058 357.472Z" fill="#F6EDFF" style="fill:#F6EDFF;fill:color(display-p3 0.9655 0.9292 1.0000);fill-opacity:1;"/>
<path d="M141.594 245.574C141.594 302.223 95.6703 348.147 39.0205 348.147C-17.6292 348.147 -63.553 302.223 -63.553 245.574C-63.553 188.924 -17.6292 143 39.0205 143C95.6703 143 141.594 188.924 141.594 245.574Z" fill="#F6EDFF" style="fill:#F6EDFF;fill:color(display-p3 0.9655 0.9292 1.0000);fill-opacity:1;"/>
<path d="M-62.6186 257.695C-72.8764 154.189 11.0476 143.932 47.4148 143.932C75.3892 143.932 149.988 162.581 139.731 257.695" stroke="#A855F7" style="stroke:#A855F7;stroke:color(display-p3 0.6588 0.3333 0.9686);stroke-opacity:1;" stroke-width="11.1898" stroke-linecap="round"/>
<path d="M140.662 259.562C247.9 279.91 217.254 383.152 210.599 397.57C193.814 433.937 124.808 493.616 40.8818 427.41" stroke="#A855F7" style="stroke:#A855F7;stroke:color(display-p3 0.6588 0.3333 0.9686);stroke-opacity:1;" stroke-width="11.1898" stroke-linecap="round"/>
<path d="M39.0208 425.543C-76.6075 503.871 -135.756 409.69 -143.748 383.581C-157.734 337.889 -130.692 267.02 -62.6213 259.56" stroke="#A855F7" style="stroke:#A855F7;stroke:color(display-p3 0.6588 0.3333 0.9686);stroke-opacity:1;" stroke-width="11.1898" stroke-linecap="round"/>
<circle cx="108.025" cy="305.253" r="28.9071" stroke="#A855F7" style="stroke:#A855F7;stroke:color(display-p3 0.6588 0.3333 0.9686);stroke-opacity:1;" stroke-width="9.32486"/>
<path d="M-3.87158 305.251C19.4406 278.209 63.2674 285.669 77.2547 305.251" stroke="#A855F7" style="stroke:#A855F7;stroke:color(display-p3 0.6588 0.3333 0.9686);stroke-opacity:1;" stroke-width="11.1898" stroke-linecap="round"/>
<circle cx="108" cy="294" r="11" fill="#A855F7" style="fill:#A855F7;fill:color(display-p3 0.6588 0.3333 0.9686);fill-opacity:1;"/>
<path d="M-2.00781 196.151C1.72213 228.788 36.4591 223.148 46.4815 213.868C71.6586 190.556 43.684 174.704 31.5617 184.028C3.52679 205.594 50.2114 233.45 70.7261 216.665" stroke="#A855F7" style="stroke:#A855F7;stroke:color(display-p3 0.6588 0.3333 0.9686);stroke-opacity:1;" stroke-width="11.1898" stroke-linecap="round"/>
<path d="M19.9136 347.253C32.3018 359.641 46.5959 349.159 47.5488 347.253" stroke="#A855F7" style="stroke:#A855F7;stroke:color(display-p3 0.6588 0.3333 0.9686);stroke-opacity:1;" stroke-width="5.71763" stroke-linecap="round"/>
<g clip-path="url(#clip1_71_1588)">
<path d="M63.2354 108.917C63.4863 109.486 63.5011 110.131 63.2764 110.711C63.0517 111.29 62.6059 111.757 62.0372 112.008L58.4634 113.585L60.0402 117.158C60.2912 117.727 60.3059 118.372 60.0812 118.952C59.8565 119.531 59.4107 119.998 58.842 120.249C58.2733 120.5 57.6282 120.515 57.0487 120.29C56.4691 120.065 56.0025 119.619 55.7516 119.051L54.1748 115.477L50.6009 117.054C50.0322 117.305 49.3871 117.319 48.8076 117.095C48.228 116.87 47.7614 116.424 47.5105 115.856C47.2596 115.287 47.2449 114.642 47.4696 114.062C47.6943 113.483 48.14 113.016 48.7087 112.765L52.2825 111.188L50.7057 107.614C50.4548 107.046 50.44 106.401 50.6647 105.821C50.8895 105.241 51.3352 104.775 51.9039 104.524C52.4726 104.273 53.1177 104.258 53.6973 104.483C54.2768 104.708 54.7434 105.153 54.9943 105.722L56.5712 109.296L60.145 107.719C60.7137 107.468 61.3588 107.454 61.9384 107.678C62.5179 107.903 62.9845 108.349 63.2354 108.917ZM51.3146 87.7057L39.8783 92.7516C39.3096 93.0025 38.8639 93.4691 38.6392 94.0487C38.4145 94.6282 38.4292 95.2733 38.6802 95.842C38.9311 96.4107 39.3976 96.8565 39.9772 97.0812C40.5568 97.3059 41.2019 97.2911 41.7706 97.0402L53.2069 91.9943C53.7756 91.7434 54.2213 91.2768 54.446 90.6972C54.6707 90.1177 54.656 89.4726 54.4051 88.9039C54.1541 88.3352 53.6876 87.8894 53.108 87.6647C52.5284 87.44 51.8833 87.4548 51.3146 87.7057ZM69.0428 104.661L80.4791 99.6155C81.0478 99.3645 81.4935 98.898 81.7182 98.3184C81.943 97.7389 81.9282 97.0938 81.6773 96.5251C81.4264 95.9563 80.9598 95.5106 80.3802 95.2859C79.8007 95.0612 79.1556 95.0759 78.5869 95.3269L67.1506 100.373C66.5819 100.624 66.1362 101.09 65.9115 101.67C65.6868 102.249 65.7015 102.894 65.9524 103.463C66.2033 104.032 66.6699 104.478 67.2495 104.702C67.829 104.927 68.4741 104.912 69.0428 104.661ZM81.7301 102.451L70.2938 107.497C69.7251 107.748 69.2794 108.214 69.0547 108.794C68.83 109.373 68.8447 110.018 69.0956 110.587C69.3466 111.156 69.8131 111.602 70.3927 111.826C70.9723 112.051 71.6173 112.036 72.186 111.785L83.6223 106.739C84.191 106.488 84.6368 106.022 84.8615 105.442C85.0862 104.863 85.0715 104.218 84.8205 103.649C84.5696 103.08 84.103 102.635 83.5235 102.41C82.9439 102.185 82.2988 102.2 81.7301 102.451ZM63.3125 91.9087C63.892 92.1334 64.5371 92.1187 65.1058 91.8677C65.6745 91.6168 66.1203 91.1502 66.345 90.5707L67.8941 86.5751L71.8897 88.1243C72.4691 88.3485 73.1139 88.3334 73.6823 88.0824C74.2506 87.8314 74.6961 87.365 74.9207 86.7856C75.1453 86.2063 75.1307 85.5616 74.8801 84.993C74.6294 84.4245 74.1633 83.9787 73.5842 83.7537L69.5886 82.2046L71.1378 78.209C71.362 77.6296 71.3469 76.9848 71.0959 76.4164C70.8449 75.8481 70.3785 75.4026 69.7992 75.178C69.2199 74.9534 68.5751 74.968 68.0065 75.2186C67.438 75.4693 66.9922 75.9354 66.7672 76.5145L65.2181 80.5101L61.2225 78.9609C60.6431 78.7367 59.9983 78.7518 59.4299 79.0028C58.8616 79.2538 58.4161 79.7202 58.1915 80.2995C57.9669 80.8788 57.9815 81.5236 58.2322 82.0922C58.4828 82.6607 58.9489 83.1065 59.528 83.3315L63.5236 84.8806L61.9744 88.8762C61.7498 89.4557 61.7645 90.1008 62.0154 90.6695C62.2664 91.2382 62.7329 91.684 63.3125 91.9087Z" fill="#A855F7" style="fill:#A855F7;fill:color(display-p3 0.6588 0.3333 0.9686);fill-opacity:1;"/>
</g>
<g clip-path="url(#clip2_71_1588)">
<path d="M400.049 22.0931L375.019 10.7016C373.517 10.0182 372.06 10.5637 371.377 12.0655L355.429 47.107C354.745 48.6088 355.291 50.0657 356.793 50.7491L381.822 62.1406C383.324 62.8241 384.781 62.2785 385.465 60.7768L401.413 25.7352C402.096 24.2334 401.551 22.7766 400.049 22.0931ZM361.914 49.4543C360.162 48.6569 359.594 46.5855 360.278 45.0838C360.961 43.582 363.146 42.7637 364.648 43.4472C366.15 44.1307 366.968 46.3159 366.285 47.8177C365.601 49.3195 363.666 50.2517 361.914 49.4543ZM366.015 40.4436C364.263 39.6462 363.695 37.5749 364.379 36.0731C365.062 34.5713 367.247 33.753 368.749 34.4365C370.251 35.12 371.069 37.3052 370.386 38.807C369.702 40.3088 367.767 41.241 366.015 40.4436ZM369.888 31.9335C368.136 31.1361 367.568 29.0648 368.252 27.563C368.935 26.0612 371.12 25.2429 372.622 25.9264C374.124 26.6099 374.942 28.7951 374.259 30.2969C373.575 31.7987 371.64 32.7309 369.888 31.9335ZM370.675 53.4413C368.923 52.6439 368.355 50.5725 369.038 49.0708C369.721 47.569 371.907 46.7507 373.409 47.4342C374.91 48.1177 375.729 50.3029 375.045 51.8047C374.362 53.3065 372.427 54.2387 370.675 53.4413ZM374.776 44.4306C373.023 43.6332 372.455 41.5619 373.139 40.0601C373.822 38.5583 376.008 37.74 377.509 38.4235C379.011 39.107 379.83 41.2922 379.146 42.794C378.463 44.2958 376.528 45.228 374.776 44.4306ZM378.649 35.9205C376.897 35.1231 376.329 33.0518 377.012 31.55C377.695 30.0482 379.858 28.6154 381.61 29.4128C383.362 30.2102 383.93 32.2816 383.247 33.7833C382.563 35.2851 380.401 36.7179 378.649 35.9205ZM384.17 55.6553C383.372 57.4074 381.301 57.9754 379.799 57.2919C378.297 56.6084 377.479 54.4232 378.163 52.9214L382.15 44.161C382.947 42.4089 385.018 41.8409 386.52 42.5244C388.022 43.2079 388.84 45.3932 388.157 46.8949L384.17 55.6553ZM387.409 39.9075C385.657 39.1101 385.089 37.0388 385.772 35.537C386.456 34.0352 388.641 33.2169 390.143 33.9004C391.645 34.5839 392.463 36.7692 391.78 38.2709C391.096 39.7727 389.161 40.7049 387.409 39.9075ZM395.037 33.1061L370.007 21.7147L373.88 13.2046L398.91 24.5961L395.037 33.1061Z" fill="#A855F7" style="fill:#A855F7;fill:color(display-p3 0.6588 0.3333 0.9686);fill-opacity:1;"/>
</g>
</g>
<defs>
<clipPath id="clip0_71_1588">
<rect width="446" height="446" fill="white" style="fill:white;fill-opacity:1;"/>
</clipPath>
<clipPath id="clip1_71_1588">
<rect width="50" height="50" fill="white" style="fill:white;fill-opacity:1;" transform="translate(28 85.1836) rotate(-23.808)"/>
</clipPath>
<clipPath id="clip2_71_1588">
<rect width="55" height="55" fill="white" style="fill:white;fill-opacity:1;" transform="translate(364.783) rotate(24.4711)"/>
</clipPath>
</defs>
</svg>
