<svg width="446" height="446" viewBox="0 0 446 446" fill="none" xmlns="http://www.w3.org/2000/svg">
<g clip-path="url(#clip0_65_1109)">
<path d="M303.882 211.89C341.442 247.198 384.363 201.254 355.346 171.633" stroke="#A855F7" style="stroke:#A855F7;stroke:color(display-p3 0.6588 0.3333 0.9686);stroke-opacity:1;" stroke-width="7.56902" stroke-linecap="round"/>
<path d="M233.137 299.563L240.938 316.258C244.299 323.45 243.505 331.898 238.862 338.338L229.983 350.654L246.382 358.223" stroke="#A855F7" style="stroke:#A855F7;stroke:color(display-p3 0.6588 0.3333 0.9686);stroke-opacity:1;" stroke-width="7.56902" stroke-linecap="round"/>
<path d="M130.955 300.193L140.225 318.589C142.684 323.468 142.342 329.29 139.329 333.848L127.801 351.284L144.201 358.853" stroke="#A855F7" style="stroke:#A855F7;stroke:color(display-p3 0.6588 0.3333 0.9686);stroke-opacity:1;" stroke-width="7.56902" stroke-linecap="round"/>
<path d="M165.646 232.073C165.646 270.392 196.71 301.456 235.029 301.456C273.348 301.456 304.412 270.392 304.412 232.073C304.412 193.754 273.348 162.69 235.029 162.69C196.71 162.69 165.646 193.754 165.646 232.073Z" fill="#F6EDFF" style="fill:#F6EDFF;fill:color(display-p3 0.9655 0.9292 1.0000);fill-opacity:1;"/>
<path d="M60.9415 232.073C60.9415 270.392 92.0052 301.456 130.324 301.456C168.643 301.456 199.707 270.392 199.707 232.073C199.707 193.754 168.643 162.69 130.324 162.69C92.0052 162.69 60.9415 193.754 60.9415 232.073Z" fill="#F6EDFF" style="fill:#F6EDFF;fill:color(display-p3 0.9655 0.9292 1.0000);fill-opacity:1;"/>
<path d="M112.663 156.383C112.663 194.702 143.727 225.765 182.046 225.765C220.365 225.765 251.428 194.702 251.428 156.383C251.428 118.064 220.365 87 182.046 87C143.727 87 112.663 118.064 112.663 156.383Z" fill="#F6EDFF" style="fill:#F6EDFF;fill:color(display-p3 0.9655 0.9292 1.0000);fill-opacity:1;"/>
<path d="M250.797 164.583C257.736 94.5692 200.968 87.6309 176.368 87.6309C157.446 87.6308 106.986 100.246 113.924 164.583" stroke="#A855F7" style="stroke:#A855F7;stroke:color(display-p3 0.6588 0.3333 0.9686);stroke-opacity:1;" stroke-width="7.56902" stroke-linecap="round"/>
<path d="M113.295 165.844C40.757 179.608 61.4862 249.442 65.9876 259.195C77.3418 283.794 124.019 324.162 180.788 279.379" stroke="#A855F7" style="stroke:#A855F7;stroke:color(display-p3 0.6588 0.3333 0.9686);stroke-opacity:1;" stroke-width="7.56902" stroke-linecap="round"/>
<path d="M182.046 278.117C260.259 331.101 300.268 267.395 305.674 249.734C315.134 218.827 296.843 170.89 250.799 165.844" stroke="#A855F7" style="stroke:#A855F7;stroke:color(display-p3 0.6588 0.3333 0.9686);stroke-opacity:1;" stroke-width="7.56902" stroke-linecap="round"/>
<circle cx="22.7071" cy="22.7071" r="19.5533" transform="matrix(-1 0 0 1 253.951 174.043)" stroke="#A855F7" style="stroke:#A855F7;stroke:color(display-p3 0.6588 0.3333 0.9686);stroke-opacity:1;" stroke-width="6.30752"/>
<circle cx="22.7071" cy="22.7071" r="19.5533" transform="matrix(-1 0 0 1 158.077 174.043)" stroke="#A855F7" style="stroke:#A855F7;stroke:color(display-p3 0.6588 0.3333 0.9686);stroke-opacity:1;" stroke-width="6.30752"/>
<path d="M211.061 196.75C195.292 178.459 165.647 183.505 156.186 196.75" stroke="#A855F7" style="stroke:#A855F7;stroke:color(display-p3 0.6588 0.3333 0.9686);stroke-opacity:1;" stroke-width="7.56902" stroke-linecap="round"/>
<path d="M176.369 215.673C184.568 223.873 194.03 216.935 194.66 215.673" stroke="#A855F7" style="stroke:#A855F7;stroke:color(display-p3 0.6588 0.3333 0.9686);stroke-opacity:1;" stroke-width="3.78451" stroke-linecap="round"/>
<circle cx="7.56902" cy="7.56902" r="7.56902" transform="matrix(-1 0 0 1 244.847 190.79)" fill="#A855F7" style="fill:#A855F7;fill:color(display-p3 0.6588 0.3333 0.9686);fill-opacity:1;"/>
<circle cx="7.56902" cy="7.56902" r="7.56902" transform="matrix(-1 0 0 1 150.578 190.79)" fill="#A855F7" style="fill:#A855F7;fill:color(display-p3 0.6588 0.3333 0.9686);fill-opacity:1;"/>
<path d="M209.799 122.953C207.276 145.029 183.779 141.214 177 134.937C159.969 119.168 178.892 108.445 187.092 114.753C206.055 129.34 174.477 148.183 160.6 136.829" stroke="#A855F7" style="stroke:#A855F7;stroke:color(display-p3 0.6588 0.3333 0.9686);stroke-opacity:1;" stroke-width="7.56902" stroke-linecap="round"/>
<path d="M314.666 117.448C331.866 131.048 353.166 177.115 361.666 198.448C359.999 199.782 352.466 205.348 335.666 216.948C309.665 214.948 267.666 146.948 254.166 124.948C240.666 102.948 240.666 80.4483 243.166 71.9483C245.666 63.4483 293.166 100.448 314.666 117.448Z" fill="#7B1F1F" stroke="black" style="fill:#7B1F1F;fill:color(display-p3 0.4833 0.1208 0.1208);fill-opacity:1;stroke:black;stroke-opacity:1;"/>
<path d="M352.666 207.448C363.666 200.448 370.166 197.448 384.166 207.448C388.499 212.782 398.166 225.048 402.166 231.448C407.166 239.448 415.166 245.448 431.166 254.448C430.166 265.948 404.166 270.448 387.666 271.948C371.166 273.448 355.666 262.948 342.166 245.448C328.666 227.948 341.666 214.448 352.666 207.448Z" fill="#EDD7BE" style="fill:#EDD7BE;fill:color(display-p3 0.9294 0.8431 0.7451);fill-opacity:1;"/>
<path d="M432.166 250.448C433.166 244.448 419.166 246.948 404.166 234.948C389.999 243.448 363.666 262.248 371.666 269.448C381.666 278.448 398.166 272.448 410.166 271.448C422.166 270.448 431.166 256.448 432.166 250.448Z" fill="#A855F7" style="fill:#A855F7;fill:color(display-p3 0.6588 0.3333 0.9686);fill-opacity:1;"/>
<path d="M391.576 279.517C393.758 279.517 395.918 279.389 398.093 279.116C406.346 278.1 413.265 276.251 419.245 273.462C420.972 272.659 422.428 271.984 423.731 271.075C425.292 269.991 426.838 268.839 428.278 267.604C429.332 266.71 430.256 265.747 431.112 264.694C432.636 262.822 434.068 260.95 434.902 258.555C436.296 254.493 435.455 250.075 432.696 247.029C430.074 244.118 426.512 242.754 423.981 242.125L422.875 241.853C420.95 241.39 419.04 240.92 417.176 240.246C415.796 239.556 414.531 238.798 413.295 237.95C411.795 236.646 410.461 235.244 409.211 233.744C406.619 230.114 404.497 226.158 402.443 222.353C400.89 219.473 399.344 216.586 397.593 213.82C396.471 212.039 395.319 210.25 394.122 208.492C392.371 205.953 390.234 203.68 387.597 201.566L386.892 201.005C384.467 199.034 381.951 197.011 379.071 195.76C376.335 194.571 373.463 193.828 370.273 193.494C369.538 193.419 368.818 193.381 368.09 193.381C367.704 193.381 366.665 193.472 366.665 193.472L366.029 193.26L365.673 192.411C364.233 189.016 362.793 185.613 361.262 182.256C359.375 178.125 357.124 174.101 354.949 170.206L354.214 168.887C352.622 166.007 350.902 163.203 349.182 160.407L346.408 155.845C345.029 153.556 343.634 151.267 342.104 149.07C341.209 147.789 340.27 146.546 339.322 145.295L337.844 143.318C335.821 140.589 333.858 137.823 331.888 135.042C329.955 132.321 328.015 129.601 326.037 126.91L324.969 125.47C321.195 120.355 317.292 115.057 312.646 110.51C307.902 105.857 302.794 101.674 297.55 97.43C296.436 96.5206 295.352 95.6036 294.268 94.679C292.889 93.5044 291.502 92.3297 290.077 91.2005C287.152 88.8891 284.151 86.6913 281.089 84.5542C275.353 80.5679 270.154 77.2258 265.197 74.3384C262.462 72.7394 259.529 71.4132 257.028 70.3219C253.996 68.9881 250.222 67.3208 246.373 67.3208C245.554 67.3208 244.72 67.3966 243.894 67.5482C240.135 68.2908 237.043 71.2995 235.831 75.407C235.308 77.1728 234.975 79.0219 234.831 80.8938C234.535 84.5163 235.088 88.7678 236.445 93.1709C237.407 96.2932 238.408 99.4155 239.582 102.462C241.886 108.495 244.288 113.906 247.373 119.574C248.593 121.81 251.905 127.729 251.905 127.729C254.034 131.525 256.171 135.33 258.331 139.104C260.264 142.491 262.378 145.765 264.493 149.039L268.38 155.117C270.608 158.649 272.821 162.15 275.269 165.553C279.536 171.517 283.886 177.057 288.206 182.036C292.025 186.454 295.981 190.751 299.937 195.033L301.544 196.768C306.364 201.99 311.032 206.355 315.821 210.129C315.821 210.129 319.239 212.804 319.505 212.979C321.179 214.252 322.839 215.48 324.529 216.677C326.977 218.45 329.607 220.307 332.418 221.747C332.661 226.112 332.888 229.204 333.358 232.099C333.919 235.434 335.147 238.594 336.268 241.239C337.322 243.702 338.648 246.347 340.216 249.098C341.967 252.167 343.975 254.978 346.014 257.244C347.901 259.328 349.947 261.291 352.084 263.171C354.941 265.664 357.533 267.695 360.011 269.347C362.573 271.06 365.362 272.553 368.302 273.788L369.394 274.25C372.167 275.433 375.039 276.653 377.98 277.449C380.989 278.275 384.975 279.245 389.105 279.442C389.916 279.502 390.742 279.517 391.576 279.517ZM423.11 254.653C423.049 255.509 422.837 255.85 422.609 256.183C421.442 257.548 420.222 258.715 418.873 259.829C417.229 261.011 415.387 262.042 413.053 263.103C408.256 264.959 403.209 265.891 398.48 266.627C396.38 266.861 394.311 266.99 392.235 266.99C390.787 266.99 389.34 266.93 387.885 266.801C383.399 266.066 378.814 264.747 373.842 262.769C371.697 261.807 369.613 260.776 367.597 259.594C365.673 258.48 363.869 257.153 362.08 255.812C358.609 253.038 355.896 250.507 353.638 247.961C350.963 244.3 348.659 240.329 346.787 236.138C345.711 233.296 345.029 230.864 344.62 228.492C344.491 226.946 344.453 225.43 344.423 223.922L344.415 223.702L344.93 223.21C350.804 218.261 356.487 213.092 363.785 206.158L366.089 205.817C366.87 205.749 367.613 205.711 368.355 205.711C368.893 205.711 369.424 205.734 369.969 205.772C371.303 205.999 372.584 206.294 373.85 206.704C375.199 207.401 376.396 208.219 377.563 209.098C379.435 210.652 381.39 212.312 383.103 214.312C385.596 217.799 387.991 221.792 390.454 226.544C392.515 230.508 394.759 234.698 397.585 238.495C399.192 240.678 400.965 242.974 403.042 245.005C404.694 246.627 406.748 248.158 409.499 249.825C411.712 251.144 414.144 252.174 416.524 252.796C417.304 253 418.085 253.175 418.873 253.349C420.018 253.599 421.17 253.849 422.299 254.205L423.019 254.584L423.216 254.274L423.375 254.463L423.11 254.653ZM345.832 179.164C348.727 184.211 350.766 188.159 352.448 191.956L354.547 197.178L353.774 198.269C349.326 202.619 344.733 207.128 339.8 211.107C336.132 209.546 333.426 207.568 330.812 205.665C330.812 205.665 326.856 202.778 326.454 202.505C326.272 202.361 326.105 202.232 325.931 202.088L325.287 201.603L325.295 201.573C324.37 200.83 323.468 200.088 322.559 199.337C326.052 195.419 329.789 192.32 333.525 189.22L334.252 188.629C337.7 185.734 341.08 182.756 344.46 179.777L345.605 178.762L345.832 179.164ZM248.51 80.7347C249.465 81.0151 250.404 81.3637 251.329 81.7199C260.423 85.7895 268.517 91.3445 277.891 98.4379L286.872 105.569C289.456 107.608 292.055 109.646 294.564 111.784C301.043 117.316 306.265 122.59 310.524 127.918C314.245 132.799 317.86 137.725 321.49 142.658L328.258 151.836C329.887 153.996 331.516 156.155 332.971 158.444L338.807 167.546L336.298 170.289C330.728 175.427 324.969 180.74 318.929 185.537L317.807 186.371C316.246 187.523 314.677 188.675 313.184 189.917L311.047 188.182C309.6 186.659 308.152 185.128 306.735 183.567L303.62 180.172C301.703 178.095 299.793 176.019 297.959 173.889C295.337 170.82 292.791 167.697 290.305 164.514C286.387 159.361 282.711 153.965 279.058 148.009C277.997 146.273 276.899 144.553 275.792 142.832C273.587 139.399 271.313 135.845 269.373 132.185C267.494 128.646 265.584 125.129 263.674 121.605L260.127 115.057C258.574 112.193 257.141 109.305 255.853 106.304C255.217 104.804 254.527 103.341 253.822 101.871L252.359 98.7108C250.753 94.4289 248.964 89.465 248.047 84.3875C247.979 83.2507 247.949 82.167 248.002 81.0757L248.025 80.5831L248.51 80.7347ZM248.275 80.4012L248.161 80.5149L247.979 80.5225V79.7646L248.275 80.4012Z" fill="#360E0E" style="fill:#360E0E;fill:color(display-p3 0.2099 0.0546 0.0546);fill-opacity:1;"/>
<g clip-path="url(#clip1_65_1109)">
<path d="M40.1533 248.509C42.045 244.962 44.9012 242.022 48.3924 240.029C51.8837 238.036 55.8676 237.071 59.884 237.245C67.7565 237.726 73.3078 244.222 78.1558 250.006C81.2695 253.617 84.5046 257.375 87.2976 258.136C88.7345 258.493 90.5761 257.06 93.1587 254.726C96.2275 252.108 100.039 248.842 105.017 249.38C108.881 249.808 112.63 252.398 116.476 257.392C119.335 260.848 121.402 264.89 122.529 269.231C123.656 273.573 123.816 278.11 122.999 282.52C121.032 293.246 112.806 303.528 100.571 310.648C75.2083 325.406 49.6826 316.396 39.6239 299.11C31.5455 285.226 31.7978 262.049 40.1533 248.509Z" fill="#F9A825" style="fill:#F9A825;fill:color(display-p3 0.9765 0.6588 0.1451);fill-opacity:1;"/>
<path d="M108.132 278.842L108.375 278.701C109.016 278.218 109.529 277.586 109.868 276.858C110.208 276.131 110.364 275.332 110.323 274.53C110.365 273.474 110.139 272.425 109.665 271.48C109.191 270.534 108.485 269.725 107.614 269.127C106.742 268.529 105.733 268.162 104.681 268.06C103.628 267.958 102.568 268.125 101.597 268.544C100.836 268.789 100.148 269.218 99.5931 269.793C99.0383 270.368 98.6345 271.072 98.4175 271.841C98.2905 273.046 98.5331 274.261 99.1135 275.325C99.6937 276.389 100.584 277.251 101.666 277.796C104.109 279.448 106.43 279.833 108.132 278.842Z" fill="#43A047" style="fill:#43A047;fill:color(display-p3 0.2627 0.6275 0.2784);fill-opacity:1;"/>
<path d="M96.8959 297.745C97.7365 297.24 98.4461 296.543 98.9677 295.712C99.489 294.881 99.8075 293.939 99.8973 292.962C100.054 292.176 100.015 291.364 99.7832 290.597C99.5512 289.83 99.1339 289.132 98.5682 288.565C97.5817 287.865 96.4054 287.482 95.1957 287.469C93.9858 287.455 92.8012 287.812 91.7997 288.49C90.6421 288.864 89.6295 289.589 88.901 290.563C88.1728 291.537 87.7647 292.714 87.7336 293.929C87.8289 294.725 88.1239 295.484 88.5911 296.135C89.0585 296.786 89.683 297.308 90.4064 297.653C91.3131 298.153 92.3263 298.428 93.3612 298.455C94.3961 298.482 95.4222 298.26 96.3537 297.808L96.8959 297.745Z" fill="#039BE5" style="fill:#039BE5;fill:color(display-p3 0.0118 0.6078 0.8980);fill-opacity:1;"/>
<path d="M74.5848 303.208C75.4356 302.711 76.1631 302.028 76.7127 301.21C77.1948 300.572 77.516 299.828 77.6489 299.039C77.7816 298.25 77.7223 297.441 77.4756 296.681C76.7084 294.741 74.5097 293.634 71.401 293.635C70.2034 293.469 68.9838 293.675 67.9066 294.224C66.8297 294.773 65.947 295.639 65.3782 296.706C65.129 297.469 65.0685 298.281 65.2016 299.072C65.3345 299.864 65.6577 300.611 66.1426 301.251C66.7256 302.113 67.5089 302.821 68.4256 303.314C69.3421 303.807 70.3645 304.07 71.4054 304.081C72.5243 304.08 73.6221 303.778 74.5848 303.208Z" fill="#3949AB" style="fill:#3949AB;fill:color(display-p3 0.2235 0.2863 0.6706);fill-opacity:1;"/>
<path d="M59.3814 265.523C60.3878 265.087 61.2435 264.365 61.8402 263.445C62.4374 262.525 62.7489 261.449 62.7364 260.353C62.6225 259.56 62.3138 258.807 61.838 258.163C61.3622 257.519 60.7339 257.002 60.0096 256.66C59.0954 256.102 58.0529 255.787 56.9822 255.747C55.9113 255.707 54.8483 255.943 53.895 256.433C52.9418 256.922 52.1304 257.648 51.5387 258.541C50.9471 259.435 50.595 260.465 50.5162 261.534C50.3683 262.319 50.4144 263.129 50.6508 263.893C50.8872 264.656 51.3066 265.35 51.8724 265.915C53.4455 267.313 55.8479 267.217 58.6634 265.904L59.3814 265.523Z" fill="#E53935" style="fill:#E53935;fill:color(display-p3 0.8980 0.2235 0.2078);fill-opacity:1;"/>
<path d="M57.7723 289.165C58.0899 288.975 58.3814 288.745 58.6391 288.479C60.0691 286.96 59.9884 284.585 58.8263 281.718C58.4612 280.57 57.7557 279.56 56.8038 278.823C55.8515 278.086 54.6975 277.655 53.4952 277.589C52.7033 277.682 51.9463 277.967 51.2891 278.418C50.6322 278.87 50.0952 279.475 49.7246 280.181C49.1549 281.069 48.8195 282.088 48.7502 283.141C48.6807 284.195 48.8791 285.249 49.3272 286.205C49.7751 287.161 50.458 287.988 51.3119 288.608C52.166 289.229 53.163 289.623 54.2108 289.755C55.4304 289.982 56.6912 289.773 57.7723 289.165Z" fill="#8E24AA" style="fill:#8E24AA;fill:color(display-p3 0.5569 0.1412 0.6667);fill-opacity:1;"/>
<path d="M85.0161 283.543C85.7324 283.126 86.254 282.442 86.4656 281.641C86.6773 280.84 86.5622 279.987 86.1454 279.27L83.002 273.868C80.5345 269.628 76.7589 270.596 72.539 272.726L72.9696 271.788C73.28 271.052 73.2966 270.225 73.0161 269.477C72.7357 268.729 72.1796 268.117 71.4618 267.766C70.744 267.416 69.9191 267.353 69.1569 267.592C68.3944 267.831 67.7523 268.352 67.3625 269.049C63.2956 277.345 65.4664 279.336 66.2708 280.097C67.0753 280.858 69.1459 281.931 72.198 280.155C73.9619 279.036 75.8162 278.066 77.7415 277.255L80.7434 282.414C81.1602 283.13 81.8447 283.652 82.6458 283.863C83.4471 284.075 84.2997 283.96 85.0161 283.543Z" fill="#C62828" style="fill:#C62828;fill:color(display-p3 0.7765 0.1569 0.1569);fill-opacity:1;"/>
<path d="M59.8956 237.203C67.7681 237.684 73.3464 244.164 78.1674 249.963C81.2968 253.602 84.4892 257.348 87.3092 258.094C88.7191 258.466 90.5607 257.033 93.1433 254.699C96.2121 252.082 100.04 248.842 105.028 249.338C108.892 249.765 112.615 252.372 116.46 257.365C119.324 260.816 121.395 264.854 122.527 269.193C123.659 273.533 123.824 278.068 123.01 282.478C121.044 293.203 112.861 303.497 100.733 310.554C99.8959 311.041 99.1126 311.497 98.3023 311.968L54.9713 237.501C56.5943 237.202 58.248 237.102 59.8956 237.203Z" fill="#FBC02D" style="fill:#FBC02D;fill:color(display-p3 0.9843 0.7529 0.1765);fill-opacity:1;"/>
<path d="M108.17 278.784L108.414 278.642C109.047 278.152 109.554 277.518 109.893 276.793C110.231 276.068 110.392 275.272 110.362 274.472C110.403 273.411 110.173 272.358 109.694 271.41C109.215 270.463 108.503 269.653 107.624 269.058C106.746 268.462 105.73 268.1 104.673 268.005C103.616 267.91 102.552 268.087 101.582 268.517C100.825 268.769 100.14 269.2 99.5865 269.774C99.0328 270.348 98.6264 271.048 98.402 271.814C98.275 273.019 98.5178 274.234 99.098 275.298C99.6782 276.362 100.569 277.224 101.65 277.769C102.534 278.53 103.614 279.028 104.766 279.207C105.918 279.386 107.097 279.24 108.17 278.784Z" fill="#43A047" style="fill:#43A047;fill:color(display-p3 0.2627 0.6275 0.2784);fill-opacity:1;"/>
<path d="M87.9468 294.42L89.3613 296.851C88.6455 296.21 88.1504 295.359 87.9468 294.42Z" fill="#039BE5" style="fill:#039BE5;fill:color(display-p3 0.0118 0.6078 0.8980);fill-opacity:1;"/>
<path d="M87.8348 293.979C87.8749 292.766 88.2862 291.594 89.0135 290.621C89.7404 289.648 90.7483 288.922 91.9009 288.54C92.9066 287.828 94.109 287.447 95.3409 287.449C96.5732 287.451 97.774 287.837 98.7774 288.552C99.3131 289.132 99.6998 289.834 99.9043 290.597C100.109 291.359 100.125 292.161 99.9514 292.931C99.8211 293.9 99.473 294.827 98.9329 295.642C98.3927 296.458 97.6747 297.14 96.833 297.638L96.4819 297.842C95.5483 298.301 94.5176 298.528 93.4777 298.504C92.4375 298.479 91.4187 298.205 90.5076 297.703C90.0925 297.466 89.7077 297.18 89.3613 296.851L87.9468 294.42C87.8908 294.279 87.8531 294.131 87.8348 293.979Z" fill="#039BE5" style="fill:#039BE5;fill:color(display-p3 0.0118 0.6078 0.8980);fill-opacity:1;"/>
<path d="M83.1647 273.775L86.3081 279.177C86.7249 279.893 86.84 280.746 86.6283 281.547C86.4165 282.348 85.895 283.033 85.1787 283.449C84.4624 283.866 83.6096 283.981 82.8085 283.77C82.0074 283.558 81.3228 283.036 80.906 282.32L74.8079 271.84C78.1926 270.449 81.153 270.317 83.1647 273.775Z" fill="#F4511E" style="fill:#F4511E;fill:color(display-p3 0.9569 0.3176 0.1176);fill-opacity:1;"/>
<path d="M100.623 310.365C112.859 303.245 121.073 293.005 123.179 282.271C123.984 277.861 123.815 273.328 122.683 268.99C121.552 264.652 119.486 260.614 116.629 257.158C112.783 252.165 109.061 249.558 105.17 249.147C100.208 248.635 96.3809 251.875 93.3121 254.492C90.6823 256.745 88.8408 258.179 87.4509 257.903C84.658 257.142 81.4386 253.411 78.3092 249.772C73.4071 244.02 67.8288 237.54 60.0374 237.012C55.9859 236.791 51.9554 237.729 48.4184 239.717C44.8813 241.705 41.984 244.66 40.0661 248.235C31.7464 261.898 31.6134 284.97 39.6761 298.826C49.7191 316.086 75.1525 325.185 100.623 310.365ZM101.188 256.345C102.122 255.749 103.222 255.463 104.329 255.53C107.375 256.358 109.995 258.308 111.663 260.988C113.994 263.727 115.686 266.952 116.614 270.428C117.541 273.903 117.682 277.542 117.026 281.079C115.298 290.039 108.149 298.754 97.4797 304.963C75.4934 317.756 53.5651 310.269 45.0781 295.683C38.1627 283.799 38.3808 263.172 45.5264 251.53C46.8254 248.947 48.8474 246.798 51.3458 245.345C53.8442 243.891 56.7116 243.195 59.5986 243.341C64.826 243.626 69.2742 248.847 73.5967 253.852C77.5124 258.407 81.2171 262.723 85.8743 263.954C90.5315 265.185 94.2284 262.094 97.4165 259.371C98.5892 258.262 99.8505 257.25 101.188 256.345Z" fill="#360E0E" style="fill:#360E0E;fill:color(display-p3 0.2099 0.0546 0.0546);fill-opacity:1;"/>
</g>
<path d="M57.6381 214.277C30.8825 228.67 37.3706 258.864 42.7627 265.46" stroke="#A855F7" style="stroke:#A855F7;stroke:color(display-p3 0.6588 0.3333 0.9686);stroke-opacity:1;" stroke-width="7.56902" stroke-linecap="round"/>
<circle cx="9.67234" cy="9.67234" r="9.67234" transform="matrix(-1 0 0 1 358.973 164.379)" fill="#A855F7" style="fill:#A855F7;fill:color(display-p3 0.6588 0.3333 0.9686);fill-opacity:1;"/>
</g>
<defs>
<clipPath id="clip0_65_1109">
<rect width="446" height="446" fill="white" style="fill:white;fill-opacity:1;" transform="matrix(-1 0 0 1 446 0)"/>
</clipPath>
<clipPath id="clip1_65_1109">
<rect width="100" height="100" fill="white" style="fill:white;fill-opacity:1;" transform="matrix(-0.864324 0.502936 0.502936 0.864324 94.0981 205.948)"/>
</clipPath>
</defs>
</svg>
