<svg width="446" height="446" viewBox="0 0 446 446" fill="none" xmlns="http://www.w3.org/2000/svg">
<path d="M176.838 337.981L180.369 395.181L162.008 403.655" stroke="#A855F7" style="stroke:#A855F7;stroke:color(display-p3 0.6588 0.3333 0.9686);stroke-opacity:1;" stroke-width="8.47409" stroke-linecap="round"/>
<path d="M279.939 338.687L276.409 395.887L294.769 404.361" stroke="#A855F7" style="stroke:#A855F7;stroke:color(display-p3 0.6588 0.3333 0.9686);stroke-opacity:1;" stroke-width="8.47409" stroke-linecap="round"/>
<path d="M252.399 262.42C252.399 305.321 217.621 340.099 174.72 340.099C131.819 340.099 97.0405 305.321 97.0405 262.42C97.0405 219.519 131.819 184.741 174.72 184.741C217.621 184.741 252.399 219.519 252.399 262.42Z" fill="#F6EDFF" style="fill:#F6EDFF;fill:color(display-p3 0.9655 0.9292 1.0000);fill-opacity:1;"/>
<path d="M369.624 262.42C369.624 305.321 334.846 340.099 291.945 340.099C249.044 340.099 214.265 305.321 214.265 262.42C214.265 219.519 249.044 184.741 291.945 184.741C334.846 184.741 369.624 219.519 369.624 262.42Z" fill="#F6EDFF" style="fill:#F6EDFF;fill:color(display-p3 0.9655 0.9292 1.0000);fill-opacity:1;"/>
<path d="M311.718 177.679C311.718 220.58 276.939 255.358 234.038 255.358C191.137 255.358 156.359 220.58 156.359 177.679C156.359 134.778 191.137 100 234.038 100C276.939 100 311.718 134.778 311.718 177.679Z" fill="#F6EDFF" style="fill:#F6EDFF;fill:color(display-p3 0.9655 0.9292 1.0000);fill-opacity:1;"/>
<path d="M157.066 186.86C149.297 108.475 212.853 100.707 240.394 100.707C261.579 100.707 318.073 114.83 310.306 186.86" stroke="#A855F7" style="stroke:#A855F7;stroke:color(display-p3 0.6588 0.3333 0.9686);stroke-opacity:1;" stroke-width="8.47409" stroke-linecap="round"/>
<path d="M311.011 188.272C392.222 203.682 369.014 281.867 363.975 292.786C351.263 320.327 299.004 365.522 235.447 315.383" stroke="#A855F7" style="stroke:#A855F7;stroke:color(display-p3 0.6588 0.3333 0.9686);stroke-opacity:1;" stroke-width="8.47409" stroke-linecap="round"/>
<path d="M234.038 313.971C146.473 373.289 101.679 301.966 95.6271 282.193C85.0355 247.59 105.514 193.921 157.064 188.272" stroke="#A855F7" style="stroke:#A855F7;stroke:color(display-p3 0.6588 0.3333 0.9686);stroke-opacity:1;" stroke-width="8.47409" stroke-linecap="round"/>
<circle cx="187.422" cy="186.422" r="21.8914" stroke="#A855F7" style="stroke:#A855F7;stroke:color(display-p3 0.6588 0.3333 0.9686);stroke-opacity:1;" stroke-width="7.06174"/>
<circle cx="280.422" cy="186.422" r="21.8914" stroke="#A855F7" style="stroke:#A855F7;stroke:color(display-p3 0.6588 0.3333 0.9686);stroke-opacity:1;" stroke-width="7.06174"/>
<path d="M209.5 186.422C227.154 165.943 246.907 171.592 257.5 186.422" stroke="#A855F7" style="stroke:#A855F7;stroke:color(display-p3 0.6588 0.3333 0.9686);stroke-opacity:1;" stroke-width="8.47409" stroke-linecap="round"/>
<path d="M222 207.412C231.18 198.232 241.773 206 242.479 207.412" stroke="#A855F7" style="stroke:#A855F7;stroke:color(display-p3 0.6588 0.3333 0.9686);stroke-opacity:1;" stroke-width="4.23705" stroke-linecap="round"/>
<path d="M272.172 148.391C282.213 140.161 291.988 148.935 292.551 150.41" stroke="#A855F7" style="stroke:#A855F7;stroke:color(display-p3 0.6588 0.3333 0.9686);stroke-opacity:1;" stroke-width="4.23705" stroke-linecap="round"/>
<path d="M173.857 154.065C180.91 143.166 192.895 148.542 193.882 149.775" stroke="#A855F7" style="stroke:#A855F7;stroke:color(display-p3 0.6588 0.3333 0.9686);stroke-opacity:1;" stroke-width="4.23705" stroke-linecap="round"/>
<circle cx="187.94" cy="180.474" r="8.47409" fill="#A855F7" style="fill:#A855F7;fill:color(display-p3 0.6588 0.3333 0.9686);fill-opacity:1;"/>
<circle cx="280.601" cy="179.474" r="8.47409" fill="#A855F7" style="fill:#A855F7;fill:color(display-p3 0.6588 0.3333 0.9686);fill-opacity:1;"/>
<path d="M202.966 112.237C205.791 136.953 232.097 132.682 239.687 125.654C258.754 108 237.569 95.9947 228.389 103.056C207.158 119.388 242.512 140.484 258.048 127.772" stroke="#A855F7" style="stroke:#A855F7;stroke:color(display-p3 0.6588 0.3333 0.9686);stroke-opacity:1;" stroke-width="8.47409" stroke-linecap="round"/>
<path d="M274 244C329 257.5 348.5 229 350.917 209.817" stroke="#A855F7" style="stroke:#A855F7;stroke:color(display-p3 0.6588 0.3333 0.9686);stroke-opacity:1;" stroke-width="8.47409" stroke-linecap="round"/>
<ellipse cx="273.5" cy="243.5" rx="6.5" ry="7.5" fill="#A855F7" style="fill:#A855F7;fill:color(display-p3 0.6588 0.3333 0.9686);fill-opacity:1;"/>
<path d="M196 244C141 257.5 121.5 229 119.083 209.817" stroke="#A855F7" style="stroke:#A855F7;stroke:color(display-p3 0.6588 0.3333 0.9686);stroke-opacity:1;" stroke-width="8.47409" stroke-linecap="round"/>
<ellipse cx="6.5" cy="7.5" rx="6.5" ry="7.5" transform="matrix(-1 0 0 1 203 236)" fill="#A855F7" style="fill:#A855F7;fill:color(display-p3 0.6588 0.3333 0.9686);fill-opacity:1;"/>
<path d="M154.057 30.5735C153.585 29.6119 152.588 29 151.494 29C150.399 29 149.411 29.6119 148.93 30.5735L143.207 42.1386L130.426 43.9918C129.358 44.1492 128.468 44.8835 128.139 45.8887C127.809 46.894 128.076 48.0042 128.842 48.7472L138.116 57.7598L135.927 70.4963C135.749 71.5453 136.194 72.6117 137.075 73.2324C137.956 73.8531 139.122 73.9317 140.083 73.4335L151.503 67.4455L162.922 73.4335C163.883 73.9317 165.049 73.8618 165.93 73.2324C166.811 72.603 167.257 71.5453 167.078 70.4963L164.88 57.7598L174.154 48.7472C174.92 48.0042 175.196 46.894 174.858 45.8887C174.519 44.8835 173.638 44.1492 172.57 43.9918L159.78 42.1386L154.057 30.5735Z" fill="#F2AF5C" style="fill:#F2AF5C;fill:color(display-p3 0.9490 0.6863 0.3608);fill-opacity:1;"/>
<path d="M226.057 30.5735C225.585 29.6119 224.588 29 223.494 29C222.399 29 221.411 29.6119 220.93 30.5735L215.207 42.1386L202.426 43.9918C201.358 44.1492 200.468 44.8835 200.139 45.8887C199.809 46.894 200.076 48.0042 200.842 48.7472L210.116 57.7598L207.927 70.4963C207.749 71.5453 208.194 72.6117 209.075 73.2324C209.956 73.8531 211.122 73.9317 212.083 73.4335L223.503 67.4455L234.922 73.4335C235.883 73.9317 237.049 73.8618 237.93 73.2324C238.811 72.603 239.257 71.5453 239.078 70.4963L236.88 57.7598L246.154 48.7472C246.92 48.0042 247.196 46.894 246.858 45.8887C246.519 44.8835 245.638 44.1492 244.57 43.9918L231.78 42.1386L226.057 30.5735Z" fill="#F2AF5C" style="fill:#F2AF5C;fill:color(display-p3 0.9490 0.6863 0.3608);fill-opacity:1;"/>
<path d="M298.057 30.5735C297.585 29.6119 296.588 29 295.494 29C294.399 29 293.411 29.6119 292.93 30.5735L287.207 42.1386L274.426 43.9918C273.358 44.1492 272.468 44.8835 272.139 45.8887C271.809 46.894 272.076 48.0042 272.842 48.7472L282.116 57.7598L279.927 70.4963C279.749 71.5453 280.194 72.6117 281.075 73.2324C281.956 73.8531 283.122 73.9317 284.083 73.4335L295.503 67.4455L306.922 73.4335C307.883 73.9317 309.049 73.8618 309.93 73.2324C310.811 72.603 311.257 71.5453 311.078 70.4963L308.88 57.7598L318.154 48.7472C318.92 48.0042 319.196 46.894 318.858 45.8887C318.519 44.8835 317.638 44.1492 316.57 43.9918L303.78 42.1386L298.057 30.5735Z" fill="#666666" style="fill:#666666;fill:color(display-p3 0.4000 0.4000 0.4000);fill-opacity:1;"/>
</svg>
