<svg width="446" height="446" viewBox="0 0 446 446" fill="none" xmlns="http://www.w3.org/2000/svg">
<path d="M246.833 240.799C169.424 248.222 107.784 275.14 73.8778 338.167C70.5078 344.431 73.9381 352.042 80.7276 354.164L161.324 379.35C167.069 381.146 173.176 378.303 176.213 373.107C189.074 351.096 215.068 327.049 271.078 312.458C333.169 296.283 411.43 277.581 430.991 172.675C432.103 166.71 428.248 161.021 422.372 159.506C405.627 155.189 385.391 149.75 373.126 146.509C367.205 144.944 361.251 148.287 358.88 153.934C347.313 181.488 315.604 234.205 246.833 240.799Z" fill="#DFC0FE" stroke="#A855F7" style="fill:#DFC0FE;fill:color(display-p3 0.8754 0.7541 0.9966);fill-opacity:1;stroke:#A855F7;stroke:color(display-p3 0.6588 0.3333 0.9686);stroke-opacity:1;" stroke-width="5.38786"/>
<path d="M278.118 182.303C307.04 179.892 334.655 120.65 229.053 111.491" stroke="#A855F7" style="stroke:#A855F7;stroke:color(display-p3 0.6588 0.3333 0.9686);stroke-opacity:1;" stroke-width="7.23049" stroke-linecap="round"/>
<path d="M45.96 182.906C20.0043 194.464 21.6207 230.563 29.7025 245.109" stroke="#A855F7" style="stroke:#A855F7;stroke:color(display-p3 0.6588 0.3333 0.9686);stroke-opacity:1;" stroke-width="7.23049" stroke-linecap="round"/>
<path d="M192.726 264.554L193.465 310.227C193.49 311.761 195.065 312.779 196.474 312.171L210.494 306.122" stroke="#A855F7" style="stroke:#A855F7;stroke:color(display-p3 0.6588 0.3333 0.9686);stroke-opacity:1;" stroke-width="7.23049" stroke-linecap="round"/>
<path d="M111.908 265.49L112.645 311.052C112.671 312.615 114.299 313.632 115.715 312.969L128.3 307.07" stroke="#A855F7" style="stroke:#A855F7;stroke:color(display-p3 0.6588 0.3333 0.9686);stroke-opacity:1;" stroke-width="7.23049" stroke-linecap="round"/>
<path d="M178.096 201.584C178.096 238.189 148.422 267.864 111.817 267.864C75.2114 267.864 45.5371 238.189 45.5371 201.584C45.5371 164.979 75.2114 135.305 111.817 135.305C148.422 135.305 178.096 164.979 178.096 201.584Z" fill="#F6EDFF" style="fill:#F6EDFF;fill:color(display-p3 0.9655 0.9292 1.0000);fill-opacity:1;"/>
<path d="M278.118 201.584C278.118 238.189 248.443 267.864 211.838 267.864C175.233 267.864 145.559 238.189 145.559 201.584C145.559 164.979 175.233 135.305 211.838 135.305C248.443 135.305 278.118 164.979 278.118 201.584Z" fill="#F6EDFF" style="fill:#F6EDFF;fill:color(display-p3 0.9655 0.9292 1.0000);fill-opacity:1;"/>
<path d="M228.709 129.279C228.709 165.884 199.035 195.559 162.43 195.559C125.825 195.559 96.1505 165.884 96.1505 129.279C96.1505 92.6743 125.825 63 162.43 63C199.035 63 228.709 92.6743 228.709 129.279Z" fill="#F6EDFF" style="fill:#F6EDFF;fill:color(display-p3 0.9655 0.9292 1.0000);fill-opacity:1;"/>
<path d="M96.7535 137.112C90.1253 70.2305 144.354 63.6026 167.853 63.6025C185.929 63.6025 234.132 75.6534 227.505 137.112" stroke="#A855F7" style="stroke:#A855F7;stroke:color(display-p3 0.6588 0.3333 0.9686);stroke-opacity:1;" stroke-width="7.23049" stroke-linecap="round"/>
<path d="M228.107 138.317C297.4 151.466 277.598 218.177 273.298 227.493C262.452 250.992 217.863 289.555 163.633 246.775" stroke="#A855F7" style="stroke:#A855F7;stroke:color(display-p3 0.6588 0.3333 0.9686);stroke-opacity:1;" stroke-width="7.23049" stroke-linecap="round"/>
<path d="M162.43 245.57C87.7154 296.184 49.4958 235.327 44.3317 218.456C35.2944 188.932 52.7679 143.139 96.7528 138.319" stroke="#A855F7" style="stroke:#A855F7;stroke:color(display-p3 0.6588 0.3333 0.9686);stroke-opacity:1;" stroke-width="7.23049" stroke-linecap="round"/>
<path d="M134.713 96.6892C137.124 117.778 159.569 114.134 166.045 108.138C182.314 93.0739 164.238 82.8308 156.405 88.8562C138.29 102.791 168.456 120.791 181.711 109.945" stroke="#A855F7" style="stroke:#A855F7;stroke:color(display-p3 0.6588 0.3333 0.9686);stroke-opacity:1;" stroke-width="7.23049" stroke-linecap="round"/>
<path d="M106 189.5C138.427 177.09 152.049 200.044 156.619 212.426C157.312 214.303 160.48 214.564 161.349 212.763C169.932 194.987 183.813 176.536 216 189.5" stroke="#A855F7" style="stroke:#A855F7;stroke:color(display-p3 0.6588 0.3333 0.9686);stroke-opacity:1;" stroke-width="5" stroke-linecap="round"/>
<g clip-path="url(#clip0_60_196)">
<path d="M431.872 77.0185C431.827 77.0162 431.783 77.0162 431.739 77.0185C431.074 77.0945 430.573 77.6609 430.58 78.3304V82.3015C430.362 82.3276 426.334 82.7203 423.919 82.9702L424.098 86.043L417.396 86.4356L417.233 83.6338C410.288 84.2527 402.13 84.8537 396.607 84.8537C385.448 84.8537 363.495 82.3984 362.634 82.3017V78.3308C362.641 77.609 362.062 77.0185 361.34 77.0117C361.29 77.0112 361.24 77.0136 361.19 77.0189C360.525 77.0948 360.024 77.6613 360.031 78.3308V148.86C359.967 149.578 360.497 150.214 361.216 150.278C361.935 150.343 362.57 149.812 362.634 149.094C362.641 149.016 362.641 148.938 362.634 148.86V109.716C363.059 109.742 367.752 109.978 371.725 110.175L371.868 107.399L378.574 107.741L378.431 110.482C384.746 110.75 391.622 110.992 396.607 110.992C407.929 110.992 429.347 109.786 430.58 109.716V148.86C430.02 171.835 431.188 166.991 431.913 166.986C432.63 166.98 433.204 171.835 433.204 148.86V78.3308C433.212 77.6092 432.634 77.0171 431.913 77.0084C431.899 77.0082 431.885 77.0082 431.872 77.0086L431.872 77.0185Z" fill="#A855F7" style="fill:#A855F7;fill:color(display-p3 0.6588 0.3333 0.9686);fill-opacity:1;"/>
<path d="M362.635 84.9268C363.964 85.0757 385.195 87.4687 396.608 87.4684C408.012 87.4684 429.22 85.0806 430.581 84.9268V107.099C429.594 107.159 407.805 108.38 396.608 108.38C385.41 108.38 363.622 107.155 362.635 107.099V84.9268Z" fill="#F6EDFF" style="fill:#F6EDFF;fill:color(display-p3 0.9647 0.9294 1.0000);fill-opacity:1;"/>
<path d="M365.983 86.0801V106.068C366.727 106.11 380.346 106.86 390.769 107.114L402.386 88.1982C400.31 88.2973 398.317 88.3708 396.608 88.3708C386.319 88.3708 367.181 86.2143 365.983 86.0791V86.0801ZM427.232 86.0801C426.645 86.1454 421.83 86.6725 415.978 87.203L403.968 107.084C414.15 106.794 426.526 106.107 427.232 106.068V86.0801ZM411.42 87.5909C409.647 87.7348 407.86 87.8797 406.086 87.9942L394.494 107.186C395.154 107.186 396.01 107.227 396.608 107.227C397.396 107.227 398.503 107.183 399.394 107.173L411.42 87.5932V87.5909Z" fill="#F6EDFF" style="fill:#F6EDFF;fill:color(display-p3 0.9647 0.9294 1.0000);fill-opacity:1;"/>
<path d="M369.041 90.0926C368.369 90.1599 367.858 90.7288 367.864 91.4043V104.445C367.865 105.17 368.452 105.756 369.177 105.756C369.901 105.756 370.487 105.169 370.488 104.445V92.6969H374.385C375.104 92.7575 375.736 92.2236 375.796 91.5041C375.857 90.7851 375.323 90.1532 374.604 90.0924C374.531 90.0864 374.458 90.0864 374.385 90.0924H369.176C369.131 90.0903 369.086 90.0903 369.041 90.0926Z" fill="#A855F7" style="fill:#A855F7;fill:color(display-p3 0.6588 0.3333 0.9686);fill-opacity:1;"/>
<path d="M369.833 96.6129C369.108 96.6055 368.515 97.1871 368.508 97.9115C368.501 98.6361 369.082 99.229 369.807 99.2363C369.815 99.2363 369.824 99.2363 369.833 99.2363H371.762C372.486 99.229 373.068 98.6359 373.06 97.9115C373.053 97.1973 372.476 96.6199 371.762 96.6129H369.833Z" fill="#A855F7" style="fill:#A855F7;fill:color(display-p3 0.6588 0.3333 0.9686);fill-opacity:1;"/>
<path d="M392.538 90.0924C391.866 90.1697 391.364 90.7471 391.38 91.4233V99.7378L385.979 90.7482C385.611 90.1274 384.809 89.9226 384.188 90.291C383.789 90.528 383.545 90.9594 383.548 91.4239V104.446C383.487 105.165 384.021 105.797 384.74 105.858C385.46 105.918 386.092 105.385 386.153 104.665C386.159 104.592 386.159 104.519 386.153 104.446V96.0923L391.573 105.12C391.941 105.741 392.743 105.946 393.364 105.578C393.763 105.341 394.007 104.909 394.004 104.445V91.4231C394.023 90.7015 393.453 90.1014 392.732 90.0829C392.667 90.0813 392.602 90.0844 392.538 90.0924Z" fill="#A855F7" style="fill:#A855F7;fill:color(display-p3 0.6588 0.3333 0.9686);fill-opacity:1;"/>
<path d="M397.765 90.0923C397.093 90.1696 396.591 90.747 396.608 91.4231V104.445C396.608 105.169 397.196 105.756 397.92 105.756C398.644 105.756 399.231 105.169 399.231 104.445V91.4231C399.25 90.7015 398.681 90.1015 397.959 90.083C397.894 90.0812 397.83 90.0843 397.765 90.0923Z" fill="#A855F7" style="fill:#A855F7;fill:color(display-p3 0.6588 0.3333 0.9686);fill-opacity:1;"/>
<path d="M416.208 96.6318V99.2358H424.06V96.6318H416.208Z" fill="#A855F7" style="fill:#A855F7;fill:color(display-p3 0.6588 0.3333 0.9686);fill-opacity:1;"/>
<path d="M416.054 90.0923C415.382 90.1696 414.88 90.747 414.896 91.4231V104.445C414.897 105.169 415.484 105.756 416.209 105.756C416.933 105.756 417.52 105.169 417.52 104.445V91.4231C417.539 90.7015 416.969 90.1015 416.248 90.083C416.183 90.0812 416.118 90.0843 416.054 90.0923Z" fill="#A855F7" style="fill:#A855F7;fill:color(display-p3 0.6588 0.3333 0.9686);fill-opacity:1;"/>
<path d="M423.905 90.0921C423.233 90.1694 422.731 90.7468 422.748 91.423V104.445C422.687 105.164 423.221 105.796 423.94 105.857C424.659 105.918 425.291 105.384 425.352 104.664C425.358 104.591 425.358 104.518 425.352 104.445V91.423C425.37 90.7014 424.799 90.1023 424.077 90.0848C424.02 90.0835 423.963 90.0861 423.905 90.0921Z" fill="#A855F7" style="fill:#A855F7;fill:color(display-p3 0.6588 0.3333 0.9686);fill-opacity:1;"/>
<path d="M379.478 90.0921C378.806 90.1694 378.304 90.7468 378.321 91.423V104.445C378.26 105.164 378.794 105.796 379.513 105.857C380.232 105.918 380.864 105.384 380.925 104.664C380.931 104.591 380.931 104.518 380.925 104.445V91.423C380.942 90.7014 380.372 90.1023 379.65 90.0848C379.593 90.0835 379.535 90.0861 379.478 90.0921Z" fill="#A855F7" style="fill:#A855F7;fill:color(display-p3 0.6588 0.3333 0.9686);fill-opacity:1;"/>
<path d="M405.675 90.1502C403.333 90.5295 401.662 92.6659 401.856 95.0308C402.049 97.3958 404.055 99.242 406.428 99.2363H406.524C406.531 99.2363 406.538 99.2363 406.544 99.2363C407.579 99.234 408.408 99.9987 408.493 101.03C408.577 102.062 407.874 102.968 406.853 103.133C405.832 103.298 404.88 102.672 404.634 101.667C404.525 100.954 403.859 100.465 403.146 100.574C402.433 100.683 401.944 101.35 402.053 102.063C402.065 102.138 402.083 102.212 402.107 102.284C402.671 104.589 404.935 106.098 407.277 105.718C409.62 105.337 411.29 103.183 411.097 100.818C410.904 98.4583 408.91 96.6342 406.544 96.6316H406.429C406.422 96.6316 406.415 96.6316 406.409 96.6316C405.374 96.6339 404.544 95.8491 404.46 94.8183C404.376 93.787 405.079 92.9004 406.1 92.7348C407.121 92.5702 408.072 93.1964 408.318 94.201C408.427 94.914 409.094 95.4033 409.807 95.2945C410.52 95.1854 411.009 94.5194 410.9 93.8064C410.888 93.7308 410.87 93.6562 410.846 93.5838C410.282 91.279 408.018 89.77 405.676 90.1504L405.675 90.1502Z" fill="#A855F7" style="fill:#A855F7;fill:color(display-p3 0.6588 0.3333 0.9686);fill-opacity:1;"/>
</g>
<defs>
<clipPath id="clip0_60_196">
<rect width="73.2749" height="92.6712" fill="white" style="fill:white;fill-opacity:1;" transform="translate(359.978 77.0083)"/>
</clipPath>
</defs>
</svg>
