<svg width="446" height="446" viewBox="0 0 446 446" fill="none" xmlns="http://www.w3.org/2000/svg">
<path d="M167.016 308.135L170.52 364.891L152.302 373.299" stroke="#A855F7" style="stroke:#A855F7;stroke:color(display-p3 0.6588 0.3333 0.9686);stroke-opacity:1;" stroke-width="8.40835" stroke-linecap="round"/>
<path d="M269.318 308.835L265.815 365.591L284.033 374" stroke="#A855F7" style="stroke:#A855F7;stroke:color(display-p3 0.6588 0.3333 0.9686);stroke-opacity:1;" stroke-width="8.40835" stroke-linecap="round"/>
<path d="M241.991 233.16C241.991 275.728 207.483 310.237 164.914 310.237C122.346 310.237 87.8379 275.728 87.8379 233.16C87.8379 190.592 122.346 156.084 164.914 156.084C207.483 156.084 241.991 190.592 241.991 233.16Z" fill="#F6EDFF" style="fill:#F6EDFF;fill:color(display-p3 0.9655 0.9292 1.0000);fill-opacity:1;"/>
<path d="M358.307 233.16C358.307 275.728 323.798 310.237 281.23 310.237C238.662 310.237 204.153 275.728 204.153 233.16C204.153 190.592 238.662 156.084 281.23 156.084C323.798 156.084 358.307 190.592 358.307 233.16Z" fill="#F6EDFF" style="fill:#F6EDFF;fill:color(display-p3 0.9655 0.9292 1.0000);fill-opacity:1;"/>
<path d="M300.85 149.077C300.85 191.645 266.341 226.153 223.773 226.153C181.205 226.153 146.696 191.645 146.696 149.077C146.696 106.508 181.205 72 223.773 72C266.341 72 300.85 106.508 300.85 149.077Z" fill="#F6EDFF" style="fill:#F6EDFF;fill:color(display-p3 0.9655 0.9292 1.0000);fill-opacity:1;"/>
<path d="M147.397 158.186C139.689 80.4084 202.752 72.7007 230.079 72.7007C251.1 72.7006 307.155 86.7146 299.448 158.186" stroke="#A855F7" style="stroke:#A855F7;stroke:color(display-p3 0.6588 0.3333 0.9686);stroke-opacity:1;" stroke-width="8.40835" stroke-linecap="round"/>
<path d="M300.148 159.587C380.73 174.877 357.702 252.456 352.701 263.29C340.088 290.617 288.235 335.462 225.171 285.712" stroke="#A855F7" style="stroke:#A855F7;stroke:color(display-p3 0.6588 0.3333 0.9686);stroke-opacity:1;" stroke-width="8.40835" stroke-linecap="round"/>
<path d="M223.773 284.311C136.886 343.17 92.4407 272.399 86.4353 252.78C75.9258 218.446 96.2458 165.193 147.396 159.587" stroke="#A855F7" style="stroke:#A855F7;stroke:color(display-p3 0.6588 0.3333 0.9686);stroke-opacity:1;" stroke-width="8.40835" stroke-linecap="round"/>
<circle cx="169.119" cy="193.921" r="21.7216" stroke="#A855F7" style="stroke:#A855F7;stroke:color(display-p3 0.6588 0.3333 0.9686);stroke-opacity:1;" stroke-width="7.00696"/>
<circle cx="169.5" cy="196.5" r="21.5" fill="#A855F7" style="fill:#A855F7;fill:color(display-p3 0.6588 0.3333 0.9686);fill-opacity:1;"/>
<circle cx="275.624" cy="193.921" r="21.7216" stroke="#A855F7" style="stroke:#A855F7;stroke:color(display-p3 0.6588 0.3333 0.9686);stroke-opacity:1;" stroke-width="7.00696"/>
<path d="M191.541 193.921C209.058 173.601 241.991 179.207 252.501 193.921" stroke="#A855F7" style="stroke:#A855F7;stroke:color(display-p3 0.6588 0.3333 0.9686);stroke-opacity:1;" stroke-width="8.40835" stroke-linecap="round"/>
<path d="M230.079 214.942C220.97 224.051 210.46 216.343 209.759 214.942" stroke="#A855F7" style="stroke:#A855F7;stroke:color(display-p3 0.6588 0.3333 0.9686);stroke-opacity:1;" stroke-width="4.20418" stroke-linecap="round"/>
<path d="M207.5 227.5C198 218 207 210.5 210.5 213C215 219.5 227 218 232 214.5C235 232.5 217 237 207.5 227.5Z" fill="#A855F7" style="fill:#A855F7;fill:color(display-p3 0.6588 0.3333 0.9686);fill-opacity:1;"/>
<circle cx="275.5" cy="196.5" r="21.5" fill="#A855F7" style="fill:#A855F7;fill:color(display-p3 0.6588 0.3333 0.9686);fill-opacity:1;"/>
<path d="M358.959 225.581C394.106 239.716 431.456 213.143 436.159 195.1" stroke="#A855F7" style="stroke:#A855F7;stroke:color(display-p3 0.6588 0.3333 0.9686);stroke-opacity:1;" stroke-width="8.40835" stroke-linecap="round"/>
<circle cx="432.036" cy="194.509" r="8.38171" transform="rotate(-21.5456 432.036 194.509)" fill="#A855F7" style="fill:#A855F7;fill:color(display-p3 0.6588 0.3333 0.9686);fill-opacity:1;"/>
<ellipse cx="397.176" cy="217.539" rx="25.5" ry="11" transform="rotate(-21.5456 397.176 217.539)" fill="#A855F7" style="fill:#A855F7;fill:color(display-p3 0.6588 0.3333 0.9686);fill-opacity:1;"/>
<path d="M83.9514 226.247C48.8046 240.382 11.4537 213.809 6.75088 195.766" stroke="#A855F7" style="stroke:#A855F7;stroke:color(display-p3 0.6588 0.3333 0.9686);stroke-opacity:1;" stroke-width="8.40835" stroke-linecap="round"/>
<circle cx="8.38171" cy="8.38171" r="8.38171" transform="matrix(-0.930125 -0.367242 -0.367242 0.930125 21.7485 190.458)" fill="#A855F7" style="fill:#A855F7;fill:color(display-p3 0.6588 0.3333 0.9686);fill-opacity:1;"/>
<ellipse cx="25.5" cy="11" rx="25.5" ry="11" transform="matrix(-0.930125 -0.367242 -0.367242 0.930125 73.4922 217.338)" fill="#A855F7" style="fill:#A855F7;fill:color(display-p3 0.6588 0.3333 0.9686);fill-opacity:1;"/>
<path d="M266.178 154.141C277.334 147.7 285.492 157.865 285.806 159.4" stroke="#A855F7" style="stroke:#A855F7;stroke:color(display-p3 0.6588 0.3333 0.9686);stroke-opacity:1;" stroke-width="4.20418" stroke-linecap="round"/>
<path d="M159.164 159.393C165.034 147.927 177.404 152.033 178.502 153.152" stroke="#A855F7" style="stroke:#A855F7;stroke:color(display-p3 0.6588 0.3333 0.9686);stroke-opacity:1;" stroke-width="4.20418" stroke-linecap="round"/>
<path d="M191.541 111.177C194.343 135.702 220.446 131.464 227.977 124.491C246.896 106.973 225.875 95.0614 216.766 102.068C195.699 118.273 230.78 139.205 246.195 126.593" stroke="#A855F7" style="stroke:#A855F7;stroke:color(display-p3 0.6588 0.3333 0.9686);stroke-opacity:1;" stroke-width="8.40835" stroke-linecap="round"/>
<path d="M211.931 230.198C211.781 230.142 211.639 230.089 211.505 230.04C211.579 227.613 212.422 225.819 213.656 224.598C214.955 223.314 216.722 222.631 218.585 222.548C222.224 222.388 226.13 224.521 227.421 228.788C223.639 231.295 220.223 231.794 217.457 231.573C215.107 231.385 213.23 230.684 211.931 230.198Z" fill="#F6EDFF" stroke="#A855F7" style="fill:#F6EDFF;fill:color(display-p3 0.9647 0.9294 1.0000);fill-opacity:1;stroke:#A855F7;stroke:color(display-p3 0.6588 0.3333 0.9686);stroke-opacity:1;"/>
</svg>
