<svg width="446" height="446" viewBox="0 0 446 446" fill="none" xmlns="http://www.w3.org/2000/svg">
<g clip-path="url(#clip0_65_1287)">
<path d="M221.833 198.75C235.318 198.75 246.25 209.682 246.25 223.167C246.25 236.651 235.318 247.583 221.833 247.583C208.348 247.583 197.417 236.651 197.417 223.167C197.417 209.682 208.348 198.75 221.833 198.75ZM288.979 162.125C305.835 162.125 319.5 175.789 319.5 192.646C319.5 209.502 305.835 223.167 288.979 223.167C272.123 223.167 258.458 209.502 258.458 192.646C258.458 175.789 272.123 162.125 288.979 162.125ZM319.5 3.4165C351.965 3.4165 379.123 26.8882 384.573 57.995L385.568 57.9949C410.952 57.9949 431.529 78.5723 431.529 103.956C431.529 129.339 410.952 149.917 385.568 149.917H253.431C228.048 149.917 207.47 129.339 207.47 103.956C207.47 78.5723 228.048 57.9949 253.431 57.9949L254.427 57.995C259.877 26.8882 287.035 3.4165 319.5 3.4165Z" fill="#D2F0FF" style="fill:#D2F0FF;fill:color(display-p3 0.8233 0.9422 1.0000);fill-opacity:1;"/>
<path d="M189.573 509.981C189.573 591.594 123.413 657.754 41.7998 657.754C-39.8132 657.754 -105.974 591.594 -105.974 509.981C-105.974 428.368 -39.8132 362.207 41.7998 362.207C123.413 362.207 189.573 428.368 189.573 509.981Z" fill="#F6EDFF" style="fill:#F6EDFF;fill:color(display-p3 0.9655 0.9292 1.0000);fill-opacity:1;"/>
<path d="M412.577 509.981C412.577 591.594 346.416 657.754 264.803 657.754C183.19 657.754 117.03 591.594 117.03 509.981C117.03 428.368 183.19 362.207 264.803 362.207C346.416 362.207 412.577 428.368 412.577 509.981Z" fill="#F6EDFF" style="fill:#F6EDFF;fill:color(display-p3 0.9655 0.9292 1.0000);fill-opacity:1;"/>
<path d="M302.418 348.773C302.418 430.386 236.258 496.547 154.645 496.547C73.032 496.547 6.87154 430.386 6.87154 348.773C6.87154 267.16 73.032 201 154.645 201C236.258 201 302.418 267.16 302.418 348.773Z" fill="#F6EDFF" style="fill:#F6EDFF;fill:color(display-p3 0.9655 0.9292 1.0000);fill-opacity:1;"/>
<path d="M8.21598 366.238C-6.56202 217.122 114.344 202.344 166.737 202.344C207.038 202.344 314.509 229.212 299.733 366.238" stroke="#A855F7" style="stroke:#A855F7;stroke:color(display-p3 0.6588 0.3333 0.9686);stroke-opacity:1;" stroke-width="16.1207" stroke-linecap="round"/>
<path d="M301.074 368.925C455.567 398.239 411.418 546.976 401.83 567.747C377.648 620.14 278.234 706.117 157.325 610.736" stroke="#A855F7" style="stroke:#A855F7;stroke:color(display-p3 0.6588 0.3333 0.9686);stroke-opacity:1;" stroke-width="16.1207" stroke-linecap="round"/>
<path d="M154.645 608.048C-11.9358 720.894 -97.1485 585.211 -108.662 547.596C-128.811 481.769 -89.8531 379.671 8.21353 368.924" stroke="#A855F7" style="stroke:#A855F7;stroke:color(display-p3 0.6588 0.3333 0.9686);stroke-opacity:1;" stroke-width="16.1207" stroke-linecap="round"/>
<circle cx="65.9648" cy="365.406" r="41.6452" stroke="#A855F7" style="stroke:#A855F7;stroke:color(display-p3 0.6588 0.3333 0.9686);stroke-opacity:1;" stroke-width="13.4339"/>
<circle cx="242.884" cy="365.406" r="41.6452" stroke="#A855F7" style="stroke:#A855F7;stroke:color(display-p3 0.6588 0.3333 0.9686);stroke-opacity:1;" stroke-width="13.4339"/>
<path d="M107.964 365.405C141.549 326.447 179.127 337.194 199.277 365.405" stroke="#A855F7" style="stroke:#A855F7;stroke:color(display-p3 0.6588 0.3333 0.9686);stroke-opacity:1;" stroke-width="16.1207" stroke-linecap="round"/>
<path d="M131.744 405.337C149.208 387.873 169.359 402.65 170.703 405.337" stroke="#A855F7" style="stroke:#A855F7;stroke:color(display-p3 0.6588 0.3333 0.9686);stroke-opacity:1;" stroke-width="8.06037" stroke-linecap="round"/>
<path d="M227.189 293.057C246.29 277.4 264.886 294.092 265.957 296.898" stroke="#A855F7" style="stroke:#A855F7;stroke:color(display-p3 0.6588 0.3333 0.9686);stroke-opacity:1;" stroke-width="8.06037" stroke-linecap="round"/>
<path d="M40.1587 303.851C53.5772 283.116 76.3765 293.344 78.2529 295.69" stroke="#A855F7" style="stroke:#A855F7;stroke:color(display-p3 0.6588 0.3333 0.9686);stroke-opacity:1;" stroke-width="8.06037" stroke-linecap="round"/>
<circle cx="66.9494" cy="354.09" r="16.1207" fill="#A855F7" style="fill:#A855F7;fill:color(display-p3 0.6588 0.3333 0.9686);fill-opacity:1;"/>
<circle cx="243.224" cy="352.188" r="16.1207" fill="#A855F7" style="fill:#A855F7;fill:color(display-p3 0.6588 0.3333 0.9686);fill-opacity:1;"/>
<path d="M95.5352 224.279C100.909 271.297 150.953 263.172 165.392 249.803C201.663 216.218 161.362 193.381 143.897 206.814C103.509 237.882 170.765 278.014 200.32 253.833" stroke="#A855F7" style="stroke:#A855F7;stroke:color(display-p3 0.6588 0.3333 0.9686);stroke-opacity:1;" stroke-width="16.1207" stroke-linecap="round"/>
<path d="M230.667 474.939C335.296 500.621 372.392 446.404 376.99 409.91" stroke="#A855F7" style="stroke:#A855F7;stroke:color(display-p3 0.6588 0.3333 0.9686);stroke-opacity:1;" stroke-width="16.1207" stroke-linecap="round"/>
<path d="M82.2827 474.939C-22.3469 500.621 -59.4428 446.404 -64.0412 409.91" stroke="#A855F7" style="stroke:#A855F7;stroke:color(display-p3 0.6588 0.3333 0.9686);stroke-opacity:1;" stroke-width="16.1207" stroke-linecap="round"/>
<path d="M361.435 92.2463L269.745 83.6338V94.6313L359.381 102.714L361.435 92.2463Z" fill="#727F39" style="fill:#727F39;fill:color(display-p3 0.4471 0.4980 0.2235);fill-opacity:1;"/>
<path d="M289.819 122.721C288.335 122.191 287.831 119.541 287.765 118.283C293.75 117.863 305.785 117.58 306.05 119.806C306.315 122.032 307.132 125.239 307.508 126.564C306.691 126.939 304.367 127.465 301.611 126.564C298.855 125.663 297.857 123.627 297.703 122.721C295.693 122.942 291.303 123.251 289.819 122.721Z" fill="#D9D9D9" stroke="#AE9580" style="fill:#D9D9D9;fill:color(display-p3 0.8510 0.8510 0.8510);fill-opacity:1;stroke:#AE9580;stroke:color(display-p3 0.6824 0.5843 0.5020);stroke-opacity:1;" stroke-width="0.1325"/>
<path d="M338.314 123.805C336.83 123.275 336.327 120.625 336.26 119.367C342.245 118.947 352.757 118.773 353.022 120.999C353.287 123.225 355.627 126.323 356.003 127.648C355.186 128.023 352.863 128.549 350.107 127.648C347.351 126.747 346.352 124.711 346.198 123.805C344.188 124.026 339.798 124.335 338.314 123.805Z" fill="#D9D9D9" stroke="#AE9580" style="fill:#D9D9D9;fill:color(display-p3 0.8510 0.8510 0.8510);fill-opacity:1;stroke:#AE9580;stroke:color(display-p3 0.6824 0.5843 0.5020);stroke-opacity:1;" stroke-width="0.1325"/>
<path d="M283.79 110.332C283.724 107.682 284.452 102.979 284.585 95.8237H294.92C295.317 98.3633 296.099 104.343 296.046 107.947C295.993 111.551 295.273 115.102 294.92 116.427C294.522 116.825 292.919 117.66 289.686 117.819C285.645 118.017 283.856 112.982 283.79 110.332Z" fill="#AE9580" stroke="#AE9580" style="fill:#AE9580;fill:color(display-p3 0.6824 0.5843 0.5020);fill-opacity:1;stroke:#AE9580;stroke:color(display-p3 0.6824 0.5843 0.5020);stroke-opacity:1;" stroke-width="0.1325"/>
<path d="M331.623 111.194C330.033 107.02 328.443 106.424 328.575 99.269L341.958 100.395C342.355 102.935 342.011 106.331 341.958 109.935C341.905 113.539 344.365 117.488 344.011 118.813C343.614 119.21 341.017 119.846 337.784 120.005C333.743 120.204 332.566 113.671 331.623 111.194Z" fill="#AE9580" stroke="#AE9580" style="fill:#AE9580;fill:color(display-p3 0.6824 0.5843 0.5020);fill-opacity:1;stroke:#AE9580;stroke:color(display-p3 0.6824 0.5843 0.5020);stroke-opacity:1;" stroke-width="0.1325"/>
<path d="M284.85 52.0328C288.891 52.0328 298.498 55.3453 309.098 55.0803C316.496 54.0645 332.298 51.7811 336.326 50.7741C341.361 49.5153 346.926 52.0328 353.949 61.1091C360.971 70.1853 356.268 86.0853 353.949 93.4391C351.63 100.793 353.75 107.815 353.949 114.109C354.148 120.403 351.696 120.668 346.926 120.668C342.156 120.668 339.374 110.068 336.061 90.3916C329.171 92.1936 315.215 88.2716 309.098 86.0853V95.4266C309.098 102.449 312.079 115.898 305.321 120.668C298.564 125.438 294.92 118.415 294.92 115.898V99.4678C294.434 93.152 292.999 81.2888 291.144 84.3628C288.825 88.2053 280.809 85.3566 272.991 80.5203C265.174 75.6841 268.221 66.6741 270.01 61.1091C271.799 55.5441 280.809 52.0328 284.85 52.0328Z" fill="#AE9580" style="fill:#AE9580;fill:color(display-p3 0.6824 0.5843 0.5020);fill-opacity:1;"/>
<ellipse cx="275.373" cy="71.4829" rx="3.59322" ry="3.14407" fill="#351B0B" style="fill:#351B0B;fill:color(display-p3 0.2066 0.1047 0.0413);fill-opacity:1;"/>
<ellipse cx="295.136" cy="71.4829" rx="3.59322" ry="3.14407" fill="#351B0B" style="fill:#351B0B;fill:color(display-p3 0.2066 0.1047 0.0413);fill-opacity:1;"/>
<ellipse cx="285.254" cy="76.8727" rx="2.69492" ry="2.24576" fill="#351B0B" style="fill:#351B0B;fill:color(display-p3 0.2066 0.1047 0.0413);fill-opacity:1;"/>
<path d="M269.965 95.3673L293.25 97.4557C293.258 97.5478 293.267 97.6405 293.274 97.7322L293.277 97.7558C293.296 97.9585 293.312 98.1612 293.329 98.3705C293.367 98.837 293.402 99.2993 293.435 99.7576L293.439 99.8104C293.452 99.9997 293.464 100.189 293.476 100.389C293.49 100.602 293.504 100.815 293.514 101.025L293.516 101.053C293.523 101.167 293.529 101.282 293.536 101.396L293.546 101.582C293.572 102.087 293.595 102.588 293.613 103.088C293.627 103.438 293.638 103.783 293.648 104.127C293.652 104.268 293.656 104.407 293.658 104.546L293.659 104.569C293.662 104.674 293.664 104.778 293.666 104.882L293.666 104.925C293.672 105.162 293.677 105.397 293.679 105.636L293.683 106.089C293.697 108.253 293.633 110.173 293.493 111.795L293.376 113.143C293.298 113.988 293.351 114.832 293.518 115.65C292.401 116.172 291.138 116.336 289.869 116.088C288.722 115.863 287.663 115.286 286.842 114.452C285.601 113.192 285.005 111.519 285.167 109.762L285.283 108.411C285.358 107.529 285.437 106.889 285.506 106.324C285.677 104.922 285.79 104 285.634 101.381C285.59 100.629 284.939 100.059 284.189 100.116C283.456 100.172 282.904 100.807 282.948 101.541C283.091 103.9 282.997 104.665 282.834 105.998C282.763 106.585 282.681 107.25 282.601 108.18L282.486 109.524C282.265 111.921 283.068 114.315 284.69 116.094C285.091 116.533 285.534 116.926 286.01 117.269C286.178 121.292 288.941 124.427 292.345 124.427H297.809C298.919 126.605 300.93 128.044 303.236 128.044H309.769C310.598 128.044 311.269 127.372 311.269 126.544C311.269 125.942 310.902 125.391 310.334 125.192C308.771 124.642 307.615 122.75 307.615 120.506V120.351C309.01 119.113 309.973 117.442 310.338 115.614L310.362 115.496C311.13 111.636 311.553 105.991 311.522 100.006L311.522 99.9543C311.52 99.61 311.518 99.2641 311.512 98.9237C311.5 98.0163 311.475 97.0757 311.438 96.1284C311.428 95.852 311.418 95.5754 311.403 95.3011C311.396 95.1228 311.388 94.9446 311.378 94.7816C311.369 94.6042 311.361 94.4268 311.351 94.2618C311.34 94.0618 311.329 93.8616 311.317 93.6684C311.3 93.3999 311.282 93.1333 311.263 92.8668C311.26 92.8142 311.256 92.7602 311.251 92.7078C311.23 92.4004 311.207 92.0948 311.183 91.8027C311.178 91.7377 311.173 91.6743 311.167 91.6112C311.152 91.4176 311.135 91.2253 311.118 91.0532C311.096 90.7984 311.073 90.5458 311.047 90.2951L311.044 90.2634C311.041 90.2369 311.039 90.2104 311.036 90.1843C310.963 89.4529 310.882 88.7479 310.792 88.0713C314.243 89.2657 321.422 91.3244 329.915 91.3244C332.002 91.3244 334.17 91.1996 336.38 90.9075C336.38 90.928 336.379 90.9487 336.379 90.9694C336.325 93.4864 336.393 96.0903 336.57 98.6372L316.323 96.8219C315.583 96.7555 314.929 97.3016 314.863 98.042V98.0426C314.796 98.7825 315.342 99.4361 316.082 99.5026L326.412 100.429C327.441 105.081 328.777 109.111 330.206 111.855L333.06 117.332C333.679 118.523 334.594 119.497 335.678 120.199C336.457 123.632 339.105 126.045 342.068 126.045C342.293 126.045 342.521 126.031 342.749 126.003L345.17 125.701C346.325 127.149 347.962 128.044 349.781 128.044H356.314C357.142 128.044 357.814 127.372 357.814 126.544C357.814 125.942 357.446 125.391 356.878 125.192C355.315 124.642 354.16 122.75 354.16 120.506V120.497C354.274 120.361 354.385 120.221 354.491 120.075C355.956 118.055 356.367 115.438 355.592 113.081L355.539 112.917C354.893 110.86 354.572 106.858 354.588 102.956L359.432 103.39C360.172 103.456 360.826 102.91 360.892 102.169C360.959 101.429 360.412 100.775 359.672 100.709L354.655 100.259C354.769 97.8066 355.029 95.6021 355.437 94.2233C355.545 93.8612 355.653 93.491 355.763 93.1144L360.316 93.5225C361.056 93.5887 361.71 93.0426 361.776 92.3022C361.842 91.5619 361.296 90.9081 360.556 90.8416L356.508 90.4789C357.884 85.4706 359.159 79.9199 359.159 76.5596V72.5307C359.159 66.502 356.811 60.8329 352.548 56.5672C348.282 52.304 342.613 49.9561 336.585 49.9561L336.516 49.9577C335.988 49.9848 323.544 50.6337 317.316 51.9959L314.473 52.4984C308.9 53.4849 302.287 53.2288 294.818 51.7378C293.272 51.4297 291.664 51.1924 290.035 51.0328C288.457 50.8798 286.836 50.7989 285.212 50.7927C274.738 50.7927 266.217 58.7017 266.217 68.4234C266.217 68.5831 266.219 68.7425 266.224 68.9089L266.225 68.9381C266.229 69.0584 266.233 69.1787 266.239 69.2973C266.259 69.6805 266.294 70.0679 266.34 70.4401C266.358 70.5952 266.38 70.748 266.403 70.8977C266.428 71.0648 266.455 71.2314 266.486 71.3964C266.499 71.4697 266.513 71.543 266.527 71.6165L266.531 71.6399C266.545 71.7121 266.561 71.7838 266.577 71.8558C266.594 71.9395 266.612 72.0233 266.633 72.1067C266.716 72.4742 266.813 72.84 266.918 73.1833C266.947 73.2829 266.979 73.3829 267.009 73.4785C267.048 73.6025 267.089 73.7261 267.127 73.8301C267.307 74.3497 267.515 74.8665 267.747 75.3665C267.786 75.4571 267.828 75.5455 267.872 75.6339C268.116 76.1397 268.385 76.6327 268.662 77.0848C268.718 77.1776 268.775 77.2687 268.84 77.3715C269.13 77.8301 269.45 78.2846 269.793 78.7228C269.854 78.805 269.917 78.8849 269.976 78.9576C270.41 79.4967 270.875 80.0126 271.353 80.4836C271.427 80.5578 271.504 80.6319 271.567 80.6917C271.822 80.9372 272.094 81.1832 272.363 81.4105C272.445 81.4828 272.53 81.5546 272.617 81.6238C272.642 81.6461 272.668 81.6677 272.695 81.6882C272.772 81.7519 272.849 81.8138 272.927 81.8743C273.123 82.0295 273.33 82.1863 273.556 82.3492C273.667 82.4302 273.78 82.5088 273.886 82.5811C273.978 82.6446 274.07 82.7082 274.15 82.7602C274.241 82.821 274.331 82.8813 274.423 82.9382C274.517 83.0003 274.613 83.0606 274.709 83.1196C274.727 83.1303 274.744 83.1405 274.762 83.151L271.089 82.8216C270.348 82.7554 269.695 83.3015 269.628 84.0421C269.562 84.7822 270.108 85.436 270.848 85.5025L291.768 87.378C291.787 87.4676 291.807 87.5587 291.828 87.6523C291.853 87.7643 291.877 87.8782 291.9 87.9923L291.927 88.1235C291.948 88.2231 291.967 88.3227 291.987 88.4223L291.994 88.4566C292.04 88.6827 292.084 88.9088 292.127 89.1423L292.14 89.2092C292.157 89.2992 292.174 89.3883 292.189 89.4789L292.199 89.5286C292.202 89.5433 292.205 89.5589 292.208 89.5744L292.217 89.6253C292.24 89.7462 292.261 89.8694 292.283 90.0005L292.399 90.6762C292.429 90.8586 292.459 91.0429 292.488 91.2377C292.529 91.4989 292.57 91.76 292.609 92.024C292.664 92.3954 292.717 92.7691 292.768 93.1386L292.771 93.1637C292.798 93.3724 292.825 93.5792 292.851 93.7881L292.854 93.8121C292.875 93.9643 292.894 94.1166 292.912 94.2686L292.918 94.3144C292.923 94.3529 292.927 94.3912 292.932 94.4309L292.965 94.7286L270.205 92.6875C269.465 92.6211 268.811 93.1672 268.744 93.9076C268.679 94.6469 269.225 95.3009 269.965 95.3673ZM292.345 121.736C290.818 121.736 289.478 120.438 288.941 118.631C289.62 118.802 290.321 118.893 291.032 118.893C292.226 118.893 293.391 118.648 294.467 118.176C294.779 118.724 295.151 119.242 295.582 119.714C295.983 120.153 296.425 120.546 296.901 120.888C296.913 121.176 296.938 121.458 296.976 121.736H292.345V121.736ZM303.236 125.353C301.709 125.353 300.37 124.056 299.833 122.251C300.511 122.421 301.212 122.512 301.922 122.512C302.992 122.512 304.048 122.308 305.036 121.923C305.244 123.212 305.727 124.386 306.412 125.353H303.236ZM335.447 116.089L332.593 110.612C331.353 108.231 330.177 104.75 329.228 100.681L336.804 101.36C336.816 101.477 336.826 101.596 336.839 101.712C336.859 101.905 336.881 102.097 336.904 102.291L336.913 102.37C336.948 102.673 336.985 102.972 337.024 103.27L337.033 103.339C337.06 103.55 337.088 103.756 337.12 103.983C337.149 104.194 337.181 104.407 337.213 104.622C337.245 104.832 337.277 105.04 337.313 105.261L337.361 105.556C337.395 105.763 337.431 105.97 337.467 106.17C337.503 106.375 337.539 106.577 337.578 106.779C337.654 107.177 337.733 107.572 337.814 107.952C337.853 108.135 337.893 108.315 337.935 108.494L337.943 108.529C337.985 108.718 338.03 108.906 338.074 109.089C338.096 109.181 338.119 109.272 338.143 109.368C338.19 109.56 338.239 109.749 338.287 109.923C338.533 110.841 338.801 111.692 339.084 112.454L341.239 118.242C341.272 118.333 341.312 118.419 341.349 118.507C341.071 118.596 340.783 118.662 340.487 118.702L340.433 118.709C338.397 118.962 336.394 117.909 335.447 116.089ZM342.416 123.332C341.122 123.494 339.848 122.7 339.033 121.39C339.298 121.418 339.565 121.437 339.835 121.437C340.115 121.437 340.397 121.422 340.678 121.39L340.768 121.38C341.497 121.289 342.194 121.099 342.851 120.815C343.051 121.026 343.261 121.225 343.483 121.411C343.544 122.019 343.664 122.603 343.837 123.155L342.416 123.332ZM349.781 125.353C348.479 125.353 347.313 124.408 346.665 123.01C347.216 123.139 347.786 123.209 348.366 123.21C348.372 123.21 348.379 123.21 348.385 123.21C349.554 123.21 350.674 122.944 351.683 122.45C351.926 123.532 352.367 124.519 352.958 125.353H349.781ZM269.879 73.1537C269.879 73.2814 269.886 73.4079 269.891 73.5348C269.812 73.3373 269.736 73.1376 269.665 72.9326C269.634 72.8471 269.605 72.7597 269.576 72.6682C269.55 72.586 269.524 72.5034 269.496 72.41C269.406 72.1127 269.324 71.8051 269.255 71.4956L269.244 71.454C269.233 71.409 269.224 71.3639 269.214 71.3095L269.207 71.277C269.195 71.226 269.184 71.1751 269.174 71.1277L269.17 71.107C269.159 71.0509 269.149 70.9946 269.139 70.9387L269.133 70.9039C269.108 70.7718 269.086 70.6379 269.066 70.501C269.047 70.3764 269.028 70.2517 269.012 70.117C268.973 69.7994 268.944 69.476 268.928 69.1568C268.922 69.0541 268.919 68.9497 268.915 68.8452L268.914 68.8249C268.91 68.6922 268.909 68.558 268.909 68.4237C268.909 60.1861 276.223 53.4843 285.207 53.4843C286.743 53.4903 288.28 53.5667 289.775 53.7118C291.314 53.8627 292.834 54.0869 294.293 54.3774C302.09 55.9345 309.037 56.1939 314.943 55.1492L317.812 54.642L317.867 54.631C323.714 53.3464 335.882 52.687 336.62 52.6481C341.917 52.6572 346.897 54.7244 350.645 58.4708C354.401 62.2278 356.469 67.2214 356.469 72.5314V76.5602C356.469 79.6108 355.186 85.612 352.858 93.4587C351.524 97.9573 351.588 109.321 352.974 113.733L353.033 113.915C353.549 115.484 353.286 117.153 352.313 118.495C351.379 119.782 349.948 120.519 348.385 120.519C348.38 120.519 348.377 120.519 348.373 120.519C346.328 120.514 344.475 119.223 343.761 117.304L341.607 111.517C341.353 110.835 341.111 110.064 340.884 109.217C340.84 109.058 340.798 108.895 340.758 108.73L340.75 108.7C340.732 108.628 340.714 108.557 340.697 108.483L340.692 108.461C340.662 108.338 340.631 108.212 340.602 108.085L340.566 107.925C340.525 107.752 340.486 107.578 340.448 107.395C340.369 107.028 340.294 106.652 340.222 106.273C340.186 106.085 340.152 105.894 340.117 105.699C340.083 105.508 340.049 105.314 340.018 105.125L339.967 104.814C339.935 104.616 339.905 104.419 339.875 104.222C339.845 104.019 339.814 103.814 339.783 103.593C339.76 103.424 339.736 103.255 339.714 103.084L339.702 102.992C339.665 102.709 339.629 102.424 339.595 102.135L339.586 102.055C339.562 101.848 339.538 101.64 339.516 101.428C339.151 98.0527 338.997 94.4564 339.07 91.0226C339.074 90.7903 339.08 90.5599 339.088 90.3292L339.088 90.2932C339.096 90.0472 339.104 89.8011 339.116 89.5495C339.23 86.8294 339.497 84.3843 339.891 82.4782L341.215 76.0633C341.366 75.3356 340.897 74.6238 340.17 74.4735H340.168C339.441 74.3232 338.729 74.7913 338.579 75.519L338.163 77.5339C336.396 74.5574 333.998 73.1419 332.455 72.5016C331.89 72.2672 331.023 72.06 330.282 71.9092C329.519 71.7538 328.782 72.2695 328.675 73.0409C328.576 73.7452 329.042 74.4052 329.74 74.5452C330.35 74.6677 331.036 74.8267 331.424 74.9878C333.439 75.8242 336.055 77.7624 337.194 82.2393C336.866 83.9239 336.626 85.9524 336.491 88.1753C324.267 89.9224 313.031 86.0635 310.302 85.0236C310.294 84.9849 310.287 84.9445 310.279 84.9062C310.235 84.6895 310.191 84.4769 310.145 84.2603C310.079 83.9589 310.046 83.651 310.046 83.3448C310.046 82.4076 310.361 81.4795 310.931 80.7333L311.987 79.3559C312.439 78.7661 312.327 77.9214 311.737 77.4697L311.737 77.4691C311.147 77.0173 310.303 77.1289 309.851 77.7187L308.794 79.0972C307.866 80.3116 307.355 81.8202 307.355 83.345C307.355 83.8442 307.409 84.3456 307.514 84.8272C307.557 85.0288 307.6 85.2344 307.641 85.4367C307.929 86.8906 308.17 88.5829 308.359 90.4663L308.363 90.506C308.365 90.5309 308.368 90.5555 308.37 90.5797C308.394 90.8108 308.416 91.0439 308.437 91.2987C308.455 91.4772 308.471 91.6577 308.485 91.8383L308.489 91.8859C308.493 91.9236 308.495 91.961 308.5 92.0165C308.524 92.3101 308.546 92.6078 308.566 92.9078L308.569 92.9413C308.571 92.9643 308.574 92.9885 308.575 93.0115L308.577 93.0424C308.595 93.3059 308.614 93.5695 308.63 93.8396C308.643 94.0268 308.653 94.216 308.663 94.4156C308.673 94.5798 308.681 94.746 308.69 94.928C308.7 95.0893 308.707 95.2508 308.713 95.412L308.715 95.435C308.729 95.6988 308.739 95.965 308.749 96.2327C308.784 97.1579 308.808 98.0757 308.82 98.9661C308.826 99.302 308.828 99.6378 308.83 99.9719L308.831 100.022C308.86 105.833 308.456 111.282 307.723 114.964L307.699 115.082C307.433 116.415 306.709 117.623 305.659 118.485C304.607 119.347 303.279 119.822 301.922 119.822C300.246 119.822 298.7 119.139 297.57 117.901C296.44 116.662 295.902 115.06 296.056 113.384L296.174 112.029C296.321 110.324 296.388 108.32 296.373 106.062L296.369 105.608C296.367 105.361 296.363 105.111 296.357 104.868L296.356 104.835C296.354 104.721 296.352 104.608 296.348 104.494C296.346 104.347 296.342 104.2 296.337 104.049C296.327 103.695 296.316 103.34 296.302 102.984C296.283 102.476 296.26 101.96 296.232 101.436L296.222 101.256C296.216 101.132 296.209 101.009 296.201 100.886C296.191 100.664 296.176 100.439 296.162 100.223C296.15 100.025 296.137 99.8268 296.123 99.6289L296.119 99.5725C296.086 99.0991 296.05 98.6256 296.011 98.1544C295.994 97.9389 295.977 97.7231 295.956 97.5076C295.935 97.2441 295.91 96.9784 295.884 96.7107C295.846 96.317 295.807 95.9211 295.764 95.5205L295.607 94.1423C295.6 94.0748 295.593 94.0094 295.584 93.9444C295.565 93.7804 295.544 93.6165 295.521 93.4525C295.495 93.2388 295.467 93.027 295.439 92.8134L295.435 92.7827C295.383 92.3966 295.328 92.0122 295.272 91.631C295.232 91.36 295.19 91.0913 295.149 90.8307C295.119 90.6319 295.087 90.4354 295.053 90.2313L294.936 89.5483C294.913 89.4112 294.889 89.2763 294.864 89.1431C294.856 89.0949 294.847 89.0467 294.838 89.0001C294.821 88.9026 294.802 88.8063 294.784 88.7092L294.773 88.65C294.728 88.4061 294.681 88.1641 294.633 87.9297L294.628 87.9032C294.605 87.7887 294.583 87.6745 294.561 87.5734L294.536 87.4465C294.509 87.3175 294.482 87.1888 294.455 87.0697C294.416 86.8875 294.376 86.7074 294.34 86.5466C294.33 86.5027 294.32 86.4596 294.311 86.4163L294.288 86.3155C294.251 86.1563 294.215 85.9971 294.178 85.8499C294.035 85.2501 293.882 84.6719 293.723 84.1148C297.832 81.7469 300.543 77.7185 300.543 73.1551C300.543 72.9187 300.532 72.6819 300.517 72.4448C300.534 72.0171 300.49 71.5819 300.379 71.1513L300.331 70.9691C300.221 70.3836 300.067 69.8039 299.878 69.2354C299.84 69.1091 299.798 68.9847 299.75 68.8636C298.263 64.7745 294.904 61.385 291.591 61.2484C290.189 61.1923 289.201 61.7061 288.329 62.1605C287.454 62.6168 286.698 63.0112 285.375 63.0112C285.365 63.0112 285.355 63.0112 285.344 63.011C283.989 63.005 283.225 62.5926 282.339 62.1152C281.498 61.6618 280.548 61.1498 279.217 61.1498C279.171 61.1498 279.125 61.1504 279.079 61.1517C274.522 61.2701 269.879 67.3276 269.879 73.1537ZM296.598 72.6626C296.362 72.1761 295.824 71.8863 295.288 71.9587C294.579 72.0542 294.121 72.6769 294.173 73.3311L293.452 73.0282C292.862 72.7806 292.418 72.2471 292.346 71.6111C292.265 70.9006 292.591 70.2571 293.202 69.9052L294.776 68.9984C295.044 68.8437 295.341 68.7657 295.639 68.7657C295.936 68.7657 296.235 68.8431 296.509 68.9994C296.927 69.2375 297.212 69.6549 297.333 70.1205L297.708 71.5703C297.759 71.8577 297.796 72.1465 297.82 72.4368C297.779 72.8676 297.578 73.2682 297.23 73.5692C297.015 73.7551 296.77 73.8781 296.513 73.9429C296.754 73.5814 296.811 73.1022 296.598 72.6626ZM272.759 71.7693L273.2 70.0656C273.2 69.905 273.248 69.7464 273.342 69.6151C273.746 69.045 274.315 68.7655 274.88 68.7655C275.178 68.7655 275.474 68.8435 275.743 68.9982L277.264 69.8745C277.819 70.194 278.193 70.7786 278.185 71.4188C278.176 72.1337 277.773 72.7316 277.123 73.0044L276.521 73.257C276.526 73.0102 276.463 72.7543 276.305 72.5154C276.044 72.1225 275.571 71.9003 275.103 71.9554C274.281 72.0519 273.786 72.8533 274.017 73.6052C274.059 73.7439 274.124 73.8692 274.205 73.9806C273.85 73.9361 273.511 73.781 273.228 73.5141C272.76 73.0719 272.598 72.3929 272.759 71.7693ZM285.952 77.7757C285.709 78.0951 285.383 78.1427 285.211 78.1427C285.039 78.1427 284.714 78.0951 284.471 77.7759C284.155 77.361 284.3 76.9544 284.377 76.7987C284.454 76.643 284.69 76.2811 285.211 76.2811C285.732 76.2811 285.968 76.643 286.045 76.7987C286.122 76.9544 286.268 77.361 285.952 77.7757ZM286.557 83.5868V80.5768C287.157 80.3379 287.687 79.9396 288.093 79.4065C289.009 78.203 289.092 76.578 288.27 75.2704C287.679 74.3307 286.667 73.7092 285.562 73.6063C283.916 73.4531 282.409 74.3903 281.821 75.9364C281.426 76.9734 281.537 78.1554 282.119 79.0998C282.543 79.7882 283.156 80.2942 283.866 80.5768V83.3123C282.905 83.2401 281.956 83.0922 281.03 82.867L281.001 82.8602C280.939 82.8467 280.876 82.8314 280.816 82.8148L280.764 82.8016C280.729 82.7929 280.693 82.7846 280.657 82.7736L280.602 82.7575C280.278 82.6718 279.948 82.5724 279.622 82.4624L279.596 82.454C279.501 82.4239 279.408 82.3902 279.312 82.356C279.231 82.3268 279.151 82.2981 279.051 82.2598L279.017 82.2469C278.952 82.2231 278.886 82.1993 278.823 82.1726L278.785 82.1573C278.701 82.125 278.617 82.0917 278.528 82.0546C276.079 80.7828 274.191 78.8346 273.245 76.5273C273.625 76.6329 274.018 76.6871 274.414 76.6871C274.993 76.6871 275.577 76.5724 276.135 76.3383L278.075 75.5238C279.545 74.9066 280.629 73.5769 280.837 71.9958C281.075 70.1892 280.218 68.47 278.66 67.573L277.086 66.6662C276.546 66.3552 275.962 66.1664 275.366 66.0999C276.554 64.7472 277.94 63.8725 279.15 63.8408C279.174 63.8402 279.197 63.84 279.22 63.84C279.839 63.84 280.286 64.0646 281.062 64.483C282.062 65.0217 283.305 65.6919 285.333 65.7012C285.347 65.7014 285.361 65.7014 285.375 65.7014C287.358 65.7012 288.586 65.0608 289.574 64.5458C290.378 64.1267 290.826 63.9098 291.481 63.9363C292.625 63.9837 293.932 64.8211 295.064 66.1107C294.499 66.1856 293.946 66.3707 293.432 66.6664L291.942 67.5247C290.56 68.321 289.651 69.7758 289.642 71.3703C289.632 73.1922 290.697 74.7907 292.354 75.4865L294.384 76.338C294.942 76.5724 295.526 76.6871 296.105 76.6871C296.464 76.6871 296.82 76.6397 297.168 76.5527C295.602 80.3362 291.502 83.1502 286.557 83.5868Z" fill="#855C54" style="fill:#855C54;fill:color(display-p3 0.5216 0.3608 0.3294);fill-opacity:1;"/>
</g>
<defs>
<clipPath id="clip0_65_1287">
<rect width="446" height="446" fill="white" style="fill:white;fill-opacity:1;"/>
</clipPath>
</defs>
</svg>
