<svg width="446" height="446" viewBox="0 0 446 446" fill="none" xmlns="http://www.w3.org/2000/svg">
<g clip-path="url(#clip0_55_117)">
<path d="M345 202.59C376.398 208.26 390.813 179.205 390.696 170.258" stroke="#A855F7" style="stroke:#A855F7;stroke:color(display-p3 0.6588 0.3333 0.9686);stroke-opacity:1;" stroke-width="7.94896" stroke-linecap="round"/>
<path d="M91.0001 198.968C60.9735 188.179 63.0177 155.81 67.5926 148.12" stroke="#A855F7" style="stroke:#A855F7;stroke:color(display-p3 0.6588 0.3333 0.9686);stroke-opacity:1;" stroke-width="7.94896" stroke-linecap="round"/>
<path d="M169.297 293.233L172.609 346.889L155.387 354.838" stroke="#A855F7" style="stroke:#A855F7;stroke:color(display-p3 0.6588 0.3333 0.9686);stroke-opacity:1;" stroke-width="7.94896" stroke-linecap="round"/>
<path d="M266.01 293.896L262.698 347.551L279.92 355.5" stroke="#A855F7" style="stroke:#A855F7;stroke:color(display-p3 0.6588 0.3333 0.9686);stroke-opacity:1;" stroke-width="7.94896" stroke-linecap="round"/>
<path d="M240.176 222.355C240.176 262.597 207.553 295.22 167.31 295.22C127.068 295.22 94.4448 262.597 94.4448 222.355C94.4448 182.113 127.068 149.49 167.31 149.49C207.553 149.49 240.176 182.113 240.176 222.355Z" fill="#F6EDFF" style="fill:#F6EDFF;fill:color(display-p3 0.9655 0.9292 1.0000);fill-opacity:1;"/>
<path d="M350.136 222.355C350.136 262.597 317.513 295.22 277.271 295.22C237.028 295.22 204.405 262.597 204.405 222.355C204.405 182.113 237.028 149.49 277.271 149.49C317.513 149.49 350.136 182.113 350.136 222.355Z" fill="#F6EDFF" style="fill:#F6EDFF;fill:color(display-p3 0.9655 0.9292 1.0000);fill-opacity:1;"/>
<path d="M295.818 142.865C295.818 183.108 263.195 215.731 222.953 215.731C182.71 215.731 150.088 183.108 150.088 142.865C150.088 102.623 182.71 70 222.953 70C263.195 70 295.818 102.623 295.818 142.865Z" fill="#F6EDFF" style="fill:#F6EDFF;fill:color(display-p3 0.9655 0.9292 1.0000);fill-opacity:1;"/>
<path d="M150.751 151.476C143.464 77.9487 203.081 70.6622 228.916 70.6621C248.788 70.6621 301.781 83.9104 294.494 151.476" stroke="#A855F7" style="stroke:#A855F7;stroke:color(display-p3 0.6588 0.3333 0.9686);stroke-opacity:1;" stroke-width="7.94896" stroke-linecap="round"/>
<path d="M295.155 152.802C371.334 167.256 349.565 240.597 344.837 250.839C332.913 276.673 283.893 319.067 224.275 272.036" stroke="#A855F7" style="stroke:#A855F7;stroke:color(display-p3 0.6588 0.3333 0.9686);stroke-opacity:1;" stroke-width="7.94896" stroke-linecap="round"/>
<path d="M222.953 270.711C140.814 326.354 98.7962 259.45 93.119 240.902C83.1837 208.444 102.393 158.101 150.749 152.802" stroke="#A855F7" style="stroke:#A855F7;stroke:color(display-p3 0.6588 0.3333 0.9686);stroke-opacity:1;" stroke-width="7.94896" stroke-linecap="round"/>
<circle cx="171.285" cy="185.26" r="20.5348" stroke="#A855F7" style="stroke:#A855F7;stroke:color(display-p3 0.6588 0.3333 0.9686);stroke-opacity:1;" stroke-width="6.62413"/>
<circle cx="271.971" cy="185.26" r="20.5348" stroke="#A855F7" style="stroke:#A855F7;stroke:color(display-p3 0.6588 0.3333 0.9686);stroke-opacity:1;" stroke-width="6.62413"/>
<path d="M192.482 185.259C209.042 166.049 240.176 171.349 250.112 185.259" stroke="#A855F7" style="stroke:#A855F7;stroke:color(display-p3 0.6588 0.3333 0.9686);stroke-opacity:1;" stroke-width="7.94896" stroke-linecap="round"/>
<path d="M162.309 189.299C171.418 180.19 181.928 187.898 182.629 189.299" stroke="#A855F7" style="stroke:#A855F7;stroke:color(display-p3 0.6588 0.3333 0.9686);stroke-opacity:1;" stroke-width="4.20418" stroke-linecap="round"/>
<path d="M264.309 188.299C273.418 179.19 283.928 186.898 284.629 188.299" stroke="#A855F7" style="stroke:#A855F7;stroke:color(display-p3 0.6588 0.3333 0.9686);stroke-opacity:1;" stroke-width="4.20418" stroke-linecap="round"/>
<path d="M193.807 107.757C196.456 130.942 221.132 126.935 228.252 120.343C246.137 103.783 226.265 92.5217 217.654 99.1458C197.738 114.465 230.902 134.254 245.475 122.33" stroke="#A855F7" style="stroke:#A855F7;stroke:color(display-p3 0.6588 0.3333 0.9686);stroke-opacity:1;" stroke-width="7.94896" stroke-linecap="round"/>
<g clip-path="url(#clip1_55_117)">
<path d="M177.861 31.6477L191.53 43.8517C183.323 43.6621 173.972 41.9043 164.924 36.8187L165.386 32.7129C167.103 32.9077 168.892 32.7052 170.617 32.0462C172.342 31.3872 173.809 30.346 174.959 29.0565L177.861 31.6477Z" fill="#FFA233" style="fill:#FFA233;fill:color(display-p3 1.0000 0.6353 0.2000);fill-opacity:1;"/>
<path d="M164.924 36.8187C173.973 41.9042 183.324 43.662 191.53 43.8516L209.514 59.9073C199.006 62.1647 180.214 63.7493 163.159 52.4845L164.924 36.8187Z" fill="#F9EACD" style="fill:#F9EACD;fill:color(display-p3 0.9765 0.9176 0.8039);fill-opacity:1;"/>
<path d="M163.158 52.4843C180.214 63.7487 199.005 62.1643 209.514 59.9071L218.698 68.1074C218.698 68.1074 187.938 80.4378 162.116 61.73L163.158 52.4843Z" fill="#FFA233" style="fill:#FFA233;fill:color(display-p3 1.0000 0.6353 0.2000);fill-opacity:1;"/>
<path d="M162.117 61.7302C187.939 80.438 218.699 68.1075 218.699 68.1075L224.501 73.2878C220.862 77.7663 215.926 81.9199 210.235 85.5329C204.073 87.15 180.644 91.975 160.239 78.3886L162.117 61.7302Z" fill="#F9EACD" style="fill:#F9EACD;fill:color(display-p3 0.9765 0.9176 0.8039);fill-opacity:1;"/>
<path d="M160.239 78.3886C180.644 91.9749 204.073 87.1499 210.235 85.5327C201.792 90.8975 191.688 95.0712 181.703 97.3533C174.379 96.0809 166.533 93.3484 159.144 88.1077L160.239 78.3886Z" fill="#FFA233" style="fill:#FFA233;fill:color(display-p3 1.0000 0.6353 0.2000);fill-opacity:1;"/>
<path d="M159.144 88.108C166.533 93.3487 174.379 96.081 181.704 97.3536C173.356 99.2643 165.091 99.8525 157.948 98.7089L159.144 88.108Z" fill="#F9EACD" style="fill:#F9EACD;fill:color(display-p3 0.9765 0.9176 0.8039);fill-opacity:1;"/>
<path d="M165.387 32.7124C161.377 32.257 157.755 29.6357 156.216 25.6061C154.017 19.8505 156.901 13.4038 162.656 11.2053C168.411 9.00722 174.859 11.8901 177.057 17.6455C178.596 21.6751 177.643 26.0447 174.959 29.0564C174.521 29.5473 174.037 30.0027 173.51 30.4147C172.654 31.0837 171.685 31.6382 170.617 32.0461C168.892 32.7052 167.103 32.9075 165.387 32.7124Z" fill="#7BA9D6" style="fill:#7BA9D6;fill:color(display-p3 0.4824 0.6627 0.8392);fill-opacity:1;"/>
<path d="M156.043 98.4937L163.018 36.6125C163.019 36.6067 163.02 36.6003 163.02 36.5944L163.284 34.2509C159.364 33.2048 155.98 30.3603 154.425 26.2889C151.853 19.5557 155.239 11.9855 161.972 9.41357C168.705 6.84178 176.275 10.2271 178.847 16.9603C180.402 21.0318 179.776 25.4078 177.552 28.8013L179.136 30.216C179.141 30.2198 179.145 30.224 179.149 30.2282L225.777 71.8576C226.542 72.5395 226.634 73.7015 225.989 74.496C219.289 82.7422 207.911 90.3495 194.773 95.3678C190.604 96.9601 186.392 98.2376 182.248 99.1869C182.165 99.2118 182.081 99.2305 181.995 99.2438C173.204 101.231 164.731 101.735 157.645 100.601C156.634 100.439 155.928 99.5115 156.043 98.4937ZM208.958 61.9792C200.354 63.7118 187.723 64.6998 174.708 60.2644C173.707 59.9231 173.171 58.8339 173.512 57.8318C173.854 56.8299 174.943 56.2944 175.945 56.6357C186.789 60.3312 197.396 60.004 205.328 58.7389L190.769 45.7409C181.997 45.4448 173.855 43.4554 166.515 39.8179L164.148 60.8187C174.264 67.8306 186.263 70.9293 199.834 70.0295C206.391 69.5947 211.797 68.2759 214.958 67.3361L208.958 61.9792ZM167.093 34.6898L166.974 35.748C172.803 38.8371 179.208 40.7849 186.089 41.5622L176.937 33.3912C175.887 33.1297 174.851 32.8418 173.84 32.5293C173.059 33.046 172.211 33.4878 171.301 33.8356C170.16 34.2711 168.996 34.5319 167.836 34.6387C167.741 34.6475 167.645 34.6569 167.549 34.6638C167.475 34.6689 167.402 34.6728 167.328 34.6765C167.249 34.6807 167.171 34.6871 167.093 34.6898ZM163.34 12.9947C158.581 14.8123 156.189 20.1626 158.006 24.9209C159.31 28.3355 162.434 30.5317 165.853 30.8278C165.864 30.829 165.875 30.8302 165.887 30.8309C166.616 30.8912 167.359 30.8651 168.1 30.7459C168.115 30.7433 168.131 30.741 168.146 30.7389C168.275 30.7172 168.405 30.6921 168.533 30.6649C168.572 30.6568 168.611 30.6482 168.65 30.6394C168.764 30.6138 168.878 30.5865 168.992 30.5559C169.051 30.5402 169.11 30.5226 169.169 30.5057C169.267 30.4778 169.366 30.4498 169.464 30.4183C169.557 30.388 169.649 30.3543 169.742 30.3213C169.805 30.2983 169.869 30.278 169.932 30.2539C169.995 30.2298 170.056 30.2024 170.119 30.1775C170.21 30.1402 170.301 30.1038 170.391 30.0643C170.485 30.0224 170.577 29.9778 170.668 29.9331C170.724 29.9064 170.78 29.8802 170.834 29.8524C170.939 29.7992 171.042 29.7431 171.145 29.6863C171.18 29.667 171.215 29.6474 171.249 29.6274C171.363 29.5621 171.476 29.4945 171.586 29.4248C171.6 29.416 171.614 29.4072 171.627 29.3982C172.257 28.9935 172.828 28.5188 173.33 27.9886C173.34 27.9791 173.348 27.9698 173.357 27.9598C175.707 25.4598 176.57 21.7418 175.266 18.3277C173.449 13.5699 168.098 11.1772 163.34 12.9947ZM221.829 73.4709L218.279 70.3022C215.712 71.1938 209.011 73.247 200.221 73.8462C193.697 74.2907 187.374 73.8338 181.428 72.4878C175.038 71.0413 169.078 68.558 163.666 65.0981L162.276 77.4236C171.165 83.0368 180.639 84.962 187.122 85.5793C188.176 85.6793 188.949 86.6152 188.849 87.669C188.777 88.419 188.282 89.027 187.623 89.2788C187.357 89.3807 187.063 89.4245 186.759 89.3955C180.234 88.7744 170.854 86.9012 161.803 81.6201L161.177 87.1798C167.223 91.271 174.104 94.0316 181.654 95.3935C185.535 94.4893 189.486 93.2835 193.405 91.7865C205.178 87.2898 215.419 80.6746 221.829 73.4709ZM172.446 96.9818C168.286 95.5797 164.357 93.7319 160.696 91.4432L160.062 97.0637C163.862 97.4985 168.047 97.4622 172.446 96.9818Z" fill="#A855F7" style="fill:#A855F7;fill:color(display-p3 0.6588 0.3333 0.9686);fill-opacity:1;"/>
<path d="M170.65 58.0859C170.173 58.2681 169.625 58.26 169.13 58.02L169.007 57.9626C168.05 57.5107 167.64 56.3685 168.092 55.4107C168.544 54.4535 169.686 54.0436 170.643 54.4954L170.802 54.5705C171.754 55.032 172.153 56.1791 171.69 57.1314C171.469 57.5888 171.09 57.9179 170.65 58.0859Z" fill="#A855F7" style="fill:#A855F7;fill:color(display-p3 0.6588 0.3333 0.9686);fill-opacity:1;"/>
<path d="M192.873 85.7798L193.009 85.7797C194.067 85.7723 194.932 86.6241 194.939 87.683C194.945 88.5055 194.432 89.2107 193.707 89.4879C193.498 89.5675 193.272 89.6117 193.036 89.6132L192.883 89.6135C191.824 89.6164 190.964 88.7605 190.961 87.7019C190.959 86.6431 191.815 85.7826 192.873 85.7798Z" fill="#A855F7" style="fill:#A855F7;fill:color(display-p3 0.6588 0.3333 0.9686);fill-opacity:1;"/>
</g>
<g clip-path="url(#clip2_55_117)">
<path d="M248.988 231.053C248.917 229.055 247.234 227.489 245.236 227.56C243.239 227.632 241.672 229.315 241.743 231.312C241.815 233.31 243.498 234.877 245.495 234.805L245.495 234.805C247.493 234.734 249.06 233.05 248.988 231.053ZM245.409 232.39C244.743 232.414 244.182 231.892 244.158 231.226C244.134 230.56 244.657 229.999 245.322 229.975C245.988 229.951 246.549 230.473 246.573 231.139C246.597 231.805 246.075 232.366 245.409 232.39Z" fill="#A855F7" style="fill:#A855F7;fill:color(display-p3 0.6588 0.3333 0.9686);fill-opacity:1;"/>
<path d="M243.08 198.037C243.009 196.04 241.325 194.473 239.328 194.544C237.331 194.616 235.764 196.299 235.835 198.297C235.907 200.294 237.59 201.861 239.587 201.789C241.585 201.718 243.152 200.035 243.08 198.037ZM239.501 199.374C238.834 199.398 238.274 198.878 238.25 198.21C238.226 197.544 238.749 196.983 239.415 196.959C240.08 196.936 240.641 197.458 240.665 198.124C240.689 198.789 240.167 199.351 239.501 199.374Z" fill="#A855F7" style="fill:#A855F7;fill:color(display-p3 0.6588 0.3333 0.9686);fill-opacity:1;"/>
<path d="M241.649 224.42C242.137 224.874 242.902 224.847 243.356 224.358C243.811 223.87 243.784 223.106 243.295 222.651C242.807 222.196 242.042 222.224 241.588 222.712C241.133 223.2 241.16 223.965 241.649 224.42Z" fill="#A855F7" style="fill:#A855F7;fill:color(display-p3 0.6588 0.3333 0.9686);fill-opacity:1;"/>
<path d="M233.715 209.771C234.203 210.226 234.968 210.198 235.422 209.71C235.877 209.222 235.85 208.457 235.361 208.002C234.873 207.548 234.108 207.575 233.654 208.064C233.199 208.552 233.226 209.316 233.715 209.771Z" fill="#A855F7" style="fill:#A855F7;fill:color(display-p3 0.6588 0.3333 0.9686);fill-opacity:1;"/>
<path d="M256.686 219.378C256.198 218.924 255.433 218.951 254.979 219.44L254.156 220.324C253.701 220.812 253.728 221.577 254.217 222.032C254.705 222.486 255.47 222.459 255.924 221.97L256.747 221.086C257.202 220.598 257.175 219.833 256.686 219.378Z" fill="#A855F7" style="fill:#A855F7;fill:color(display-p3 0.6588 0.3333 0.9686);fill-opacity:1;"/>
<path d="M252.57 223.8C252.081 223.346 251.317 223.373 250.862 223.861L250.039 224.746C249.584 225.234 249.612 225.999 250.1 226.453C250.589 226.908 251.353 226.881 251.808 226.392L252.631 225.508C253.086 225.02 253.058 224.255 252.57 223.8Z" fill="#A855F7" style="fill:#A855F7;fill:color(display-p3 0.6588 0.3333 0.9686);fill-opacity:1;"/>
<path d="M252.448 220.385L251.563 219.562C251.075 219.107 250.31 219.135 249.856 219.623C249.401 220.112 249.428 220.876 249.917 221.331L250.801 222.154C251.29 222.609 252.054 222.581 252.509 222.093C252.964 221.604 252.936 220.84 252.448 220.385Z" fill="#A855F7" style="fill:#A855F7;fill:color(display-p3 0.6588 0.3333 0.9686);fill-opacity:1;"/>
<path d="M256.87 224.501L255.985 223.678C255.497 223.224 254.732 223.251 254.278 223.739C253.823 224.228 253.85 224.992 254.339 225.447L255.223 226.27C255.712 226.725 256.476 226.697 256.931 226.209C257.385 225.721 257.358 224.956 256.87 224.501Z" fill="#A855F7" style="fill:#A855F7;fill:color(display-p3 0.6588 0.3333 0.9686);fill-opacity:1;"/>
<path d="M218.501 222.5V216L233 214V223L218.501 222.5Z" fill="#FFA233" style="fill:#FFA233;fill:color(display-p3 1.0000 0.6353 0.2000);fill-opacity:1;"/>
<path d="M253.227 216.461C254.707 214.895 255.48 212.842 255.402 210.68C255.338 208.884 254.579 207.221 253.263 205.997C251.948 204.773 250.235 204.134 248.44 204.198C245.341 204.309 242.911 206.92 243.022 210.019C243.119 212.754 245.256 214.155 247.216 214.085C248.964 214.023 250.69 212.755 250.607 210.454C250.583 209.787 250.023 209.266 249.357 209.29C248.69 209.313 248.168 209.873 248.192 210.54C248.226 211.489 247.541 211.656 247.13 211.67C246.525 211.692 245.487 211.35 245.437 209.932C245.373 208.165 246.759 206.676 248.526 206.613C250.901 206.528 252.902 208.391 252.988 210.766C253.042 212.276 252.503 213.709 251.471 214.8C250.439 215.892 249.03 216.523 247.503 216.577L234 217.061L233.87 213.439C233.858 213.099 233.703 212.781 233.445 212.561C233.187 212.342 232.848 212.241 232.511 212.283L218.068 214.106C217.448 214.184 216.99 214.723 217.012 215.348L217.271 222.593C217.283 222.925 217.429 223.223 217.656 223.434C217.86 223.625 218.131 223.745 218.43 223.757L232.959 224.349C233.295 224.363 233.622 224.235 233.861 223.998C234.099 223.761 234.228 223.435 234.216 223.098L234.086 219.476L247.589 218.992C249.754 218.915 251.756 218.016 253.227 216.461ZM219.646 221.388L219.467 216.365L226.688 215.454L226.911 221.684L219.646 221.388ZM229.333 221.783L229.095 215.15L231.502 214.846L231.754 221.881L229.333 221.783Z" fill="#A855F7" style="fill:#A855F7;fill:color(display-p3 0.6588 0.3333 0.9686);fill-opacity:1;"/>
</g>
<ellipse cx="212.5" cy="219" rx="3.5" ry="4" fill="#A855F7" style="fill:#A855F7;fill:color(display-p3 0.6588 0.3333 0.9686);fill-opacity:1;"/>
</g>
<defs>
<clipPath id="clip0_55_117">
<rect width="446" height="446" fill="white" style="fill:white;fill-opacity:1;"/>
</clipPath>
<clipPath id="clip1_55_117">
<rect width="92" height="92" fill="white" style="fill:white;fill-opacity:1;" transform="matrix(-0.934172 0.356823 0.356823 0.934172 204.944 -7)"/>
</clipPath>
<clipPath id="clip2_55_117">
<rect width="37.0247" height="37.0247" fill="white" style="fill:white;fill-opacity:1;" transform="translate(238.227 192) rotate(42.9491)"/>
</clipPath>
</defs>
</svg>
