<svg width="446" height="446" viewBox="0 0 446 446" fill="none" xmlns="http://www.w3.org/2000/svg">
<path d="M407.307 236.955C429.573 240.976 439.795 220.372 439.712 214.027" stroke="#A855F7" style="stroke:#A855F7;stroke:color(display-p3 0.6588 0.3333 0.9686);stroke-opacity:1;" stroke-width="5.637" stroke-linecap="round"/>
<path d="M227.183 234.388C205.89 226.738 180.351 228.558 164.56 240.84" stroke="#A855F7" style="stroke:#A855F7;stroke:color(display-p3 0.6588 0.3333 0.9686);stroke-opacity:1;" stroke-width="5.637" stroke-linecap="round"/>
<path d="M282.708 301.236L285.057 339.286L272.843 344.923" stroke="#A855F7" style="stroke:#A855F7;stroke:color(display-p3 0.6588 0.3333 0.9686);stroke-opacity:1;" stroke-width="5.637" stroke-linecap="round"/>
<path d="M351.291 301.705L348.943 339.755L361.156 345.392" stroke="#A855F7" style="stroke:#A855F7;stroke:color(display-p3 0.6588 0.3333 0.9686);stroke-opacity:1;" stroke-width="5.637" stroke-linecap="round"/>
<path d="M332.971 250.973C332.971 279.511 309.836 302.645 281.298 302.645C252.761 302.645 229.626 279.511 229.626 250.973C229.626 222.435 252.761 199.3 281.298 199.3C309.836 199.3 332.971 222.435 332.971 250.973Z" fill="#F6EDFF" style="fill:#F6EDFF;fill:color(display-p3 0.9655 0.9292 1.0000);fill-opacity:1;"/>
<path d="M410.95 250.973C410.95 279.511 387.815 302.645 359.277 302.645C330.739 302.645 307.605 279.511 307.605 250.973C307.605 222.435 330.739 199.3 359.277 199.3C387.815 199.3 410.95 222.435 410.95 250.973Z" fill="#F6EDFF" style="fill:#F6EDFF;fill:color(display-p3 0.9655 0.9292 1.0000);fill-opacity:1;"/>
<path d="M372.43 194.603C372.43 223.141 349.295 246.275 320.758 246.275C292.22 246.275 269.085 223.141 269.085 194.603C269.085 166.065 292.22 142.93 320.758 142.93C349.295 142.93 372.43 166.065 372.43 194.603Z" fill="#F6EDFF" style="fill:#F6EDFF;fill:color(display-p3 0.9655 0.9292 1.0000);fill-opacity:1;"/>
<path d="M356.205 223.48V219.125" stroke="#A855F7" style="stroke:#A855F7;stroke:color(display-p3 0.6588 0.3333 0.9686);stroke-opacity:1;" stroke-width="2.46435" stroke-linecap="round"/>
<path d="M362.01 224.746L364.676 221.303" stroke="#A855F7" style="stroke:#A855F7;stroke:color(display-p3 0.6588 0.3333 0.9686);stroke-opacity:1;" stroke-width="2.46435" stroke-linecap="round"/>
<path d="M351.745 224.64L348.948 221.303" stroke="#A855F7" style="stroke:#A855F7;stroke:color(display-p3 0.6588 0.3333 0.9686);stroke-opacity:1;" stroke-width="2.46435" stroke-linecap="round"/>
<path d="M283.639 224.205V219.851" stroke="#A855F7" style="stroke:#A855F7;stroke:color(display-p3 0.6588 0.3333 0.9686);stroke-opacity:1;" stroke-width="2.46435" stroke-linecap="round"/>
<path d="M289.443 225.471L292.108 222.028" stroke="#A855F7" style="stroke:#A855F7;stroke:color(display-p3 0.6588 0.3333 0.9686);stroke-opacity:1;" stroke-width="2.46435" stroke-linecap="round"/>
<path d="M279.178 225.365L276.381 222.028" stroke="#A855F7" style="stroke:#A855F7;stroke:color(display-p3 0.6588 0.3333 0.9686);stroke-opacity:1;" stroke-width="2.46435" stroke-linecap="round"/>
<path d="M269.556 200.709C264.389 148.567 306.666 143.4 324.987 143.4C339.079 143.4 376.659 152.795 371.492 200.709" stroke="#A855F7" style="stroke:#A855F7;stroke:color(display-p3 0.6588 0.3333 0.9686);stroke-opacity:1;" stroke-width="5.637" stroke-linecap="round"/>
<path d="M371.96 201.649C425.982 211.9 410.544 263.909 407.192 271.172C398.736 289.493 363.973 319.557 321.695 286.204" stroke="#A855F7" style="stroke:#A855F7;stroke:color(display-p3 0.6588 0.3333 0.9686);stroke-opacity:1;" stroke-width="5.637" stroke-linecap="round"/>
<path d="M320.757 285.264C262.508 324.723 232.712 277.279 228.686 264.126C221.64 241.108 235.263 205.407 269.554 201.649" stroke="#A855F7" style="stroke:#A855F7;stroke:color(display-p3 0.6588 0.3333 0.9686);stroke-opacity:1;" stroke-width="5.637" stroke-linecap="round"/>
<circle cx="284.117" cy="224.667" r="14.5623" stroke="#A855F7" style="stroke:#A855F7;stroke:color(display-p3 0.6588 0.3333 0.9686);stroke-opacity:1;" stroke-width="4.6975"/>
<circle cx="355.518" cy="224.667" r="14.5623" stroke="#A855F7" style="stroke:#A855F7;stroke:color(display-p3 0.6588 0.3333 0.9686);stroke-opacity:1;" stroke-width="4.6975"/>
<path d="M299.149 224.666C310.893 211.043 332.971 214.801 340.018 224.666" stroke="#A855F7" style="stroke:#A855F7;stroke:color(display-p3 0.6588 0.3333 0.9686);stroke-opacity:1;" stroke-width="5.637" stroke-linecap="round"/>
<path d="M277.751 227.531C284.211 221.071 291.665 226.537 292.162 227.531" stroke="#A855F7" style="stroke:#A855F7;stroke:color(display-p3 0.6588 0.3333 0.9686);stroke-opacity:1;" stroke-width="2.98139" stroke-linecap="round"/>
<path d="M350.085 226.822C356.545 220.362 363.999 225.828 364.496 226.822" stroke="#A855F7" style="stroke:#A855F7;stroke:color(display-p3 0.6588 0.3333 0.9686);stroke-opacity:1;" stroke-width="2.98139" stroke-linecap="round"/>
<circle cx="317.744" cy="249.603" r="3.62836" fill="#FF8D8D" style="fill:#FF8D8D;fill:color(display-p3 1.0000 0.5533 0.5533);fill-opacity:1;"/>
<path d="M311.131 245.824C317.372 252.065 324.573 246.784 325.053 245.824" stroke="#A855F7" style="stroke:#A855F7;stroke:color(display-p3 0.6588 0.3333 0.9686);stroke-opacity:1;" stroke-width="2.88032" stroke-linecap="round"/>
<path d="M314.116 247.427C315.567 243.073 321.372 244.524 321.372 247.427" stroke="#A855F7" style="stroke:#A855F7;stroke:color(display-p3 0.6588 0.3333 0.9686);stroke-opacity:1;" stroke-width="2.90269" stroke-linecap="round"/>
<path d="M322.099 248.878C322.099 253.958 314.116 255.409 313.391 248.878" stroke="#A855F7" style="stroke:#A855F7;stroke:color(display-p3 0.6588 0.3333 0.9686);stroke-opacity:1;" stroke-width="2.90269" stroke-linecap="round"/>
<circle cx="380.878" cy="241.621" r="7.25672" fill="#FFD4D4" style="fill:#FFD4D4;fill:color(display-p3 1.0000 0.8300 0.8300);fill-opacity:1;"/>
<circle cx="258.965" cy="241.621" r="7.25672" fill="#FFD4D4" style="fill:#FFD4D4;fill:color(display-p3 1.0000 0.8300 0.8300);fill-opacity:1;"/>
<g clip-path="url(#clip0_71_1788)">
<path d="M346.056 337.978C345.601 339.188 345.181 342.945 346.221 344.839L346.159 346.795C346.159 346.795 347 347.801 348.401 347.845C350.673 347.916 354.021 347.531 355.611 347.581C357.164 347.629 360.572 348.96 363.986 347.647C364.254 347.557 364.524 347.419 364.791 347.378C365.403 347.202 366.513 346.845 366.977 346.565C367.557 346.192 368.123 343.859 365.389 342.794C362.617 341.728 360.764 340.397 360.764 340.397L359.945 342.33C359.945 342.33 348.24 339.662 346.056 337.978Z" fill="#FFE100" style="fill:#FFE100;fill:color(display-p3 1.0000 0.8824 0.0000);fill-opacity:1;"/>
<path d="M364.047 345.689C364.315 345.6 364.585 345.461 364.89 345.422C365.502 345.245 366.612 344.888 367.038 344.608C367.038 344.608 367.153 344.562 367.27 344.468C367.023 343.873 366.437 343.218 365.351 342.792C362.617 341.727 360.763 340.396 360.763 340.396L359.945 342.329C359.613 343.249 359.484 344.959 359.445 346.182C360.843 346.324 362.435 346.325 364.047 345.689Z" fill="#E4667F" style="fill:#E4667F;fill:color(display-p3 0.8941 0.4000 0.4980);fill-opacity:1;"/>
<path d="M346.16 346.795C346.16 346.795 347 347.801 348.401 347.845C350.673 347.916 354.021 347.531 355.611 347.581C357.164 347.629 360.572 348.96 363.986 347.647C364.255 347.557 364.524 347.419 364.791 347.378C365.403 347.201 366.513 346.844 366.977 346.565C367.325 346.331 367.657 345.411 367.27 344.469C367.115 344.562 367.038 344.608 367.038 344.608C366.612 344.889 365.464 345.245 364.852 345.421C364.584 345.511 364.316 345.6 364.048 345.69C360.633 347.003 357.225 345.672 355.673 345.624C354.082 345.574 350.734 345.959 348.462 345.888C347.061 345.844 346.221 344.838 346.221 344.838L346.16 346.795Z" fill="#FDCC00" style="fill:#FDCC00;fill:color(display-p3 0.9922 0.8000 0.0000);fill-opacity:1;"/>
<path d="M347.296 346.831L347.357 344.874C346.462 343.181 346.672 340.103 347.062 338.548C346.614 338.338 346.279 338.132 346.056 337.978C345.601 339.188 345.181 342.945 346.221 344.839L346.159 346.795C346.159 346.795 347 347.801 348.401 347.845C348.666 347.853 348.969 347.863 349.272 347.872C348.027 347.686 347.296 346.831 347.296 346.831Z" fill="white" style="fill:white;fill-opacity:1;"/>
<path d="M347.296 346.831L347.334 345.608C346.623 345.292 346.221 344.838 346.221 344.838L346.159 346.795C346.159 346.795 347 347.801 348.401 347.845C348.666 347.853 348.969 347.863 349.272 347.872C348.027 347.686 347.296 346.831 347.296 346.831Z" fill="white" style="fill:white;fill-opacity:1;"/>
<path d="M365.389 342.794C362.655 341.729 360.802 340.397 360.802 340.397L360.558 340.928C361.377 341.395 362.643 342.12 364.253 342.758C366.987 343.823 366.459 346.157 365.841 346.529C365.26 346.903 363.273 347.428 363.273 347.428C362.119 347.98 360.899 348.187 359.761 348.2C361.199 348.294 362.832 348.198 364.445 347.514C364.445 347.514 366.395 346.987 367.013 346.615C367.595 346.193 368.161 343.86 365.389 342.794Z" fill="#DD3859" style="fill:#DD3859;fill:color(display-p3 0.8667 0.2196 0.3490);fill-opacity:1;"/>
<path d="M367.307 344.47C367.153 344.563 367.076 344.61 367.076 344.61C366.921 344.703 366.651 344.841 366.344 344.979C366.472 345.717 366.187 346.345 365.877 346.58C365.297 346.954 363.309 347.479 363.309 347.479C362.118 347.98 360.899 348.187 359.761 348.2C361.199 348.294 362.832 348.199 364.445 347.514C364.445 347.514 366.395 346.988 367.013 346.615C367.363 346.333 367.695 345.413 367.307 344.47Z" fill="#FFA800" style="fill:#FFA800;fill:color(display-p3 1.0000 0.6588 0.0000);fill-opacity:1;"/>
<path d="M348.386 348.334C346.833 348.285 345.92 347.179 345.884 347.129C345.81 347.078 345.777 346.93 345.781 346.783L345.838 344.973C344.768 342.834 345.267 338.981 345.722 337.771C345.764 337.625 345.843 337.53 345.957 337.533C346.072 337.488 346.186 337.491 346.26 337.543C348.185 339.023 358.005 341.338 359.735 341.784L360.429 340.19C360.47 340.093 360.549 339.998 360.664 339.952C360.779 339.907 360.893 339.91 360.967 339.962C360.967 339.962 362.821 341.293 365.48 342.306C367.428 343.053 367.803 344.387 367.818 345.122C367.867 346.005 367.503 346.728 367.115 347.01C366.689 347.29 365.654 347.65 364.852 347.869C364.583 347.959 364.353 348.05 364.085 348.139C362.896 348.592 361.676 348.798 360.275 348.754C359.063 348.717 357.934 348.485 357.066 348.36C356.502 348.196 355.975 348.081 355.596 348.069L355.559 348.068C354.839 348.046 353.738 348.109 352.561 348.17C351.193 348.274 349.636 348.373 348.386 348.334ZM346.546 346.562C346.804 346.815 347.47 347.326 348.417 347.355C349.628 347.393 351.186 347.295 352.516 347.19C353.693 347.128 354.794 347.065 355.551 347.089L355.627 347.091C356.044 347.104 356.571 347.219 357.173 347.335C358.04 347.509 359.133 347.69 360.307 347.727C361.633 347.769 362.775 347.609 363.849 347.201C364.155 347.113 364.425 346.975 364.693 346.885C365.726 346.575 366.493 346.305 366.764 346.117C366.879 346.072 367.081 345.687 367.02 345.195C366.998 344.705 366.722 343.814 365.186 343.228C363.089 342.428 361.527 341.448 360.858 341.036L360.205 342.533C360.123 342.727 359.968 342.82 359.818 342.766C359.441 342.705 349.166 340.376 346.263 338.669C345.915 340.078 345.708 343.059 346.533 344.554C346.568 344.653 346.603 344.752 346.6 344.85L346.546 346.562L346.546 346.562Z" fill="#A855F7" style="fill:#A855F7;fill:color(display-p3 0.6588 0.3333 0.9686);fill-opacity:1;"/>
<path d="M348.386 348.334C346.833 348.285 345.92 347.179 345.884 347.129C345.81 347.078 345.776 346.93 345.781 346.783L345.842 344.826C345.848 344.631 345.93 344.437 346.083 344.393C346.238 344.3 346.388 344.354 346.498 344.455C346.498 344.455 347.266 345.361 348.478 345.399C349.69 345.436 351.247 345.338 352.577 345.233C353.754 345.172 354.855 345.108 355.612 345.132L355.688 345.134C356.105 345.147 356.632 345.262 357.235 345.379C358.101 345.553 359.195 345.734 360.368 345.771C361.694 345.812 362.836 345.652 363.91 345.245C364.178 345.155 364.486 345.018 364.754 344.928C365.787 344.618 366.554 344.348 366.825 344.161C366.825 344.161 366.94 344.115 367.095 344.022C367.287 343.93 367.475 343.985 367.581 344.233C367.829 344.78 367.847 345.417 367.715 346C367.588 346.437 367.386 346.823 367.115 347.01C366.689 347.29 365.654 347.65 364.851 347.87C364.583 347.959 364.353 348.05 364.085 348.139C362.896 348.592 361.676 348.799 360.275 348.755C359.063 348.717 357.933 348.486 357.066 348.361C356.502 348.196 355.975 348.082 355.596 348.07L355.558 348.069C354.839 348.046 353.738 348.11 352.561 348.171C351.193 348.275 349.636 348.373 348.386 348.334ZM346.546 346.562C346.803 346.815 347.47 347.326 348.417 347.355C349.628 347.393 351.185 347.295 352.515 347.19C353.692 347.129 354.794 347.065 355.551 347.089L355.627 347.091C356.043 347.104 356.571 347.219 357.173 347.336C358.04 347.51 359.133 347.691 360.307 347.727C361.633 347.769 362.775 347.609 363.849 347.202C364.155 347.113 364.425 346.975 364.693 346.885C365.726 346.575 366.492 346.305 366.764 346.118C366.803 346.07 366.921 345.927 367.005 345.684C367.047 345.539 367.053 345.343 367.023 345.097C366.522 345.375 365.604 345.641 364.914 345.864C364.646 345.953 364.416 346.044 364.148 346.134C362.996 346.587 361.741 346.744 360.339 346.7C359.128 346.662 357.998 346.431 357.13 346.306C356.563 346.239 356.036 346.125 355.658 346.113L355.62 346.112C354.9 346.089 353.799 346.153 352.622 346.214C351.254 346.318 349.697 346.416 348.447 346.377C347.652 346.352 346.98 346.037 346.572 345.731L346.546 346.562L346.546 346.562Z" fill="#A855F7" style="fill:#A855F7;fill:color(display-p3 0.6588 0.3333 0.9686);fill-opacity:1;"/>
<path d="M360.376 346.75C360.035 346.739 359.732 346.73 359.431 346.671C359.241 346.665 359.06 346.415 359.105 346.171C359.203 344.265 359.359 342.898 359.649 342.124L360.469 340.142C360.51 340.045 360.589 339.95 360.704 339.904C360.78 339.907 360.893 339.91 360.967 339.962C360.967 339.962 362.821 341.293 365.481 342.306C366.567 342.732 367.268 343.342 367.62 344.185C367.655 344.284 367.688 344.432 367.646 344.578C367.604 344.723 367.525 344.819 367.447 344.865L367.216 345.005C366.79 345.285 365.755 345.645 364.952 345.865C364.722 345.955 364.454 346.045 364.224 346.136L364.146 346.182C362.997 346.587 361.777 346.794 360.376 346.75ZM359.839 345.754C360.028 345.76 360.179 345.764 360.369 345.77C361.694 345.812 362.836 345.652 363.91 345.244L363.988 345.198C364.256 345.108 364.486 345.018 364.754 344.928C365.634 344.662 366.286 344.437 366.671 344.253C366.38 343.853 365.86 343.494 365.223 343.278C363.125 342.478 361.564 341.498 360.894 341.086L360.241 342.583C360.073 343.117 359.925 344.189 359.839 345.754Z" fill="#A855F7" style="fill:#A855F7;fill:color(display-p3 0.6588 0.3333 0.9686);fill-opacity:1;"/>
</g>
<g clip-path="url(#clip1_71_1788)">
<path d="M287.751 337.914C288.206 339.124 288.626 342.881 287.586 344.775L287.648 346.731C287.648 346.731 286.807 347.737 285.406 347.781C283.134 347.852 279.786 347.467 278.196 347.517C276.643 347.565 273.236 348.896 269.821 347.583C269.553 347.493 269.283 347.355 269.016 347.314C268.404 347.138 267.294 346.781 266.83 346.501C266.25 346.128 265.684 343.795 268.418 342.73C271.19 341.664 273.043 340.333 273.043 340.333L273.862 342.266C273.862 342.266 285.567 339.598 287.751 337.914Z" fill="#FFE100" style="fill:#FFE100;fill:color(display-p3 1.0000 0.8824 0.0000);fill-opacity:1;"/>
<path d="M269.76 345.625C269.492 345.536 269.222 345.397 268.918 345.358C268.306 345.181 267.195 344.824 266.769 344.544C266.769 344.544 266.654 344.498 266.538 344.404C266.784 343.809 267.37 343.154 268.456 342.728C271.19 341.663 273.044 340.332 273.044 340.332L273.862 342.265C274.194 343.185 274.324 344.895 274.362 346.118C272.964 346.26 271.372 346.261 269.76 345.625Z" fill="#E4667F" style="fill:#E4667F;fill:color(display-p3 0.8941 0.4000 0.4980);fill-opacity:1;"/>
<path d="M287.648 346.731C287.648 346.731 286.807 347.737 285.406 347.781C283.134 347.852 279.786 347.467 278.196 347.517C276.643 347.565 273.235 348.896 269.821 347.583C269.553 347.493 269.283 347.355 269.016 347.314C268.404 347.137 267.294 346.78 266.83 346.501C266.482 346.267 266.15 345.347 266.537 344.405C266.692 344.498 266.769 344.544 266.769 344.544C267.195 344.825 268.343 345.181 268.955 345.357C269.223 345.447 269.491 345.536 269.76 345.626C273.174 346.939 276.582 345.608 278.135 345.56C279.725 345.51 283.073 345.895 285.345 345.824C286.746 345.78 287.586 344.774 287.586 344.774L287.648 346.731Z" fill="#FDCC00" style="fill:#FDCC00;fill:color(display-p3 0.9922 0.8000 0.0000);fill-opacity:1;"/>
<path d="M286.512 346.767L286.45 344.81C287.345 343.117 287.135 340.039 286.745 338.484C287.194 338.274 287.528 338.068 287.751 337.914C288.206 339.124 288.626 342.881 287.586 344.775L287.648 346.731C287.648 346.731 286.807 347.737 285.406 347.781C285.141 347.789 284.838 347.799 284.535 347.808C285.78 347.622 286.512 346.767 286.512 346.767Z" fill="white" style="fill:white;fill-opacity:1;"/>
<path d="M286.512 346.767L286.473 345.544C287.184 345.228 287.586 344.774 287.586 344.774L287.648 346.731C287.648 346.731 286.807 347.737 285.406 347.781C285.141 347.789 284.838 347.799 284.535 347.808C285.78 347.622 286.512 346.767 286.512 346.767Z" fill="white" style="fill:white;fill-opacity:1;"/>
<path d="M268.418 342.73C271.152 341.665 273.006 340.333 273.006 340.333L273.25 340.865C272.43 341.331 271.164 342.056 269.554 342.694C266.82 343.759 267.348 346.093 267.966 346.465C268.547 346.839 270.534 347.364 270.534 347.364C271.689 347.916 272.908 348.123 274.046 348.136C272.608 348.23 270.975 348.134 269.362 347.45C269.362 347.45 267.412 346.923 266.794 346.551C266.212 346.129 265.647 343.796 268.418 342.73Z" fill="#DD3859" style="fill:#DD3859;fill:color(display-p3 0.8667 0.2196 0.3490);fill-opacity:1;"/>
<path d="M266.5 344.406C266.655 344.499 266.732 344.545 266.732 344.545C266.886 344.638 267.156 344.777 267.464 344.914C267.335 345.653 267.62 346.28 267.931 346.515C268.511 346.889 270.499 347.415 270.499 347.415C271.689 347.916 272.909 348.123 274.046 348.136C272.609 348.23 270.976 348.134 269.363 347.45C269.363 347.45 267.413 346.923 266.795 346.551C266.445 346.268 266.113 345.348 266.5 344.406Z" fill="#FFA800" style="fill:#FFA800;fill:color(display-p3 1.0000 0.6588 0.0000);fill-opacity:1;"/>
<path d="M285.421 348.27C286.974 348.221 287.887 347.115 287.923 347.065C287.997 347.014 288.031 346.866 288.026 346.719L287.969 344.909C289.04 342.77 288.54 338.917 288.085 337.707C288.043 337.561 287.964 337.466 287.85 337.469C287.735 337.424 287.622 337.427 287.547 337.479C285.623 338.959 275.802 341.274 274.072 341.72L273.378 340.126C273.337 340.029 273.258 339.934 273.143 339.888C273.028 339.843 272.914 339.846 272.84 339.898C272.84 339.898 270.986 341.229 268.327 342.242C266.379 342.989 266.004 344.323 265.989 345.058C265.941 345.941 266.304 346.664 266.692 346.946C267.118 347.226 268.153 347.586 268.956 347.805C269.224 347.895 269.454 347.986 269.722 348.075C270.911 348.528 272.131 348.734 273.532 348.69C274.744 348.653 275.874 348.421 276.741 348.296C277.305 348.132 277.832 348.017 278.211 348.005L278.249 348.004C278.968 347.982 280.069 348.045 281.246 348.106C282.614 348.211 284.171 348.309 285.421 348.27ZM287.261 346.498C287.004 346.751 286.337 347.262 285.391 347.291C284.179 347.329 282.622 347.231 281.292 347.126C280.115 347.064 279.013 347.001 278.256 347.025L278.18 347.027C277.764 347.04 277.237 347.155 276.634 347.271C275.767 347.445 274.674 347.626 273.5 347.663C272.174 347.705 271.032 347.545 269.958 347.137C269.652 347.049 269.382 346.911 269.114 346.821C268.081 346.511 267.315 346.241 267.043 346.053C266.928 346.008 266.727 345.623 266.787 345.131C266.81 344.641 267.085 343.75 268.621 343.164C270.718 342.364 272.28 341.384 272.949 340.972L273.603 342.469C273.684 342.663 273.839 342.756 273.989 342.702C274.366 342.641 284.641 340.312 287.545 338.605C287.892 340.015 288.099 342.995 287.274 344.49C287.239 344.589 287.204 344.688 287.207 344.786L287.261 346.498L287.261 346.498Z" fill="#A855F7" style="fill:#A855F7;fill:color(display-p3 0.6588 0.3333 0.9686);fill-opacity:1;"/>
<path d="M285.421 348.27C286.974 348.221 287.887 347.115 287.923 347.065C287.997 347.014 288.031 346.866 288.026 346.719L287.965 344.762C287.959 344.567 287.877 344.373 287.724 344.329C287.569 344.236 287.419 344.29 287.309 344.391C287.309 344.391 286.541 345.297 285.329 345.335C284.118 345.372 282.56 345.274 281.23 345.169C280.053 345.108 278.952 345.044 278.195 345.068L278.119 345.07C277.703 345.084 277.175 345.198 276.573 345.315C275.706 345.489 274.613 345.67 273.439 345.707C272.113 345.748 270.971 345.588 269.897 345.181C269.629 345.091 269.321 344.954 269.053 344.864C268.02 344.554 267.253 344.284 266.982 344.097C266.982 344.097 266.867 344.051 266.713 343.958C266.52 343.866 266.332 343.921 266.226 344.169C265.978 344.716 265.96 345.353 266.092 345.936C266.22 346.373 266.421 346.759 266.692 346.946C267.118 347.226 268.153 347.586 268.956 347.806C269.224 347.895 269.454 347.986 269.722 348.075C270.911 348.528 272.131 348.735 273.532 348.691C274.744 348.653 275.874 348.422 276.742 348.297C277.305 348.132 277.832 348.018 278.211 348.006L278.249 348.005C278.968 347.982 280.069 348.046 281.246 348.107C282.614 348.211 284.172 348.309 285.421 348.27ZM287.261 346.498C287.004 346.751 286.337 347.262 285.391 347.291C284.179 347.329 282.622 347.231 281.292 347.126C280.115 347.065 279.013 347.001 278.256 347.025L278.18 347.027C277.764 347.04 277.237 347.155 276.634 347.272C275.767 347.446 274.674 347.627 273.5 347.663C272.174 347.705 271.032 347.545 269.958 347.138C269.652 347.049 269.383 346.911 269.114 346.821C268.081 346.511 267.315 346.241 267.043 346.054C267.004 346.006 266.886 345.863 266.802 345.62C266.76 345.475 266.754 345.279 266.784 345.033C267.286 345.312 268.204 345.577 268.893 345.8C269.161 345.889 269.391 345.98 269.659 346.07C270.811 346.523 272.067 346.68 273.468 346.636C274.679 346.598 275.809 346.367 276.677 346.242C277.244 346.175 277.771 346.061 278.15 346.049L278.187 346.048C278.907 346.025 280.008 346.089 281.185 346.15C282.553 346.254 284.11 346.352 285.36 346.313C286.155 346.288 286.828 345.973 287.235 345.667L287.261 346.498L287.261 346.498Z" fill="#A855F7" style="fill:#A855F7;fill:color(display-p3 0.6588 0.3333 0.9686);fill-opacity:1;"/>
<path d="M273.432 346.686C273.772 346.676 274.075 346.666 274.377 346.608C274.566 346.602 274.748 346.351 274.702 346.108C274.605 344.201 274.448 342.835 274.159 342.06L273.339 340.078C273.298 339.982 273.219 339.886 273.104 339.841C273.028 339.843 272.914 339.847 272.84 339.898C272.84 339.898 270.987 341.229 268.327 342.243C267.241 342.669 266.54 343.278 266.187 344.122C266.152 344.221 266.119 344.369 266.162 344.514C266.204 344.66 266.283 344.755 266.36 344.802L266.592 344.942C267.018 345.222 268.052 345.581 268.855 345.801C269.086 345.892 269.354 345.981 269.584 346.072L269.661 346.119C270.811 346.523 272.03 346.73 273.432 346.686ZM273.969 345.69C273.78 345.696 273.628 345.701 273.439 345.707C272.113 345.748 270.971 345.588 269.897 345.181L269.82 345.134C269.552 345.045 269.322 344.954 269.053 344.865C268.173 344.598 267.522 344.374 267.137 344.19C267.428 343.789 267.947 343.43 268.585 343.214C270.682 342.414 272.244 341.435 272.913 341.022L273.567 342.52C273.735 343.053 273.882 344.126 273.969 345.69Z" fill="#A855F7" style="fill:#A855F7;fill:color(display-p3 0.6588 0.3333 0.9686);fill-opacity:1;"/>
</g>
<path d="M268.704 178.257C269.094 175.341 269.879 171.821 271.301 167.603C272.198 167.07 277.526 164.102 281.829 162.054C287.208 159.495 327.102 145.098 366.997 164.614C370.796 168.933 377.22 180.044 374.359 191.586C374.107 192.605 372.849 192.914 372.008 192.284C361.061 184.098 347.202 192.526 328.895 187.969C309.62 183.17 320.379 172.292 300.207 171.332C290.239 170.858 282.153 175.568 276.581 180.771C273.631 183.527 268.167 182.259 268.704 178.257Z" fill="#D8B21A" stroke="#BB9910" style="fill:#D8B21A;fill:color(display-p3 0.8466 0.6976 0.1016);fill-opacity:1;stroke:#BB9910;stroke:color(display-p3 0.7333 0.5993 0.0636);stroke-opacity:1;" stroke-width="4.35403" stroke-linecap="round"/>
<path d="M281.433 140.32C271.311 139.011 251.842 149.812 268.133 169.251C270.979 172.647 276.195 172.24 279.542 169.336C282.849 166.468 286.982 163.532 291.09 162.103C299.674 159.118 338.063 153.648 360.038 172.011C362.189 173.808 365.003 174.895 367.684 174.077C388.751 167.653 378.714 142.184 359.261 143.797C357.859 143.914 356.663 142.297 357.145 140.975C362.279 126.903 345.936 115.349 328.165 125.806C327.161 126.397 325.821 125.808 325.526 124.68C319.948 103.348 284.49 106.485 285.236 137.471C285.272 138.969 282.919 140.512 281.433 140.32Z" fill="#D8B21A" stroke="#BB9910" style="fill:#D8B21A;fill:color(display-p3 0.8466 0.6976 0.1016);fill-opacity:1;stroke:#BB9910;stroke:color(display-p3 0.7333 0.5993 0.0636);stroke-opacity:1;" stroke-width="5.49501" stroke-linecap="round"/>
<path d="M204.945 265.852C227.211 269.873 229.266 297.181 225.757 311.802" stroke="#A855F7" style="stroke:#A855F7;stroke:color(display-p3 0.6588 0.3333 0.9686);stroke-opacity:1;" stroke-width="5.637" stroke-linecap="round"/>
<path d="M24.8207 263.284C0.585129 280.805 14.8867 324.274 18.131 318.821" stroke="#A855F7" style="stroke:#A855F7;stroke:color(display-p3 0.6588 0.3333 0.9686);stroke-opacity:1;" stroke-width="5.637" stroke-linecap="round"/>
<path d="M80.3452 330.131L82.694 368.181L70.4805 373.818" stroke="#A855F7" style="stroke:#A855F7;stroke:color(display-p3 0.6588 0.3333 0.9686);stroke-opacity:1;" stroke-width="5.637" stroke-linecap="round"/>
<path d="M148.928 330.601L146.579 368.651L158.793 374.288" stroke="#A855F7" style="stroke:#A855F7;stroke:color(display-p3 0.6588 0.3333 0.9686);stroke-opacity:1;" stroke-width="5.637" stroke-linecap="round"/>
<path d="M130.608 279.868C130.608 308.406 107.474 331.541 78.9357 331.541C50.3978 331.541 27.2632 308.406 27.2632 279.868C27.2632 251.33 50.3978 228.196 78.9357 228.196C107.474 228.196 130.608 251.33 130.608 279.868Z" fill="#F6EDFF" style="fill:#F6EDFF;fill:color(display-p3 0.9655 0.9292 1.0000);fill-opacity:1;"/>
<path d="M208.587 279.868C208.587 308.406 185.452 331.541 156.914 331.541C128.376 331.541 105.242 308.406 105.242 279.868C105.242 251.33 128.376 228.196 156.914 228.196C185.452 228.196 208.587 251.33 208.587 279.868Z" fill="#F6EDFF" style="fill:#F6EDFF;fill:color(display-p3 0.9655 0.9292 1.0000);fill-opacity:1;"/>
<path d="M170.067 223.498C170.067 252.036 146.933 275.171 118.395 275.171C89.8568 275.171 66.7222 252.036 66.7222 223.498C66.7222 194.96 89.8568 171.826 118.395 171.826C146.933 171.826 170.067 194.96 170.067 223.498Z" fill="#F6EDFF" style="fill:#F6EDFF;fill:color(display-p3 0.9655 0.9292 1.0000);fill-opacity:1;"/>
<path d="M67.1927 229.604C62.0252 177.462 104.303 172.295 122.623 172.295C136.716 172.295 174.296 181.69 169.129 229.604" stroke="#A855F7" style="stroke:#A855F7;stroke:color(display-p3 0.6588 0.3333 0.9686);stroke-opacity:1;" stroke-width="5.637" stroke-linecap="round"/>
<path d="M169.597 230.545C223.619 240.796 208.181 292.805 204.829 300.068C196.373 318.389 161.611 348.453 119.332 315.1" stroke="#A855F7" style="stroke:#A855F7;stroke:color(display-p3 0.6588 0.3333 0.9686);stroke-opacity:1;" stroke-width="5.637" stroke-linecap="round"/>
<path d="M118.394 314.16C60.1454 353.619 30.3488 306.174 26.3227 293.021C19.2771 270.003 32.8998 234.302 67.1911 230.544" stroke="#A855F7" style="stroke:#A855F7;stroke:color(display-p3 0.6588 0.3333 0.9686);stroke-opacity:1;" stroke-width="5.637" stroke-linecap="round"/>
<circle cx="81.7552" cy="272.567" r="14.5623" stroke="#A855F7" style="stroke:#A855F7;stroke:color(display-p3 0.6588 0.3333 0.9686);stroke-opacity:1;" stroke-width="4.6975"/>
<circle cx="153.156" cy="272.567" r="14.5623" stroke="#A855F7" style="stroke:#A855F7;stroke:color(display-p3 0.6588 0.3333 0.9686);stroke-opacity:1;" stroke-width="4.6975"/>
<path d="M96.7866 272.566C108.53 258.943 130.609 262.701 137.655 272.566" stroke="#A855F7" style="stroke:#A855F7;stroke:color(display-p3 0.6588 0.3333 0.9686);stroke-opacity:1;" stroke-width="5.637" stroke-linecap="round"/>
<path d="M89.7993 272.326C83.3396 278.785 75.8862 273.32 75.3893 272.326" stroke="#A855F7" style="stroke:#A855F7;stroke:color(display-p3 0.6588 0.3333 0.9686);stroke-opacity:1;" stroke-width="2.98139" stroke-linecap="round"/>
<path d="M162.133 271.617C155.673 278.076 148.22 272.611 147.723 271.617" stroke="#A855F7" style="stroke:#A855F7;stroke:color(display-p3 0.6588 0.3333 0.9686);stroke-opacity:1;" stroke-width="2.98139" stroke-linecap="round"/>
<path d="M97.7261 215.171C99.6051 231.613 117.104 228.772 122.153 224.097C134.836 212.353 120.744 204.367 114.637 209.065C100.514 219.928 124.032 233.961 134.367 225.506" stroke="#A855F7" style="stroke:#A855F7;stroke:color(display-p3 0.6588 0.3333 0.9686);stroke-opacity:1;" stroke-width="5.637" stroke-linecap="round"/>
<path d="M122.69 296.724C116.45 290.484 109.249 295.764 108.769 296.724" stroke="#A855F7" style="stroke:#A855F7;stroke:color(display-p3 0.6588 0.3333 0.9686);stroke-opacity:1;" stroke-width="2.88032" stroke-linecap="round"/>
<defs>
<clipPath id="clip0_71_1788">
<rect width="22.7381" height="11.4563" fill="white" style="fill:white;fill-opacity:1;" transform="translate(345.339 336.821) rotate(1.79196)"/>
</clipPath>
<clipPath id="clip1_71_1788">
<rect width="22.7381" height="11.4563" fill="white" style="fill:white;fill-opacity:1;" transform="matrix(-0.999511 0.0312705 0.0312705 0.999511 288.468 336.757)"/>
</clipPath>
</defs>
</svg>
