<svg width="446" height="446" viewBox="0 0 446 446" fill="none" xmlns="http://www.w3.org/2000/svg">
<g clip-path="url(#clip0_65_922)">
<path d="M384.704 57.4619L355.34 68.9944L337.509 87.348V110.393C336.74 110.358 332.466 110.23 327.021 110.106V105.179C327.021 102.033 324.923 99.9354 321.777 99.9354C318.63 99.9354 316.533 102.033 316.533 105.179V110.003C311.378 109.992 306.15 110.08 300.801 110.29V105.179C300.801 102.033 298.704 99.9354 295.557 99.9354C292.411 99.9354 290.313 102.033 290.313 105.179V110.792C282.579 111.212 275.606 111.75 269.338 112.379V105.179C269.338 102.033 267.24 99.9353 264.094 99.9353C260.948 99.9353 258.85 102.033 258.85 105.179V113.516C251.546 114.417 245.748 115.281 242.842 115.728H242.821L242.791 115.739C240.919 116.045 239.638 116.334 237.874 116.64V107.279C237.874 104.133 235.777 102.035 232.631 102.035C229.484 102.035 227.387 104.133 227.387 107.279V118.576C215.159 120.956 206.503 123.012 201.167 124.465V113.568C201.167 110.421 199.07 108.324 195.923 108.324C192.777 108.324 190.679 110.421 190.679 113.568V175.972C194.35 173.35 197.497 170.726 201.167 168.628V135.301C205.519 134.05 214.342 131.802 227.387 129.217V151.33C227.387 152.378 227.909 152.903 227.909 153.952C231.055 152.379 234.204 151.324 237.874 150.275V127.302C240.197 126.891 241.958 126.499 244.491 126.083C247.235 125.661 252.466 124.894 258.85 124.086V142.931V143.986H259.372C262.519 142.938 265.667 141.891 269.338 140.842V122.919C275.545 122.282 282.545 121.731 290.313 121.3V136.121C293.46 135.596 297.131 135.068 300.801 134.543V120.778C306.088 120.563 311.337 120.479 316.533 120.491V132.444C318.106 132.444 319.683 131.921 320.732 131.921H327.021V120.593C332.355 120.716 337.002 120.859 337.509 120.88V131.399C344.326 131.399 350.618 131.397 358.484 131.921V105.179C358.484 102.033 360.582 99.9353 363.728 99.9353H405.679C408.825 99.9353 410.923 102.033 410.923 105.179V135.598C417.74 136.122 425.082 137.171 431.899 138.22V87.3479L414.067 69.5166L384.704 57.4619ZM384.704 78.9598C387.85 78.9598 389.947 81.0574 389.947 84.2037C389.947 87.3501 387.85 89.4476 384.704 89.4476C381.557 89.4476 379.46 87.3501 379.46 84.2037C379.46 81.0574 381.557 78.9598 384.704 78.9598ZM334.364 142.931C312.34 153.419 290.84 165.488 271.437 180.171C243.12 200.622 219.523 224.214 192.779 257.775L190.679 259.874V293.96H237.352L237.874 292.382C241.021 283.992 263.565 239.949 291.358 206.913C315.48 178.071 339.084 157.098 357.962 143.464C349.047 142.939 341.706 142.931 334.364 142.931ZM375.793 144.508C357.439 154.996 328.598 178.592 299.757 213.201C273.537 245.189 253.08 283.996 248.885 293.96H306.045L306.567 292.382C316.531 262.492 329.643 234.177 345.374 207.958C361.63 181.738 379.462 159.712 392.047 145.553C386.803 145.029 381.561 145.033 375.793 144.508ZM307.09 145.031C287.687 147.653 272.48 151.852 262.517 154.474C246.261 159.194 233.675 162.86 217.944 171.25C209.553 175.97 201.165 181.212 193.824 187.504L190.679 190.126V243.62C215.85 213.206 238.395 191.7 265.139 171.773C278.248 161.809 292.407 153.421 307.09 145.031ZM405.157 146.086C393.096 159.72 372.114 183.311 354.285 213.202C339.078 238.372 326.494 265.643 317.055 293.96H368.45L368.972 292.915C374.216 269.317 381.029 246.238 388.37 223.689C396.761 197.994 407.254 172.299 418.267 147.653C414.072 147.128 409.876 146.61 405.157 146.086ZM428.754 149.23C417.218 174.401 406.728 200.614 397.813 226.834C390.472 248.858 384.181 271.411 378.937 293.96H431.899V149.23L428.754 149.23Z" fill="black" style="fill:black;fill-opacity:1;"/>
<path d="M384.525 57.4146L355.162 68.947L337.33 87.3007V110.345C336.562 110.311 332.288 110.182 326.842 110.058V105.132C326.842 101.986 324.745 99.888 321.599 99.888C318.452 99.888 316.355 101.986 316.355 105.132V109.956C311.199 109.945 305.972 110.032 300.623 110.243V105.132C300.623 101.986 298.525 99.8881 295.379 99.8881C292.233 99.8881 290.135 101.986 290.135 105.132V110.745C282.4 111.165 275.428 111.703 269.16 112.332V105.132C269.16 101.986 267.062 99.888 263.916 99.888C260.769 99.888 258.672 101.986 258.672 105.132V113.469C251.368 114.37 245.57 115.234 242.664 115.681H242.643L242.612 115.691C240.741 115.998 239.46 116.286 237.696 116.593V107.232C237.696 104.085 235.599 101.988 232.452 101.988C229.306 101.988 227.208 104.085 227.208 107.232V118.528C214.98 120.908 206.325 122.965 200.989 124.418V113.52C200.989 110.374 198.891 108.276 195.745 108.276C192.599 108.276 190.501 110.374 190.501 113.52V175.925C194.172 173.303 197.318 170.679 200.989 168.581V135.254C205.341 134.003 214.164 131.754 227.208 129.17V151.282C227.208 152.331 227.731 152.856 227.731 153.904C230.877 152.331 234.026 151.276 237.696 150.227V127.255C240.019 126.843 241.78 126.451 244.313 126.036C247.057 125.614 252.288 124.846 258.672 124.039V142.884V143.939H259.194C262.341 142.89 265.489 141.843 269.16 140.795V122.871C275.367 122.235 282.367 121.684 290.135 121.253V136.073C293.282 135.549 296.952 135.02 300.623 134.496V120.731C305.909 120.516 311.159 120.432 316.355 120.444V132.396C317.928 132.396 319.505 131.874 320.554 131.874H326.842V120.546C332.177 120.669 336.824 120.811 337.33 120.833V131.351C344.147 131.351 350.44 131.349 358.306 131.874V105.132C358.306 101.986 360.403 99.888 363.55 99.888H405.501C408.647 99.888 410.745 101.986 410.745 105.132V135.551C417.562 136.075 424.903 137.124 431.72 138.173V87.3006L413.889 69.4693L384.525 57.4146ZM384.525 78.9125C387.672 78.9125 389.769 81.01 389.769 84.1564C389.769 87.3027 387.672 89.4003 384.525 89.4003C381.379 89.4003 379.281 87.3027 379.281 84.1564C379.281 81.01 381.379 78.9125 384.525 78.9125Z" fill="#A33636" style="fill:#A33636;fill:color(display-p3 0.6399 0.2112 0.2112);fill-opacity:1;"/>
<path d="M334.325 142.09C312.269 152.553 290.809 165.84 271.378 180.488C243.02 200.891 219.387 224.427 192.604 257.909L190.501 260.004V294.009H237.243L237.766 292.435C240.917 284.065 263.495 240.126 291.328 207.167C315.486 178.393 339.702 156.938 358.608 143.336C349.68 142.812 341.678 142.09 334.325 142.09ZM376.041 143.336C357.66 153.799 328.623 178.912 299.739 213.441C273.481 245.353 252.994 284.069 248.792 294.009H306.037L306.56 292.435C316.538 262.615 329.669 234.367 345.424 208.209C361.704 182.051 379.625 159.329 392.229 145.204C386.977 144.68 381.818 143.859 376.041 143.336ZM308.798 144.581C289.367 147.197 271.458 151.304 261.479 153.92C245.199 158.628 233.56 163.218 217.806 171.588C209.403 176.297 201.002 181.526 193.65 187.804L190.501 190.42V243.788C215.709 213.445 238.287 191.989 265.07 172.109C278.199 162.169 294.094 152.951 308.798 144.581ZM405.304 145.204C393.225 158.806 372.203 183.621 354.348 213.441C339.118 238.552 326.516 265.758 317.063 294.009H368.534L369.057 292.967C374.308 269.425 381.131 246.4 388.484 223.904C396.886 198.269 407.35 171.66 418.379 147.072C414.177 146.548 410.03 145.727 405.304 145.204ZM428.34 148.939C416.787 174.051 406.868 200.883 397.941 227.041C390.588 249.013 384.288 271.513 379.037 294.009H432.076V148.939H428.34Z" fill="#249234" style="fill:#249234;fill:color(display-p3 0.1403 0.5708 0.2049);fill-opacity:1;"/>
<path d="M79.0187 347.628L81.9607 395.288L66.6626 402.349" stroke="#A855F7" style="stroke:#A855F7;stroke:color(display-p3 0.6588 0.3333 0.9686);stroke-opacity:1;" stroke-width="7.06066" stroke-linecap="round"/>
<path d="M164.923 348.217L161.981 395.876L177.28 402.937" stroke="#A855F7" style="stroke:#A855F7;stroke:color(display-p3 0.6588 0.3333 0.9686);stroke-opacity:1;" stroke-width="7.06066" stroke-linecap="round"/>
<path d="M141.976 284.671C141.976 320.416 112.999 349.393 77.2537 349.393C41.5083 349.393 12.531 320.416 12.531 284.671C12.531 248.925 41.5083 219.948 77.2537 219.948C112.999 219.948 141.976 248.925 141.976 284.671Z" fill="#F6EDFF" style="fill:#F6EDFF;fill:color(display-p3 0.9655 0.9292 1.0000);fill-opacity:1;"/>
<path d="M239.649 284.671C239.649 320.416 210.671 349.393 174.926 349.393C139.181 349.393 110.203 320.416 110.203 284.671C110.203 248.925 139.181 219.948 174.926 219.948C210.671 219.948 239.649 248.925 239.649 284.671Z" fill="#F6EDFF" style="fill:#F6EDFF;fill:color(display-p3 0.9655 0.9292 1.0000);fill-opacity:1;"/>
<path d="M191.401 214.064C191.401 249.809 162.424 278.787 126.678 278.787C90.9329 278.787 61.9556 249.809 61.9556 214.064C61.9556 178.319 90.9329 149.341 126.678 149.341C162.424 149.341 191.401 178.319 191.401 214.064Z" fill="#F6EDFF" style="fill:#F6EDFF;fill:color(display-p3 0.9655 0.9292 1.0000);fill-opacity:1;"/>
<path d="M62.5444 221.714C56.0718 156.403 109.027 149.931 131.974 149.931C149.626 149.931 196.697 161.698 190.225 221.714" stroke="#A855F7" style="stroke:#A855F7;stroke:color(display-p3 0.6588 0.3333 0.9686);stroke-opacity:1;" stroke-width="7.06066" stroke-linecap="round"/>
<path d="M190.812 222.891C258.478 235.73 239.141 300.874 234.942 309.972C224.35 332.919 180.808 370.576 127.852 328.801" stroke="#A855F7" style="stroke:#A855F7;stroke:color(display-p3 0.6588 0.3333 0.9686);stroke-opacity:1;" stroke-width="7.06066" stroke-linecap="round"/>
<path d="M126.678 327.623C53.7181 377.047 16.3962 317.62 11.3534 301.145C2.52838 272.314 19.5914 227.597 62.5433 222.89" stroke="#A855F7" style="stroke:#A855F7;stroke:color(display-p3 0.6588 0.3333 0.9686);stroke-opacity:1;" stroke-width="7.06066" stroke-linecap="round"/>
<circle cx="80.7843" cy="251.721" r="18.24" stroke="#A855F7" style="stroke:#A855F7;stroke:color(display-p3 0.6588 0.3333 0.9686);stroke-opacity:1;" stroke-width="5.88388"/>
<circle cx="170.219" cy="251.721" r="18.24" stroke="#A855F7" style="stroke:#A855F7;stroke:color(display-p3 0.6588 0.3333 0.9686);stroke-opacity:1;" stroke-width="5.88388"/>
<path d="M99.6125 251.721C114.322 234.658 141.976 239.365 150.802 251.721" stroke="#A855F7" style="stroke:#A855F7;stroke:color(display-p3 0.6588 0.3333 0.9686);stroke-opacity:1;" stroke-width="7.06066" stroke-linecap="round"/>
<path d="M96.0818 284.799C104.448 277.942 112.592 285.253 113.062 286.482" stroke="#A855F7" style="stroke:#A855F7;stroke:color(display-p3 0.6588 0.3333 0.9686);stroke-opacity:1;" stroke-width="3.53033" stroke-linecap="round"/>
<path d="M158.451 214.193C166.817 207.335 174.962 214.646 175.431 215.875" stroke="#A855F7" style="stroke:#A855F7;stroke:color(display-p3 0.6588 0.3333 0.9686);stroke-opacity:1;" stroke-width="3.53033" stroke-linecap="round"/>
<circle cx="85.4908" cy="251.721" r="7.06066" fill="#A855F7" style="fill:#A855F7;fill:color(display-p3 0.6588 0.3333 0.9686);fill-opacity:1;"/>
<circle cx="171.396" cy="249.367" r="7.06066" fill="#A855F7" style="fill:#A855F7;fill:color(display-p3 0.6588 0.3333 0.9686);fill-opacity:1;"/>
<path d="M100.789 182.88C103.143 203.474 125.061 199.915 131.385 194.059C147.272 179.35 129.62 169.347 121.971 175.231C104.282 188.838 133.739 206.415 146.684 195.825" stroke="#A855F7" style="stroke:#A855F7;stroke:color(display-p3 0.6588 0.3333 0.9686);stroke-opacity:1;" stroke-width="7.06066" stroke-linecap="round"/>
<path d="M75.4885 222.89L91.375 218.183" stroke="#A855F7" style="stroke:#A855F7;stroke:color(display-p3 0.6588 0.3333 0.9686);stroke-opacity:1;" stroke-width="3.53033" stroke-linecap="round"/>
<path d="M173.263 369.488L153.704 369.928L154.596 409.606L186.17 408.896C185.979 404.52 185.069 394.719 182.962 390.517C180.854 386.315 175.857 385.365 173.621 385.415L173.263 369.488Z" fill="#FFD11A" stroke="#A855F7" style="fill:#FFD11A;fill:color(display-p3 1.0000 0.8207 0.1033);fill-opacity:1;stroke:#A855F7;stroke:color(display-p3 0.6588 0.3333 0.9686);stroke-opacity:1;" stroke-width="1.72472" stroke-linecap="round"/>
<path d="M173.511 385.816L173.156 370.015L153.841 370.449L154.551 402.052L186.155 401.341L186.076 397.828C186.002 394.569 184.637 391.473 182.281 389.22C179.925 386.967 176.77 385.743 173.511 385.816Z" stroke="#A855F7" style="stroke:#A855F7;stroke:color(display-p3 0.6588 0.3333 0.9686);stroke-opacity:1;" stroke-width="3.51439" stroke-miterlimit="10"/>
<path d="M186.155 401.341L154.552 402.052L154.709 409.079L186.313 408.368L186.155 401.341Z" stroke="#A855F7" style="stroke:#A855F7;stroke:color(display-p3 0.6588 0.3333 0.9686);stroke-opacity:1;" stroke-width="3.51439" stroke-miterlimit="10"/>
<path d="M154.275 389.764C157.534 389.69 160.689 390.915 163.045 393.167C165.401 395.42 166.766 398.517 166.839 401.776L154.551 402.052L154.275 389.764Z" stroke="#A855F7" style="stroke:#A855F7;stroke:color(display-p3 0.6588 0.3333 0.9686);stroke-opacity:1;" stroke-width="3.51439" stroke-miterlimit="10"/>
<path d="M71.042 370.292L90.6016 370.731L89.7096 410.409L58.1349 409.7C58.3265 405.324 59.2364 395.523 61.3437 391.321C63.451 387.119 68.4486 386.169 70.684 386.219L71.042 370.292Z" fill="#FFD11A" stroke="#A855F7" style="fill:#FFD11A;fill:color(display-p3 1.0000 0.8207 0.1033);fill-opacity:1;stroke:#A855F7;stroke:color(display-p3 0.6588 0.3333 0.9686);stroke-opacity:1;" stroke-width="1.72472" stroke-linecap="round"/>
<path d="M70.7941 386.62L71.1493 370.818L90.4644 371.252L89.754 402.856L58.1508 402.145L58.2298 398.632C58.3031 395.373 59.668 392.276 62.0242 390.024C64.3805 387.771 67.5351 386.547 70.7941 386.62Z" stroke="#A855F7" style="stroke:#A855F7;stroke:color(display-p3 0.6588 0.3333 0.9686);stroke-opacity:1;" stroke-width="3.51439" stroke-miterlimit="10"/>
<path d="M58.1508 402.145L89.7539 402.855L89.5959 409.882L57.9928 409.172L58.1508 402.145Z" stroke="#A855F7" style="stroke:#A855F7;stroke:color(display-p3 0.6588 0.3333 0.9686);stroke-opacity:1;" stroke-width="3.51439" stroke-miterlimit="10"/>
<path d="M90.03 390.567C86.771 390.494 83.6164 391.718 81.2602 393.971C78.9039 396.224 77.539 399.32 77.4657 402.579L89.7538 402.855L90.03 390.567Z" stroke="#A855F7" style="stroke:#A855F7;stroke:color(display-p3 0.6588 0.3333 0.9686);stroke-opacity:1;" stroke-width="3.51439" stroke-miterlimit="10"/>
<path d="M209.134 298.068C195.941 297.791 150.143 297.402 77.4873 298.068H44.5757C41.6595 302.79 33.2441 313.816 22.9124 320.148C26.2452 325.148 39.4931 337.562 65.8224 347.227L72.0715 371.39H84.9861C85.3769 369.306 85.9143 361.749 85.1543 347.618C85.0854 346.335 86.4946 345.295 87.7708 345.442C94.8463 346.255 110.151 343.028 122.432 331.128C123.698 329.901 125.896 330.161 126.973 331.557C129.834 335.264 135.926 341.118 147.477 344.728L156.225 371.39H169.973L173.722 347.227C183.443 347.089 206.884 341.978 222.882 322.648C217.882 319.454 209.134 310.067 209.134 298.068Z" fill="#0A298C" stroke="#A855F7" style="fill:#0A298C;fill:color(display-p3 0.0403 0.1592 0.5499);fill-opacity:1;stroke:#A855F7;stroke:color(display-p3 0.6588 0.3333 0.9686);stroke-opacity:1;" stroke-width="4.16603" stroke-linecap="round"/>
<path d="M134.979 305.984H113.315V317.402L123.561 324.135L134.979 317.402V305.984Z" fill="#3B5ECD" stroke="#A855F7" style="fill:#3B5ECD;fill:color(display-p3 0.2301 0.3672 0.8050);fill-opacity:1;stroke:#A855F7;stroke:color(display-p3 0.6588 0.3333 0.9686);stroke-opacity:1;" stroke-width="2.92748" stroke-linecap="round"/>
<path d="M202.885 228.496L199.135 296.402L209.55 296.402L212.05 233.079L202.885 228.496Z" fill="#0A298C" stroke="#A855F7" style="fill:#0A298C;fill:color(display-p3 0.0392 0.1608 0.5490);fill-opacity:1;stroke:#A855F7;stroke:color(display-p3 0.6588 0.3333 0.9686);stroke-opacity:1;" stroke-width="3.33282" stroke-linecap="round"/>
<path d="M42.9095 230.996L45.1317 296.526L55.824 296.526L52.4914 225.996L42.9095 230.996Z" fill="#0A298C" stroke="#A855F7" style="fill:#0A298C;fill:color(display-p3 0.0392 0.1608 0.5490);fill-opacity:1;stroke:#A855F7;stroke:color(display-p3 0.6588 0.3333 0.9686);stroke-opacity:1;" stroke-width="3.33282" stroke-linecap="round"/>
<path d="M96.8569 318.81C48.531 331.308 17.517 282.915 13.3983 264.087" stroke="#A855F7" style="stroke:#A855F7;stroke:color(display-p3 0.6588 0.3333 0.9686);stroke-opacity:1;" stroke-width="7.06066" stroke-linecap="round"/>
<path d="M95.5789 145.974C89.6787 144.451 83.2398 144.462 76.9767 145.999C62.8846 149.457 52.8337 160.046 51.9829 172.342C51.8342 174.528 52.9187 176.493 54.961 177.736C56.9471 178.946 59.5542 179.281 62.1123 178.654L161.543 154.252C142.752 158.863 132.211 156.65 115.956 151.913L95.5789 145.974ZM137.753 133.255L128.135 115.341C127.615 114.368 126.797 113.518 125.73 112.842C124.663 112.165 123.368 111.677 121.924 111.405C120.48 111.133 118.916 111.083 117.327 111.259C115.737 111.435 114.154 111.833 112.673 112.429L79.0869 125.928C76.767 126.86 74.7929 128.238 73.4468 129.866C72.1007 131.494 71.4515 133.288 71.5921 134.991L72.2923 143.264C73.5237 142.854 74.7266 142.407 76.0175 142.091C83.6261 140.223 91.3832 140.204 98.6557 142.08L119.031 148.019C133.806 152.323 142.905 154.682 160.584 150.343C162.902 149.775 164.973 148.611 166.342 147.11C167.711 145.608 168.266 143.891 167.884 142.336C167.123 139.235 158.918 129.084 137.753 133.255Z" fill="#FFA233" style="fill:#FFA233;fill:color(display-p3 1.0000 0.6353 0.2000);fill-opacity:1;"/>
<path d="M71.3365 131.722L72.977 155.449C93.6829 157.231 138.326 160.066 151.252 157.151C167.409 153.508 169.715 145.864 166.783 140.47C164.438 136.156 147.529 135.866 139.369 136.26C138.288 134.916 134.565 129.01 128.316 116.13C120.504 100.031 111.911 106.965 99.1548 112.67C86.3989 118.374 86.49 114.813 76.3962 118.255C68.3212 121.009 69.6585 128.381 71.3365 131.722Z" fill="#FFA233" stroke="#FFA233" style="fill:#FFA233;fill:color(display-p3 1.0000 0.6353 0.2000);fill-opacity:1;stroke:#FFA233;stroke:color(display-p3 1.0000 0.6353 0.2000);stroke-opacity:1;" stroke-width="1.92811" stroke-linecap="round"/>
<path d="M138.728 133.094C127.063 138.093 97.2343 147.842 71.2383 146.842V137.26C84.4307 135.871 115.315 131.261 133.312 123.929C133.979 126.595 137.2 131.15 138.728 133.094Z" fill="#552C12" style="fill:#552C12;fill:color(display-p3 0.3333 0.1723 0.0722);fill-opacity:1;"/>
<path d="M138.728 133.094C127.063 138.093 97.2343 147.842 71.2383 146.842V137.26C84.4307 135.871 115.315 131.261 133.312 123.929C133.979 126.595 137.2 131.15 138.728 133.094Z" stroke="#FFA233" style="stroke:#FFA233;stroke:color(display-p3 1.0000 0.6353 0.2000);stroke-opacity:1;"/>
<path d="M255.54 367.958C255.108 377.624 254.107 396.95 272.936 407.546C292.698 398.812 293.562 379.479 294.063 369.816L255.54 367.958Z" fill="#979797" style="fill:#979797;fill:color(display-p3 0.5922 0.5922 0.5922);fill-opacity:1;"/>
<path d="M277.802 316.545L275.245 369.547M277.802 316.545C276.533 316.484 275.288 316.174 274.138 315.632C272.989 315.09 271.957 314.326 271.103 313.386C270.249 312.445 269.588 311.345 269.159 310.148C268.73 308.952 268.542 307.683 268.604 306.414L269.068 296.783L288.398 297.715L287.933 307.346C287.873 308.615 287.562 309.861 287.02 311.01C286.478 312.159 285.715 313.191 284.774 314.045C283.833 314.899 282.733 315.56 281.537 315.989C280.34 316.418 279.071 316.606 277.802 316.545ZM255.951 368.582C255.519 378.248 254.518 397.574 273.347 408.17C293.109 399.436 293.973 380.103 294.474 370.44L255.951 368.582Z" stroke="#A855F7" style="stroke:#A855F7;stroke:color(display-p3 0.6588 0.3333 0.9686);stroke-opacity:1;" stroke-width="9.67059" stroke-linecap="round" stroke-linejoin="round"/>
<path d="M264.125 305.15C256.626 300.984 246.628 286.404 239.06 263.39" stroke="#A855F7" style="stroke:#A855F7;stroke:color(display-p3 0.6588 0.3333 0.9686);stroke-opacity:1;" stroke-width="7.06066" stroke-linecap="round"/>
</g>
<defs>
<clipPath id="clip0_65_922">
<rect width="446" height="446" fill="white" style="fill:white;fill-opacity:1;"/>
</clipPath>
</defs>
</svg>
