<svg width="446" height="446" viewBox="0 0 446 446" fill="none" xmlns="http://www.w3.org/2000/svg">
<path d="M256.96 138.581C279.118 129.145 276.17 104.841 272.388 99.2458" stroke="#A855F7" style="stroke:#A855F7;stroke:color(display-p3 0.6588 0.3333 0.9686);stroke-opacity:1;" stroke-width="6" stroke-linecap="round"/>
<path d="M74.2143 199.556C50.8005 205.195 38.6745 183.927 38.3738 177.18" stroke="#A855F7" style="stroke:#A855F7;stroke:color(display-p3 0.6588 0.3333 0.9686);stroke-opacity:1;" stroke-width="6" stroke-linecap="round"/>
<path d="M218.656 224.981L229.002 264.217L243.228 265.831" stroke="#A855F7" style="stroke:#A855F7;stroke:color(display-p3 0.6588 0.3333 0.9686);stroke-opacity:1;" stroke-width="6" stroke-linecap="round"/>
<path d="M183.184 179.837C192.724 208.676 177.079 239.788 148.24 249.327C119.401 258.866 88.289 243.221 78.7497 214.382C69.2103 185.543 84.8556 154.431 113.694 144.892C142.533 135.353 173.645 150.998 183.184 179.837Z" fill="#F6EDFF" style="fill:#F6EDFF;fill:color(display-p3 0.9655 0.9292 1.0000);fill-opacity:1;"/>
<path d="M261.985 153.771C271.525 182.61 255.879 213.722 227.04 223.261C198.202 232.8 167.09 217.155 157.55 188.316C148.011 159.477 163.656 128.366 192.495 118.826C221.334 109.287 252.446 124.932 261.985 153.771Z" fill="#F6EDFF" style="fill:#F6EDFF;fill:color(display-p3 0.9655 0.9292 1.0000);fill-opacity:1;"/>
<path d="M204.217 109.683C213.756 138.521 198.111 169.633 169.272 179.172C140.433 188.712 109.321 173.067 99.782 144.228C90.2426 115.389 105.888 84.277 134.727 74.7377C163.566 65.1983 194.677 80.8436 204.217 109.683Z" fill="#F6EDFF" style="fill:#F6EDFF;fill:color(display-p3 0.9655 0.9292 1.0000);fill-opacity:1;"/>
<path d="M102.298 150.242C79.6464 99.277 120.643 79.9232 139.156 73.7992C153.397 69.0885 194.514 66.0208 205.309 116.168" stroke="#A855F7" style="stroke:#A855F7;stroke:color(display-p3 0.6588 0.3333 0.9686);stroke-opacity:1;" stroke-width="6" stroke-linecap="round"/>
<path d="M206.097 116.96C264.115 109.261 265.9 166.979 264.94 175.44C262.519 196.78 237.439 238.781 183.566 219.209" stroke="#A855F7" style="stroke:#A855F7;stroke:color(display-p3 0.6588 0.3333 0.9686);stroke-opacity:1;" stroke-width="6" stroke-linecap="round"/>
<path d="M182.305 218.573C136.631 277.919 90.661 239.934 82.1959 227.988C67.3819 207.082 69.2144 166.451 102.611 151.191" stroke="#A855F7" style="stroke:#A855F7;stroke:color(display-p3 0.6588 0.3333 0.9686);stroke-opacity:1;" stroke-width="6" stroke-linecap="round"/>
<circle cx="125.022" cy="169.584" r="15.5" transform="rotate(-18.3033 125.022 169.584)" stroke="#A855F7" style="stroke:#A855F7;stroke:color(display-p3 0.6588 0.3333 0.9686);stroke-opacity:1;" stroke-width="5"/>
<circle cx="197.177" cy="145.717" r="15.5" transform="rotate(-18.3033 197.177 145.717)" stroke="#A855F7" style="stroke:#A855F7;stroke:color(display-p3 0.6588 0.3333 0.9686);stroke-opacity:1;" stroke-width="5"/>
<path d="M140.212 164.559C147.526 146.867 171.094 143.285 181.512 150.898" stroke="#A855F7" style="stroke:#A855F7;stroke:color(display-p3 0.6588 0.3333 0.9686);stroke-opacity:1;" stroke-width="6" stroke-linecap="round"/>
<path d="M171.032 170.164C166.902 178.377 158.054 175.51 157.265 174.718" stroke="#A855F7" style="stroke:#A855F7;stroke:color(display-p3 0.6588 0.3333 0.9686);stroke-opacity:1;" stroke-width="3" stroke-linecap="round"/>
<circle cx="125.957" cy="175.595" r="6" transform="rotate(-18.3033 125.957 175.595)" fill="#A855F7" style="fill:#A855F7;fill:color(display-p3 0.6588 0.3333 0.9686);fill-opacity:1;"/>
<circle cx="198.747" cy="150.464" r="6" transform="rotate(-18.3033 198.747 150.464)" fill="#A855F7" style="fill:#A855F7;fill:color(display-p3 0.6588 0.3333 0.9686);fill-opacity:1;"/>
<path d="M122.79 108.705C130.185 124.691 146.919 115.971 150.458 109.559C159.35 93.4518 142.439 90.0926 137.838 96.8809C127.198 112.58 155.654 118.9 163.271 106.9" stroke="#A855F7" style="stroke:#A855F7;stroke:color(display-p3 0.6588 0.3333 0.9686);stroke-opacity:1;" stroke-width="6" stroke-linecap="round"/>
<path d="M245.766 135.581C253.647 104.784 285.006 86.2052 315.802 94.0864C346.598 101.967 365.178 133.326 357.297 164.123L345.404 210.594L326.816 205.837L338.708 159.366C343.962 138.835 331.576 117.929 311.045 112.675C290.514 107.421 269.608 119.807 264.354 140.338L252.462 186.809L233.873 182.052L245.766 135.581Z" fill="#45AAB8" style="fill:#45AAB8;fill:color(display-p3 0.2706 0.6667 0.7216);fill-opacity:1;"/>
<path d="M144.59 337.456C143.277 342.587 146.375 347.816 151.505 349.129L337.39 396.699C342.521 398.012 347.75 394.913 349.063 389.783L353.82 371.194L149.347 318.868L144.59 337.456Z" fill="#F9EBB2" style="fill:#F9EBB2;fill:color(display-p3 0.9765 0.9216 0.6980);fill-opacity:1;"/>
<path d="M379.983 268.958L175.51 216.631L151.725 309.573L356.198 361.9L379.983 268.958Z" fill="#F9EBB2" style="fill:#F9EBB2;fill:color(display-p3 0.9765 0.9216 0.6980);fill-opacity:1;"/>
<path d="M380.203 229.402L194.318 181.833C189.188 180.52 183.96 183.613 182.645 188.748L177.888 207.337L382.362 259.664L387.119 241.075C388.433 235.94 385.333 230.715 380.203 229.402Z" fill="#F9EBB2" style="fill:#F9EBB2;fill:color(display-p3 0.9765 0.9216 0.6980);fill-opacity:1;"/>
<path d="M382.581 220.108L354.699 212.973L366.591 166.501C375.786 130.57 354.112 93.9876 318.181 84.7924C282.249 75.5971 245.667 97.2711 236.472 133.203L224.579 179.674L196.697 172.538C186.422 169.909 175.98 176.095 173.351 186.37L135.295 335.078C132.666 345.352 138.852 355.794 149.127 358.423L335.011 405.993C345.286 408.622 355.727 402.436 358.357 392.161L396.413 243.454C399.042 233.179 392.856 222.737 382.581 220.108ZM245.766 135.581C253.647 104.785 285.006 86.2055 315.802 94.0866C346.599 101.968 365.178 133.326 357.297 164.123L345.404 210.594L326.816 205.837L338.708 159.366C343.962 138.835 331.576 117.929 311.045 112.675C290.514 107.421 269.608 119.807 264.354 140.338L252.462 186.809L233.873 182.052L245.766 135.581ZM329.414 156.987L317.522 203.459L261.756 189.188L273.649 142.717C277.59 127.316 293.271 118.029 308.667 121.969C324.063 125.909 333.355 141.587 329.414 156.987ZM349.063 389.783C347.75 394.913 342.52 398.011 337.39 396.699L151.505 349.129C146.375 347.816 143.277 342.586 144.589 337.456L149.346 318.868L353.82 371.194L349.063 389.783ZM356.198 361.9L151.725 309.573L175.51 216.631L379.983 268.958L356.198 361.9ZM382.362 259.664L177.888 207.337L182.645 188.748C183.959 183.613 189.188 180.52 194.318 181.833L380.203 229.402C385.333 230.715 388.433 235.94 387.118 241.075L382.362 259.664Z" fill="#A855F7" style="fill:#A855F7;fill:color(display-p3 0.6588 0.3333 0.9686);fill-opacity:1;"/>
<path d="M250.748 290.248L245.966 308.934C243.997 316.629 248.64 324.472 256.34 326.443C264.04 328.413 271.88 323.765 273.849 316.069L278.631 297.383C285.334 294.583 290.718 288.85 292.657 281.271C295.942 268.435 288.203 255.373 275.368 252.089C262.533 248.804 249.471 256.543 246.186 269.378C244.246 276.958 246.216 284.567 250.748 290.248ZM272.989 261.383C280.69 263.354 285.335 271.187 283.363 278.892C281.811 284.957 276.617 289.059 270.72 289.6L264.555 313.691C263.897 316.26 261.288 317.806 258.718 317.148C256.149 316.491 254.603 313.882 255.261 311.312L261.426 287.221C256.513 283.914 253.93 277.817 255.48 271.757C257.452 264.052 265.289 259.412 272.989 261.383Z" fill="#A855F7" style="fill:#A855F7;fill:color(display-p3 0.6588 0.3333 0.9686);fill-opacity:1;"/>
<path d="M272.99 261.383C280.69 263.353 285.335 271.187 283.363 278.892C281.811 284.956 276.617 289.059 270.72 289.6L264.555 313.69C263.897 316.26 261.289 317.806 258.719 317.148C256.149 316.49 254.603 313.882 255.261 311.312L261.426 287.221C256.514 283.914 253.93 277.816 255.481 271.756C257.452 264.051 265.289 259.412 272.99 261.383Z" fill="#506C7F" style="fill:#506C7F;fill:color(display-p3 0.3137 0.4235 0.4980);fill-opacity:1;"/>
<g opacity="0.15">
<path d="M144.59 337.456C143.277 342.587 146.375 347.816 151.505 349.129L337.39 396.699C342.521 398.012 347.75 394.913 349.063 389.783L353.82 371.194L149.347 318.868L144.59 337.456Z" fill="#A855F7" style="fill:#A855F7;fill:color(display-p3 0.6588 0.3333 0.9686);fill-opacity:1;"/>
<path d="M380.203 229.402L194.318 181.833C189.188 180.52 183.96 183.613 182.645 188.748L177.888 207.337L382.362 259.664L387.119 241.075C388.433 235.94 385.333 230.715 380.203 229.402Z" fill="#A855F7" style="fill:#A855F7;fill:color(display-p3 0.6588 0.3333 0.9686);fill-opacity:1;"/>
</g>
<g clip-path="url(#clip0_71_2013)">
<path d="M32.6719 160.172C31.5534 161.06 30.5954 162.187 29.8988 163.54C27.276 168.634 29.2797 174.891 34.3738 177.514C39.4679 180.137 45.7247 178.133 48.3475 173.039C50.9703 167.945 48.9666 161.688 43.8725 159.065C42.5196 158.369 41.0852 158.008 39.6588 157.935L39.2603 156.691L36.1855 155.107L37.7686 152.033L34.6938 150.45L36.277 147.375L31.6648 145L29.2901 149.612L32.6719 160.172ZM40.7062 165.215C42.4058 166.09 43.073 168.173 42.1979 169.873C41.3228 171.572 39.2396 172.239 37.54 171.364C35.8404 170.489 35.1733 168.406 36.0484 166.706C36.9234 165.007 39.0067 164.34 40.7062 165.215Z" fill="#666666" style="fill:#666666;fill:color(display-p3 0.4000 0.4000 0.4000);fill-opacity:1;"/>
</g>
<defs>
<clipPath id="clip0_71_2013">
<rect width="27.6671" height="27.6671" fill="white" style="fill:white;fill-opacity:1;" transform="translate(43.5981 182.263) rotate(-152.757)"/>
</clipPath>
</defs>
</svg>
