<svg width="446" height="446" viewBox="0 0 446 446" fill="none" xmlns="http://www.w3.org/2000/svg">
<rect x="76" y="158" width="79" height="144" rx="24" fill="#643ABA" style="fill:#643ABA;fill:color(display-p3 0.3922 0.2275 0.7294);fill-opacity:1;"/>
<path d="M358.306 210.738C391.94 207.935 384.069 289.609 381.5 280.5" stroke="#A855F7" style="stroke:#A855F7;stroke:color(display-p3 0.6588 0.3333 0.9686);stroke-opacity:1;" stroke-width="8.40835" stroke-linecap="round"/>
<path d="M88.3291 211.438C61.5 231.5 62 266 67.5 290.5" stroke="#A855F7" style="stroke:#A855F7;stroke:color(display-p3 0.6588 0.3333 0.9686);stroke-opacity:1;" stroke-width="8.40835" stroke-linecap="round"/>
<path d="M155.805 308.135L170.52 337.5L152.302 364.891L166 378" stroke="#A855F7" style="stroke:#A855F7;stroke:color(display-p3 0.6588 0.3333 0.9686);stroke-opacity:1;" stroke-width="8.40835" stroke-linecap="round"/>
<path d="M269.318 308.835V342.5V367C269.318 368.105 270.214 369 271.318 369H291.5" stroke="#A855F7" style="stroke:#A855F7;stroke:color(display-p3 0.6588 0.3333 0.9686);stroke-opacity:1;" stroke-width="8.40835" stroke-linecap="round"/>
<path d="M241.991 233.16C241.991 275.728 207.483 310.237 164.914 310.237C122.346 310.237 87.8379 275.728 87.8379 233.16C87.8379 190.592 122.346 156.084 164.914 156.084C207.483 156.084 241.991 190.592 241.991 233.16Z" fill="#F6EDFF" style="fill:#F6EDFF;fill:color(display-p3 0.9655 0.9292 1.0000);fill-opacity:1;"/>
<path d="M358.307 233.16C358.307 275.728 323.798 310.237 281.23 310.237C238.662 310.237 204.153 275.728 204.153 233.16C204.153 190.592 238.662 156.084 281.23 156.084C323.798 156.084 358.307 190.592 358.307 233.16Z" fill="#F6EDFF" style="fill:#F6EDFF;fill:color(display-p3 0.9655 0.9292 1.0000);fill-opacity:1;"/>
<path d="M300.85 149.077C300.85 191.645 266.341 226.153 223.773 226.153C181.205 226.153 146.696 191.645 146.696 149.077C146.696 106.508 181.205 72 223.773 72C266.341 72 300.85 106.508 300.85 149.077Z" fill="#F6EDFF" style="fill:#F6EDFF;fill:color(display-p3 0.9655 0.9292 1.0000);fill-opacity:1;"/>
<path d="M147.397 158.186C139.689 80.4084 202.752 72.7007 230.079 72.7007C251.1 72.7006 307.155 86.7146 299.448 158.186" stroke="#A855F7" style="stroke:#A855F7;stroke:color(display-p3 0.6588 0.3333 0.9686);stroke-opacity:1;" stroke-width="8.40835" stroke-linecap="round"/>
<path d="M300.148 159.587C380.73 174.877 357.702 252.456 352.701 263.29C340.088 290.617 288.235 335.462 225.171 285.712" stroke="#A855F7" style="stroke:#A855F7;stroke:color(display-p3 0.6588 0.3333 0.9686);stroke-opacity:1;" stroke-width="8.40835" stroke-linecap="round"/>
<path d="M223.773 284.311C136.886 343.17 92.4407 272.399 86.4353 252.78C75.9258 218.446 96.2458 165.193 147.396 159.587" stroke="#A855F7" style="stroke:#A855F7;stroke:color(display-p3 0.6588 0.3333 0.9686);stroke-opacity:1;" stroke-width="8.40835" stroke-linecap="round"/>
<circle cx="169.119" cy="193.921" r="21.7216" stroke="#A855F7" style="stroke:#A855F7;stroke:color(display-p3 0.6588 0.3333 0.9686);stroke-opacity:1;" stroke-width="7.00696"/>
<circle cx="275.624" cy="193.921" r="21.7216" stroke="#A855F7" style="stroke:#A855F7;stroke:color(display-p3 0.6588 0.3333 0.9686);stroke-opacity:1;" stroke-width="7.00696"/>
<path d="M191.541 193.921C209.058 173.601 241.991 179.207 252.501 193.921" stroke="#A855F7" style="stroke:#A855F7;stroke:color(display-p3 0.6588 0.3333 0.9686);stroke-opacity:1;" stroke-width="8.40835" stroke-linecap="round"/>
<path d="M230.079 214.942C220.97 224.051 210.46 216.343 209.759 214.942" stroke="#A855F7" style="stroke:#A855F7;stroke:color(display-p3 0.6588 0.3333 0.9686);stroke-opacity:1;" stroke-width="4.20418" stroke-linecap="round"/>
<path d="M179.629 193.921C170.52 203.03 160.009 195.322 159.309 193.921" stroke="#A855F7" style="stroke:#A855F7;stroke:color(display-p3 0.6588 0.3333 0.9686);stroke-opacity:1;" stroke-width="4.20418" stroke-linecap="round"/>
<path d="M287.536 192.52C278.427 201.629 267.917 193.921 267.216 192.52" stroke="#A855F7" style="stroke:#A855F7;stroke:color(display-p3 0.6588 0.3333 0.9686);stroke-opacity:1;" stroke-width="4.20418" stroke-linecap="round"/>
<path d="M191.541 111.177C194.343 135.702 220.446 131.464 227.977 124.491C246.896 106.973 225.875 95.0614 216.766 102.068C195.699 118.273 230.78 139.205 246.195 126.593" stroke="#A855F7" style="stroke:#A855F7;stroke:color(display-p3 0.6588 0.3333 0.9686);stroke-opacity:1;" stroke-width="8.40835" stroke-linecap="round"/>
<path d="M107 180.5C146.5 213.5 135.5 277 125 296.5" stroke="#A855F7" style="stroke:#A855F7;stroke:color(display-p3 0.6588 0.3333 0.9686);stroke-opacity:1;" stroke-width="9" stroke-linecap="round"/>
<path d="M325.5 170.5C354 202.5 341.5 265.5 332 289" stroke="#A855F7" style="stroke:#A855F7;stroke:color(display-p3 0.6588 0.3333 0.9686);stroke-opacity:1;" stroke-width="9" stroke-linecap="round"/>
<path d="M184.344 146C181.316 158.521 168.328 157.419 167 156.589" stroke="#A855F7" style="stroke:#A855F7;stroke:color(display-p3 0.6588 0.3333 0.9686);stroke-opacity:1;" stroke-width="4.20418" stroke-linecap="round"/>
<path d="M270.706 157.347C258.263 160.681 253.015 148.751 253.108 147.187" stroke="#A855F7" style="stroke:#A855F7;stroke:color(display-p3 0.6588 0.3333 0.9686);stroke-opacity:1;" stroke-width="4.20418" stroke-linecap="round"/>
</svg>
