<svg width="446" height="446" viewBox="0 0 446 446" fill="none" xmlns="http://www.w3.org/2000/svg">
<g clip-path="url(#clip0_65_1166)">
<path d="M167.741 98.1126L167.741 126.199L172.465 126.199C172.523 120.779 173.047 106.579 176.659 91.47C176.068 91.4831 175.469 91.4552 174.868 91.3706C173.659 94.7475 170.969 97.2907 167.741 98.1126Z" fill="#669933" style="fill:#669933;fill:color(display-p3 0.4000 0.6000 0.2000);fill-opacity:1;"/>
<path d="M156.114 91.3701C155.514 91.4542 154.916 91.4826 154.325 91.4695C157.939 106.581 158.46 120.779 158.517 126.199L163.242 126.199L163.242 98.1121C160.014 97.2906 157.324 94.747 156.114 91.3701Z" fill="#669933" style="fill:#669933;fill:color(display-p3 0.4000 0.6000 0.2000);fill-opacity:1;"/>
<path d="M149.198 73.5357C148.794 72.7376 148.489 71.9174 148.28 71.0928C147.95 71.1508 147.615 71.1886 147.279 71.2156C147.735 72.1442 148.177 73.097 148.607 74.0737C148.797 73.8933 148.992 73.7134 149.198 73.5357Z" fill="#669933" style="fill:#669933;fill:color(display-p3 0.4000 0.6000 0.2000);fill-opacity:1;"/>
<path d="M133.113 104.376C131.49 108.161 127.964 110.752 123.995 110.752C123.019 110.752 122.071 110.589 121.17 110.296C128.454 114.193 134.128 119.539 137.972 126.198L144.904 126.198C144.781 121.671 143.365 110.799 133.113 104.376Z" fill="#669933" style="fill:#669933;fill:color(display-p3 0.4000 0.6000 0.2000);fill-opacity:1;"/>
<path d="M149.395 126.198L154.011 126.198C153.935 120.653 153.341 105.436 149.34 90.0912C148.153 89.3952 147.12 88.4491 146.327 87.2749C144.681 84.8379 144.16 81.6068 145.528 78.3748C144.891 76.7795 144.227 75.258 143.528 73.8013C142.74 74.9354 141.76 75.9054 140.635 76.6374C141.947 79.3664 141.856 82.7963 140.288 85.892C145.57 90.4619 145.644 95.951 143.16 99.6302C142.102 101.195 140.617 102.357 138.91 103.058C143.191 106.702 146.284 111.501 147.976 117.241C149.045 120.866 149.338 124.105 149.395 126.198Z" fill="#CCFF66" style="fill:#CCFF66;fill:color(display-p3 0.8000 1.0000 0.4000);fill-opacity:1;"/>
<path d="M209.816 110.296C208.914 110.59 207.964 110.752 206.987 110.752C203.011 110.752 199.48 108.153 197.861 104.356C187.598 110.778 186.191 121.666 186.075 126.199L193.007 126.199C196.851 119.537 202.529 114.193 209.816 110.296Z" fill="#669933" style="fill:#669933;fill:color(display-p3 0.4000 0.6000 0.2000);fill-opacity:1;"/>
<path d="M176.971 126.199L181.588 126.199C181.645 124.106 181.936 120.87 183.006 117.242C184.698 111.503 187.786 106.7 192.064 103.056C190.36 102.354 188.878 101.194 187.822 99.6319C185.338 95.9518 185.412 90.4628 190.694 85.8928C189.124 82.7958 189.034 79.3645 190.349 76.635C189.223 75.9022 188.244 74.9331 187.454 73.8003C186.753 75.262 186.084 76.7875 185.45 78.3689C186.822 81.6027 186.302 84.8365 184.655 87.2749C183.862 88.4486 182.828 89.3956 181.641 90.0916C177.634 105.455 177.044 120.659 176.971 126.199Z" fill="#CCFF66" style="fill:#CCFF66;fill:color(display-p3 0.8000 1.0000 0.4000);fill-opacity:1;"/>
<path d="M182.702 71.0928C182.493 71.9179 182.189 72.738 181.785 73.5357C181.993 73.7156 182.19 73.8978 182.382 74.0809C182.814 73.1015 183.26 72.1487 183.717 71.2169C183.376 71.1895 183.037 71.1522 182.702 71.0928Z" fill="#669933" style="fill:#669933;fill:color(display-p3 0.4000 0.6000 0.2000);fill-opacity:1;"/>
<path d="M153.454 75.927C149.515 78.6448 148.212 82.0284 150.055 84.757C150.544 85.4817 151.22 86.0382 152.006 86.4143C152.088 86.4431 152.165 86.4836 152.242 86.5214C153.633 87.1076 155.334 87.1468 156.979 86.539C157.62 86.3019 158.336 86.3694 158.921 86.7225C159.507 87.0766 159.9 87.6776 159.989 88.357C160.402 91.5152 162.768 93.8969 165.491 93.8969C168.213 93.8969 170.578 91.5147 170.992 88.356C171.081 87.6776 171.474 87.0766 172.06 86.7225C172.646 86.3685 173.361 86.3005 174.003 86.539C175.653 87.1486 177.36 87.1072 178.753 86.5151C178.82 86.4836 178.886 86.4494 178.955 86.4238C179.75 86.0468 180.433 85.4871 180.927 84.7561C182.769 82.0288 181.467 78.6448 177.527 75.927C177.023 75.5793 176.683 75.0403 176.584 74.4361C176.486 73.8315 176.639 73.2129 177.008 72.7225C179.052 70.0065 179.036 66.4673 176.972 64.8337C175.857 63.9515 174.709 63.5965 173.458 63.7522C170.681 64.0968 167.996 66.8555 167.275 67.7949L167.268 67.7895C167.151 67.942 167.02 68.0864 166.861 68.2088C165.876 68.9655 164.463 68.7806 163.706 67.7949C162.985 66.8555 160.3 64.0964 157.523 63.7522C156.272 63.5956 155.124 63.9506 154.01 64.8337C151.945 66.4673 151.928 70.0065 153.972 72.7225C154.341 73.2129 154.493 73.8315 154.395 74.4361C154.298 75.0403 153.958 75.5793 153.454 75.927ZM163.903 76.7512C164.317 76.3328 164.897 76.0894 165.491 76.0894C166.085 76.0894 166.665 76.3328 167.084 76.7512C167.502 77.1696 167.741 77.7495 167.741 78.3434C167.741 78.9327 167.502 79.5131 167.079 79.9319C166.665 80.3503 166.085 80.5883 165.491 80.5883C164.897 80.5883 164.321 80.3503 163.903 79.9319C163.48 79.5126 163.242 78.9327 163.242 78.3434C163.242 77.7495 163.48 77.1696 163.903 76.7512Z" fill="#FFCC66" style="fill:#FFCC66;fill:color(display-p3 1.0000 0.8000 0.4000);fill-opacity:1;"/>
<path d="M195.506 77.191C193.441 78.8237 193.426 82.3629 195.47 85.0798C195.838 85.5693 195.991 86.1879 195.893 86.7925C195.795 87.3972 195.454 87.9357 194.95 88.2834C191.011 91.0021 189.709 94.3848 191.55 97.1134C192.932 99.1581 195.779 99.8919 198.475 98.8954C199.117 98.6574 199.832 98.7258 200.417 99.0789C201.003 99.433 201.396 100.034 201.485 100.712C201.899 103.871 204.264 106.253 206.987 106.253C209.71 106.253 212.075 103.871 212.488 100.713C212.577 100.034 212.97 99.433 213.556 99.0789C214.141 98.7249 214.856 98.6569 215.498 98.8954C218.194 99.8919 221.041 99.1581 222.423 97.1125C224.265 94.3853 222.963 91.0021 219.024 88.2834C218.52 87.9357 218.179 87.3967 218.081 86.7925C217.983 86.1879 218.136 85.5693 218.504 85.0798C220.548 82.3629 220.532 78.8237 218.467 77.191C217.352 76.3079 216.202 75.9547 214.954 76.1095C212.176 76.4541 209.491 79.2119 208.77 80.1513C208.013 81.1361 206.601 81.3219 205.616 80.5652C205.456 80.4433 205.326 80.2984 205.209 80.1459L205.202 80.1513C204.481 79.2119 201.796 76.4537 199.019 76.1095C197.77 75.9556 196.622 76.3079 195.506 77.191ZM205.396 89.1049C205.815 88.6865 206.395 88.4486 206.989 88.4486C207.578 88.4486 208.158 88.6865 208.577 89.1049C208.995 89.5274 209.238 90.1041 209.238 90.698C209.238 91.2869 208.995 91.8677 208.577 92.2856C208.158 92.7081 207.578 92.9474 206.989 92.9474C206.395 92.9474 205.815 92.7085 205.396 92.2856C204.978 91.8672 204.735 91.2918 204.735 90.698C204.735 90.1041 204.978 89.5274 205.396 89.1049Z" fill="#FFCC66" style="fill:#FFCC66;fill:color(display-p3 1.0000 0.8000 0.4000);fill-opacity:1;"/>
<path d="M182.864 66.5195C184.136 66.888 185.571 66.8286 186.947 66.3198C187.588 66.0827 188.304 66.1501 188.89 66.5033C189.476 66.8574 189.868 67.4584 189.958 68.1368C190.257 70.4218 191.58 72.3361 193.365 73.1927C195.26 71.9127 197.39 71.376 199.573 71.6446C199.586 71.646 199.598 71.6487 199.611 71.65C200.29 70.6562 200.801 69.3565 200.961 68.1368C201.05 67.4584 201.443 66.8574 202.028 66.5033C202.614 66.1501 203.329 66.0813 203.971 66.3198C206.666 67.3163 209.514 66.5834 210.896 64.5369C212.738 61.8096 211.436 58.4256 207.497 55.7078C206.993 55.3601 206.652 54.8211 206.554 54.2169C206.456 53.6123 206.609 52.9937 206.977 52.5033C209.021 49.7873 209.004 46.2481 206.94 44.6145C205.825 43.7323 204.676 43.38 203.426 43.533C200.649 43.8776 197.964 46.6363 197.243 47.5757C196.486 48.56 195.074 48.7454 194.088 47.9896C193.929 47.8667 190.269 43.8772 187.492 43.533C186.242 43.3791 185.093 43.7323 183.977 44.6145C181.913 46.2481 181.897 49.7864 183.941 52.5033C184.31 52.9937 184.462 53.6123 184.364 54.2169C184.266 54.8215 183.925 55.3601 183.421 55.7078C181.092 57.3148 179.664 59.1454 179.288 60.9625C179.447 61.075 179.608 61.1825 179.764 61.3062C181.439 62.6298 182.473 64.477 182.864 66.5195ZM193.87 56.5284C194.289 56.11 194.864 55.872 195.458 55.872C196.052 55.872 196.633 56.11 197.051 56.5284C197.469 56.9468 197.708 57.5276 197.708 58.1215C197.708 58.7153 197.469 59.2912 197.051 59.7136C196.633 60.132 196.052 60.3709 195.458 60.3709C194.864 60.3709 194.289 60.132 193.87 59.7136C193.452 59.2912 193.209 58.7153 193.209 58.1215C193.209 57.5276 193.452 56.9468 193.87 56.5284Z" fill="#FF6666" style="fill:#FF6666;fill:color(display-p3 1.0000 0.4000 0.4000);fill-opacity:1;"/>
<path d="M113.141 187.902C121.458 197.319 129.888 200.781 131.566 201.404L199.418 201.404C201.095 200.781 209.524 197.319 217.842 187.902C224.694 180.145 232.594 166.941 235.477 145.788L95.5054 145.788C98.3878 166.941 106.289 180.144 113.141 187.902Z" fill="#CC9933" style="fill:#CC9933;fill:color(display-p3 0.8000 0.6000 0.2000);fill-opacity:1;"/>
<path d="M234.962 130.698C234.958 130.698 234.954 130.697 234.951 130.697L94.3936 130.697C94.4516 134.418 94.6545 137.944 94.9789 141.289L236.004 141.289C236.328 137.944 236.531 134.418 236.589 130.697L234.974 130.697C234.969 130.697 234.966 130.698 234.962 130.698Z" fill="#FFCC66" style="fill:#FFCC66;fill:color(display-p3 1.0000 0.8000 0.4000);fill-opacity:1;"/>
<path d="M230.966 108.243C215.785 110.566 204.824 116.601 198.313 126.198L234.592 126.198C236.699 125.45 251.123 120.465 252.554 107.605C248.543 107.251 240.189 106.832 230.966 108.243Z" fill="#CCFF66" style="fill:#CCFF66;fill:color(display-p3 0.8000 1.0000 0.4000);fill-opacity:1;"/>
<path d="M223.896 86.4541C228.561 90.9066 228.536 96.1014 226.152 99.6303C224.046 102.749 220.244 104.266 216.364 103.727C215.574 105.934 214.147 107.78 212.354 109.028C217.638 106.564 223.676 104.797 230.402 103.777C232.654 103.436 234.844 103.198 236.936 103.037C239.062 102.229 252.709 96.4744 253.453 81.7856C248.739 80.7747 234.763 78.6985 223.896 86.4541Z" fill="#669933" style="fill:#669933;fill:color(display-p3 0.4000 0.6000 0.2000);fill-opacity:1;"/>
<path d="M115.484 98.8952C116.126 98.6572 116.841 98.7256 117.426 99.0787C118.012 99.4328 118.405 100.034 118.494 100.713C118.907 103.871 121.272 106.253 123.995 106.253C126.718 106.253 129.083 103.871 129.497 100.712C129.586 100.034 129.979 99.4328 130.565 99.0787C131.15 98.7247 131.865 98.6567 132.507 98.8952C135.202 99.8908 138.049 99.1588 139.432 97.1123C141.274 94.3851 139.971 91.0019 136.032 88.2833C135.528 87.9355 135.188 87.3965 135.089 86.7923C134.991 86.1877 135.144 85.5691 135.513 85.0796C137.557 82.3627 137.541 78.8235 135.477 77.1908C134.361 76.3086 133.213 75.9555 131.962 76.1093C129.185 76.4539 126.5 79.2117 125.779 80.1511C125.023 81.1359 123.61 81.3217 122.625 80.565C122.466 80.4431 122.335 80.2982 122.218 80.1457L122.211 80.1511C121.49 79.2117 118.806 76.4535 116.027 76.1093C114.779 75.9537 113.629 76.3077 112.514 77.1899C110.449 78.8235 110.432 82.3627 112.477 85.0796C112.845 85.5691 112.998 86.1877 112.899 86.7923C112.801 87.397 112.461 87.9355 111.956 88.2833C108.018 91.0019 106.715 94.3846 108.558 97.1132C109.941 99.1579 112.788 99.8917 115.484 98.8952ZM122.406 89.1047C122.824 88.6864 123.404 88.4484 123.994 88.4484C124.587 88.4484 125.168 88.6864 125.586 89.1047C126.005 89.5231 126.243 90.1039 126.243 90.6978C126.243 91.2916 126.005 91.8716 125.586 92.2854C125.168 92.7079 124.587 92.9472 123.994 92.9472C123.404 92.9472 122.824 92.7083 122.406 92.2854C121.987 91.8671 121.744 91.2862 121.744 90.6978C121.744 90.1039 121.987 89.5272 122.406 89.1047Z" fill="#FFCC66" style="fill:#FFCC66;fill:color(display-p3 1.0000 0.8000 0.4000);fill-opacity:1;"/>
<path d="M132.664 126.199C118.712 105.75 87.4913 106.823 78.4292 107.608C83.4648 120.328 93.0789 125.504 96.3927 126.199L132.664 126.199Z" fill="#CCFF66" style="fill:#CCFF66;fill:color(display-p3 0.8000 1.0000 0.4000);fill-opacity:1;"/>
<path d="M128.954 66.5033C129.539 66.8573 129.932 67.4584 130.021 68.1368C130.181 69.3565 130.692 70.6557 131.371 71.65C131.384 71.6482 131.396 71.6459 131.409 71.6446C133.592 71.3728 135.722 71.9118 137.617 73.1926C139.402 72.3361 140.725 70.4218 141.024 68.1368C141.114 67.4584 141.506 66.8573 142.092 66.5033C142.678 66.1492 143.393 66.0813 144.035 66.3197C145.412 66.8285 146.847 66.8884 148.118 66.5195C148.51 64.477 149.544 62.6297 151.218 61.3057C151.374 61.1829 151.534 61.0754 151.694 60.9629C151.317 59.1458 149.889 57.3148 147.56 55.7073C147.056 55.3596 146.715 54.8206 146.617 54.2164C146.519 53.6118 146.672 52.9932 147.04 52.5028C149.084 49.7859 149.068 46.2476 147.004 44.614C145.889 43.7318 144.74 43.3795 143.489 43.5325C140.712 43.8771 138.028 46.6358 137.307 47.5752C136.55 48.5595 135.138 48.7449 134.152 47.9891C133.993 47.8663 130.333 43.8767 127.555 43.5325C126.307 43.3786 125.156 43.7318 124.041 44.614C121.976 46.2476 121.96 49.7868 124.004 52.5028C124.372 52.9932 124.525 53.6109 124.427 54.2164C124.329 54.8211 123.988 55.3596 123.484 55.7073C119.545 58.4251 118.243 61.8087 120.085 64.5373C121.467 66.5829 124.314 67.3158 127.01 66.3193C127.653 66.0822 128.368 66.1501 128.954 66.5033ZM133.932 56.5284C134.35 56.11 134.93 55.872 135.524 55.872C136.113 55.872 136.694 56.11 137.112 56.5284C137.531 56.9468 137.774 57.5276 137.774 58.1214C137.774 58.7153 137.531 59.2911 137.112 59.7136C136.694 60.132 136.113 60.3709 135.524 60.3709C134.93 60.3709 134.35 60.132 133.932 59.7136C133.513 59.2911 133.275 58.7099 133.275 58.1214C133.275 57.5276 133.513 56.9517 133.932 56.5284Z" fill="#FF6666" style="fill:#FF6666;fill:color(display-p3 1.0000 0.4000 0.4000);fill-opacity:1;"/>
<path d="M100.581 103.778C107.304 104.797 113.341 106.561 118.623 109.024C116.833 107.776 115.408 105.931 114.618 103.726C110.737 104.268 106.937 102.748 104.831 99.631C102.448 96.103 102.421 90.9108 107.08 86.4596C96.1874 78.6779 82.2382 80.7636 77.5288 81.7822C78.2702 96.4741 91.9184 102.229 94.0464 103.038C96.1388 103.199 98.3293 103.437 100.581 103.778Z" fill="#669933" style="fill:#669933;fill:color(display-p3 0.4000 0.6000 0.2000);fill-opacity:1;"/>
<path d="M165.491 80.5882C166.085 80.5882 166.665 80.3502 167.079 79.9318C167.502 79.5125 167.741 78.9326 167.741 78.3433C167.741 77.7494 167.502 77.1695 167.084 76.7511C166.665 76.3327 166.085 76.0894 165.491 76.0894C164.897 76.0894 164.317 76.3327 163.903 76.7511C163.48 77.1695 163.242 77.7494 163.242 78.3433C163.242 78.9326 163.48 79.513 163.903 79.9318C164.321 80.3502 164.897 80.5882 165.491 80.5882Z" fill="#A855F7" style="fill:#A855F7;fill:color(display-p3 0.6588 0.3333 0.9686);fill-opacity:1;"/>
<path d="M206.989 92.9471C207.578 92.9471 208.158 92.7082 208.577 92.2853C208.995 91.8669 209.238 91.2861 209.238 90.6977C209.238 90.1038 208.995 89.5271 208.577 89.1046C208.158 88.6862 207.578 88.4482 206.989 88.4482C206.395 88.4482 205.815 88.6862 205.396 89.1046C204.978 89.5271 204.735 90.1038 204.735 90.6977C204.735 91.2915 204.978 91.8674 205.396 92.2853C205.815 92.7082 206.395 92.9471 206.989 92.9471Z" fill="#A855F7" style="fill:#A855F7;fill:color(display-p3 0.6588 0.3333 0.9686);fill-opacity:1;"/>
<path d="M195.458 60.3709C196.052 60.3709 196.633 60.132 197.051 59.7137C197.469 59.2912 197.708 58.7154 197.708 58.1215C197.708 57.5277 197.469 56.9468 197.051 56.5285C196.633 56.1101 196.052 55.8721 195.458 55.8721C194.865 55.8721 194.289 56.1101 193.87 56.5285C193.452 56.9468 193.209 57.5277 193.209 58.1215C193.209 58.7154 193.452 59.2912 193.87 59.7137C194.289 60.132 194.865 60.3709 195.458 60.3709Z" fill="#A855F7" style="fill:#A855F7;fill:color(display-p3 0.6588 0.3333 0.9686);fill-opacity:1;"/>
<path d="M123.994 92.9471C124.587 92.9471 125.168 92.7082 125.586 92.2853C126.005 91.8714 126.243 91.2915 126.243 90.6977C126.243 90.1038 126.005 89.523 125.586 89.1046C125.168 88.6862 124.587 88.4482 123.994 88.4482C123.404 88.4482 122.824 88.6862 122.405 89.1046C121.987 89.5271 121.744 90.1038 121.744 90.6977C121.744 91.2866 121.987 91.8674 122.405 92.2853C122.824 92.7082 123.404 92.9471 123.994 92.9471Z" fill="#A855F7" style="fill:#A855F7;fill:color(display-p3 0.6588 0.3333 0.9686);fill-opacity:1;"/>
<path d="M135.524 60.3709C136.114 60.3709 136.694 60.132 137.112 59.7137C137.531 59.2912 137.774 58.7154 137.774 58.1215C137.774 57.5277 137.531 56.9468 137.112 56.5285C136.694 56.1101 136.114 55.8721 135.524 55.8721C134.93 55.8721 134.35 56.1101 133.932 56.5285C133.513 56.9518 133.275 57.5277 133.275 58.1215C133.275 58.7104 133.513 59.2912 133.932 59.7137C134.35 60.132 134.93 60.3709 135.524 60.3709Z" fill="#A855F7" style="fill:#A855F7;fill:color(display-p3 0.6588 0.3333 0.9686);fill-opacity:1;"/>
<path d="M257.978 79.9851C257.961 79.0053 257.311 78.1505 256.372 77.8702C255.577 77.6331 238.904 72.8247 224.541 80.7391C224.537 77.9732 223.431 75.3801 221.26 73.6624C219.209 72.0406 216.838 71.3419 214.401 71.6451C211.259 72.0343 208.622 73.9737 206.987 75.4988C206.187 74.7525 205.146 73.9085 203.925 73.1941C204.283 72.5471 204.595 71.8624 204.841 71.152C208.719 71.6906 212.519 70.1722 214.625 67.0558C217.109 63.3766 217.035 57.8876 211.753 53.3167C213.976 48.9303 213.244 43.8646 209.732 41.087C207.682 39.4643 205.31 38.7665 202.874 39.0688C199.732 39.4584 197.095 41.3979 195.459 42.9225C193.825 41.3974 191.187 39.4584 188.046 39.0688C185.61 38.7701 183.238 39.4652 181.187 41.0861C177.676 43.8646 176.943 48.9299 179.167 53.3176C177.089 55.1149 175.7 57.1525 175.073 59.2944C174.36 59.2071 173.637 59.1967 172.906 59.2881C169.764 59.6777 167.127 61.6176 165.492 63.1427C163.857 61.6171 161.219 59.6772 158.078 59.2881C157.346 59.1976 156.622 59.2075 155.909 59.2953C155.282 57.1534 153.895 55.1154 151.817 53.3176C154.04 48.9303 153.308 43.8646 149.796 41.0861C147.746 39.4643 145.375 38.7692 142.937 39.0688C139.796 39.4584 137.159 41.3979 135.524 42.9225C133.888 41.3974 131.252 39.4584 128.11 39.0688C125.675 38.7701 123.301 39.4652 121.251 41.0861C117.739 43.8646 117.007 48.9299 119.23 53.3163C113.948 57.8871 113.874 63.3762 116.359 67.0563C118.465 70.1722 122.263 71.6906 126.142 71.152C126.387 71.862 126.698 72.5485 127.055 73.195C125.834 73.9094 124.796 74.7538 123.997 75.4993C122.362 73.9742 119.725 72.0343 116.582 71.6451C114.146 71.3428 111.774 72.0406 109.724 73.6624C107.553 75.3796 106.447 77.9723 106.442 80.7387C92.0795 72.8247 75.4063 77.6327 74.6109 77.8706C73.672 78.1509 73.0223 79.0057 73.0048 79.9856C72.8545 88.3674 76.2489 95.773 82.8222 101.402C83.3985 101.896 83.9726 102.344 84.5417 102.77C79.1169 102.876 75.5322 103.387 75.2691 103.426C74.6527 103.516 74.1021 103.858 73.7471 104.371C73.3921 104.882 73.2414 105.523 73.3971 106.127C77.6116 122.451 89.8787 128.334 89.8787 128.448C89.8787 161.617 100.808 180.833 109.976 191.113C120.035 202.389 130.081 205.664 130.503 205.798C130.723 205.867 130.952 205.903 131.182 205.903L199.803 205.903C200.033 205.903 200.262 205.867 200.482 205.798C200.905 205.664 210.95 202.39 221.009 191.113C230.177 180.833 241.106 161.617 241.106 128.448C241.106 128.334 257.588 122.451 257.588 106.127C257.588 105.504 257.592 104.882 257.237 104.371C256.883 103.858 256.331 103.517 255.716 103.426C255.452 103.387 251.871 102.876 246.452 102.77C247.018 102.346 247.59 101.893 248.162 101.402C254.734 95.7721 258.13 88.3665 257.978 79.9851ZM205.203 80.1511L205.21 80.1457C205.327 80.2982 205.457 80.4426 205.617 80.565C206.602 81.3217 208.014 81.1359 208.771 80.1511C209.493 79.2118 212.177 76.4535 214.955 76.1093C216.203 75.9546 217.353 76.3077 218.468 77.1909C220.533 78.8235 220.55 82.3628 218.505 85.0796C218.137 85.5691 217.984 86.1877 218.082 86.7924C218.181 87.397 218.521 87.9355 219.025 88.2833C222.964 91.0019 224.267 94.3846 222.425 97.1123C221.043 99.1579 218.195 99.8917 215.5 98.8952C214.857 98.6572 214.142 98.7247 213.557 99.0788C212.971 99.4328 212.578 100.034 212.49 100.713C212.076 103.871 209.711 106.253 206.988 106.253C204.265 106.253 201.9 103.871 201.486 100.712C201.397 100.034 201.004 99.4328 200.419 99.0788C199.833 98.7256 199.118 98.6568 198.476 98.8952C195.781 99.8917 192.934 99.1579 191.552 97.1132C189.709 94.3851 191.012 91.0019 194.951 88.2833C195.455 87.9355 195.796 87.3966 195.894 86.7924C195.992 86.1877 195.839 85.5691 195.471 85.0796C193.427 82.3628 193.443 78.8235 195.507 77.1909C196.623 76.3077 197.772 75.9555 199.022 76.1093C201.797 76.4535 204.482 79.2118 205.203 80.1511ZM184.656 87.2746C186.302 84.8362 186.823 81.6029 185.451 78.3687C186.085 76.7869 186.754 75.2617 187.455 73.8001C188.244 74.9329 189.224 75.9019 190.349 76.6348C189.035 79.3643 189.125 82.7956 190.694 85.8926C185.413 90.4625 185.338 95.9516 187.823 99.6317C188.879 101.194 190.36 102.354 192.064 103.055C187.786 106.7 184.699 111.502 183.007 117.242C181.937 120.87 181.646 124.106 181.589 126.198L176.971 126.198C177.045 120.658 177.635 105.455 181.642 90.0909C182.829 89.3954 183.863 88.4484 184.656 87.2746ZM181.785 73.5355C182.189 72.7379 182.493 71.9177 182.702 71.0926C183.037 71.152 183.376 71.1894 183.717 71.2164C183.26 72.1481 182.814 73.1009 182.382 74.0803C182.19 73.8972 181.993 73.7155 181.785 73.5355ZM197.861 104.356C199.48 108.153 203.011 110.752 206.987 110.752C207.965 110.752 208.913 110.59 209.816 110.296C202.529 114.193 196.851 119.537 193.008 126.198L186.076 126.198C186.191 121.665 187.598 110.778 197.861 104.356ZM183.422 55.7079C183.927 55.3601 184.267 54.8211 184.365 54.2169C184.463 53.6123 184.31 52.9937 183.942 52.5033C181.898 49.7865 181.914 46.2481 183.978 44.6146C185.094 43.7323 186.243 43.3792 187.493 43.533C190.27 43.8776 193.93 47.8668 194.09 47.9896C195.075 48.7454 196.487 48.5596 197.244 47.5757C197.965 46.6364 200.649 43.8772 203.427 43.533C204.677 43.3801 205.826 43.7323 206.941 44.6146C209.006 46.2481 209.022 49.7874 206.978 52.5033C206.609 52.9937 206.457 53.6123 206.555 54.2169C206.653 54.8216 206.994 55.3601 207.498 55.7079C211.437 58.4256 212.739 61.8092 210.897 64.5369C209.515 66.5834 206.667 67.3163 203.972 66.3198C203.33 66.0818 202.615 66.1502 202.03 66.5034C201.444 66.8574 201.051 67.4585 200.962 68.1369C200.802 69.3565 200.291 70.6563 199.612 71.6501C199.599 71.6487 199.587 71.646 199.575 71.6447C197.391 71.3761 195.262 71.9132 193.366 73.1927C191.581 72.3361 190.258 70.4219 189.959 68.1369C189.87 67.4585 189.477 66.8574 188.891 66.5034C188.305 66.1502 187.59 66.0823 186.949 66.3198C185.572 66.8286 184.137 66.8885 182.865 66.5195C182.474 64.4771 181.44 62.6298 179.766 61.3058C179.61 61.1825 179.449 61.0746 179.29 60.9621C179.665 59.145 181.093 57.3149 183.422 55.7079ZM153.974 72.7226C151.929 70.0066 151.946 66.4674 154.011 64.8338C155.126 63.9507 156.273 63.5957 157.524 63.7523C160.301 64.0969 162.986 66.8556 163.708 67.795C164.464 68.7807 165.877 68.9656 166.862 68.2089C167.022 68.087 167.152 67.9421 167.269 67.7896L167.276 67.795C167.997 66.8556 170.682 64.0965 173.459 63.7523C174.71 63.5966 175.858 63.9516 176.973 64.8338C179.037 66.4674 179.053 70.0066 177.009 72.7226C176.641 73.213 176.488 73.8316 176.586 74.4362C176.684 75.0409 177.024 75.5794 177.529 75.9271C181.468 78.6449 182.77 82.0285 180.929 84.7562C180.435 85.4872 179.751 86.0469 178.957 86.4239C178.887 86.4495 178.821 86.4837 178.755 86.5152C177.361 87.1073 175.655 87.1487 174.004 86.5391C173.362 86.3011 172.647 86.3686 172.061 86.7226C171.476 87.0767 171.082 87.6777 170.994 88.3562C170.58 91.5148 168.215 93.897 165.492 93.897C162.769 93.897 160.404 91.5148 159.99 88.3571C159.902 87.6777 159.509 87.0767 158.923 86.7226C158.337 86.3695 157.622 86.3015 156.98 86.5391C155.335 87.1469 153.634 87.1077 152.243 86.5215C152.166 86.4837 152.089 86.4432 152.008 86.4144C151.222 86.0383 150.545 85.4823 150.056 84.7571C148.214 82.029 149.516 78.6449 153.455 75.9271C153.959 75.5794 154.299 75.0404 154.398 74.4362C154.495 73.8316 154.342 73.213 153.974 72.7226ZM176.659 91.4694C173.046 106.578 172.522 120.779 172.465 126.198L167.741 126.198L167.741 98.112C170.969 97.2905 173.658 94.7468 174.868 91.3699C175.469 91.4545 176.068 91.4824 176.659 91.4694ZM163.242 98.112L163.242 126.199L158.517 126.199C158.46 120.779 157.938 106.582 154.325 91.4698C154.916 91.4829 155.514 91.4545 156.115 91.3704C157.324 94.7468 160.014 97.2905 163.242 98.112ZM138.91 103.058C140.617 102.357 142.102 101.196 143.16 99.6308C145.644 95.9516 145.57 90.4625 140.288 85.8926C141.857 82.7969 141.947 79.367 140.634 76.638C141.76 75.906 142.739 74.9365 143.528 73.8019C144.226 75.2586 144.89 76.7801 145.528 78.3754C144.16 81.6079 144.681 84.8385 146.327 87.2755C147.12 88.4493 148.153 89.3958 149.34 90.0918C153.341 105.436 153.935 120.654 154.011 126.199L149.395 126.199C149.338 124.106 149.045 120.866 147.976 117.242C146.284 111.501 143.191 106.702 138.91 103.058ZM144.904 126.198L137.972 126.198C134.129 119.539 128.455 114.193 121.17 110.297C122.071 110.589 123.019 110.752 123.995 110.752C127.964 110.752 131.491 108.162 133.113 104.376C143.365 110.8 144.782 121.672 144.904 126.198ZM147.279 71.2155C147.615 71.188 147.95 71.1502 148.28 71.0927C148.489 71.9173 148.794 72.7374 149.198 73.5355C148.992 73.7137 148.797 73.8932 148.607 74.0736C148.177 73.0969 147.735 72.1445 147.279 71.2155ZM127.011 66.3198C124.316 67.3163 121.468 66.5834 120.086 64.5378C118.244 61.8092 119.546 58.4256 123.485 55.7079C123.989 55.3601 124.329 54.8211 124.428 54.2169C124.526 53.6114 124.373 52.9937 124.005 52.5033C121.961 49.7874 121.977 46.2481 124.042 44.6146C125.157 43.7323 126.308 43.3792 127.556 43.533C130.333 43.8776 133.994 47.8668 134.153 47.9896C135.139 48.7454 136.551 48.5596 137.308 47.5757C138.029 46.6364 140.713 43.8772 143.49 43.533C144.741 43.3801 145.89 43.7323 147.005 44.6146C149.069 46.2481 149.085 49.7865 147.041 52.5033C146.672 52.9937 146.52 53.6123 146.618 54.2169C146.716 54.8216 147.057 55.3601 147.561 55.7079C149.89 57.3149 151.319 59.1464 151.694 60.9634C151.535 61.0759 151.375 61.183 151.219 61.3063C149.545 62.6303 148.511 64.4775 148.119 66.52C146.847 66.8885 145.412 66.8291 144.036 66.3202C143.394 66.0823 142.679 66.1497 142.093 66.5038C141.507 66.8579 141.114 67.4589 141.025 68.1373C140.726 70.4223 139.403 72.3366 137.618 73.1932C135.723 71.9119 133.593 71.3734 131.41 71.6451C131.397 71.6465 131.385 71.6487 131.372 71.6505C130.693 70.6563 130.182 69.357 130.022 68.1373C129.933 67.4589 129.54 66.8579 128.955 66.5038C128.368 66.1502 127.653 66.0823 127.011 66.3198ZM111.957 88.2833C112.462 87.9355 112.802 87.3966 112.9 86.7924C112.998 86.1877 112.845 85.5691 112.477 85.0796C110.433 82.3628 110.45 78.8235 112.515 77.19C113.63 76.3077 114.779 75.9537 116.028 76.1093C118.806 76.454 121.49 79.2118 122.212 80.1511L122.219 80.1457C122.336 80.2982 122.466 80.4426 122.626 80.565C123.611 81.3217 125.023 81.1359 125.78 80.1511C126.502 79.2118 129.186 76.4535 131.963 76.1093C133.214 75.9555 134.362 76.3086 135.477 77.1909C137.542 78.8235 137.558 82.3628 135.513 85.0796C135.145 85.5691 134.992 86.1877 135.09 86.7924C135.188 87.397 135.529 87.9355 136.033 88.2833C139.972 91.0019 141.274 94.3846 139.433 97.1123C138.05 99.1588 135.203 99.8908 132.508 98.8952C131.866 98.6572 131.151 98.7247 130.566 99.0788C129.98 99.4328 129.587 100.034 129.498 100.712C129.084 103.871 126.719 106.253 123.996 106.253C121.273 106.253 118.908 103.871 118.495 100.713C118.406 100.034 118.013 99.4328 117.427 99.0788C116.842 98.7256 116.126 98.6568 115.484 98.8952C112.789 99.8917 109.941 99.1579 108.559 97.1132C106.716 94.3846 108.019 91.0019 111.957 88.2833ZM77.5288 81.7829C82.2383 80.7639 96.1875 78.6786 107.08 86.4603C102.421 90.9115 102.448 96.1037 104.831 99.6317C106.937 102.748 110.737 104.269 114.618 103.727C115.408 105.932 116.833 107.777 118.623 109.024C113.341 106.562 107.304 104.797 100.581 103.778C98.3294 103.437 96.1389 103.2 94.0464 103.038C91.9185 102.229 78.2703 96.4748 77.5288 81.7829ZM78.4291 107.608C87.4911 106.823 118.711 105.75 132.663 126.198L96.3922 126.198C93.0787 125.504 83.4647 120.327 78.4291 107.608ZM217.842 187.902C209.524 197.319 201.095 200.782 199.418 201.404L131.566 201.404C129.888 200.782 121.458 197.319 113.141 187.902C106.289 180.145 98.3878 166.941 95.5054 145.788L235.477 145.788C232.595 166.941 224.694 180.144 217.842 187.902ZM236.004 141.289L94.9791 141.289C94.6547 137.944 94.4518 134.418 94.3938 130.697L234.951 130.697C234.955 130.697 234.958 130.698 234.962 130.698C234.965 130.698 234.969 130.697 234.973 130.697L236.589 130.697C236.531 134.418 236.328 137.944 236.004 141.289ZM252.554 107.605C251.124 120.465 236.699 125.45 234.592 126.198L198.313 126.198C204.824 116.601 215.785 110.566 230.966 108.243C240.189 106.832 248.543 107.251 252.554 107.605ZM236.936 103.038C234.843 103.199 232.653 103.437 230.401 103.778C223.675 104.798 217.638 106.564 212.354 109.028C214.146 107.781 215.573 105.935 216.364 103.727C220.243 104.266 224.046 102.749 226.152 99.6312C228.536 96.1023 228.561 90.9075 223.896 86.4549C234.763 78.6993 248.738 80.7756 253.453 81.7869C252.708 96.4753 239.062 102.23 236.936 103.038Z" fill="#A855F7" style="fill:#A855F7;fill:color(display-p3 0.6588 0.3333 0.9686);fill-opacity:1;"/>
<path d="M348.5 303.5C441.5 270 465.853 112 385.5 43" stroke="#A855F7" style="stroke:#A855F7;stroke:color(display-p3 0.6588 0.3333 0.9686);stroke-opacity:1;" stroke-width="13.2313" stroke-linecap="round"/>
<path d="M191.115 375.6C191.115 442.585 136.813 496.887 69.828 496.887C2.84305 496.887 -51.459 442.585 -51.459 375.6C-51.459 308.615 2.84305 254.313 69.828 254.313C136.813 254.313 191.115 308.615 191.115 375.6Z" fill="#F6EDFF" style="fill:#F6EDFF;fill:color(display-p3 0.9655 0.9292 1.0000);fill-opacity:1;"/>
<path d="M374.148 375.6C374.148 442.585 319.846 496.887 252.861 496.887C185.876 496.887 131.574 442.585 131.574 375.6C131.574 308.615 185.876 254.313 252.861 254.313C319.846 254.313 374.148 308.615 374.148 375.6Z" fill="#F6EDFF" style="fill:#F6EDFF;fill:color(display-p3 0.9655 0.9292 1.0000);fill-opacity:1;"/>
<path d="M283.734 243.287C283.734 310.272 229.432 364.574 162.447 364.574C95.4622 364.574 41.1602 310.272 41.1602 243.287C41.1602 176.302 95.4622 122 162.447 122C229.432 122 283.734 176.302 283.734 243.287Z" fill="#F6EDFF" style="fill:#F6EDFF;fill:color(display-p3 0.9655 0.9292 1.0000);fill-opacity:1;"/>
<path d="M42.2633 257.621C30.1341 135.231 129.369 123.103 172.371 123.103C205.449 123.102 293.658 145.155 281.53 257.621" stroke="#A855F7" style="stroke:#A855F7;stroke:color(display-p3 0.6588 0.3333 0.9686);stroke-opacity:1;" stroke-width="13.2313" stroke-linecap="round"/>
<path d="M282.631 259.826C409.433 283.886 373.197 405.963 365.328 423.012C345.48 466.014 263.885 536.58 164.647 458.295" stroke="#A855F7" style="stroke:#A855F7;stroke:color(display-p3 0.6588 0.3333 0.9686);stroke-opacity:1;" stroke-width="13.2313" stroke-linecap="round"/>
<path d="M162.447 456.091C25.7233 548.71 -44.216 437.346 -53.666 406.473C-70.2036 352.445 -38.2283 268.647 42.2612 259.827" stroke="#A855F7" style="stroke:#A855F7;stroke:color(display-p3 0.6588 0.3333 0.9686);stroke-opacity:1;" stroke-width="13.2313" stroke-linecap="round"/>
<circle cx="76.4439" cy="313.854" r="34.1809" stroke="#A855F7" style="stroke:#A855F7;stroke:color(display-p3 0.6588 0.3333 0.9686);stroke-opacity:1;" stroke-width="11.0261"/>
<circle cx="244.04" cy="313.854" r="34.1809" stroke="#A855F7" style="stroke:#A855F7;stroke:color(display-p3 0.6588 0.3333 0.9686);stroke-opacity:1;" stroke-width="11.0261"/>
<path d="M111.727 313.854C139.292 281.878 191.115 290.699 207.654 313.854" stroke="#A855F7" style="stroke:#A855F7;stroke:color(display-p3 0.6588 0.3333 0.9686);stroke-opacity:1;" stroke-width="13.2313" stroke-linecap="round"/>
<path d="M172.371 346.932C158.037 361.266 141.498 349.137 140.395 346.932" stroke="#A855F7" style="stroke:#A855F7;stroke:color(display-p3 0.6588 0.3333 0.9686);stroke-opacity:1;" stroke-width="6.61565" stroke-linecap="round"/>
<path d="M92.9829 313.854C78.649 328.187 62.1099 316.059 61.0073 313.854" stroke="#A855F7" style="stroke:#A855F7;stroke:color(display-p3 0.6588 0.3333 0.9686);stroke-opacity:1;" stroke-width="6.61565" stroke-linecap="round"/>
<path d="M262.785 311.649C248.451 325.982 231.912 313.854 230.809 311.649" stroke="#A855F7" style="stroke:#A855F7;stroke:color(display-p3 0.6588 0.3333 0.9686);stroke-opacity:1;" stroke-width="6.61565" stroke-linecap="round"/>
<path d="M111.727 183.649C116.137 222.24 157.212 215.571 169.063 204.598C198.833 177.033 165.755 158.289 151.421 169.315C118.271 194.814 173.473 227.753 197.731 207.906" stroke="#A855F7" style="stroke:#A855F7;stroke:color(display-p3 0.6588 0.3333 0.9686);stroke-opacity:1;" stroke-width="13.2313" stroke-linecap="round"/>
<g clip-path="url(#clip1_65_1166)">
<path d="M328.567 61.6524L339.641 80.5715L281.897 56.3111L284.139 47.7417L328.567 61.6524Z" fill="#E8E6D9" style="fill:#E8E6D9;fill:color(display-p3 0.9098 0.9020 0.8510);fill-opacity:1;"/>
<path d="M379.06 61.1273L335.816 86.4378L311.627 38.9095L349.465 16.7626L379.06 61.1273Z" fill="#72CCC5" style="fill:#72CCC5;fill:color(display-p3 0.4471 0.8000 0.7725);fill-opacity:1;"/>
<path d="M279.83 60.5227C284.27 58.0249 286.852 52.845 286.113 47.7956C285.396 42.8998 281.672 38.7264 276.883 37.4736L270.543 61.7114C273.646 62.5229 277.032 62.0962 279.83 60.5227Z" fill="#72CCC5" style="fill:#72CCC5;fill:color(display-p3 0.4471 0.8000 0.7725);fill-opacity:1;"/>
<path d="M319.931 34.0493L311.626 38.9105L335.816 86.4386L353.947 75.8266C336.919 67.3133 324.707 51.8966 319.931 34.0493Z" fill="#11BBA3" style="fill:#11BBA3;fill:color(display-p3 0.0667 0.7333 0.6392);fill-opacity:1;"/>
<path d="M325.855 66.8666L366.873 42.8584L359.909 32.4199L320.164 55.6836L325.855 66.8666Z" fill="#DDDAC5" style="fill:#DDDAC5;fill:color(display-p3 0.8667 0.8549 0.7725);fill-opacity:1;"/>
<path d="M327.406 51.4451L320.164 55.6842L325.855 66.8671L334.994 61.5181C332.143 58.4048 329.603 55.0298 327.406 51.4451Z" fill="#D1CDB2" style="fill:#D1CDB2;fill:color(display-p3 0.8196 0.8039 0.6980);fill-opacity:1;"/>
<path d="M381.503 59.4977L373.695 47.7936C376.166 47.4779 378.57 46.6734 380.743 45.4015C389.591 40.2223 392.576 28.8103 387.398 19.9615C382.218 11.1128 370.807 8.12734 361.957 13.3065C359.13 14.9612 356.823 17.3086 355.223 20.1022L351.908 15.1333C351.045 13.8404 349.324 13.4435 347.982 14.2286L310.144 36.3755C308.803 37.1607 308.306 38.8557 309.011 40.2411L316.404 54.7672L288.778 46.1172C287.483 40.606 283.139 36.0745 277.627 34.6326C276.058 34.2222 274.454 35.1611 274.043 36.73L267.703 60.9677C267.293 62.5362 268.231 64.1407 269.8 64.5511C273.642 65.5561 277.823 65.0201 281.27 63.081C282.485 62.3982 283.582 61.5622 284.546 60.6078L328.851 79.2219L333.201 87.7688C333.956 89.2528 335.863 89.812 337.3 88.9706L380.544 63.6597C381.981 62.8194 382.427 60.8826 381.503 59.4977ZM359.212 25.541C360.16 22.5202 362.188 19.9755 364.923 18.3742C370.976 14.8303 378.786 16.8727 382.33 22.9276C385.873 28.982 383.831 36.7907 377.777 40.3338C375.341 41.7594 372.598 42.3251 369.819 41.9828L359.078 25.8824C359.128 25.7726 359.175 25.6596 359.212 25.541ZM348.559 20.695L355.741 31.4598L321.369 51.5775L315.499 40.045L348.559 20.695ZM274.244 59.1639L278.857 41.5305C281.143 43.0305 282.81 45.5028 283.208 48.221C283.768 52.0459 281.788 56.0525 278.391 57.9635C277.124 58.6768 275.695 59.0829 274.244 59.1639ZM287.915 55.6546C288.374 54.5859 288.714 53.4663 288.924 52.3165L320.129 62.0867L320.299 62.421L324.727 71.1207L287.915 55.6546ZM337.021 82.3315L329.729 68.0034L349.247 56.5793C350.646 55.7601 351.117 53.9616 350.297 52.5627C349.478 51.1631 347.68 50.6927 346.28 51.5119L327.06 62.7616L324.036 56.8206L359.004 36.3538L362.703 41.8996L357.349 45.0338C355.949 45.8529 355.478 47.6515 356.298 49.0504C357.117 50.45 358.916 50.9204 360.315 50.1011L365.968 46.7919L374.89 60.1667L337.021 82.3315Z" fill="#A855F7" style="fill:#A855F7;fill:color(display-p3 0.6588 0.3333 0.9686);fill-opacity:1;"/>
<path d="M254.34 66.7554C251.504 68.4006 248.778 70.2822 246.238 72.3483C245.109 73.267 244.828 74.9285 245.592 76.1676C246.511 77.6553 248.589 78.005 249.943 76.9038C252.246 75.0312 254.716 73.326 257.287 71.8349C258.689 71.0213 259.166 69.2242 258.352 67.8222C257.539 66.4189 255.742 65.9419 254.34 66.7554Z" fill="#58C8FF" style="fill:#58C8FF;fill:color(display-p3 0.3433 0.7850 1.0000);fill-opacity:1;"/>
<path d="M240.441 61.9618C237.861 63.9427 235.391 66.1129 233.097 68.4126C232.04 69.4725 231.962 71.2117 232.918 72.3625C234.01 73.6748 236.051 73.7659 237.254 72.5596C239.367 70.4416 241.643 68.4431 244.018 66.6186C245.304 65.6311 245.546 63.788 244.558 62.502C243.57 61.2168 241.727 60.9739 240.441 61.9618Z" fill="#58C8FF" style="fill:#58C8FF;fill:color(display-p3 0.3433 0.7850 1.0000);fill-opacity:1;"/>
<path d="M257.323 52.2073C254.322 53.4511 251.375 54.9057 248.563 56.5307C247.159 57.3422 246.678 59.1382 247.489 60.5413C247.898 61.2483 248.556 61.7216 249.288 61.9132C250.01 62.1019 250.804 62.0175 251.5 61.6149C254.091 60.1178 256.806 58.7781 259.571 57.6322C261.069 57.0117 261.78 55.2939 261.159 53.7959C260.539 52.2979 258.822 51.5862 257.323 52.2073Z" fill="#58C8FF" style="fill:#58C8FF;fill:color(display-p3 0.3433 0.7850 1.0000);fill-opacity:1;"/>
<path d="M219.101 68.511C220.325 69.5438 222.207 69.3829 223.239 68.1606C225.18 65.8611 227.273 63.6433 229.46 61.5698C230.637 60.4542 230.686 58.5962 229.572 57.4189C228.456 56.2423 226.598 56.1922 225.421 57.3078C223.076 59.5307 220.832 61.9081 218.751 64.3737C217.705 65.6126 217.862 67.4653 219.101 68.511Z" fill="#58C8FF" style="fill:#58C8FF;fill:color(display-p3 0.3433 0.7850 1.0000);fill-opacity:1;"/>
<path d="M232.262 55.139C233.228 56.4155 235.1 56.6734 236.375 55.7086C238.774 53.8932 241.304 52.1897 243.894 50.646C245.287 49.816 245.743 48.014 244.913 46.6212C244.083 45.2287 242.281 44.7715 240.888 45.602C238.113 47.2557 235.403 49.0806 232.832 51.0261C231.538 52.005 231.283 53.8463 232.262 55.139Z" fill="#58C8FF" style="fill:#58C8FF;fill:color(display-p3 0.3433 0.7850 1.0000);fill-opacity:1;"/>
<path d="M249.968 46.6135C250.598 46.7782 251.286 46.7357 251.925 46.4452C254.667 45.1985 257.508 44.0912 260.368 43.1553C261.909 42.6506 262.749 40.9927 262.245 39.4519C261.741 37.9111 260.083 37.0711 258.542 37.5746C255.477 38.578 252.432 39.7636 249.494 41.1003C248.423 41.5876 247.733 42.7025 247.775 43.8793C247.821 45.16 248.728 46.2892 249.968 46.6135Z" fill="#58C8FF" style="fill:#58C8FF;fill:color(display-p3 0.3433 0.7850 1.0000);fill-opacity:1;"/>
</g>
</g>
<defs>
<clipPath id="clip0_65_1166">
<rect width="446" height="446" fill="white" style="fill:white;fill-opacity:1;"/>
</clipPath>
<clipPath id="clip1_65_1166">
<rect width="189.085" height="111.795" fill="white" style="fill:white;fill-opacity:1;" transform="translate(220.543 -29.3057) rotate(14.6593)"/>
</clipPath>
</defs>
</svg>
