<svg width="446" height="446" viewBox="0 0 446 446" fill="none" xmlns="http://www.w3.org/2000/svg">
<g clip-path="url(#clip0_71_1868)">
<path d="M231.507 318.333C208.767 326.504 210.315 351.019 213.78 356.843" stroke="#A855F7" style="stroke:#A855F7;stroke:color(display-p3 0.6588 0.3333 0.9686);stroke-opacity:1;" stroke-width="6.02015" stroke-linecap="round"/>
<path d="M287.776 388.066L290.285 428.702L277.241 434.723" stroke="#A855F7" style="stroke:#A855F7;stroke:color(display-p3 0.6588 0.3333 0.9686);stroke-opacity:1;" stroke-width="6.02015" stroke-linecap="round"/>
<path d="M361.021 388.568L358.513 429.204L371.557 435.224" stroke="#A855F7" style="stroke:#A855F7;stroke:color(display-p3 0.6588 0.3333 0.9686);stroke-opacity:1;" stroke-width="6.02015" stroke-linecap="round"/>
<path d="M341.456 334.386C341.456 364.864 316.749 389.571 286.272 389.571C255.794 389.571 231.087 364.864 231.087 334.386C231.087 303.909 255.794 279.202 286.272 279.202C316.749 279.202 341.456 303.909 341.456 334.386Z" fill="#F6EDFF" style="fill:#F6EDFF;fill:color(display-p3 0.9655 0.9292 1.0000);fill-opacity:1;"/>
<path d="M424.735 334.386C424.735 364.864 400.028 389.571 369.55 389.571C339.073 389.571 314.366 364.864 314.366 334.386C314.366 303.909 339.073 279.202 369.55 279.202C400.028 279.202 424.735 303.909 424.735 334.386Z" fill="#F6EDFF" style="fill:#F6EDFF;fill:color(display-p3 0.9655 0.9292 1.0000);fill-opacity:1;"/>
<path d="M383.597 274.185C383.597 304.662 358.89 329.369 328.413 329.369C297.935 329.369 273.228 304.662 273.228 274.185C273.228 243.707 297.935 219 328.413 219C358.89 219 383.597 243.707 383.597 274.185Z" fill="#F6EDFF" style="fill:#F6EDFF;fill:color(display-p3 0.9655 0.9292 1.0000);fill-opacity:1;"/>
<path d="M273.73 280.706C268.211 225.02 313.363 219.502 332.928 219.501C347.978 219.501 388.113 229.535 382.595 280.706" stroke="#A855F7" style="stroke:#A855F7;stroke:color(display-p3 0.6588 0.3333 0.9686);stroke-opacity:1;" stroke-width="6.02015" stroke-linecap="round"/>
<path d="M383.095 281.71C440.79 292.657 424.302 348.202 420.722 355.959C411.691 375.524 374.566 407.632 329.414 372.012" stroke="#A855F7" style="stroke:#A855F7;stroke:color(display-p3 0.6588 0.3333 0.9686);stroke-opacity:1;" stroke-width="6.02015" stroke-linecap="round"/>
<path d="M328.413 371.009C266.205 413.15 234.383 362.48 230.083 348.433C222.559 323.851 237.107 285.723 273.729 281.71" stroke="#A855F7" style="stroke:#A855F7;stroke:color(display-p3 0.6588 0.3333 0.9686);stroke-opacity:1;" stroke-width="6.02015" stroke-linecap="round"/>
<circle cx="289.282" cy="306.293" r="15.5521" stroke="#A855F7" style="stroke:#A855F7;stroke:color(display-p3 0.6588 0.3333 0.9686);stroke-opacity:1;" stroke-width="5.0168"/>
<circle cx="365.537" cy="306.293" r="15.5521" stroke="#A855F7" style="stroke:#A855F7;stroke:color(display-p3 0.6588 0.3333 0.9686);stroke-opacity:1;" stroke-width="5.0168"/>
<path d="M305.335 306.292C317.877 291.743 341.456 295.757 348.982 306.292" stroke="#A855F7" style="stroke:#A855F7;stroke:color(display-p3 0.6588 0.3333 0.9686);stroke-opacity:1;" stroke-width="6.02015" stroke-linecap="round"/>
<path d="M339.275 329.195C327.157 337.804 313.803 330.199 313.301 329.195" stroke="#A855F7" style="stroke:#A855F7;stroke:color(display-p3 0.6588 0.3333 0.9686);stroke-opacity:1;" stroke-width="3.01008" stroke-linecap="round"/>
<path d="M301.107 276.47C295.4 283.715 287.276 279.122 286.66 278.185" stroke="#A855F7" style="stroke:#A855F7;stroke:color(display-p3 0.6588 0.3333 0.9686);stroke-opacity:1;" stroke-width="3.01008" stroke-linecap="round"/>
<circle cx="365.537" cy="311.309" r="6.02015" fill="#A855F7" style="fill:#A855F7;fill:color(display-p3 0.6588 0.3333 0.9686);fill-opacity:1;"/>
<path d="M306.338 247.596C308.345 265.155 327.034 262.121 332.426 257.128C345.971 244.586 330.921 236.057 324.399 241.074C309.316 252.676 334.432 267.663 345.469 258.633" stroke="#A855F7" style="stroke:#A855F7;stroke:color(display-p3 0.6588 0.3333 0.9686);stroke-opacity:1;" stroke-width="6.02015" stroke-linecap="round"/>
<path d="M365.89 279.494C373.234 279.494 380.277 282.411 385.47 287.604C390.663 292.797 393.581 299.84 393.581 307.184C393.581 314.043 391.067 320.348 386.935 325.205L388.085 326.355H391.451L412.751 347.655L406.361 354.045L385.06 332.745V329.379L383.91 328.229C379.054 332.362 372.749 334.875 365.89 334.875C358.546 334.875 351.503 331.958 346.31 326.765C341.117 321.572 338.199 314.528 338.199 307.184C338.199 299.84 341.117 292.797 346.31 287.604C351.503 282.411 358.546 279.494 365.89 279.494ZM365.89 288.014C355.24 288.014 346.719 296.534 346.719 307.184C346.719 317.835 355.24 326.355 365.89 326.355C376.54 326.355 385.06 317.835 385.06 307.184C385.06 296.534 376.54 288.014 365.89 288.014Z" fill="#52168A" style="fill:#52168A;fill:color(display-p3 0.3204 0.0880 0.5417);fill-opacity:1;"/>
<path d="M357.985 271.355C364.935 265.293 372.068 271.31 372.5 272.345" stroke="#A855F7" style="stroke:#A855F7;stroke:color(display-p3 0.6588 0.3333 0.9686);stroke-opacity:1;" stroke-width="3.01008" stroke-linecap="round"/>
<path d="M281.492 306.193C288.443 300.13 295.575 306.148 296.007 307.183" stroke="#A855F7" style="stroke:#A855F7;stroke:color(display-p3 0.6588 0.3333 0.9686);stroke-opacity:1;" stroke-width="3.01008" stroke-linecap="round"/>
<path d="M427.363 320.232C448.643 331.68 450.382 370.091 406.835 348.886" stroke="#A855F7" style="stroke:#A855F7;stroke:color(display-p3 0.6588 0.3333 0.9686);stroke-opacity:1;" stroke-width="6.02015" stroke-linecap="round"/>
<path d="M112.313 223.823L114.595 260.795L102.728 266.272" stroke="#A855F7" style="stroke:#A855F7;stroke:color(display-p3 0.6588 0.3333 0.9686);stroke-opacity:1;" stroke-width="5.47735" stroke-linecap="round"/>
<path d="M178.954 224.279L176.672 261.251L188.54 266.728" stroke="#A855F7" style="stroke:#A855F7;stroke:color(display-p3 0.6588 0.3333 0.9686);stroke-opacity:1;" stroke-width="5.47735" stroke-linecap="round"/>
<path d="M161.153 174.983C161.153 202.712 138.673 225.192 110.943 225.192C83.2137 225.192 60.7344 202.712 60.7344 174.983C60.7344 147.253 83.2137 124.774 110.943 124.774C138.673 124.774 161.153 147.253 161.153 174.983Z" fill="#F6EDFF" style="fill:#F6EDFF;fill:color(display-p3 0.9655 0.9292 1.0000);fill-opacity:1;"/>
<path d="M236.923 174.983C236.923 202.712 214.443 225.192 186.714 225.192C158.984 225.192 136.504 202.712 136.504 174.983C136.504 147.253 158.984 124.774 186.714 124.774C214.443 124.774 236.923 147.253 236.923 174.983Z" fill="#F6EDFF" style="fill:#F6EDFF;fill:color(display-p3 0.9655 0.9292 1.0000);fill-opacity:1;"/>
<path d="M199.494 120.209C199.494 147.939 177.015 170.418 149.285 170.418C121.555 170.418 99.0758 147.939 99.0758 120.209C99.0758 92.4794 121.555 70 149.285 70C177.015 70 199.494 92.4794 199.494 120.209Z" fill="#F6EDFF" style="fill:#F6EDFF;fill:color(display-p3 0.9655 0.9292 1.0000);fill-opacity:1;"/>
<path d="M114.425 141.569C114.254 141.221 113.894 141 113.498 141C113.102 141 112.744 141.221 112.571 141.569L110.5 145.752L105.877 146.423C105.491 146.479 105.169 146.745 105.05 147.109C104.931 147.472 105.028 147.874 105.304 148.143L108.659 151.402L107.867 156.009C107.803 156.389 107.964 156.774 108.282 156.999C108.601 157.223 109.023 157.252 109.37 157.072L113.501 154.906L117.631 157.072C117.979 157.252 118.401 157.227 118.719 156.999C119.038 156.771 119.199 156.389 119.135 156.009L118.34 151.402L121.694 148.143C121.971 147.874 122.071 147.472 121.948 147.109C121.826 146.745 121.507 146.479 121.121 146.423L116.495 145.752L114.425 141.569Z" fill="#A855F7" style="fill:#A855F7;fill:color(display-p3 0.6588 0.3333 0.9686);fill-opacity:1;"/>
<path d="M99.5334 126.143C94.5123 75.4775 135.593 70.4566 153.394 70.4565C167.087 70.4565 203.603 79.5855 198.582 126.143" stroke="#A855F7" style="stroke:#A855F7;stroke:color(display-p3 0.6588 0.3333 0.9686);stroke-opacity:1;" stroke-width="5.47735" stroke-linecap="round"/>
<path d="M199.037 127.056C251.53 137.016 236.529 187.552 233.271 194.61C225.055 212.411 191.277 241.624 150.196 209.216" stroke="#A855F7" style="stroke:#A855F7;stroke:color(display-p3 0.6588 0.3333 0.9686);stroke-opacity:1;" stroke-width="5.47735" stroke-linecap="round"/>
<path d="M149.286 208.303C92.6862 246.645 63.7334 200.544 59.8214 187.763C52.9754 165.397 66.2122 130.707 99.5323 127.056" stroke="#A855F7" style="stroke:#A855F7;stroke:color(display-p3 0.6588 0.3333 0.9686);stroke-opacity:1;" stroke-width="5.47735" stroke-linecap="round"/>
<circle cx="113.683" cy="149.422" r="14.1498" stroke="#A855F7" style="stroke:#A855F7;stroke:color(display-p3 0.6588 0.3333 0.9686);stroke-opacity:1;" stroke-width="4.56446"/>
<circle cx="183.062" cy="149.422" r="14.1498" stroke="#A855F7" style="stroke:#A855F7;stroke:color(display-p3 0.6588 0.3333 0.9686);stroke-opacity:1;" stroke-width="4.56446"/>
<path d="M128.289 149.421C139.7 136.185 161.153 139.836 168 149.422" stroke="#A855F7" style="stroke:#A855F7;stroke:color(display-p3 0.6588 0.3333 0.9686);stroke-opacity:1;" stroke-width="5.47735" stroke-linecap="round"/>
<path d="M109.396 123.662C114.448 116.962 121.926 120.984 122.505 121.824" stroke="#A855F7" style="stroke:#A855F7;stroke:color(display-p3 0.6588 0.3333 0.9686);stroke-opacity:1;" stroke-width="2.73868" stroke-linecap="round"/>
<g clip-path="url(#clip1_71_1868)">
<path d="M176.191 117.635C182.515 112.119 189.004 117.594 189.397 118.536" stroke="#A855F7" style="stroke:#A855F7;stroke:color(display-p3 0.6588 0.3333 0.9686);stroke-opacity:1;" stroke-width="2.73868" stroke-linecap="round"/>
<path d="M185.425 140.569C185.254 140.221 184.894 140 184.498 140C184.102 140 183.744 140.221 183.571 140.569L181.5 144.752L176.877 145.423C176.491 145.479 176.169 145.745 176.05 146.109C175.931 146.472 176.028 146.874 176.304 147.143L179.659 150.402L178.867 155.009C178.803 155.389 178.964 155.774 179.282 155.999C179.601 156.223 180.023 156.252 180.37 156.072L184.501 153.906L188.631 156.072C188.979 156.252 189.401 156.227 189.719 155.999C190.038 155.771 190.199 155.389 190.135 155.009L189.34 150.402L192.694 147.143C192.971 146.874 193.071 146.472 192.948 146.109C192.826 145.745 192.507 145.479 192.121 145.423L187.495 144.752L185.425 140.569Z" fill="#A855F7" style="fill:#A855F7;fill:color(display-p3 0.6588 0.3333 0.9686);fill-opacity:1;"/>
</g>
<path d="M239.313 162.105C271 203 202.5 231.5 162.5 179" stroke="#A855F7" style="stroke:#A855F7;stroke:color(display-p3 0.6588 0.3333 0.9686);stroke-opacity:1;" stroke-width="5.47735" stroke-linecap="round"/>
<ellipse cx="147.5" cy="172.5" rx="6.5" ry="8.5" fill="#A855F7" style="fill:#A855F7;fill:color(display-p3 0.6588 0.3333 0.9686);fill-opacity:1;"/>
<path d="M59.5 161C30.3828 193.123 69.5001 221 137 179" stroke="#A855F7" style="stroke:#A855F7;stroke:color(display-p3 0.6588 0.3333 0.9686);stroke-opacity:1;" stroke-width="5.47735" stroke-linecap="round"/>
<path d="M200.5 124C202.753 99.5 109.503 103 101 127.5C91.3879 112.886 79.9998 83 109.502 72.1161C124.015 66.7621 126.956 71.6447 129.991 72.1161C133.027 72.5875 133.785 63.6309 155.033 60.3311C166.381 58.5687 181.842 64.9266 192.724 71.4989C200.861 76.4134 204.008 85.848 203.138 95.3141L200.5 124Z" fill="#A855F7" stroke="#A855F7" style="fill:#A855F7;fill:color(display-p3 0.6588 0.3333 0.9686);fill-opacity:1;stroke:#A855F7;stroke:color(display-p3 0.6588 0.3333 0.9686);stroke-opacity:1;" stroke-width="2" stroke-linecap="round"/>
<path d="M130 72.5C126.5 89 127.5 103 134.5 109.5" stroke="#F6EDFF" style="stroke:#F6EDFF;stroke:color(display-p3 0.9647 0.9294 1.0000);stroke-opacity:1;" stroke-width="2" stroke-linecap="round"/>
</g>
<defs>
<clipPath id="clip0_71_1868">
<rect width="446" height="446" fill="white" style="fill:white;fill-opacity:1;"/>
</clipPath>
<clipPath id="clip1_71_1868">
<rect width="93.0239" height="93.0239" fill="white" style="fill:white;fill-opacity:1;" transform="translate(146.562 113.411)"/>
</clipPath>
</defs>
</svg>
