<svg width="446" height="446" viewBox="0 0 446 446" fill="none" xmlns="http://www.w3.org/2000/svg">
<g clip-path="url(#clip0_64_438)">
<path d="M78.5654 68.0539C78.5654 87.8029 94.4921 103.73 114.241 103.73H349.318C346.77 99.2701 344.222 93.5365 342.31 86.5288H214.897V73.7875H340.399C340.399 69.3281 340.399 65.5057 341.036 61.0462H167.117V48.3049H344.222C345.496 43.2084 348.044 37.4748 350.592 31.7412H114.241C94.4921 31.7412 78.5654 48.3049 78.5654 68.0539Z" fill="white" style="fill:white;fill-opacity:1;"/>
<path d="M114.241 116.471C111.056 116.471 107.233 115.834 104.048 115.197C93.855 113.286 84.9361 107.552 78.5654 100.544V362.378C78.5654 381.49 83.0249 395.506 92.5809 404.425C103.411 414.618 118.063 413.981 118.063 413.981H366.519V116.471H114.241Z" fill="white" style="fill:white;fill-opacity:1;"/>
<path d="M373.527 31.7413C377.046 31.7413 379.898 28.8891 379.898 25.3707V25.3707C379.898 21.8522 377.046 19 373.527 19H114.242C87.4849 19 65.8247 40.6602 65.8247 67.4169V362.378C65.8247 385.312 72.1954 402.513 84.2996 413.98C97.0409 426.085 112.33 426.722 117.427 426.722H370.898C375.868 426.722 379.898 422.692 379.898 417.722V112.73C379.898 107.759 375.868 103.73 370.898 103.73H368.973C366.586 103.73 364.271 102.813 362.816 100.921C356.909 93.2383 345.129 71.625 362.765 36.4269C364.228 33.5082 367.269 31.7413 370.534 31.7413H373.527ZM345.893 42.9661C344.69 46.2687 341.756 48.305 338.241 48.305H173.489C169.97 48.305 167.118 51.1572 167.118 54.6756V54.6756C167.118 58.1941 169.97 61.0463 173.489 61.0463H334.198C337.808 61.0463 340.583 64.2511 340.464 67.8584V67.8584C340.355 71.1322 337.744 73.7876 334.469 73.7876H221.269C217.75 73.7876 214.898 76.6398 214.898 80.1583V80.1583C214.898 83.6767 217.75 86.5289 221.269 86.5289H336.592C339.968 86.5289 343.089 89.4481 344.234 92.625V92.625C346.182 98.0342 342.165 103.73 336.416 103.73H114.242C94.4926 103.73 78.566 87.803 78.566 68.054C78.566 48.305 94.4926 31.7413 114.242 31.7413H338.806C344.349 31.7413 347.792 37.7579 345.893 42.9661V42.9661ZM366.519 404.98C366.519 409.951 362.49 413.98 357.519 413.98H118.26C118.129 413.98 118.004 413.983 117.873 413.985C116.123 414.017 102.688 413.936 92.5814 404.424C83.0255 395.505 78.566 381.49 78.566 362.378V123.824C78.566 115.598 89.9177 110.682 97.6612 113.459C99.7229 114.198 101.856 114.786 104.049 115.197C107.234 115.834 111.056 116.471 114.242 116.471H357.519C362.49 116.471 366.519 120.5 366.519 125.471V404.98Z" fill="#A855F7" style="fill:#A855F7;fill:color(display-p3 0.6588 0.3333 0.9686);fill-opacity:1;"/>
<g clip-path="url(#clip1_64_438)">
<path d="M341.036 388.498V116.471H114.241C110.418 116.471 107.233 115.834 104.048 115.197V388.498H341.036Z" fill="#CCEFFF" style="fill:#CCEFFF;fill:color(display-p3 0.8000 0.9367 1.0000);fill-opacity:1;"/>
<path d="M270.202 281.944C292.289 279.414 296.064 257.133 294.187 251.188" stroke="#A855F7" style="stroke:#A855F7;stroke:color(display-p3 0.6588 0.3333 0.9686);stroke-opacity:1;" stroke-width="5.53847" stroke-linecap="round"/>
<path d="M146.243 349.958L149.704 387.254L137.881 393.16" stroke="#A855F7" style="stroke:#A855F7;stroke:color(display-p3 0.6588 0.3333 0.9686);stroke-opacity:1;" stroke-width="5.53847" stroke-linecap="round"/>
<path d="M213.61 348.338L212.458 385.776L224.623 390.942" stroke="#A855F7" style="stroke:#A855F7;stroke:color(display-p3 0.6588 0.3333 0.9686);stroke-opacity:1;" stroke-width="5.53847" stroke-linecap="round"/>
<path d="M194.08 299.072C194.946 327.098 172.928 350.519 144.902 351.385C116.877 352.251 93.4555 330.233 92.5896 302.207C91.7237 274.182 113.741 250.76 141.767 249.895C169.793 249.029 193.214 271.046 194.08 299.072Z" fill="#F6EDFF" style="fill:#F6EDFF;fill:color(display-p3 0.9655 0.9292 1.0000);fill-opacity:1;"/>
<path d="M270.659 296.706C271.525 324.732 249.507 348.153 221.481 349.019C193.456 349.885 170.034 327.867 169.169 299.841C168.303 271.816 190.32 248.394 218.346 247.529C246.372 246.663 269.793 268.68 270.659 296.706Z" fill="#F6EDFF" style="fill:#F6EDFF;fill:color(display-p3 0.9655 0.9292 1.0000);fill-opacity:1;"/>
<path d="M231.12 242.516C231.986 270.542 209.969 293.963 181.943 294.829C153.917 295.695 130.496 273.678 129.63 245.652C128.764 217.626 150.782 194.205 178.807 193.339C206.833 192.473 230.254 214.491 231.12 242.516Z" fill="#F6EDFF" style="fill:#F6EDFF;fill:color(display-p3 0.9655 0.9292 1.0000);fill-opacity:1;"/>
<path d="M130.277 251.635C123.62 200.585 164.983 194.228 182.974 193.672C196.814 193.245 234.004 201.331 230.384 248.542" stroke="#A855F7" style="stroke:#A855F7;stroke:color(display-p3 0.6588 0.3333 0.9686);stroke-opacity:1;" stroke-width="5.53847" stroke-linecap="round"/>
<path d="M230.872 249.451C284.236 257.878 270.653 309.423 267.581 316.657C259.833 334.905 226.606 365.484 184.075 334.013" stroke="#A855F7" style="stroke:#A855F7;stroke:color(display-p3 0.6588 0.3333 0.9686);stroke-opacity:1;" stroke-width="5.53847" stroke-linecap="round"/>
<path d="M183.125 333.119C127.119 373.637 96.4177 327.948 92.0649 315.153C84.4474 292.762 96.7423 257.288 130.304 252.557" stroke="#A855F7" style="stroke:#A855F7;stroke:color(display-p3 0.6588 0.3333 0.9686);stroke-opacity:1;" stroke-width="5.53847" stroke-linecap="round"/>
<circle cx="145.304" cy="274.72" r="14.3077" transform="rotate(-1.7696 145.304 274.72)" stroke="#A855F7" style="stroke:#A855F7;stroke:color(display-p3 0.6588 0.3333 0.9686);stroke-opacity:1;" stroke-width="4.61539"/>
<circle cx="215.425" cy="272.554" r="14.3077" transform="rotate(-1.7696 215.425 272.554)" stroke="#A855F7" style="stroke:#A855F7;stroke:color(display-p3 0.6588 0.3333 0.9686);stroke-opacity:1;" stroke-width="4.61539"/>
<path d="M160.066 274.263C171.186 260.529 192.982 263.55 200.201 273.023" stroke="#A855F7" style="stroke:#A855F7;stroke:color(display-p3 0.6588 0.3333 0.9686);stroke-opacity:1;" stroke-width="5.53847" stroke-linecap="round"/>
<path d="M185.867 287.319C180.055 293.502 172.978 288.641 172.488 287.732" stroke="#A855F7" style="stroke:#A855F7;stroke:color(display-p3 0.6588 0.3333 0.9686);stroke-opacity:1;" stroke-width="2.76923" stroke-linecap="round"/>
<circle cx="144.553" cy="280.285" r="5.53847" transform="rotate(-1.7696 144.553 280.285)" fill="#A855F7" style="fill:#A855F7;fill:color(display-p3 0.6588 0.3333 0.9686);fill-opacity:1;"/>
<circle cx="215.567" cy="277.167" r="5.53847" transform="rotate(-1.7696 215.567 277.167)" fill="#A855F7" style="fill:#A855F7;fill:color(display-p3 0.6588 0.3333 0.9686);fill-opacity:1;"/>
<path d="M159.322 220.261C161.666 236.351 178.764 233.03 183.581 228.285C195.68 216.368 181.598 208.953 175.744 213.751C162.204 224.848 185.725 237.916 195.618 229.299" stroke="#A855F7" style="stroke:#A855F7;stroke:color(display-p3 0.6588 0.3333 0.9686);stroke-opacity:1;" stroke-width="5.53847" stroke-linecap="round"/>
<path d="M159.746 147.143V136.01H163.701C165.466 136.01 166.862 136.503 167.89 137.489C168.928 138.465 169.447 139.819 169.447 141.553C169.447 143.297 168.928 144.667 167.89 145.663C166.862 146.65 165.466 147.143 163.701 147.143H159.746ZM162.471 144.807H163.592C164.547 144.807 165.289 144.527 165.819 143.966C166.358 143.406 166.628 142.601 166.628 141.553C166.628 140.515 166.358 139.721 165.819 139.171C165.279 138.62 164.537 138.345 163.592 138.345H162.471V144.807ZM171.083 138.112V136.01H173.714V138.112H171.083ZM171.052 147.143V139.124H173.745V147.143H171.052ZM175.143 143.125C175.143 141.984 175.543 141.003 176.342 140.183C177.152 139.352 178.242 138.937 179.612 138.937C180.017 138.937 180.401 138.979 180.764 139.062C181.138 139.145 181.444 139.248 181.683 139.373C181.922 139.487 182.129 139.607 182.306 139.731C182.482 139.845 182.607 139.944 182.679 140.027L182.804 140.152L181.667 141.958C181.605 141.895 181.522 141.823 181.418 141.74C181.314 141.657 181.096 141.542 180.764 141.397C180.442 141.252 180.115 141.179 179.783 141.179C179.181 141.179 178.709 141.371 178.366 141.755C178.034 142.129 177.868 142.575 177.868 143.094C177.868 143.624 178.045 144.091 178.398 144.496C178.75 144.89 179.243 145.087 179.877 145.087C180.209 145.087 180.557 145.009 180.92 144.854C181.283 144.688 181.569 144.527 181.776 144.371L182.072 144.122L183.053 146.006C183.022 146.037 182.975 146.084 182.913 146.146C182.851 146.208 182.71 146.317 182.492 146.473C182.274 146.618 182.041 146.753 181.792 146.878C181.543 146.992 181.221 147.096 180.826 147.189C180.432 147.283 180.027 147.329 179.612 147.329C178.242 147.329 177.152 146.919 176.342 146.099C175.543 145.279 175.143 144.288 175.143 143.125ZM183.719 143.125C183.719 141.984 184.119 141.003 184.918 140.183C185.728 139.352 186.818 138.937 188.188 138.937C188.593 138.937 188.977 138.979 189.34 139.062C189.714 139.145 190.02 139.248 190.259 139.373C190.497 139.487 190.705 139.607 190.881 139.731C191.058 139.845 191.182 139.944 191.255 140.027L191.38 140.152L190.243 141.958C190.181 141.895 190.098 141.823 189.994 141.74C189.89 141.657 189.672 141.542 189.34 141.397C189.018 141.252 188.691 141.179 188.359 141.179C187.757 141.179 187.285 141.371 186.942 141.755C186.61 142.129 186.444 142.575 186.444 143.094C186.444 143.624 186.62 144.091 186.973 144.496C187.326 144.89 187.819 145.087 188.452 145.087C188.785 145.087 189.132 145.009 189.496 144.854C189.859 144.688 190.144 144.527 190.352 144.371L190.648 144.122L191.629 146.006C191.598 146.037 191.551 146.084 191.489 146.146C191.426 146.208 191.286 146.317 191.068 146.473C190.85 146.618 190.617 146.753 190.368 146.878C190.118 146.992 189.797 147.096 189.402 147.189C189.008 147.283 188.603 147.329 188.188 147.329C186.818 147.329 185.728 146.919 184.918 146.099C184.119 145.279 183.719 144.288 183.719 143.125ZM192.918 138.112V136.01H195.549V138.112H192.918ZM192.887 147.143V139.124H195.58V147.143H192.887ZM198.286 146.177C197.414 145.399 196.978 144.392 196.978 143.157C196.978 141.921 197.414 140.909 198.286 140.12C199.158 139.332 200.232 138.937 201.509 138.937C202.796 138.937 203.876 139.332 204.748 140.12C205.63 140.899 206.071 141.911 206.071 143.157C206.071 144.392 205.635 145.399 204.763 146.177C203.891 146.945 202.812 147.329 201.525 147.329C200.237 147.329 199.158 146.945 198.286 146.177ZM199.703 143.157C199.703 143.738 199.879 144.205 200.232 144.558C200.585 144.911 201.016 145.087 201.525 145.087C202.033 145.087 202.464 144.911 202.817 144.558C203.17 144.205 203.346 143.738 203.346 143.157C203.346 142.565 203.17 142.087 202.817 141.724C202.464 141.361 202.033 141.179 201.525 141.179C201.016 141.179 200.585 141.361 200.232 141.724C199.879 142.087 199.703 142.565 199.703 143.157ZM207.468 147.143V139.124H210.053V139.825L210.022 140.323H210.053C210.603 139.399 211.454 138.937 212.607 138.937C214.527 138.937 215.487 139.939 215.487 141.942V147.143H212.793V142.44C212.793 141.735 212.498 141.382 211.906 141.382C211.107 141.382 210.577 141.766 210.318 142.534C210.214 142.835 210.162 143.188 210.162 143.593V147.143H207.468ZM216.76 144.745C216.76 144.205 216.936 143.748 217.289 143.375C217.642 142.991 218.094 142.721 218.644 142.565C219.204 142.399 219.703 142.29 220.139 142.238C220.575 142.176 221 142.145 221.415 142.145H221.524V142.004C221.524 141.413 221.13 141.117 220.341 141.117C220.04 141.117 219.708 141.184 219.344 141.319C218.992 141.444 218.706 141.568 218.488 141.693L218.177 141.88L217.243 139.98C217.346 139.897 217.492 139.799 217.678 139.684C217.876 139.57 218.265 139.42 218.846 139.233C219.438 139.036 220.024 138.937 220.606 138.937C221.737 138.937 222.619 139.228 223.253 139.809C223.896 140.39 224.218 141.19 224.218 142.207V147.143H221.758V146.66L221.789 146.162H221.758C221.737 146.193 221.711 146.234 221.68 146.286C221.649 146.338 221.566 146.432 221.431 146.566C221.306 146.701 221.166 146.821 221.01 146.925C220.855 147.028 220.637 147.122 220.357 147.205C220.087 147.288 219.796 147.329 219.485 147.329C218.716 147.329 218.068 147.096 217.538 146.629C217.019 146.151 216.76 145.523 216.76 144.745ZM219.469 144.605C219.469 144.802 219.531 144.963 219.656 145.087C219.791 145.212 219.983 145.274 220.232 145.274C220.575 145.274 220.881 145.124 221.151 144.823C221.421 144.522 221.555 144.2 221.555 143.857V143.686H221.306C220.818 143.686 220.388 143.764 220.014 143.92C219.651 144.065 219.469 144.293 219.469 144.605ZM226.08 147.143V139.124H228.664V140.479L228.633 140.977H228.664C228.841 140.416 229.163 139.944 229.63 139.56C230.107 139.176 230.637 138.984 231.218 138.984L231.529 139.015V141.662C231.384 141.631 231.202 141.615 230.984 141.615C229.905 141.615 229.214 142.082 228.913 143.016C228.82 143.317 228.773 143.681 228.773 144.106V147.143H226.08ZM232.801 138.112V136.01H235.433V138.112H232.801ZM232.77 147.143V139.124H235.464V147.143H232.77ZM238.169 146.177C237.298 145.399 236.862 144.392 236.862 143.157C236.862 141.921 237.298 140.909 238.169 140.12C239.041 139.332 240.116 138.937 241.393 138.937C242.68 138.937 243.759 139.332 244.631 140.12C245.513 140.899 245.955 141.911 245.955 143.157C245.955 144.392 245.519 145.399 244.647 146.177C243.775 146.945 242.695 147.329 241.408 147.329C240.121 147.329 239.041 146.945 238.169 146.177ZM239.586 143.157C239.586 143.738 239.763 144.205 240.116 144.558C240.469 144.911 240.899 145.087 241.408 145.087C241.917 145.087 242.347 144.911 242.7 144.558C243.053 144.205 243.23 143.738 243.23 143.157C243.23 142.565 243.053 142.087 242.7 141.724C242.347 141.361 241.917 141.179 241.408 141.179C240.899 141.179 240.469 141.361 240.116 141.724C239.763 142.087 239.586 142.565 239.586 143.157ZM251.346 146.177C250.692 145.399 250.365 144.381 250.365 143.125C250.365 141.869 250.702 140.857 251.377 140.089C252.062 139.321 252.944 138.937 254.024 138.937C254.501 138.937 254.917 138.994 255.27 139.108C255.622 139.212 255.851 139.316 255.955 139.42L256.126 139.575H256.157C256.147 139.472 256.142 139.352 256.142 139.217V136.01H258.835V147.143H256.313V146.613L256.328 146.162H256.297C256.276 146.193 256.245 146.234 256.204 146.286C256.173 146.338 256.09 146.432 255.955 146.566C255.82 146.701 255.669 146.821 255.503 146.925C255.347 147.028 255.129 147.122 254.849 147.205C254.579 147.288 254.289 147.329 253.977 147.329C252.887 147.329 252.01 146.945 251.346 146.177ZM253.526 141.724C253.225 142.067 253.074 142.534 253.074 143.125C253.074 143.717 253.219 144.195 253.51 144.558C253.801 144.921 254.18 145.103 254.647 145.103C255.093 145.103 255.467 144.937 255.768 144.605C256.069 144.272 256.219 143.779 256.219 143.125C256.219 142.606 256.079 142.16 255.799 141.786C255.529 141.402 255.145 141.21 254.647 141.21C254.2 141.21 253.827 141.382 253.526 141.724ZM260.248 143.125C260.248 141.921 260.627 140.925 261.384 140.136C262.142 139.337 263.154 138.937 264.42 138.937C265.573 138.937 266.476 139.3 267.13 140.027C267.794 140.743 268.126 141.672 268.126 142.814L268.064 143.655H263.004C263.097 144.122 263.315 144.48 263.658 144.729C264.01 144.968 264.415 145.087 264.872 145.087C265.215 145.087 265.567 145.02 265.931 144.885C266.304 144.75 266.59 144.615 266.787 144.48L267.083 144.278L268.079 146.162C267.986 146.245 267.846 146.354 267.659 146.489C267.483 146.613 267.093 146.784 266.491 147.002C265.9 147.22 265.287 147.329 264.654 147.329C263.294 147.329 262.22 146.914 261.431 146.084C260.642 145.253 260.248 144.267 260.248 143.125ZM263.066 142.113H265.417C265.417 141.802 265.318 141.532 265.121 141.304C264.924 141.075 264.67 140.961 264.358 140.961C263.683 140.961 263.253 141.345 263.066 142.113ZM273.046 144.184V136.01H275.74V143.826C275.74 144.221 275.787 144.49 275.88 144.636C275.984 144.781 276.186 144.854 276.487 144.854L276.814 144.838V147.174C276.565 147.205 276.295 147.22 276.005 147.22C275.589 147.22 275.226 147.189 274.915 147.127C274.614 147.054 274.307 146.919 273.996 146.722C273.695 146.525 273.461 146.214 273.295 145.788C273.129 145.362 273.046 144.828 273.046 144.184ZM277.581 144.745C277.581 144.205 277.757 143.748 278.11 143.375C278.463 142.991 278.915 142.721 279.465 142.565C280.025 142.399 280.524 142.29 280.96 142.238C281.396 142.176 281.821 142.145 282.236 142.145H282.345V142.004C282.345 141.413 281.951 141.117 281.162 141.117C280.861 141.117 280.529 141.184 280.166 141.319C279.813 141.444 279.527 141.568 279.309 141.693L278.998 141.88L278.064 139.98C278.167 139.897 278.313 139.799 278.5 139.684C278.697 139.57 279.086 139.42 279.667 139.233C280.259 139.036 280.846 138.937 281.427 138.937C282.558 138.937 283.441 139.228 284.074 139.809C284.717 140.39 285.039 141.19 285.039 142.207V147.143H282.579V146.66L282.61 146.162H282.579C282.558 146.193 282.532 146.234 282.501 146.286C282.47 146.338 282.387 146.432 282.252 146.566C282.127 146.701 281.987 146.821 281.832 146.925C281.676 147.028 281.458 147.122 281.178 147.205C280.908 147.288 280.617 147.329 280.306 147.329C279.538 147.329 278.889 147.096 278.359 146.629C277.84 146.151 277.581 145.523 277.581 144.745ZM280.29 144.605C280.29 144.802 280.352 144.963 280.477 145.087C280.612 145.212 280.804 145.274 281.053 145.274C281.396 145.274 281.702 145.124 281.972 144.823C282.242 144.522 282.377 144.2 282.377 143.857V143.686H282.127C281.64 143.686 281.209 143.764 280.835 143.92C280.472 144.065 280.29 144.293 280.29 144.605ZM135.266 166.143V155.01H139.143C140.129 155.01 140.85 155.098 141.307 155.275C141.951 155.524 142.454 155.929 142.817 156.489C143.181 157.039 143.362 157.714 143.362 158.513C143.362 159.136 143.217 159.733 142.926 160.304C142.636 160.864 142.226 161.279 141.696 161.549V161.581C141.8 161.715 141.94 161.939 142.117 162.25L144.281 166.143H141.245L139.267 162.39H137.991V166.143H135.266ZM137.991 160.055H139.174C139.62 160.055 139.968 159.935 140.217 159.697C140.466 159.458 140.591 159.12 140.591 158.684C140.591 158.228 140.471 157.89 140.233 157.672C139.994 157.454 139.553 157.345 138.909 157.345H137.991V160.055ZM144.961 162.125C144.961 160.921 145.34 159.925 146.098 159.136C146.856 158.337 147.868 157.937 149.134 157.937C150.286 157.937 151.189 158.3 151.843 159.027C152.508 159.743 152.84 160.672 152.84 161.814L152.777 162.655H147.717C147.811 163.122 148.029 163.48 148.371 163.729C148.724 163.968 149.129 164.087 149.586 164.087C149.928 164.087 150.281 164.02 150.644 163.885C151.018 163.75 151.303 163.615 151.501 163.48L151.797 163.278L152.793 165.162C152.7 165.245 152.559 165.354 152.373 165.489C152.196 165.613 151.807 165.784 151.205 166.002C150.613 166.22 150.001 166.329 149.368 166.329C148.008 166.329 146.933 165.914 146.145 165.084C145.356 164.253 144.961 163.267 144.961 162.125ZM147.779 161.113H150.131C150.131 160.802 150.032 160.532 149.835 160.304C149.637 160.075 149.383 159.961 149.072 159.961C148.397 159.961 147.966 160.345 147.779 161.113ZM153.704 163.745C153.704 163.205 153.88 162.748 154.233 162.375C154.586 161.991 155.037 161.721 155.588 161.565C156.148 161.399 156.646 161.29 157.082 161.238C157.518 161.176 157.944 161.145 158.359 161.145H158.468V161.004C158.468 160.413 158.074 160.117 157.285 160.117C156.984 160.117 156.651 160.184 156.288 160.319C155.935 160.444 155.65 160.568 155.432 160.693L155.12 160.88L154.186 158.98C154.29 158.897 154.435 158.799 154.622 158.684C154.819 158.57 155.209 158.42 155.79 158.233C156.382 158.036 156.968 157.937 157.549 157.937C158.681 157.937 159.563 158.228 160.196 158.809C160.84 159.39 161.162 160.19 161.162 161.207V166.143H158.702V165.66L158.733 165.162H158.702C158.681 165.193 158.655 165.234 158.624 165.286C158.593 165.338 158.51 165.432 158.375 165.566C158.25 165.701 158.11 165.821 157.954 165.925C157.798 166.028 157.581 166.122 157.3 166.205C157.03 166.288 156.74 166.329 156.428 166.329C155.66 166.329 155.011 166.096 154.482 165.629C153.963 165.151 153.704 164.523 153.704 163.745ZM156.413 163.605C156.413 163.802 156.475 163.963 156.6 164.087C156.735 164.212 156.927 164.274 157.176 164.274C157.518 164.274 157.824 164.124 158.094 163.823C158.364 163.522 158.499 163.2 158.499 162.857V162.686H158.25C157.762 162.686 157.331 162.764 156.958 162.92C156.594 163.065 156.413 163.293 156.413 163.605ZM162.914 163.184V155.01H165.608V162.826C165.608 163.221 165.655 163.49 165.748 163.636C165.852 163.781 166.054 163.854 166.355 163.854L166.682 163.838V166.174C166.433 166.205 166.163 166.22 165.873 166.22C165.458 166.22 165.094 166.189 164.783 166.127C164.482 166.054 164.176 165.919 163.864 165.722C163.563 165.525 163.33 165.214 163.164 164.788C162.997 164.362 162.914 163.828 162.914 163.184ZM178.185 166.143L177.5 163.807H174.028L173.358 166.143H170.556L174.339 155.01H177.204L180.988 166.143H178.185ZM175.787 157.548H175.756C175.59 158.357 175.439 158.996 175.305 159.463L174.666 161.627H176.862L176.239 159.463L175.787 157.548ZM181.332 162.125C181.332 160.984 181.732 160.003 182.531 159.183C183.34 158.352 184.43 157.937 185.801 157.937C186.205 157.937 186.589 157.979 186.953 158.062C187.326 158.145 187.633 158.248 187.871 158.373C188.11 158.487 188.318 158.607 188.494 158.731C188.671 158.845 188.795 158.944 188.868 159.027L188.992 159.152L187.856 160.958C187.794 160.895 187.71 160.823 187.607 160.74C187.503 160.657 187.285 160.542 186.953 160.397C186.631 160.252 186.304 160.179 185.972 160.179C185.37 160.179 184.897 160.371 184.555 160.755C184.223 161.129 184.057 161.575 184.057 162.094C184.057 162.624 184.233 163.091 184.586 163.496C184.939 163.89 185.432 164.087 186.065 164.087C186.397 164.087 186.745 164.009 187.108 163.854C187.472 163.688 187.757 163.527 187.965 163.371L188.261 163.122L189.242 165.006C189.21 165.037 189.164 165.084 189.101 165.146C189.039 165.208 188.899 165.317 188.681 165.473C188.463 165.618 188.229 165.753 187.98 165.878C187.731 165.992 187.409 166.096 187.015 166.189C186.621 166.283 186.216 166.329 185.801 166.329C184.43 166.329 183.34 165.919 182.531 165.099C181.732 164.279 181.332 163.288 181.332 162.125ZM189.892 163.745C189.892 163.205 190.069 162.748 190.421 162.375C190.774 161.991 191.226 161.721 191.776 161.565C192.337 161.399 192.835 161.29 193.271 161.238C193.707 161.176 194.132 161.145 194.548 161.145H194.657V161.004C194.657 160.413 194.262 160.117 193.473 160.117C193.172 160.117 192.84 160.184 192.477 160.319C192.124 160.444 191.838 160.568 191.62 160.693L191.309 160.88L190.375 158.98C190.479 158.897 190.624 158.799 190.811 158.684C191.008 158.57 191.397 158.42 191.979 158.233C192.57 158.036 193.157 157.937 193.738 157.937C194.869 157.937 195.752 158.228 196.385 158.809C197.028 159.39 197.35 160.19 197.35 161.207V166.143H194.89V165.66L194.921 165.162H194.89C194.869 165.193 194.843 165.234 194.812 165.286C194.781 165.338 194.698 165.432 194.563 165.566C194.439 165.701 194.298 165.821 194.143 165.925C193.987 166.028 193.769 166.122 193.489 166.205C193.219 166.288 192.928 166.329 192.617 166.329C191.849 166.329 191.2 166.096 190.671 165.629C190.152 165.151 189.892 164.523 189.892 163.745ZM192.601 163.605C192.601 163.802 192.664 163.963 192.788 164.087C192.923 164.212 193.115 164.274 193.364 164.274C193.707 164.274 194.013 164.124 194.283 163.823C194.553 163.522 194.688 163.2 194.688 162.857V162.686H194.439C193.951 162.686 193.52 162.764 193.146 162.92C192.783 163.065 192.601 163.293 192.601 163.605ZM199.648 165.177C198.994 164.399 198.667 163.381 198.667 162.125C198.667 160.869 199.004 159.857 199.679 159.089C200.364 158.321 201.246 157.937 202.326 157.937C202.803 157.937 203.219 157.994 203.572 158.108C203.925 158.212 204.153 158.316 204.257 158.42L204.428 158.575H204.459C204.449 158.472 204.444 158.352 204.444 158.217V155.01H207.137V166.143H204.615V165.613L204.63 165.162H204.599C204.578 165.193 204.547 165.234 204.506 165.286C204.475 165.338 204.392 165.432 204.257 165.566C204.122 165.701 203.971 165.821 203.805 165.925C203.649 166.028 203.431 166.122 203.151 166.205C202.881 166.288 202.591 166.329 202.279 166.329C201.189 166.329 200.312 165.945 199.648 165.177ZM201.828 160.724C201.527 161.067 201.376 161.534 201.376 162.125C201.376 162.717 201.522 163.195 201.812 163.558C202.103 163.921 202.482 164.103 202.949 164.103C203.395 164.103 203.769 163.937 204.07 163.605C204.371 163.272 204.521 162.779 204.521 162.125C204.521 161.606 204.381 161.16 204.101 160.786C203.831 160.402 203.447 160.21 202.949 160.21C202.502 160.21 202.129 160.382 201.828 160.724ZM208.55 162.125C208.55 160.921 208.929 159.925 209.686 159.136C210.444 158.337 211.456 157.937 212.723 157.937C213.875 157.937 214.778 158.3 215.432 159.027C216.096 159.743 216.428 160.672 216.428 161.814L216.366 162.655H211.306C211.399 163.122 211.617 163.48 211.96 163.729C212.313 163.968 212.717 164.087 213.174 164.087C213.517 164.087 213.87 164.02 214.233 163.885C214.607 163.75 214.892 163.615 215.089 163.48L215.385 163.278L216.382 165.162C216.288 165.245 216.148 165.354 215.961 165.489C215.785 165.613 215.395 165.784 214.793 166.002C214.202 166.22 213.589 166.329 212.956 166.329C211.596 166.329 210.522 165.914 209.733 165.084C208.944 164.253 208.55 163.267 208.55 162.125ZM211.368 161.113H213.719C213.719 160.802 213.62 160.532 213.423 160.304C213.226 160.075 212.972 159.961 212.66 159.961C211.986 159.961 211.555 160.345 211.368 161.113ZM217.899 166.143V158.124H220.484V158.825L220.453 159.323H220.484C221.096 158.399 221.89 157.937 222.866 157.937C223.935 157.937 224.683 158.389 225.108 159.292H225.139C225.368 158.918 225.71 158.601 226.167 158.342C226.634 158.072 227.148 157.937 227.708 157.937C228.497 157.937 229.125 158.176 229.592 158.653C230.07 159.131 230.309 159.894 230.309 160.942V166.143H227.615V161.394C227.615 160.719 227.407 160.382 226.992 160.382C226.203 160.382 225.71 160.885 225.513 161.892C225.472 162.079 225.451 162.39 225.451 162.826V166.143H222.757V161.394C222.757 160.719 222.55 160.382 222.134 160.382C221.366 160.382 220.878 160.864 220.671 161.83C220.619 162.079 220.593 162.411 220.593 162.826V166.143H217.899ZM232.223 157.112V155.01H234.855V157.112H232.223ZM232.192 166.143V158.124H234.886V166.143H232.192ZM236.268 163.745C236.268 163.205 236.445 162.748 236.798 162.375C237.151 161.991 237.602 161.721 238.152 161.565C238.713 161.399 239.211 161.29 239.647 161.238C240.083 161.176 240.508 161.145 240.924 161.145H241.033V161.004C241.033 160.413 240.638 160.117 239.849 160.117C239.548 160.117 239.216 160.184 238.853 160.319C238.5 160.444 238.214 160.568 237.997 160.693L237.685 160.88L236.751 158.98C236.855 158.897 237 158.799 237.187 158.684C237.384 158.57 237.773 158.42 238.355 158.233C238.946 158.036 239.533 157.937 240.114 157.937C241.245 157.937 242.128 158.228 242.761 158.809C243.405 159.39 243.726 160.19 243.726 161.207V166.143H241.266V165.66L241.297 165.162H241.266C241.245 165.193 241.22 165.234 241.188 165.286C241.157 165.338 241.074 165.432 240.939 165.566C240.815 165.701 240.675 165.821 240.519 165.925C240.363 166.028 240.145 166.122 239.865 166.205C239.595 166.288 239.304 166.329 238.993 166.329C238.225 166.329 237.576 166.096 237.047 165.629C236.528 165.151 236.268 164.523 236.268 163.745ZM238.977 163.605C238.977 163.802 239.04 163.963 239.164 164.087C239.299 164.212 239.491 164.274 239.74 164.274C240.083 164.274 240.389 164.124 240.659 163.823C240.929 163.522 241.064 163.2 241.064 162.857V162.686H240.815C240.327 162.686 239.896 162.764 239.522 162.92C239.159 163.065 238.977 163.293 238.977 163.605ZM249.458 166.143V155.01H253.334C254.321 155.01 255.042 155.098 255.499 155.275C256.142 155.524 256.646 155.929 257.009 156.489C257.372 157.039 257.554 157.714 257.554 158.513C257.554 159.136 257.409 159.733 257.118 160.304C256.827 160.864 256.417 161.279 255.888 161.549V161.581C255.992 161.715 256.132 161.939 256.308 162.25L258.473 166.143H255.436L253.459 162.39H252.182V166.143H249.458ZM252.182 160.055H253.366C253.812 160.055 254.16 159.935 254.409 159.697C254.658 159.458 254.783 159.12 254.783 158.684C254.783 158.228 254.663 157.89 254.424 157.672C254.186 157.454 253.745 157.345 253.101 157.345H252.182V160.055ZM259.153 162.125C259.153 160.921 259.532 159.925 260.29 159.136C261.047 158.337 262.059 157.937 263.326 157.937C264.478 157.937 265.381 158.3 266.035 159.027C266.699 159.743 267.031 160.672 267.031 161.814L266.969 162.655H261.909C262.002 163.122 262.22 163.48 262.563 163.729C262.916 163.968 263.321 164.087 263.777 164.087C264.12 164.087 264.473 164.02 264.836 163.885C265.21 163.75 265.495 163.615 265.692 163.48L265.988 163.278L266.985 165.162C266.891 165.245 266.751 165.354 266.564 165.489C266.388 165.613 265.999 165.784 265.397 166.002C264.805 166.22 264.192 166.329 263.559 166.329C262.199 166.329 261.125 165.914 260.336 165.084C259.547 164.253 259.153 163.267 259.153 162.125ZM261.971 161.113H264.322C264.322 160.802 264.224 160.532 264.026 160.304C263.829 160.075 263.575 159.961 263.263 159.961C262.589 159.961 262.158 160.345 261.971 161.113ZM268.393 163.324V158.124H271.087V162.826C271.087 163.532 271.373 163.885 271.943 163.885C272.494 163.885 272.914 163.677 273.205 163.262C273.495 162.837 273.641 162.307 273.641 161.674V158.124H276.334V166.143H273.75V165.442L273.781 164.944H273.75C273.532 165.369 273.194 165.707 272.738 165.956C272.281 166.205 271.783 166.329 271.243 166.329C270.371 166.329 269.675 166.096 269.156 165.629C268.648 165.151 268.393 164.383 268.393 163.324ZM278.372 162.842V160.506H283.261V162.842H278.372ZM285.195 163.184V155.01H287.889V162.826C287.889 163.221 287.936 163.49 288.029 163.636C288.133 163.781 288.335 163.854 288.636 163.854L288.963 163.838V166.174C288.714 166.205 288.444 166.22 288.154 166.22C287.738 166.22 287.375 166.189 287.064 166.127C286.763 166.054 286.456 165.919 286.145 165.722C285.844 165.525 285.61 165.214 285.444 164.788C285.278 164.362 285.195 163.828 285.195 163.184ZM290.368 157.112V155.01H293V157.112H290.368ZM290.337 166.143V158.124H293.031V166.143H290.337ZM295.425 163.184V160.366H294.398V158.264H295.503V155.96H298.119V158.264H299.801V160.366H298.119V162.826C298.119 163.511 298.596 163.854 299.551 163.854L299.909 163.838V166.174C299.712 166.205 299.468 166.22 299.178 166.22C298.929 166.22 298.685 166.205 298.446 166.174C298.218 166.153 297.948 166.106 297.636 166.034C297.335 165.961 297.06 165.852 296.811 165.707C296.572 165.561 296.344 165.385 296.126 165.177C295.908 164.959 295.737 164.679 295.612 164.336C295.488 163.994 295.425 163.61 295.425 163.184ZM302.199 165.177C301.327 164.399 300.891 163.392 300.891 162.157C300.891 160.921 301.327 159.909 302.199 159.12C303.071 158.332 304.145 157.937 305.422 157.937C306.709 157.937 307.789 158.332 308.661 159.12C309.543 159.899 309.984 160.911 309.984 162.157C309.984 163.392 309.548 164.399 308.676 165.177C307.804 165.945 306.725 166.329 305.438 166.329C304.15 166.329 303.071 165.945 302.199 165.177ZM303.616 162.157C303.616 162.738 303.792 163.205 304.145 163.558C304.498 163.911 304.929 164.087 305.438 164.087C305.946 164.087 306.377 163.911 306.73 163.558C307.083 163.205 307.259 162.738 307.259 162.157C307.259 161.565 307.083 161.087 306.73 160.724C306.377 160.361 305.946 160.179 305.438 160.179C304.929 160.179 304.498 160.361 304.145 160.724C303.792 161.087 303.616 161.565 303.616 162.157Z" fill="#A855F7" style="fill:#A855F7;fill:color(display-p3 0.6588 0.3333 0.9686);fill-opacity:1;"/>
</g>
</g>
<defs>
<clipPath id="clip0_64_438">
<rect width="407.722" height="407.722" fill="white" style="fill:white;fill-opacity:1;" transform="translate(19 19)"/>
</clipPath>
<clipPath id="clip1_64_438">
<rect width="236.988" height="273.301" fill="white" style="fill:white;fill-opacity:1;" transform="translate(104.048 115.197)"/>
</clipPath>
</defs>
</svg>
