<svg width="446" height="446" viewBox="0 0 446 446" fill="none" xmlns="http://www.w3.org/2000/svg">
<g clip-path="url(#clip0_70_1390)">
<path d="M363.533 148.485H61.7426C47.0211 148.485 35 136.464 35 121.743C35 107.021 47.0211 95 61.7426 95H363.533C378.254 95 390.276 107.021 390.276 121.743C390.276 136.464 378.254 148.485 363.533 148.485Z" fill="#FFB89A" style="fill:#FFB89A;fill:color(display-p3 1.0000 0.7216 0.6039);fill-opacity:1;"/>
<path d="M270.305 403.13L278.678 421.047C282.286 428.766 281.433 437.832 276.45 444.744L266.921 457.962L284.521 466.085" stroke="#A855F7" style="stroke:#A855F7;stroke:color(display-p3 0.6588 0.3333 0.9686);stroke-opacity:1;" stroke-width="8.1233" stroke-linecap="round"/>
<path d="M160.641 403.806L170.59 423.549C173.228 428.785 172.861 435.033 169.628 439.924L157.256 458.638L174.856 466.761" stroke="#A855F7" style="stroke:#A855F7;stroke:color(display-p3 0.6588 0.3333 0.9686);stroke-opacity:1;" stroke-width="8.1233" stroke-linecap="round"/>
<path d="M197.873 330.697C197.873 371.822 231.211 405.16 272.336 405.16C313.461 405.16 346.8 371.822 346.8 330.697C346.8 289.571 313.461 256.233 272.336 256.233C231.211 256.233 197.873 289.571 197.873 330.697Z" fill="#F6EDFF" style="fill:#F6EDFF;fill:color(display-p3 0.9655 0.9292 1.0000);fill-opacity:1;"/>
<path d="M85.5003 330.697C85.5003 371.822 118.839 405.16 159.964 405.16C201.089 405.16 234.427 371.822 234.427 330.697C234.427 289.571 201.089 256.233 159.964 256.233C118.839 256.233 85.5003 289.571 85.5003 330.697Z" fill="#F6EDFF" style="fill:#F6EDFF;fill:color(display-p3 0.9655 0.9292 1.0000);fill-opacity:1;"/>
<path d="M141.009 249.464C141.009 290.589 174.348 323.927 215.473 323.927C256.598 323.927 289.937 290.589 289.937 249.464C289.937 208.338 256.598 175 215.473 175C174.348 175 141.009 208.338 141.009 249.464Z" fill="#F6EDFF" style="fill:#F6EDFF;fill:color(display-p3 0.9655 0.9292 1.0000);fill-opacity:1;"/>
<path d="M289.259 258.264C296.705 183.124 235.781 175.677 209.38 175.677C189.072 175.677 134.916 189.216 142.362 258.264" stroke="#A855F7" style="stroke:#A855F7;stroke:color(display-p3 0.6588 0.3333 0.9686);stroke-opacity:1;" stroke-width="8.1233" stroke-linecap="round"/>
<path d="M141.687 259.618C63.8375 274.389 86.0847 349.338 90.9158 359.805C103.101 386.206 153.196 429.53 214.123 381.467" stroke="#A855F7" style="stroke:#A855F7;stroke:color(display-p3 0.6588 0.3333 0.9686);stroke-opacity:1;" stroke-width="8.1233" stroke-linecap="round"/>
<path d="M215.473 380.113C299.414 436.977 342.353 368.606 348.155 349.651C358.308 316.481 338.677 265.034 289.261 259.618" stroke="#A855F7" style="stroke:#A855F7;stroke:color(display-p3 0.6588 0.3333 0.9686);stroke-opacity:1;" stroke-width="8.1233" stroke-linecap="round"/>
<circle cx="24.3699" cy="24.3699" r="20.9852" transform="matrix(-1 0 0 1 292.644 268.418)" stroke="#A855F7" style="stroke:#A855F7;stroke:color(display-p3 0.6588 0.3333 0.9686);stroke-opacity:1;" stroke-width="6.76942"/>
<circle cx="24.3699" cy="24.3699" r="20.9852" transform="matrix(-1 0 0 1 189.75 268.418)" stroke="#A855F7" style="stroke:#A855F7;stroke:color(display-p3 0.6588 0.3333 0.9686);stroke-opacity:1;" stroke-width="6.76942"/>
<path d="M246.613 292.787C229.689 273.156 197.873 278.572 187.719 292.788" stroke="#A855F7" style="stroke:#A855F7;stroke:color(display-p3 0.6588 0.3333 0.9686);stroke-opacity:1;" stroke-width="8.1233" stroke-linecap="round"/>
<path d="M209.38 313.096C218.18 321.896 228.334 314.45 229.011 313.096" stroke="#A855F7" style="stroke:#A855F7;stroke:color(display-p3 0.6588 0.3333 0.9686);stroke-opacity:1;" stroke-width="4.06165" stroke-linecap="round"/>
<circle cx="8.1233" cy="8.1233" r="8.1233" transform="matrix(-1 0 0 1 276.247 286.391)" fill="#A855F7" style="fill:#A855F7;fill:color(display-p3 0.6588 0.3333 0.9686);fill-opacity:1;"/>
<circle cx="8.1233" cy="8.1233" r="8.1233" transform="matrix(-1 0 0 1 173.247 286.391)" fill="#A855F7" style="fill:#A855F7;fill:color(display-p3 0.6588 0.3333 0.9686);fill-opacity:1;"/>
<path d="M245.259 213.586C242.551 237.278 217.333 233.184 210.058 226.447C191.78 209.524 212.088 198.016 220.889 204.785C241.241 220.441 207.35 240.663 192.457 228.478" stroke="#A855F7" style="stroke:#A855F7;stroke:color(display-p3 0.6588 0.3333 0.9686);stroke-opacity:1;" stroke-width="8.1233" stroke-linecap="round"/>
<path d="M351.652 221C357.012 253.162 327.123 267.49 317.982 267.246" stroke="#A855F7" style="stroke:#A855F7;stroke:color(display-p3 0.6588 0.3333 0.9686);stroke-opacity:1;" stroke-width="8.1233" stroke-linecap="round"/>
<path d="M67.0991 232C61.7395 264.162 91.6284 278.49 100.769 278.246" stroke="#A855F7" style="stroke:#A855F7;stroke:color(display-p3 0.6588 0.3333 0.9686);stroke-opacity:1;" stroke-width="8.1233" stroke-linecap="round"/>
<path d="M351.487 74.4785H306.321C299.09 74.4785 293.254 80.3148 293.254 87.5449C293.254 94.775 299.09 100.611 306.321 100.611H351.487C365.25 100.611 376.487 111.064 376.487 123.87V142.293H54.5309V123.87C54.5309 111.021 65.7244 100.611 79.5313 100.611H127.616C134.846 100.611 140.682 94.775 140.682 87.5449C140.682 80.3148 134.846 74.4785 127.616 74.4785H79.4877C51.3078 74.4785 28.3545 96.6478 28.3545 123.87V353.708C28.3545 380.929 51.3078 403.099 79.4877 403.099H351.487C379.667 403.099 402.62 380.929 402.62 353.708V123.913C402.62 96.6479 379.667 74.4785 351.487 74.4785ZM351.487 377.009H79.4877C65.7244 377.009 54.4873 366.556 54.4873 353.751V168.47H376.444V353.751C376.487 366.6 365.25 377.009 351.487 377.009Z" fill="#C991FF" style="fill:#C991FF;fill:color(display-p3 0.7899 0.5692 1.0000);fill-opacity:1;"/>
<path d="M165.879 83.3492C163.03 82.0487 159.677 82.7523 157.678 84.8629C157.173 83.4345 156.759 81.4091 156.759 78.8721C156.759 76.1005 157.265 73.9685 157.816 72.5188C159.998 74.2457 163.214 74.5655 165.833 73.1157C169.094 71.3036 170.151 67.3594 168.199 64.332C164.638 58.8102 159.952 58 157.494 58C149.087 58 143 66.7838 143 78.8508C143 90.9178 149.064 99.7442 157.471 99.7442C162.203 99.7442 166.43 96.8873 169.049 91.9198C170.725 88.7431 169.301 84.9056 165.879 83.3492ZM209.132 83.6477C206.284 82.3472 202.93 83.0508 200.932 85.1614C200.426 83.733 200.013 81.7076 200.013 79.1706C200.013 76.399 200.518 74.267 201.069 72.8173C203.252 74.5442 206.467 74.864 209.086 73.4142C212.348 71.602 213.404 67.6579 211.452 64.6305C207.892 59.1086 203.206 58.2985 200.748 58.2985C192.341 58.2985 186.253 67.0822 186.253 79.1492C186.253 91.2162 192.341 100 200.748 100C205.48 100 209.706 97.1431 212.325 92.1756C213.956 89.0416 212.532 85.2041 209.132 83.6477Z" fill="#C991FF" style="fill:#C991FF;fill:color(display-p3 0.7899 0.5692 1.0000);fill-opacity:1;"/>
<path d="M242.879 83.3492C240.03 82.0487 236.677 82.7523 234.678 84.8629C234.173 83.4345 233.759 81.4091 233.759 78.8721C233.759 76.1005 234.265 73.9685 234.816 72.5188C236.998 74.2457 240.214 74.5655 242.833 73.1157C246.094 71.3036 247.151 67.3594 245.199 64.332C241.638 58.8102 236.952 58 234.494 58C226.087 58 220 66.7838 220 78.8508C220 90.9178 226.064 99.7442 234.471 99.7442C239.203 99.7442 243.43 96.8873 246.049 91.9198C247.725 88.7431 246.301 84.9056 242.879 83.3492ZM286.132 83.6477C283.284 82.3472 279.93 83.0508 277.932 85.1614C277.426 83.733 277.013 81.7076 277.013 79.1706C277.013 76.399 277.518 74.267 278.069 72.8173C280.252 74.5442 283.467 74.864 286.086 73.4142C289.348 71.602 290.404 67.6579 288.452 64.6305C284.892 59.1086 280.206 58.2985 277.748 58.2985C269.341 58.2985 263.253 67.0822 263.253 79.1492C263.253 91.2162 269.341 100 277.748 100C282.48 100 286.706 97.1431 289.325 92.1756C290.956 89.0416 289.532 85.2041 286.132 83.6477Z" fill="#C991FF" style="fill:#C991FF;fill:color(display-p3 0.7899 0.5692 1.0000);fill-opacity:1;"/>
<path d="M172.294 134C172.101 132.918 172.005 131.992 172.005 131.223C172.005 129.732 172.282 128.35 172.835 127.075C173.388 125.801 174.073 124.755 174.89 123.938C175.708 123.12 176.598 122.339 177.559 121.593C178.545 120.848 179.447 120.223 180.264 119.718C181.082 119.189 181.767 118.636 182.32 118.059C182.873 117.458 183.149 116.869 183.149 116.292C183.149 115.45 182.873 114.813 182.32 114.38C181.767 113.948 181.118 113.731 180.372 113.731C179.651 113.731 178.966 113.96 178.317 114.416C177.692 114.873 177.247 115.33 176.982 115.787L176.549 116.472L171.861 113.334C171.933 113.19 172.029 112.998 172.149 112.757C172.294 112.493 172.618 112.048 173.123 111.423C173.652 110.774 174.229 110.209 174.854 109.728C175.479 109.223 176.333 108.778 177.415 108.393C178.521 107.985 179.699 107.78 180.949 107.78C183.306 107.78 185.361 108.466 187.117 109.836C188.872 111.183 189.749 113.13 189.749 115.679C189.749 117.169 189.389 118.528 188.667 119.754C187.97 120.98 187.105 121.99 186.071 122.784C185.037 123.553 184.003 124.262 182.969 124.911C181.959 125.537 181.082 126.162 180.336 126.787C179.591 127.388 179.206 127.989 179.182 128.59H190.146V134H172.294ZM208.056 133.423C206.781 134.096 205.255 134.433 203.475 134.433C201.696 134.433 200.157 134.096 198.859 133.423C197.585 132.726 196.587 131.752 195.866 130.502C195.144 129.251 194.615 127.845 194.279 126.282C193.942 124.719 193.774 122.976 193.774 121.052C193.774 119.129 193.942 117.398 194.279 115.859C194.615 114.296 195.144 112.902 195.866 111.675C196.587 110.425 197.585 109.463 198.859 108.79C200.157 108.117 201.696 107.78 203.475 107.78C205.255 107.78 206.781 108.117 208.056 108.79C209.354 109.463 210.364 110.425 211.085 111.675C211.807 112.902 212.336 114.296 212.672 115.859C213.009 117.398 213.177 119.129 213.177 121.052C213.177 122.976 213.009 124.719 212.672 126.282C212.336 127.845 211.807 129.251 211.085 130.502C210.364 131.752 209.354 132.726 208.056 133.423ZM200.266 121.052C200.266 126.126 201.336 128.662 203.475 128.662C205.615 128.662 206.685 126.126 206.685 121.052C206.685 116.051 205.615 113.551 203.475 113.551C201.336 113.551 200.266 116.051 200.266 121.052ZM217.023 134C216.831 132.918 216.735 131.992 216.735 131.223C216.735 129.732 217.011 128.35 217.564 127.075C218.117 125.801 218.803 124.755 219.62 123.938C220.438 123.12 221.327 122.339 222.289 121.593C223.275 120.848 224.176 120.223 224.994 119.718C225.811 119.189 226.497 118.636 227.05 118.059C227.603 117.458 227.879 116.869 227.879 116.292C227.879 115.45 227.603 114.813 227.05 114.38C226.497 113.948 225.847 113.731 225.102 113.731C224.381 113.731 223.696 113.96 223.046 114.416C222.421 114.873 221.976 115.33 221.712 115.787L221.279 116.472L216.591 113.334C216.663 113.19 216.759 112.998 216.879 112.757C217.023 112.493 217.348 112.048 217.853 111.423C218.382 110.774 218.959 110.209 219.584 109.728C220.209 109.223 221.063 108.778 222.145 108.393C223.251 107.985 224.429 107.78 225.679 107.78C228.035 107.78 230.091 108.466 231.846 109.836C233.602 111.183 234.479 113.13 234.479 115.679C234.479 117.169 234.119 118.528 233.397 119.754C232.7 120.98 231.834 121.99 230.801 122.784C229.767 123.553 228.733 124.262 227.699 124.911C226.689 125.537 225.811 126.162 225.066 126.787C224.321 127.388 223.936 127.989 223.912 128.59H234.876V134H217.023ZM238.035 131.043L241.064 126.174C241.233 126.342 241.473 126.558 241.786 126.823C242.098 127.063 242.711 127.4 243.625 127.833C244.539 128.266 245.428 128.482 246.294 128.482C247.231 128.482 248.061 128.205 248.782 127.652C249.528 127.075 249.9 126.294 249.9 125.308C249.9 124.322 249.516 123.541 248.746 122.964C247.977 122.387 246.991 122.098 245.789 122.098C245.212 122.098 244.635 122.17 244.058 122.315C243.481 122.459 243.048 122.603 242.759 122.748L242.327 122.964L238.972 121.702L240.018 108.213H254.445V113.623H245.5L245.356 116.003L245.212 117.013H245.284C245.885 116.845 246.51 116.761 247.159 116.761C250.093 116.761 252.365 117.566 253.976 119.177C255.587 120.764 256.392 122.784 256.392 125.236C256.392 127.905 255.503 130.105 253.723 131.836C251.944 133.567 249.648 134.433 246.835 134.433C245.777 134.433 244.743 134.313 243.733 134.072C242.747 133.856 241.918 133.579 241.245 133.243C240.595 132.906 240.018 132.569 239.513 132.233C239.009 131.896 238.636 131.62 238.395 131.403L238.035 131.043Z" fill="white" style="fill:white;fill-opacity:1;"/>
</g>
<defs>
<clipPath id="clip0_70_1390">
<rect width="446" height="403" fill="white" style="fill:white;fill-opacity:1;"/>
</clipPath>
</defs>
</svg>
