<svg width="446" height="446" viewBox="0 0 446 446" fill="none" xmlns="http://www.w3.org/2000/svg">
<path d="M184.207 225.717C203.243 229.155 223.988 210.073 226.5 199" stroke="#A855F7" style="stroke:#A855F7;stroke:color(display-p3 0.6588 0.3333 0.9686);stroke-opacity:1;" stroke-width="4.81908" stroke-linecap="round"/>
<path d="M30.219 223.521C12.0153 216.98 13.2546 197.356 16.0282 192.694" stroke="#A855F7" style="stroke:#A855F7;stroke:color(display-p3 0.6588 0.3333 0.9686);stroke-opacity:1;" stroke-width="4.81908" stroke-linecap="round"/>
<path d="M77.6873 280.67L79.6953 313.199L69.2539 318.018" stroke="#A855F7" style="stroke:#A855F7;stroke:color(display-p3 0.6588 0.3333 0.9686);stroke-opacity:1;" stroke-width="4.81908" stroke-linecap="round"/>
<path d="M136.319 281.071L134.311 313.6L144.752 318.419" stroke="#A855F7" style="stroke:#A855F7;stroke:color(display-p3 0.6588 0.3333 0.9686);stroke-opacity:1;" stroke-width="4.81908" stroke-linecap="round"/>
<path d="M120.657 237.7C120.657 262.097 100.879 281.875 76.4821 281.875C52.0849 281.875 32.3071 262.097 32.3071 237.7C32.3071 213.303 52.0849 193.525 76.4821 193.525C100.879 193.525 120.657 213.303 120.657 237.7Z" fill="#F6EDFF" style="fill:#F6EDFF;fill:color(display-p3 0.9655 0.9292 1.0000);fill-opacity:1;"/>
<path d="M187.321 237.7C187.321 262.097 167.543 281.875 143.146 281.875C118.749 281.875 98.9711 262.097 98.9711 237.7C98.9711 213.303 118.749 193.525 143.146 193.525C167.543 193.525 187.321 213.303 187.321 237.7Z" fill="#F6EDFF" style="fill:#F6EDFF;fill:color(display-p3 0.9655 0.9292 1.0000);fill-opacity:1;"/>
<path d="M154.391 189.509C154.391 213.906 134.613 233.684 110.216 233.684C85.8185 233.684 66.0407 213.906 66.0407 189.509C66.0407 165.112 85.8185 145.334 110.216 145.334C134.613 145.334 154.391 165.112 154.391 189.509Z" fill="#F6EDFF" style="fill:#F6EDFF;fill:color(display-p3 0.9655 0.9292 1.0000);fill-opacity:1;"/>
<path d="M66.4432 194.729C62.0255 150.153 98.1687 145.735 113.831 145.735C125.878 145.735 158.006 153.767 153.588 194.729" stroke="#A855F7" style="stroke:#A855F7;stroke:color(display-p3 0.6588 0.3333 0.9686);stroke-opacity:1;" stroke-width="4.81908" stroke-linecap="round"/>
<path d="M153.989 195.533C200.172 204.296 186.975 248.759 184.109 254.969C176.879 270.631 147.161 296.332 111.017 267.819" stroke="#A855F7" style="stroke:#A855F7;stroke:color(display-p3 0.6588 0.3333 0.9686);stroke-opacity:1;" stroke-width="4.81908" stroke-linecap="round"/>
<path d="M110.216 267.015C60.4183 300.749 34.9451 260.188 31.5032 248.944C25.4799 229.266 37.1259 198.745 66.4417 195.533" stroke="#A855F7" style="stroke:#A855F7;stroke:color(display-p3 0.6588 0.3333 0.9686);stroke-opacity:1;" stroke-width="4.81908" stroke-linecap="round"/>
<circle cx="78.8923" cy="215.211" r="12.4493" stroke="#A855F7" style="stroke:#A855F7;stroke:color(display-p3 0.6588 0.3333 0.9686);stroke-opacity:1;" stroke-width="4.0159"/>
<circle cx="139.933" cy="215.211" r="12.4493" stroke="#A855F7" style="stroke:#A855F7;stroke:color(display-p3 0.6588 0.3333 0.9686);stroke-opacity:1;" stroke-width="4.0159"/>
<path d="M91.7432 215.21C101.783 203.564 120.658 206.777 126.682 215.21" stroke="#A855F7" style="stroke:#A855F7;stroke:color(display-p3 0.6588 0.3333 0.9686);stroke-opacity:1;" stroke-width="4.81908" stroke-linecap="round"/>
<path d="M73.4502 217.659C78.9726 212.137 85.3446 216.81 85.7694 217.659" stroke="#A855F7" style="stroke:#A855F7;stroke:color(display-p3 0.6588 0.3333 0.9686);stroke-opacity:1;" stroke-width="2.5488" stroke-linecap="round"/>
<path d="M135.288 217.053C140.81 211.531 147.182 216.204 147.607 217.053" stroke="#A855F7" style="stroke:#A855F7;stroke:color(display-p3 0.6588 0.3333 0.9686);stroke-opacity:1;" stroke-width="2.5488" stroke-linecap="round"/>
<path d="M92.5459 168.224C94.1523 182.28 109.112 179.851 113.429 175.854C124.272 165.815 112.224 158.988 107.003 163.003C94.9295 172.291 115.035 184.288 123.87 177.059" stroke="#A855F7" style="stroke:#A855F7;stroke:color(display-p3 0.6588 0.3333 0.9686);stroke-opacity:1;" stroke-width="4.81908" stroke-linecap="round"/>
<path d="M101.987 233.299C107.322 238.634 113.478 234.12 113.888 233.299" stroke="#A855F7" style="stroke:#A855F7;stroke:color(display-p3 0.6588 0.3333 0.9686);stroke-opacity:1;" stroke-width="2.46239" stroke-linecap="round"/>
<path d="M210 180L218.158 190.121" stroke="#A855F7" style="stroke:#A855F7;stroke:color(display-p3 0.6588 0.3333 0.9686);stroke-opacity:1;" stroke-width="3" stroke-linecap="round"/>
<path d="M410.025 230.679C429.06 234.117 437.799 216.502 437.728 211.078" stroke="#A855F7" style="stroke:#A855F7;stroke:color(display-p3 0.6588 0.3333 0.9686);stroke-opacity:1;" stroke-width="4.81908" stroke-linecap="round"/>
<path d="M256.037 228.484C237.833 221.944 228 207 226.753 198.686" stroke="#A855F7" style="stroke:#A855F7;stroke:color(display-p3 0.6588 0.3333 0.9686);stroke-opacity:1;" stroke-width="4.81908" stroke-linecap="round"/>
<path d="M303.505 285.633L305.513 318.162L295.071 322.981" stroke="#A855F7" style="stroke:#A855F7;stroke:color(display-p3 0.6588 0.3333 0.9686);stroke-opacity:1;" stroke-width="4.81908" stroke-linecap="round"/>
<path d="M362.137 286.034L360.129 318.563L370.57 323.382" stroke="#A855F7" style="stroke:#A855F7;stroke:color(display-p3 0.6588 0.3333 0.9686);stroke-opacity:1;" stroke-width="4.81908" stroke-linecap="round"/>
<path d="M346.475 242.663C346.475 267.06 326.697 286.838 302.3 286.838C277.903 286.838 258.125 267.06 258.125 242.663C258.125 218.265 277.903 198.488 302.3 198.488C326.697 198.488 346.475 218.265 346.475 242.663Z" fill="#F6EDFF" style="fill:#F6EDFF;fill:color(display-p3 0.9655 0.9292 1.0000);fill-opacity:1;"/>
<path d="M413.139 242.663C413.139 267.06 393.361 286.838 368.964 286.838C344.567 286.838 324.789 267.06 324.789 242.663C324.789 218.265 344.567 198.488 368.964 198.488C393.361 198.488 413.139 218.265 413.139 242.663Z" fill="#F6EDFF" style="fill:#F6EDFF;fill:color(display-p3 0.9655 0.9292 1.0000);fill-opacity:1;"/>
<path d="M380.208 194.472C380.208 218.869 360.431 238.647 336.034 238.647C311.636 238.647 291.859 218.869 291.859 194.472C291.859 170.075 311.636 150.297 336.034 150.297C360.431 150.297 380.208 170.075 380.208 194.472Z" fill="#F6EDFF" style="fill:#F6EDFF;fill:color(display-p3 0.9655 0.9292 1.0000);fill-opacity:1;"/>
<path d="M366.337 219.159V215.437" stroke="#A855F7" style="stroke:#A855F7;stroke:color(display-p3 0.6588 0.3333 0.9686);stroke-opacity:1;" stroke-width="2.10678" stroke-linecap="round"/>
<path d="M371.3 220.241L373.579 217.298" stroke="#A855F7" style="stroke:#A855F7;stroke:color(display-p3 0.6588 0.3333 0.9686);stroke-opacity:1;" stroke-width="2.10678" stroke-linecap="round"/>
<path d="M362.525 220.151L360.134 217.298" stroke="#A855F7" style="stroke:#A855F7;stroke:color(display-p3 0.6588 0.3333 0.9686);stroke-opacity:1;" stroke-width="2.10678" stroke-linecap="round"/>
<path d="M304.3 219.779V216.057" stroke="#A855F7" style="stroke:#A855F7;stroke:color(display-p3 0.6588 0.3333 0.9686);stroke-opacity:1;" stroke-width="2.10678" stroke-linecap="round"/>
<path d="M309.263 220.862L311.542 217.918" stroke="#A855F7" style="stroke:#A855F7;stroke:color(display-p3 0.6588 0.3333 0.9686);stroke-opacity:1;" stroke-width="2.10678" stroke-linecap="round"/>
<path d="M300.487 220.771L298.096 217.918" stroke="#A855F7" style="stroke:#A855F7;stroke:color(display-p3 0.6588 0.3333 0.9686);stroke-opacity:1;" stroke-width="2.10678" stroke-linecap="round"/>
<path d="M292.261 199.693C287.843 155.116 323.987 150.699 339.649 150.699C351.696 150.699 383.823 158.731 379.406 199.693" stroke="#A855F7" style="stroke:#A855F7;stroke:color(display-p3 0.6588 0.3333 0.9686);stroke-opacity:1;" stroke-width="4.81908" stroke-linecap="round"/>
<path d="M379.807 200.496C425.99 209.259 412.792 253.722 409.926 259.931C402.697 275.593 372.979 301.295 336.835 272.782" stroke="#A855F7" style="stroke:#A855F7;stroke:color(display-p3 0.6588 0.3333 0.9686);stroke-opacity:1;" stroke-width="4.81908" stroke-linecap="round"/>
<path d="M336.033 271.979C286.236 305.712 260.763 265.152 257.321 253.907C251.298 234.229 262.944 203.709 292.26 200.496" stroke="#A855F7" style="stroke:#A855F7;stroke:color(display-p3 0.6588 0.3333 0.9686);stroke-opacity:1;" stroke-width="4.81908" stroke-linecap="round"/>
<circle cx="304.71" cy="220.174" r="12.4493" stroke="#A855F7" style="stroke:#A855F7;stroke:color(display-p3 0.6588 0.3333 0.9686);stroke-opacity:1;" stroke-width="4.0159"/>
<circle cx="365.751" cy="220.174" r="12.4493" stroke="#A855F7" style="stroke:#A855F7;stroke:color(display-p3 0.6588 0.3333 0.9686);stroke-opacity:1;" stroke-width="4.0159"/>
<path d="M317.561 220.173C327.6 208.527 346.475 211.74 352.499 220.173" stroke="#A855F7" style="stroke:#A855F7;stroke:color(display-p3 0.6588 0.3333 0.9686);stroke-opacity:1;" stroke-width="4.81908" stroke-linecap="round"/>
<path d="M299.268 222.623C304.79 217.1 311.162 221.773 311.587 222.623" stroke="#A855F7" style="stroke:#A855F7;stroke:color(display-p3 0.6588 0.3333 0.9686);stroke-opacity:1;" stroke-width="2.5488" stroke-linecap="round"/>
<path d="M361.106 222.016C366.628 216.494 373 221.167 373.425 222.016" stroke="#A855F7" style="stroke:#A855F7;stroke:color(display-p3 0.6588 0.3333 0.9686);stroke-opacity:1;" stroke-width="2.5488" stroke-linecap="round"/>
<circle cx="333.457" cy="241.493" r="3.10189" fill="#FF8D8D" style="fill:#FF8D8D;fill:color(display-p3 1.0000 0.5533 0.5533);fill-opacity:1;"/>
<path d="M327.804 238.261C333.139 243.596 339.295 239.082 339.706 238.261" stroke="#A855F7" style="stroke:#A855F7;stroke:color(display-p3 0.6588 0.3333 0.9686);stroke-opacity:1;" stroke-width="2.46239" stroke-linecap="round"/>
<path d="M330.355 239.632C331.596 235.909 336.559 237.15 336.559 239.632" stroke="#A855F7" style="stroke:#A855F7;stroke:color(display-p3 0.6588 0.3333 0.9686);stroke-opacity:1;" stroke-width="2.48151" stroke-linecap="round"/>
<path d="M337.18 240.872C337.18 245.215 330.356 246.456 329.735 240.872" stroke="#A855F7" style="stroke:#A855F7;stroke:color(display-p3 0.6588 0.3333 0.9686);stroke-opacity:1;" stroke-width="2.48151" stroke-linecap="round"/>
<circle cx="387.431" cy="234.669" r="6.20378" fill="#FFD4D4" style="fill:#FFD4D4;fill:color(display-p3 1.0000 0.8300 0.8300);fill-opacity:1;"/>
<circle cx="283.207" cy="234.669" r="6.20378" fill="#FFD4D4" style="fill:#FFD4D4;fill:color(display-p3 1.0000 0.8300 0.8300);fill-opacity:1;"/>
<g clip-path="url(#clip0_70_1437)">
<path d="M357.661 317.043C357.273 318.078 356.913 321.29 357.802 322.909L357.75 324.582C357.75 324.582 358.468 325.441 359.666 325.479C361.608 325.54 364.47 325.211 365.83 325.253C367.157 325.295 370.071 326.432 372.99 325.31C373.219 325.233 373.45 325.115 373.678 325.08C374.201 324.929 375.15 324.624 375.546 324.385C376.042 324.066 376.526 322.071 374.189 321.161C371.82 320.249 370.235 319.111 370.235 319.111L369.535 320.764C369.535 320.764 359.528 318.483 357.661 317.043Z" fill="#FFE100" style="fill:#FFE100;fill:color(display-p3 1.0000 0.8824 0.0000);fill-opacity:1;"/>
<path d="M373.042 323.636C373.271 323.56 373.502 323.441 373.762 323.408C374.285 323.257 375.235 322.951 375.599 322.712C375.599 322.712 375.697 322.673 375.797 322.592C375.586 322.083 375.085 321.523 374.157 321.159C371.82 320.249 370.235 319.111 370.235 319.111L369.535 320.764C369.251 321.55 369.141 323.012 369.108 324.058C370.303 324.179 371.664 324.179 373.042 323.636Z" fill="#E4667F" style="fill:#E4667F;fill:color(display-p3 0.8941 0.4000 0.4980);fill-opacity:1;"/>
<path d="M357.75 324.581C357.75 324.581 358.468 325.441 359.666 325.479C361.608 325.539 364.47 325.21 365.83 325.253C367.157 325.294 370.071 326.432 372.99 325.309C373.219 325.233 373.45 325.115 373.678 325.08C374.201 324.929 375.15 324.624 375.547 324.385C375.844 324.185 376.128 323.398 375.797 322.592C375.665 322.672 375.599 322.712 375.599 322.712C375.235 322.952 374.253 323.256 373.73 323.407C373.501 323.483 373.272 323.56 373.042 323.637C370.123 324.759 367.21 323.621 365.882 323.58C364.523 323.537 361.661 323.867 359.718 323.806C358.521 323.768 357.802 322.908 357.802 322.908L357.75 324.581Z" fill="#FDCC00" style="fill:#FDCC00;fill:color(display-p3 0.9922 0.8000 0.0000);fill-opacity:1;"/>
<path d="M358.721 324.612L358.773 322.939C358.008 321.492 358.188 318.86 358.521 317.531C358.138 317.351 357.852 317.175 357.661 317.043C357.273 318.078 356.913 321.29 357.802 322.909L357.75 324.582C357.75 324.582 358.468 325.441 359.666 325.479C359.893 325.486 360.152 325.494 360.411 325.502C359.346 325.343 358.721 324.612 358.721 324.612Z" fill="white" style="fill:white;fill-opacity:1;"/>
<path d="M358.721 324.612L358.754 323.566C358.147 323.296 357.802 322.909 357.802 322.909L357.75 324.582C357.75 324.582 358.468 325.441 359.666 325.479C359.893 325.486 360.152 325.494 360.411 325.502C359.346 325.343 358.721 324.612 358.721 324.612Z" fill="white" style="fill:white;fill-opacity:1;"/>
<path d="M374.189 321.161C371.852 320.25 370.267 319.112 370.267 319.112L370.059 319.566C370.759 319.965 371.841 320.585 373.218 321.13C375.555 322.041 375.104 324.036 374.575 324.354C374.079 324.674 372.38 325.123 372.38 325.123C371.393 325.594 370.351 325.771 369.378 325.783C370.607 325.863 372.003 325.781 373.382 325.196C373.382 325.196 375.049 324.746 375.577 324.427C376.075 324.066 376.558 322.072 374.189 321.161Z" fill="#DD3859" style="fill:#DD3859;fill:color(display-p3 0.8667 0.2196 0.3490);fill-opacity:1;"/>
<path d="M375.829 322.594C375.697 322.673 375.631 322.713 375.631 322.713C375.499 322.793 375.268 322.911 375.005 323.028C375.115 323.66 374.872 324.196 374.606 324.397C374.11 324.717 372.411 325.166 372.411 325.166C371.393 325.595 370.35 325.771 369.378 325.783C370.607 325.863 372.003 325.781 373.382 325.196C373.382 325.196 375.049 324.746 375.577 324.428C375.877 324.186 376.16 323.399 375.829 322.594Z" fill="#FFA800" style="fill:#FFA800;fill:color(display-p3 1.0000 0.6588 0.0000);fill-opacity:1;"/>
<path d="M359.653 325.897C358.326 325.855 357.545 324.91 357.514 324.867C357.45 324.823 357.422 324.697 357.426 324.571L357.474 323.024C356.559 321.195 356.987 317.901 357.375 316.867C357.412 316.742 357.479 316.661 357.576 316.664C357.675 316.625 357.772 316.628 357.835 316.672C359.481 317.937 367.877 319.916 369.355 320.298L369.949 318.935C369.984 318.852 370.051 318.77 370.15 318.732C370.248 318.693 370.345 318.696 370.409 318.74C370.409 318.74 371.993 319.878 374.267 320.744C375.932 321.383 376.253 322.523 376.266 323.151C376.307 323.906 375.996 324.524 375.664 324.765C375.3 325.005 374.416 325.312 373.729 325.5C373.5 325.577 373.303 325.654 373.074 325.731C372.057 326.117 371.015 326.294 369.817 326.257C368.781 326.224 367.815 326.027 367.073 325.92C366.591 325.779 366.141 325.681 365.817 325.671L365.785 325.67C365.17 325.651 364.228 325.705 363.222 325.757C362.052 325.846 360.721 325.93 359.653 325.897ZM358.08 324.382C358.3 324.599 358.87 325.035 359.679 325.06C360.715 325.093 362.046 325.009 363.183 324.919C364.189 324.867 365.131 324.812 365.778 324.833L365.843 324.835C366.199 324.846 366.65 324.944 367.165 325.043C367.906 325.192 368.841 325.347 369.844 325.378C370.978 325.414 371.954 325.277 372.872 324.929C373.134 324.853 373.364 324.735 373.594 324.659C374.477 324.393 375.132 324.162 375.364 324.002C375.462 323.963 375.635 323.634 375.583 323.214C375.564 322.794 375.328 322.033 374.016 321.532C372.222 320.848 370.887 320.011 370.315 319.658L369.757 320.938C369.687 321.103 369.555 321.183 369.426 321.137C369.104 321.085 360.32 319.094 357.838 317.635C357.541 318.84 357.364 321.388 358.069 322.666C358.099 322.75 358.129 322.835 358.126 322.919L358.08 324.382L358.08 324.382Z" fill="#A855F7" style="fill:#A855F7;fill:color(display-p3 0.6588 0.3333 0.9686);fill-opacity:1;"/>
<path d="M359.653 325.897C358.326 325.856 357.545 324.91 357.514 324.867C357.451 324.823 357.422 324.697 357.426 324.572L357.479 322.899C357.484 322.731 357.554 322.566 357.685 322.528C357.817 322.449 357.945 322.495 358.039 322.581C358.039 322.581 358.696 323.355 359.732 323.388C360.768 323.42 362.099 323.336 363.236 323.246C364.242 323.194 365.183 323.14 365.831 323.16L365.896 323.162C366.252 323.173 366.702 323.271 367.218 323.371C367.958 323.519 368.893 323.674 369.897 323.706C371.03 323.741 372.007 323.604 372.925 323.256C373.154 323.18 373.417 323.062 373.646 322.986C374.529 322.72 375.185 322.49 375.417 322.329C375.417 322.329 375.515 322.291 375.647 322.211C375.812 322.133 375.972 322.179 376.063 322.392C376.275 322.859 376.29 323.403 376.178 323.902C376.069 324.276 375.896 324.605 375.664 324.765C375.3 325.005 374.416 325.312 373.73 325.5C373.5 325.577 373.303 325.654 373.074 325.731C372.058 326.118 371.015 326.294 369.817 326.257C368.781 326.225 367.815 326.027 367.073 325.92C366.592 325.779 366.141 325.681 365.817 325.671L365.785 325.67C365.17 325.651 364.228 325.705 363.222 325.758C362.053 325.847 360.721 325.931 359.653 325.897ZM358.08 324.383C358.3 324.599 358.87 325.035 359.679 325.061C360.715 325.093 362.046 325.009 363.183 324.919C364.19 324.867 365.131 324.813 365.779 324.833L365.843 324.835C366.2 324.846 366.65 324.944 367.165 325.044C367.906 325.192 368.841 325.347 369.845 325.379C370.978 325.414 371.954 325.277 372.872 324.929C373.134 324.854 373.365 324.735 373.594 324.659C374.477 324.393 375.132 324.163 375.364 324.002C375.398 323.962 375.499 323.839 375.57 323.632C375.607 323.508 375.612 323.34 375.586 323.13C375.157 323.368 374.372 323.595 373.783 323.786C373.554 323.862 373.357 323.94 373.128 324.016C372.144 324.404 371.07 324.538 369.872 324.5C368.836 324.468 367.87 324.27 367.128 324.163C366.644 324.106 366.193 324.009 365.87 323.998L365.837 323.997C365.222 323.978 364.281 324.032 363.275 324.085C362.105 324.174 360.774 324.258 359.706 324.224C359.026 324.203 358.451 323.934 358.103 323.672L358.08 324.383L358.08 324.383Z" fill="#A855F7" style="fill:#A855F7;fill:color(display-p3 0.6588 0.3333 0.9686);fill-opacity:1;"/>
<path d="M369.903 324.543C369.612 324.534 369.353 324.526 369.095 324.476C368.933 324.471 368.778 324.257 368.817 324.049C368.9 322.419 369.034 321.251 369.282 320.588L369.983 318.894C370.018 318.811 370.085 318.73 370.183 318.691C370.248 318.693 370.345 318.696 370.409 318.74C370.409 318.74 371.993 319.878 374.267 320.744C375.195 321.108 375.795 321.629 376.096 322.351C376.126 322.435 376.155 322.562 376.118 322.686C376.082 322.811 376.015 322.892 375.949 322.932L375.75 323.051C375.386 323.291 374.502 323.599 373.815 323.786C373.619 323.864 373.389 323.94 373.192 324.018L373.126 324.058C372.143 324.404 371.101 324.581 369.903 324.543ZM369.444 323.691C369.606 323.697 369.735 323.701 369.897 323.706C371.03 323.741 372.006 323.604 372.925 323.256L372.991 323.216C373.22 323.14 373.417 323.062 373.646 322.986C374.399 322.758 374.955 322.566 375.284 322.409C375.036 322.066 374.592 321.759 374.047 321.575C372.253 320.891 370.919 320.054 370.346 319.701L369.788 320.981C369.644 321.437 369.518 322.354 369.444 323.691Z" fill="#A855F7" style="fill:#A855F7;fill:color(display-p3 0.6588 0.3333 0.9686);fill-opacity:1;"/>
</g>
<g clip-path="url(#clip1_70_1437)">
<path d="M307.816 316.989C308.205 318.023 308.565 321.235 307.676 322.854L307.728 324.527C307.728 324.527 307.009 325.387 305.812 325.424C303.869 325.485 301.007 325.156 299.648 325.198C298.32 325.24 295.407 326.378 292.488 325.255C292.258 325.178 292.028 325.06 291.8 325.025C291.277 324.874 290.327 324.569 289.931 324.33C289.435 324.011 288.951 322.017 291.289 321.106C293.658 320.195 295.243 319.057 295.243 319.057L295.943 320.709C295.942 320.709 305.949 318.429 307.816 316.989Z" fill="#FFE100" style="fill:#FFE100;fill:color(display-p3 1.0000 0.8824 0.0000);fill-opacity:1;"/>
<path d="M292.435 323.582C292.206 323.505 291.976 323.387 291.715 323.353C291.192 323.202 290.243 322.897 289.879 322.657C289.879 322.657 289.78 322.618 289.681 322.538C289.892 322.029 290.393 321.469 291.321 321.105C293.658 320.194 295.243 319.056 295.243 319.056L295.942 320.709C296.226 321.496 296.337 322.957 296.37 324.003C295.174 324.124 293.813 324.125 292.435 323.582Z" fill="#E4667F" style="fill:#E4667F;fill:color(display-p3 0.8941 0.4000 0.4980);fill-opacity:1;"/>
<path d="M307.728 324.527C307.728 324.527 307.009 325.387 305.811 325.424C303.869 325.485 301.007 325.156 299.647 325.198C298.32 325.24 295.407 326.378 292.488 325.255C292.258 325.178 292.028 325.06 291.8 325.025C291.277 324.874 290.327 324.569 289.931 324.33C289.633 324.13 289.349 323.344 289.68 322.538C289.813 322.617 289.879 322.657 289.879 322.657C290.243 322.897 291.224 323.201 291.748 323.352C291.977 323.429 292.206 323.505 292.435 323.582C295.354 324.705 298.268 323.567 299.595 323.525C300.955 323.483 303.817 323.812 305.759 323.751C306.957 323.714 307.675 322.854 307.675 322.854L307.728 324.527Z" fill="#FDCC00" style="fill:#FDCC00;fill:color(display-p3 0.9922 0.8000 0.0000);fill-opacity:1;"/>
<path d="M306.757 324.557L306.704 322.884C307.469 321.437 307.29 318.805 306.956 317.476C307.34 317.297 307.626 317.12 307.816 316.989C308.205 318.023 308.565 321.235 307.676 322.854L307.728 324.527C307.728 324.527 307.009 325.387 305.812 325.424C305.585 325.431 305.326 325.439 305.067 325.447C306.131 325.289 306.757 324.557 306.757 324.557Z" fill="white" style="fill:white;fill-opacity:1;"/>
<path d="M306.756 324.557L306.724 323.512C307.331 323.242 307.675 322.854 307.675 322.854L307.728 324.527C307.728 324.527 307.009 325.387 305.811 325.424C305.585 325.431 305.326 325.439 305.067 325.447C306.131 325.289 306.756 324.557 306.756 324.557Z" fill="white" style="fill:white;fill-opacity:1;"/>
<path d="M291.289 321.106C293.626 320.195 295.21 319.057 295.21 319.057L295.419 319.511C294.718 319.91 293.636 320.53 292.26 321.075C289.923 321.986 290.374 323.981 290.902 324.3C291.398 324.619 293.098 325.068 293.098 325.068C294.084 325.54 295.127 325.716 296.099 325.728C294.871 325.808 293.475 325.726 292.095 325.141C292.095 325.141 290.429 324.691 289.9 324.373C289.403 324.012 288.919 322.017 291.289 321.106Z" fill="#DD3859" style="fill:#DD3859;fill:color(display-p3 0.8667 0.2196 0.3490);fill-opacity:1;"/>
<path d="M289.648 322.539C289.78 322.618 289.847 322.658 289.847 322.658C289.979 322.738 290.209 322.856 290.472 322.974C290.362 323.605 290.606 324.142 290.871 324.343C291.367 324.662 293.067 325.111 293.067 325.111C294.085 325.54 295.127 325.717 296.1 325.728C294.871 325.808 293.475 325.726 292.095 325.142C292.095 325.142 290.429 324.691 289.9 324.373C289.601 324.131 289.317 323.345 289.648 322.539Z" fill="#FFA800" style="fill:#FFA800;fill:color(display-p3 1.0000 0.6588 0.0000);fill-opacity:1;"/>
<path d="M305.825 325.842C307.152 325.801 307.933 324.855 307.964 324.812C308.027 324.769 308.055 324.642 308.052 324.517L308.003 322.969C308.918 321.14 308.491 317.847 308.102 316.812C308.066 316.688 307.998 316.606 307.901 316.609C307.803 316.57 307.706 316.573 307.642 316.617C305.997 317.883 297.601 319.862 296.122 320.243L295.529 318.88C295.494 318.797 295.426 318.716 295.328 318.677C295.229 318.638 295.132 318.641 295.069 318.685C295.069 318.685 293.484 319.823 291.211 320.69C289.545 321.328 289.225 322.468 289.212 323.097C289.171 323.851 289.482 324.47 289.813 324.71C290.177 324.95 291.062 325.257 291.748 325.445C291.977 325.522 292.174 325.599 292.404 325.676C293.42 326.063 294.463 326.239 295.661 326.202C296.696 326.17 297.662 325.972 298.404 325.865C298.886 325.724 299.337 325.626 299.66 325.616L299.693 325.615C300.308 325.596 301.249 325.65 302.256 325.703C303.425 325.792 304.756 325.876 305.825 325.842ZM307.398 324.328C307.177 324.544 306.608 324.98 305.798 325.006C304.763 325.038 303.431 324.954 302.294 324.864C301.288 324.812 300.347 324.758 299.699 324.778L299.634 324.78C299.278 324.791 298.828 324.889 298.312 324.989C297.572 325.138 296.637 325.292 295.633 325.324C294.5 325.359 293.524 325.222 292.605 324.874C292.344 324.799 292.113 324.68 291.884 324.604C291.001 324.338 290.345 324.108 290.113 323.948C290.015 323.909 289.843 323.579 289.894 323.159C289.914 322.74 290.149 321.979 291.462 321.477C293.255 320.793 294.59 319.956 295.162 319.603L295.721 320.884C295.791 321.049 295.923 321.128 296.051 321.083C296.374 321.031 305.158 319.039 307.64 317.58C307.937 318.785 308.114 321.333 307.409 322.611C307.379 322.696 307.349 322.78 307.352 322.864L307.397 324.328L307.398 324.328Z" fill="#A855F7" style="fill:#A855F7;fill:color(display-p3 0.6588 0.3333 0.9686);fill-opacity:1;"/>
<path d="M305.824 325.842C307.152 325.801 307.932 324.855 307.963 324.813C308.027 324.769 308.055 324.642 308.051 324.517L307.999 322.844C307.994 322.677 307.924 322.511 307.793 322.474C307.661 322.394 307.533 322.44 307.438 322.527C307.438 322.527 306.782 323.301 305.746 323.333C304.71 323.365 303.379 323.281 302.242 323.191C301.236 323.139 300.294 323.085 299.647 323.105L299.582 323.107C299.226 323.118 298.775 323.216 298.26 323.316C297.519 323.465 296.584 323.62 295.581 323.651C294.447 323.686 293.471 323.55 292.553 323.202C292.324 323.125 292.061 323.008 291.831 322.931C290.948 322.666 290.293 322.435 290.061 322.275C290.061 322.275 289.962 322.236 289.83 322.156C289.666 322.078 289.505 322.125 289.415 322.337C289.203 322.804 289.187 323.349 289.3 323.848C289.409 324.221 289.581 324.55 289.813 324.711C290.177 324.95 291.062 325.258 291.748 325.446C291.977 325.522 292.174 325.6 292.403 325.676C293.42 326.063 294.463 326.24 295.66 326.202C296.696 326.17 297.662 325.972 298.404 325.865C298.886 325.725 299.337 325.627 299.66 325.617L299.693 325.616C300.308 325.596 301.249 325.651 302.255 325.703C303.425 325.792 304.756 325.876 305.824 325.842ZM307.397 324.328C307.177 324.544 306.608 324.981 305.798 325.006C304.762 325.038 303.431 324.954 302.294 324.864C301.288 324.812 300.346 324.758 299.699 324.778L299.634 324.78C299.278 324.791 298.827 324.889 298.312 324.989C297.571 325.138 296.636 325.293 295.633 325.324C294.5 325.359 293.523 325.223 292.605 324.874C292.343 324.799 292.113 324.681 291.884 324.604C291 324.339 290.345 324.108 290.113 323.948C290.08 323.907 289.979 323.785 289.907 323.577C289.871 323.453 289.866 323.286 289.892 323.076C290.32 323.313 291.105 323.54 291.694 323.731C291.924 323.807 292.12 323.885 292.35 323.962C293.334 324.349 294.408 324.483 295.605 324.446C296.641 324.413 297.607 324.216 298.349 324.109C298.834 324.052 299.284 323.954 299.608 323.944L299.64 323.943C300.255 323.924 301.197 323.978 302.203 324.03C303.372 324.119 304.704 324.203 305.772 324.17C306.452 324.148 307.027 323.879 307.375 323.617L307.397 324.328L307.397 324.328Z" fill="#A855F7" style="fill:#A855F7;fill:color(display-p3 0.6588 0.3333 0.9686);fill-opacity:1;"/>
<path d="M295.574 324.488C295.866 324.479 296.125 324.471 296.382 324.421C296.544 324.416 296.7 324.202 296.661 323.994C296.577 322.364 296.444 321.196 296.196 320.534L295.495 318.839C295.46 318.757 295.393 318.675 295.294 318.636C295.229 318.638 295.132 318.641 295.069 318.685C295.069 318.685 293.484 319.823 291.21 320.69C290.282 321.054 289.683 321.575 289.381 322.296C289.351 322.381 289.323 322.507 289.359 322.632C289.396 322.756 289.463 322.838 289.529 322.877L289.727 322.997C290.091 323.237 290.976 323.544 291.662 323.732C291.859 323.809 292.088 323.886 292.285 323.963L292.351 324.003C293.334 324.349 294.377 324.526 295.574 324.488ZM296.034 323.637C295.872 323.642 295.742 323.646 295.581 323.651C294.448 323.686 293.471 323.55 292.553 323.201L292.487 323.162C292.258 323.085 292.061 323.008 291.831 322.931C291.079 322.703 290.522 322.511 290.193 322.354C290.442 322.012 290.886 321.705 291.431 321.52C293.224 320.836 294.559 319.999 295.131 319.646L295.69 320.926C295.834 321.382 295.96 322.299 296.034 323.637Z" fill="#A855F7" style="fill:#A855F7;fill:color(display-p3 0.6588 0.3333 0.9686);fill-opacity:1;"/>
</g>
<path d="M291.532 180.498C291.867 178.005 292.537 174.996 293.753 171.39C294.52 170.934 299.075 168.397 302.753 166.646C307.352 164.458 341.458 152.151 375.563 168.834C378.812 172.527 384.304 182.026 381.858 191.893C381.642 192.764 380.567 193.028 379.847 192.49C370.489 185.491 358.641 192.697 342.991 188.8C326.512 184.698 335.709 175.399 318.465 174.578C309.943 174.173 303.03 178.199 298.267 182.647C295.745 185.003 291.074 183.919 291.532 180.498Z" fill="#D8B21A" stroke="#BB9910" style="fill:#D8B21A;fill:color(display-p3 0.8466 0.6976 0.1016);fill-opacity:1;stroke:#BB9910;stroke:color(display-p3 0.7333 0.5993 0.0636);stroke-opacity:1;" stroke-width="3.72227" stroke-linecap="round"/>
<path d="M302.415 148.065C293.762 146.947 277.117 156.18 291.044 172.799C293.478 175.702 297.937 175.354 300.799 172.872C303.625 170.42 307.159 167.91 310.671 166.688C318.009 164.136 350.828 159.46 369.614 175.158C371.453 176.695 373.859 177.624 376.151 176.925C394.162 171.433 385.58 149.659 368.95 151.038C367.751 151.138 366.729 149.756 367.141 148.626C371.53 136.596 357.559 126.718 342.366 135.657C341.508 136.163 340.363 135.659 340.111 134.695C335.342 116.458 305.029 119.14 305.666 145.63C305.697 146.911 303.685 148.23 302.415 148.065Z" fill="#D8B21A" stroke="#BB9910" style="fill:#D8B21A;fill:color(display-p3 0.8466 0.6976 0.1016);fill-opacity:1;stroke:#BB9910;stroke:color(display-p3 0.7333 0.5993 0.0636);stroke-opacity:1;" stroke-width="4.69769" stroke-linecap="round"/>
<path d="M227 171V184" stroke="#A855F7" style="stroke:#A855F7;stroke:color(display-p3 0.6588 0.3333 0.9686);stroke-opacity:1;" stroke-width="3" stroke-linecap="round"/>
<path d="M242.813 180L235 190.39" stroke="#A855F7" style="stroke:#A855F7;stroke:color(display-p3 0.6588 0.3333 0.9686);stroke-opacity:1;" stroke-width="3" stroke-linecap="round"/>
<defs>
<clipPath id="clip0_70_1437">
<rect width="19.4389" height="9.79398" fill="white" style="fill:white;fill-opacity:1;" transform="translate(357.048 316.055) rotate(1.79196)"/>
</clipPath>
<clipPath id="clip1_70_1437">
<rect width="19.4389" height="9.79398" fill="white" style="fill:white;fill-opacity:1;" transform="matrix(-0.999511 0.0312705 0.0312705 0.999511 308.429 316)"/>
</clipPath>
</defs>
</svg>
