<svg width="446" height="446" viewBox="0 0 446 446" fill="none" xmlns="http://www.w3.org/2000/svg">
<path d="M167.016 308.135L170.52 364.891L152.302 373.299" stroke="#A855F7" style="stroke:#A855F7;stroke:color(display-p3 0.6588 0.3333 0.9686);stroke-opacity:1;" stroke-width="8.40835" stroke-linecap="round"/>
<path d="M269.318 308.835L265.815 365.591L284.033 374" stroke="#A855F7" style="stroke:#A855F7;stroke:color(display-p3 0.6588 0.3333 0.9686);stroke-opacity:1;" stroke-width="8.40835" stroke-linecap="round"/>
<path d="M241.991 233.16C241.991 275.728 207.483 310.237 164.914 310.237C122.346 310.237 87.8379 275.728 87.8379 233.16C87.8379 190.592 122.346 156.084 164.914 156.084C207.483 156.084 241.991 190.592 241.991 233.16Z" fill="#F6EDFF" style="fill:#F6EDFF;fill:color(display-p3 0.9655 0.9292 1.0000);fill-opacity:1;"/>
<path d="M358.307 233.16C358.307 275.728 323.798 310.237 281.23 310.237C238.662 310.237 204.153 275.728 204.153 233.16C204.153 190.592 238.662 156.084 281.23 156.084C323.798 156.084 358.307 190.592 358.307 233.16Z" fill="#F6EDFF" style="fill:#F6EDFF;fill:color(display-p3 0.9655 0.9292 1.0000);fill-opacity:1;"/>
<path d="M300.85 149.077C300.85 191.645 266.341 226.153 223.773 226.153C181.205 226.153 146.696 191.645 146.696 149.077C146.696 106.508 181.205 72 223.773 72C266.341 72 300.85 106.508 300.85 149.077Z" fill="#F6EDFF" style="fill:#F6EDFF;fill:color(display-p3 0.9655 0.9292 1.0000);fill-opacity:1;"/>
<path d="M147.397 158.186C139.689 80.4084 202.752 72.7007 230.079 72.7007C251.1 72.7006 307.155 86.7146 299.448 158.186" stroke="#A855F7" style="stroke:#A855F7;stroke:color(display-p3 0.6588 0.3333 0.9686);stroke-opacity:1;" stroke-width="8.40835" stroke-linecap="round"/>
<path d="M300.148 159.587C380.73 174.877 357.702 252.456 352.701 263.29C340.088 290.617 288.235 335.462 225.171 285.712" stroke="#A855F7" style="stroke:#A855F7;stroke:color(display-p3 0.6588 0.3333 0.9686);stroke-opacity:1;" stroke-width="8.40835" stroke-linecap="round"/>
<path d="M223.773 284.311C136.886 343.17 92.4407 272.399 86.4353 252.78C75.9258 218.446 96.2458 165.193 147.396 159.587" stroke="#A855F7" style="stroke:#A855F7;stroke:color(display-p3 0.6588 0.3333 0.9686);stroke-opacity:1;" stroke-width="8.40835" stroke-linecap="round"/>
<circle cx="169.119" cy="193.921" r="21.7216" stroke="#A855F7" style="stroke:#A855F7;stroke:color(display-p3 0.6588 0.3333 0.9686);stroke-opacity:1;" stroke-width="7.00696"/>
<circle cx="275.624" cy="193.921" r="21.7216" stroke="#A855F7" style="stroke:#A855F7;stroke:color(display-p3 0.6588 0.3333 0.9686);stroke-opacity:1;" stroke-width="7.00696"/>
<path d="M191.541 193.921C209.058 173.601 241.991 179.207 252.501 193.921" stroke="#A855F7" style="stroke:#A855F7;stroke:color(display-p3 0.6588 0.3333 0.9686);stroke-opacity:1;" stroke-width="8.40835" stroke-linecap="round"/>
<path d="M230.079 214.942C220.97 224.051 210.46 216.343 209.759 214.942" stroke="#A855F7" style="stroke:#A855F7;stroke:color(display-p3 0.6588 0.3333 0.9686);stroke-opacity:1;" stroke-width="4.20418" stroke-linecap="round"/>
<path d="M179.629 193.921C170.52 203.03 160.009 195.322 159.309 193.921" stroke="#A855F7" style="stroke:#A855F7;stroke:color(display-p3 0.6588 0.3333 0.9686);stroke-opacity:1;" stroke-width="4.20418" stroke-linecap="round"/>
<path d="M287.536 192.52C278.427 201.629 267.917 193.921 267.216 192.52" stroke="#A855F7" style="stroke:#A855F7;stroke:color(display-p3 0.6588 0.3333 0.9686);stroke-opacity:1;" stroke-width="4.20418" stroke-linecap="round"/>
<path d="M191.541 111.177C194.343 135.702 220.446 131.464 227.977 124.491C246.896 106.973 225.875 95.0614 216.766 102.068C195.699 118.273 230.78 139.205 246.195 126.593" stroke="#A855F7" style="stroke:#A855F7;stroke:color(display-p3 0.6588 0.3333 0.9686);stroke-opacity:1;" stroke-width="8.40835" stroke-linecap="round"/>
<g clip-path="url(#clip0_55_59)">
<path d="M338.938 231H290.812C285.119 231 280.479 235.684 280.693 241.355C280.736 242.494 280.779 243.633 280.844 244.75H258.156C255.299 244.75 253 247.049 253 249.906C253 269.801 260.197 283.637 269.865 293.025C279.383 302.285 290.984 306.947 299.535 309.311C304.563 310.707 308 314.896 308 319.107C308 323.598 304.348 327.25 299.857 327.25H294.25C290.447 327.25 287.375 330.322 287.375 334.125C287.375 337.928 290.447 341 294.25 341H335.5C339.303 341 342.375 337.928 342.375 334.125C342.375 330.322 339.303 327.25 335.5 327.25H329.893C325.402 327.25 321.75 323.598 321.75 319.107C321.75 314.896 325.166 310.686 330.215 309.311C338.787 306.947 350.389 302.285 359.906 293.025C369.553 283.637 376.75 269.801 376.75 249.906C376.75 247.049 374.451 244.75 371.594 244.75H348.906C348.971 243.633 349.014 242.516 349.057 241.355C349.271 235.684 344.631 231 338.938 231ZM263.506 255.062H281.639C283.594 274.42 287.912 287.354 292.789 296.012C287.439 293.648 281.875 290.318 277.062 285.635C270.188 278.953 264.602 269.307 263.527 255.062H263.506ZM352.709 285.635C347.896 290.318 342.332 293.648 336.982 296.012C341.859 287.354 346.178 274.42 348.133 255.062H366.266C365.17 269.307 359.584 278.953 352.73 285.635H352.709Z" fill="#CFB63C" style="fill:#CFB63C;fill:color(display-p3 0.8099 0.7141 0.2349);fill-opacity:1;"/>
<path d="M313.098 254.854C313.697 253.011 316.303 253.011 316.902 254.854L318.817 260.747C319.084 261.571 319.852 262.129 320.719 262.129H326.915C328.852 262.129 329.658 264.608 328.09 265.747L323.078 269.389C322.377 269.898 322.083 270.801 322.351 271.625L324.266 277.517C324.865 279.36 322.756 280.892 321.188 279.753L316.176 276.111C315.475 275.602 314.525 275.602 313.824 276.111L308.812 279.753C307.244 280.892 305.135 279.36 305.734 277.517L307.649 271.625C307.917 270.801 307.623 269.898 306.922 269.389L301.91 265.747C300.342 264.608 301.148 262.129 303.085 262.129H309.281C310.148 262.129 310.916 261.571 311.183 260.747L313.098 254.854Z" fill="#FFD11A" style="fill:#FFD11A;fill:color(display-p3 1.0000 0.8207 0.1033);fill-opacity:1;"/>
</g>
<path d="M86 210C104.5 263.498 154.5 283 254.5 263.498" stroke="#A855F7" style="stroke:#A855F7;stroke:color(display-p3 0.6588 0.3333 0.9686);stroke-opacity:1;" stroke-width="8.40835" stroke-linecap="round"/>
<path d="M358.306 210.738C391.94 207.936 402.5 241.5 372 260" stroke="#A855F7" style="stroke:#A855F7;stroke:color(display-p3 0.6588 0.3333 0.9686);stroke-opacity:1;" stroke-width="8.40835" stroke-linecap="round"/>
<defs>
<clipPath id="clip0_55_59">
<rect width="123.75" height="110" fill="white" style="fill:white;fill-opacity:1;" transform="translate(253 231)"/>
</clipPath>
</defs>
</svg>
