<svg width="446" height="446" viewBox="0 0 446 446" fill="none" xmlns="http://www.w3.org/2000/svg">
<path d="M150.838 309.981L154.369 367.181L136.008 375.655" stroke="#A855F7" style="stroke:#A855F7;stroke:color(display-p3 0.6588 0.3333 0.9686);stroke-opacity:1;" stroke-width="8.47409" stroke-linecap="round"/>
<path d="M253.939 310.687L250.409 367.887L268.769 376.361" stroke="#A855F7" style="stroke:#A855F7;stroke:color(display-p3 0.6588 0.3333 0.9686);stroke-opacity:1;" stroke-width="8.47409" stroke-linecap="round"/>
<path d="M226.399 234.42C226.399 277.321 191.621 312.099 148.72 312.099C105.819 312.099 71.0405 277.321 71.0405 234.42C71.0405 191.519 105.819 156.741 148.72 156.741C191.621 156.741 226.399 191.519 226.399 234.42Z" fill="#F6EDFF" style="fill:#F6EDFF;fill:color(display-p3 0.9655 0.9292 1.0000);fill-opacity:1;"/>
<path d="M343.624 234.42C343.624 277.321 308.846 312.099 265.945 312.099C223.044 312.099 188.265 277.321 188.265 234.42C188.265 191.519 223.044 156.741 265.945 156.741C308.846 156.741 343.624 191.519 343.624 234.42Z" fill="#F6EDFF" style="fill:#F6EDFF;fill:color(display-p3 0.9655 0.9292 1.0000);fill-opacity:1;"/>
<path d="M285.718 149.679C285.718 192.58 250.939 227.358 208.038 227.358C165.137 227.358 130.359 192.58 130.359 149.679C130.359 106.778 165.137 72 208.038 72C250.939 72 285.718 106.778 285.718 149.679Z" fill="#F6EDFF" style="fill:#F6EDFF;fill:color(display-p3 0.9655 0.9292 1.0000);fill-opacity:1;"/>
<path d="M131.066 158.86C123.297 80.4745 186.853 72.7066 214.394 72.7065C235.579 72.7065 292.073 86.8301 284.306 158.86" stroke="#A855F7" style="stroke:#A855F7;stroke:color(display-p3 0.6588 0.3333 0.9686);stroke-opacity:1;" stroke-width="8.47409" stroke-linecap="round"/>
<path d="M285.011 160.272C366.222 175.682 343.014 253.867 337.975 264.786C325.263 292.327 273.004 337.522 209.447 287.383" stroke="#A855F7" style="stroke:#A855F7;stroke:color(display-p3 0.6588 0.3333 0.9686);stroke-opacity:1;" stroke-width="8.47409" stroke-linecap="round"/>
<path d="M208.038 285.971C120.473 345.289 75.6794 273.966 69.6271 254.193C59.0355 219.59 79.5143 165.921 131.064 160.272" stroke="#A855F7" style="stroke:#A855F7;stroke:color(display-p3 0.6588 0.3333 0.9686);stroke-opacity:1;" stroke-width="8.47409" stroke-linecap="round"/>
<circle cx="152.956" cy="194.874" r="21.8914" stroke="#A855F7" style="stroke:#A855F7;stroke:color(display-p3 0.6588 0.3333 0.9686);stroke-opacity:1;" stroke-width="7.06174"/>
<circle cx="260.295" cy="194.874" r="21.8914" stroke="#A855F7" style="stroke:#A855F7;stroke:color(display-p3 0.6588 0.3333 0.9686);stroke-opacity:1;" stroke-width="7.06174"/>
<path d="M175.554 194.874C193.209 174.395 226.399 180.045 236.991 194.874" stroke="#A855F7" style="stroke:#A855F7;stroke:color(display-p3 0.6588 0.3333 0.9686);stroke-opacity:1;" stroke-width="8.47409" stroke-linecap="round"/>
<path d="M191.964 231.182C182.784 240.362 172.191 232.595 171.485 231.182" stroke="#A855F7" style="stroke:#A855F7;stroke:color(display-p3 0.6588 0.3333 0.9686);stroke-opacity:1;" stroke-width="4.23705" stroke-linecap="round"/>
<path d="M246.172 149.833C256.213 141.603 265.988 150.378 266.551 151.853" stroke="#A855F7" style="stroke:#A855F7;stroke:color(display-p3 0.6588 0.3333 0.9686);stroke-opacity:1;" stroke-width="4.23705" stroke-linecap="round"/>
<path d="M147.857 155.507C154.91 144.608 166.895 149.985 167.882 151.218" stroke="#A855F7" style="stroke:#A855F7;stroke:color(display-p3 0.6588 0.3333 0.9686);stroke-opacity:1;" stroke-width="4.23705" stroke-linecap="round"/>
<circle cx="153.474" cy="203.474" r="8.47409" fill="#A855F7" style="fill:#A855F7;fill:color(display-p3 0.6588 0.3333 0.9686);fill-opacity:1;"/>
<circle cx="260.474" cy="202.474" r="8.47409" fill="#A855F7" style="fill:#A855F7;fill:color(display-p3 0.6588 0.3333 0.9686);fill-opacity:1;"/>
<path d="M176.966 112.252C179.791 136.968 206.097 132.697 213.687 125.67C232.754 108.015 211.569 96.0103 202.389 103.072C181.158 119.403 216.512 140.499 232.048 127.788" stroke="#A855F7" style="stroke:#A855F7;stroke:color(display-p3 0.6588 0.3333 0.9686);stroke-opacity:1;" stroke-width="8.47409" stroke-linecap="round"/>
<path d="M181 261.5C167 285 132.897 289.352 113 282C81.857 270.493 73.3502 225.611 70.334 211.823" stroke="#A855F7" style="stroke:#A855F7;stroke:color(display-p3 0.6588 0.3333 0.9686);stroke-opacity:1;" stroke-width="8.47409" stroke-linecap="round"/>
<path d="M175.005 259.137C175.005 255.864 174.678 249.809 179.097 244.409C179.697 241.082 180.897 234.132 180.897 232.954C180.897 231.481 180.078 229.354 182.042 229.027C184.006 228.699 184.17 231.481 184.66 232.954C185.151 234.427 184.66 240.973 184.66 243.264C184.66 245.555 184.66 244.409 188.097 244.409C191.534 244.409 192.024 243.591 193.988 246.536C196.279 246.536 196.77 248.173 194.643 250.791C194.534 251.228 194.381 252.919 194.643 256.192C194.97 260.283 192.679 260.937 188.097 263.556C187.606 264.701 186.231 266.927 184.66 266.665C182.697 266.337 175.005 262.41 175.005 259.137Z" fill="#A855F7" stroke="#A855F7" style="fill:#A855F7;fill:color(display-p3 0.6588 0.3333 0.9686);fill-opacity:1;stroke:#A855F7;stroke:color(display-p3 0.6588 0.3333 0.9686);stroke-opacity:1;" stroke-width="1.63644" stroke-linecap="round"/>
<g clip-path="url(#clip0_65_587)">
<path d="M284.295 234.44L279.811 252.168L219.877 263.205L230.586 220.857L284.295 234.44Z" fill="#E6E6E6" style="fill:#E6E6E6;fill:color(display-p3 0.9020 0.9020 0.9020);fill-opacity:1;"/>
<path d="M280.754 248.44L279.811 252.169L219.877 263.206L229.624 224.661C229.94 224.688 230.257 224.741 230.574 224.821L244.924 228.45C247.292 229.049 249.054 231.037 249.361 233.459L249.766 236.636C250.075 239.06 251.835 241.047 254.203 241.646L279.842 248.13C280.159 248.21 280.464 248.315 280.754 248.44Z" fill="#CCCCCC" style="fill:#CCCCCC;fill:color(display-p3 0.8000 0.8000 0.8000);fill-opacity:1;"/>
<path d="M275.645 288.962L283.203 259.074C284.008 255.892 282.081 252.662 278.9 251.857L253.261 245.373C250.892 244.774 249.132 242.787 248.823 240.364L248.419 237.187C248.111 234.764 246.35 232.777 243.982 232.178L229.632 228.549C226.451 227.744 223.22 229.671 222.415 232.852L212.278 272.938C211.549 275.824 213.296 278.754 216.182 279.484L269.098 292.866C271.984 293.596 274.915 291.848 275.645 288.962Z" fill="#CCEFFF" style="fill:#CCEFFF;fill:color(display-p3 0.8000 0.9367 1.0000);fill-opacity:1;"/>
<path d="M218.418 274.491L228.555 234.405C229.36 231.224 232.59 229.297 235.772 230.102L229.632 228.549C226.451 227.744 223.22 229.671 222.415 232.852L212.278 272.938C211.549 275.824 213.296 278.755 216.182 279.484L222.321 281.037C219.436 280.307 217.688 277.376 218.418 274.491Z" fill="#99B0BA" style="fill:#99B0BA;fill:color(display-p3 0.5986 0.6883 0.7299);fill-opacity:1;"/>
<path d="M279.183 250.666L253.544 244.182C251.689 243.713 250.334 242.183 250.092 240.285L249.688 237.109C249.308 234.127 247.18 231.723 244.265 230.986L230.264 227.446L231.502 222.548L282.652 235.484L279.435 248.205C279.256 248.911 279.684 249.629 280.391 249.807C281.097 249.986 281.815 249.558 281.993 248.852L285.534 234.851C285.712 234.145 285.285 233.427 284.578 233.249L230.87 219.667C230.163 219.488 229.446 219.916 229.267 220.622L227.615 227.156C224.578 227.377 221.883 229.507 221.096 232.617L219.194 240.138C219.016 240.844 219.443 241.562 220.15 241.741C220.856 241.919 221.574 241.491 221.752 240.785L223.654 233.264C224.279 230.793 226.798 229.291 229.268 229.916L243.618 233.545C245.473 234.014 246.828 235.544 247.07 237.442L247.474 240.618C247.854 243.6 249.982 246.003 252.896 246.74L278.536 253.224C281.006 253.849 282.508 256.367 281.883 258.838L274.325 288.727C273.775 290.903 271.557 292.225 269.381 291.675L216.465 278.293C214.29 277.743 212.967 275.525 213.517 273.349L220.588 245.39C220.767 244.683 220.339 243.966 219.632 243.787C218.926 243.608 218.208 244.036 218.03 244.743L210.959 272.702C210.052 276.289 212.232 279.944 215.818 280.851L268.735 294.233C272.321 295.14 275.977 292.96 276.884 289.374L284.442 259.485C285.424 255.604 283.064 251.647 279.183 250.666Z" fill="black" style="fill:black;fill-opacity:1;"/>
<path d="M260.428 254.325L259.056 253.978C258.349 253.799 257.632 254.227 257.453 254.933L255.471 262.774C255.292 263.481 255.72 264.198 256.426 264.377C257.133 264.556 257.85 264.128 258.029 263.421L258.399 261.955L258.492 261.979C260.603 262.512 262.753 261.23 263.287 259.119C263.821 257.009 262.538 254.858 260.428 254.325ZM259.139 259.42L259.046 259.397L259.688 256.859L259.781 256.883C260.481 257.06 260.906 257.773 260.729 258.472C260.552 259.172 259.839 259.597 259.139 259.42Z" fill="black" style="fill:black;fill-opacity:1;"/>
<path d="M244.865 250.389L239.549 249.045C238.842 248.866 238.125 249.294 237.947 250C237.768 250.707 238.196 251.424 238.902 251.603L240.281 251.952L238.622 258.513C238.443 259.22 238.871 259.937 239.577 260.116C240.284 260.295 241.001 259.867 241.18 259.16L242.839 252.598L244.218 252.947C244.924 253.126 245.642 252.698 245.82 251.991C245.999 251.285 245.571 250.568 244.865 250.389Z" fill="black" style="fill:black;fill-opacity:1;"/>
<path d="M251.601 252.093L251.176 251.985C249.218 251.49 247.222 252.68 246.726 254.638L245.893 257.935C245.398 259.893 246.588 261.889 248.546 262.384L248.971 262.492C250.929 262.987 252.925 261.797 253.421 259.838L254.254 256.542C254.749 254.583 253.559 252.588 251.601 252.093ZM250.862 259.191C250.724 259.739 250.166 260.072 249.618 259.933L249.193 259.826C248.645 259.687 248.313 259.129 248.451 258.582L249.285 255.285C249.423 254.737 249.981 254.405 250.529 254.543L250.954 254.651C251.502 254.789 251.835 255.347 251.696 255.895L250.862 259.191Z" fill="black" style="fill:black;fill-opacity:1;"/>
<path d="M230.53 263.913L228.547 271.754C228.368 272.46 228.796 273.177 229.502 273.356L232.863 274.206C233.569 274.385 234.287 273.957 234.465 273.25C234.644 272.544 234.216 271.826 233.51 271.648L231.428 271.121L231.759 269.815L233.168 270.172C233.875 270.35 234.592 269.922 234.771 269.216C234.949 268.51 234.521 267.792 233.815 267.613L232.406 267.257L232.764 265.839L234.846 266.365C235.552 266.544 236.269 266.116 236.448 265.41C236.627 264.703 236.199 263.986 235.492 263.807L232.132 262.957C231.426 262.778 230.708 263.206 230.53 263.913Z" fill="black" style="fill:black;fill-opacity:1;"/>
<path d="M261.061 272.995C261.768 273.173 262.485 272.745 262.664 272.039C262.843 271.333 262.415 270.615 261.708 270.436L258.348 269.587C257.641 269.408 256.924 269.836 256.745 270.542L254.763 278.383C254.584 279.089 255.012 279.807 255.718 279.986L259.079 280.835C259.785 281.014 260.502 280.586 260.681 279.88C260.86 279.173 260.432 278.456 259.725 278.277L257.644 277.751L257.975 276.445L259.384 276.801C260.09 276.98 260.808 276.552 260.986 275.846C261.165 275.139 260.737 274.422 260.031 274.243L258.621 273.887L258.98 272.468L261.061 272.995L261.061 272.995Z" fill="black" style="fill:black;fill-opacity:1;"/>
<path d="M266.137 282.62C266.844 282.799 267.561 282.371 267.739 281.665L269.399 275.103L270.778 275.452C271.484 275.63 272.201 275.202 272.38 274.496C272.559 273.79 272.131 273.072 271.424 272.893L266.109 271.549C265.402 271.37 264.685 271.798 264.506 272.505C264.327 273.211 264.755 273.929 265.462 274.107L266.841 274.456L265.181 281.018C265.003 281.724 265.431 282.442 266.137 282.62Z" fill="black" style="fill:black;fill-opacity:1;"/>
<path d="M237.933 268.428L237.207 271.299C236.683 273.375 237.944 275.49 240.019 276.015C241.025 276.269 242.069 276.117 242.96 275.586C243.586 275.213 243.79 274.403 243.417 273.777C243.044 273.151 242.234 272.946 241.608 273.32C241.323 273.49 240.988 273.538 240.666 273.457C240.002 273.289 239.598 272.611 239.766 271.947L240.492 269.075C240.66 268.411 241.337 268.007 242.002 268.175C242.488 268.298 242.851 268.697 242.927 269.193C243.038 269.913 243.712 270.407 244.432 270.296C245.152 270.185 245.646 269.512 245.535 268.792C245.298 267.246 244.165 266 242.649 265.616C240.574 265.091 238.458 266.353 237.933 268.428Z" fill="black" style="fill:black;fill-opacity:1;"/>
<path d="M250.463 267.592L249.091 267.245C248.384 267.067 247.667 267.495 247.489 268.201L245.506 276.042C245.327 276.748 245.755 277.466 246.461 277.644C247.168 277.823 247.885 277.395 248.064 276.689L248.435 275.222L248.528 275.246C248.785 275.311 249.044 275.349 249.3 275.362L249.902 277.794C250.023 278.284 250.403 278.641 250.86 278.757C251.064 278.808 251.282 278.812 251.5 278.758C252.207 278.583 252.638 277.868 252.463 277.16L251.829 274.6C252.544 274.077 253.089 273.311 253.322 272.387C253.856 270.277 252.573 268.126 250.463 267.592ZM249.082 272.664L249.723 270.127L249.816 270.151C250.516 270.328 250.941 271.041 250.764 271.74C250.587 272.44 249.874 272.865 249.175 272.688L249.082 272.664Z" fill="black" style="fill:black;fill-opacity:1;"/>
<path d="M223.666 269.158L221.613 268.639C220.907 268.46 220.189 268.888 220.011 269.595C219.832 270.301 220.26 271.018 220.966 271.197L223.019 271.716C224.805 272.168 226.626 271.082 227.078 269.295C227.529 267.509 226.444 265.689 224.658 265.237L224.564 265.214C224.189 265.119 223.961 264.736 224.056 264.361C224.151 263.985 224.533 263.757 224.909 263.852L226.962 264.371C227.669 264.55 228.386 264.122 228.565 263.415C228.743 262.709 228.316 261.992 227.609 261.813L225.556 261.294C223.77 260.842 221.949 261.928 221.498 263.714C221.046 265.5 222.132 267.32 223.918 267.772L224.011 267.795C224.386 267.89 224.615 268.273 224.519 268.65C224.424 269.025 224.042 269.253 223.666 269.158Z" fill="black" style="fill:black;fill-opacity:1;"/>
</g>
<path d="M271 266C332.5 266 334.443 224.534 342.917 208.88" stroke="#A855F7" style="stroke:#A855F7;stroke:color(display-p3 0.6588 0.3333 0.9686);stroke-opacity:1;" stroke-width="8.47409" stroke-linecap="round"/>
<ellipse cx="270.5" cy="265.5" rx="6.5" ry="7.5" fill="#A855F7" style="fill:#A855F7;fill:color(display-p3 0.6588 0.3333 0.9686);fill-opacity:1;"/>
<defs>
<clipPath id="clip0_65_587">
<rect width="68" height="68" fill="white" style="fill:white;fill-opacity:1;" transform="translate(225.374 215.702) rotate(14.1918)"/>
</clipPath>
</defs>
</svg>
