<svg width="446" height="446" viewBox="0 0 446 446" fill="none" xmlns="http://www.w3.org/2000/svg">
<path d="M315.478 104.58C290.909 66.0511 149.637 52.0915 37.9595 104.58V188.896C37.9595 244.735 47.452 291.081 88.7727 348.595C93.7981 369.813 113.342 372.047 140.703 379.306C168.064 386.565 237.862 382.098 270.248 348.595C323.295 296.665 316.594 218.491 315.478 104.58Z" fill="#FFF3BF" stroke="#F6EDFF" style="fill:#FFF3BF;fill:color(display-p3 1.0000 0.9516 0.7500);fill-opacity:1;stroke:#F6EDFF;stroke:color(display-p3 0.9647 0.9294 1.0000);stroke-opacity:1;" stroke-width="2.23355" stroke-linecap="round"/>
<ellipse cx="180.907" cy="108.489" rx="141.272" ry="40.2038" fill="#86451D" style="fill:#86451D;fill:color(display-p3 0.5266 0.2711 0.1123);fill-opacity:1;"/>
<path d="M178.541 170.128C102.072 170.128 24.6546 150.524 24.6546 113.052C24.6546 75.5801 102.037 56 178.541 56C255.044 56 332.438 75.5918 332.438 113.052C332.438 150.512 255.02 170.128 178.541 170.128ZM178.541 79.4493C97.6405 79.4493 48.1039 101.21 48.1039 113.052C48.1039 124.894 97.6288 146.678 178.541 146.678C259.452 146.678 308.989 124.906 308.989 113.052C308.989 101.198 259.464 79.4493 178.541 79.4493Z" fill="#A855F7" style="fill:#A855F7;fill:color(display-p3 0.6588 0.3333 0.9686);fill-opacity:1;"/>
<path d="M178.541 390.726C130.739 390.726 82.4921 378.791 82.4921 352.106L94.2167 351.695L105.941 352.188C108.216 355.881 132.65 367.277 178.541 367.277C224.431 367.277 248.888 355.881 251.339 351.132L273.616 358.413C266.03 382.273 217.654 390.726 178.541 390.726Z" fill="#A855F7" style="fill:#A855F7;fill:color(display-p3 0.6588 0.3333 0.9686);fill-opacity:1;"/>
<path d="M178.341 360.02C120.89 360.02 83.254 352.903 63.3455 338.259C60.8377 336.418 59.1639 333.656 58.6922 330.581C58.2206 327.506 58.99 324.37 60.8309 321.862C62.6717 319.354 65.4333 317.68 68.5083 317.208C71.5833 316.737 74.7199 317.506 77.2277 319.347C87.8972 327.191 114.102 336.547 178.329 336.547C230.082 336.547 262.746 331.693 278.282 321.727C279.575 320.839 281.034 320.22 282.571 319.906C284.108 319.592 285.693 319.59 287.231 319.899C288.769 320.209 290.23 320.824 291.526 321.709C292.822 322.593 293.927 323.728 294.776 325.048C295.625 326.367 296.201 327.843 296.469 329.389C296.737 330.935 296.692 332.519 296.337 334.047C295.982 335.575 295.324 337.017 294.402 338.286C293.479 339.555 292.312 340.626 290.968 341.436C271.024 354.298 236.284 360.02 178.341 360.02Z" fill="#A855F7" style="fill:#A855F7;fill:color(display-p3 0.6588 0.3333 0.9686);fill-opacity:1;"/>
<path d="M273.627 358.401L252.898 351.836L269.723 338.505C272.819 342.368 274.536 347.155 274.6 352.106C274.595 354.241 274.266 356.364 273.627 358.401Z" fill="#A855F7" style="fill:#A855F7;fill:color(display-p3 0.6588 0.3333 0.9686);fill-opacity:1;"/>
<path d="M262.465 361.849C259.838 361.849 257.287 360.967 255.221 359.344C253.155 357.722 251.694 355.452 251.072 352.9C250.45 350.347 250.703 347.66 251.791 345.269C252.879 342.877 254.739 340.921 257.072 339.713C313.256 310.647 312.588 173.668 307.581 123.334C307.27 120.24 308.202 117.149 310.169 114.742C312.137 112.334 314.981 110.807 318.075 110.496C321.169 110.185 324.26 111.116 326.668 113.084C329.075 115.052 330.603 117.895 330.914 120.989C331.723 129.033 349.532 318.268 267.835 360.512C266.179 361.384 264.337 361.843 262.465 361.849Z" fill="#A855F7" style="fill:#A855F7;fill:color(display-p3 0.6588 0.3333 0.9686);fill-opacity:1;"/>
<path d="M256.31 295.241C254.361 295.246 252.441 294.765 250.725 293.841C249.008 292.917 247.549 291.58 246.479 289.95C245.41 288.321 244.763 286.45 244.598 284.508C244.434 282.566 244.756 280.613 245.535 278.826C256.099 249.137 261.354 217.819 261.059 186.307C261.257 183.234 262.614 180.35 264.855 178.237C267.097 176.124 270.055 174.94 273.135 174.923C276.241 175.015 279.183 176.336 281.316 178.596C283.448 180.856 284.596 183.87 284.508 186.976C284.743 221.443 278.844 255.677 267.085 288.077C266.19 290.197 264.691 292.006 262.775 293.28C260.86 294.554 258.611 295.236 256.31 295.241Z" fill="#A855F7" style="fill:#A855F7;fill:color(display-p3 0.6588 0.3333 0.9686);fill-opacity:1;"/>
<path d="M94.6157 361.849C92.7466 361.845 90.9054 361.395 89.2457 360.536C7.56013 318.327 25.3816 129.056 26.1789 121.013C26.3329 119.481 26.7871 117.994 27.5157 116.638C28.2442 115.282 29.2325 114.082 30.4246 113.107C31.6168 112.133 32.9892 111.403 34.4636 110.959C35.9379 110.515 37.4854 110.366 39.0174 110.519C40.5494 110.673 42.0358 111.128 43.3923 111.856C44.7488 112.585 45.9487 113.573 46.9231 114.765C47.8975 115.958 48.6274 117.33 49.0714 118.804C49.5154 120.279 49.6648 121.826 49.5108 123.358C44.5278 173.704 43.8949 310.706 100.021 339.736C102.354 340.945 104.214 342.902 105.302 345.295C106.39 347.687 106.642 350.376 106.019 352.929C105.396 355.482 103.932 357.752 101.864 359.373C99.7965 360.995 97.2438 361.875 94.6157 361.872V361.849Z" fill="#A855F7" style="fill:#A855F7;fill:color(display-p3 0.6588 0.3333 0.9686);fill-opacity:1;"/>
<path d="M324.817 332.455C317.844 332.5 310.965 330.854 304.768 327.659C299.083 324.702 294.138 320.503 290.299 315.372C288.421 312.894 287.605 309.771 288.029 306.69C288.454 303.61 290.084 300.824 292.563 298.946C295.041 297.068 298.164 296.251 301.244 296.675C304.325 297.1 307.111 298.73 308.989 301.209C310.724 303.552 312.964 305.475 315.543 306.837C320.916 308.684 326.674 309.123 332.266 308.111C337.857 307.099 343.096 304.67 347.481 301.056C363.243 289.6 376.12 274.629 385.091 257.33C394.062 240.032 398.88 220.881 399.163 201.397C399.584 195.732 398.548 190.053 396.153 184.901C393.757 179.75 390.083 175.297 385.48 171.968C369.91 163.913 348.383 173.821 330.503 197.153C328.611 199.622 325.816 201.238 322.732 201.646C319.648 202.053 316.529 201.22 314.06 199.328C311.591 197.435 309.975 194.64 309.567 191.556C309.159 188.472 309.992 185.353 311.885 182.884C337.046 150.055 370.156 137.615 396.302 151.157C404.702 156.234 411.58 163.479 416.213 172.131C420.847 180.784 423.065 190.524 422.636 200.33C422.546 223.939 416.831 247.187 405.963 268.146C395.095 289.105 379.388 307.171 360.143 320.848C349.716 328.007 337.458 332.035 324.817 332.455Z" fill="#A855F7" style="fill:#A855F7;fill:color(display-p3 0.6588 0.3333 0.9686);fill-opacity:1;"/>
<g clip-path="url(#clip0_71_1966)">
<path d="M155.012 108.428C143.996 107.51 119.484 88.9448 174.764 78.3354" stroke="#F6EDFF" style="stroke:#F6EDFF;stroke:color(display-p3 0.9647 0.9294 1.0000);stroke-opacity:1;" stroke-width="2.75386" stroke-linecap="round"/>
<path d="M244.858 111.412C270.077 109.103 257.964 86.1531 225.019 78.894" stroke="#F6EDFF" style="stroke:#F6EDFF;stroke:color(display-p3 0.9647 0.9294 1.0000);stroke-opacity:1;" stroke-width="2.75386" stroke-linecap="round"/>
<path d="M206.208 115.542C206.208 129.484 194.906 140.786 180.964 140.786C167.023 140.786 155.721 129.484 155.721 115.542C155.721 101.6 167.023 90.2984 180.964 90.2984C194.906 90.2984 206.208 101.6 206.208 115.542Z" fill="#F6EDFF" style="fill:#F6EDFF;fill:color(display-p3 0.9655 0.9292 1.0000);fill-opacity:1;"/>
<path d="M244.303 115.542C244.303 129.484 233.001 140.786 219.06 140.786C205.118 140.786 193.816 129.484 193.816 115.542C193.816 101.6 205.118 90.2984 219.06 90.2984C233.001 90.2984 244.303 101.6 244.303 115.542Z" fill="#F6EDFF" style="fill:#F6EDFF;fill:color(display-p3 0.9655 0.9292 1.0000);fill-opacity:1;"/>
<path d="M225.485 88.0035C225.485 101.945 214.183 113.247 200.241 113.247C186.3 113.247 174.998 101.945 174.998 88.0035C174.998 74.0618 186.3 62.7598 200.241 62.7598C214.183 62.7598 225.485 74.0618 225.485 88.0035Z" fill="#F6EDFF" style="fill:#F6EDFF;fill:color(display-p3 0.9655 0.9292 1.0000);fill-opacity:1;"/>
<path d="M175.227 90.9869C172.702 65.5136 193.356 62.9893 202.307 62.9893C209.191 62.9892 227.55 67.579 225.026 90.9869" stroke="#A855F7" style="stroke:#A855F7;stroke:color(display-p3 0.6588 0.3333 0.9686);stroke-opacity:1;" stroke-width="2.75386" stroke-linecap="round"/>
<path d="M225.256 91.4453C251.648 96.453 244.106 121.861 242.468 125.41C238.337 134.36 221.354 149.047 200.7 132.753" stroke="#A855F7" style="stroke:#A855F7;stroke:color(display-p3 0.6588 0.3333 0.9686);stroke-opacity:1;" stroke-width="2.75386" stroke-linecap="round"/>
<path d="M200.242 132.294C171.785 151.571 157.228 128.393 155.261 121.967C151.819 110.722 158.475 93.2814 175.227 91.4455" stroke="#A855F7" style="stroke:#A855F7;stroke:color(display-p3 0.6588 0.3333 0.9686);stroke-opacity:1;" stroke-width="2.75386" stroke-linecap="round"/>
<circle cx="182.341" cy="102.691" r="7.11415" stroke="#A855F7" style="stroke:#A855F7;stroke:color(display-p3 0.6588 0.3333 0.9686);stroke-opacity:1;" stroke-width="2.29489"/>
<circle cx="217.224" cy="102.691" r="7.11415" stroke="#A855F7" style="stroke:#A855F7;stroke:color(display-p3 0.6588 0.3333 0.9686);stroke-opacity:1;" stroke-width="2.29489"/>
<path d="M189.685 102.691C195.422 96.0358 206.208 97.8717 209.651 102.691" stroke="#A855F7" style="stroke:#A855F7;stroke:color(display-p3 0.6588 0.3333 0.9686);stroke-opacity:1;" stroke-width="2.75386" stroke-linecap="round"/>
<path d="M202.307 109.576C199.324 112.559 195.881 110.035 195.652 109.576" stroke="#A855F7" style="stroke:#A855F7;stroke:color(display-p3 0.6588 0.3333 0.9686);stroke-opacity:1;" stroke-width="1.37693" stroke-linecap="round"/>
<path d="M185.784 102.691C182.8 105.674 179.358 103.15 179.129 102.691" stroke="#A855F7" style="stroke:#A855F7;stroke:color(display-p3 0.6588 0.3333 0.9686);stroke-opacity:1;" stroke-width="1.37693" stroke-linecap="round"/>
<path d="M221.125 102.232C218.142 105.215 214.699 102.691 214.47 102.232" stroke="#A855F7" style="stroke:#A855F7;stroke:color(display-p3 0.6588 0.3333 0.9686);stroke-opacity:1;" stroke-width="1.37693" stroke-linecap="round"/>
<path d="M189.685 75.5906C190.603 83.6227 199.152 82.2348 201.618 79.9509C207.815 74.2136 200.93 70.3124 197.947 72.6072C191.047 77.9145 202.536 84.7701 207.585 80.6393" stroke="#A855F7" style="stroke:#A855F7;stroke:color(display-p3 0.6588 0.3333 0.9686);stroke-opacity:1;" stroke-width="2.75386" stroke-linecap="round"/>
<path d="M186.666 87.9782C183.682 90.9615 180.24 88.4371 180.01 87.9782" stroke="#A855F7" style="stroke:#A855F7;stroke:color(display-p3 0.6588 0.3333 0.9686);stroke-opacity:1;" stroke-width="1.37693" stroke-linecap="round"/>
<path d="M219.089 87.9782C216.106 90.9615 212.663 88.4371 212.434 87.9782" stroke="#A855F7" style="stroke:#A855F7;stroke:color(display-p3 0.6588 0.3333 0.9686);stroke-opacity:1;" stroke-width="1.37693" stroke-linecap="round"/>
</g>
<path d="M187.385 117.177C171.433 112.924 168.597 114.545 153 125.534C163.28 127.306 176.396 127.661 190.93 127.306C217.079 127.635 243.209 122.291 238.431 120.571C229.569 117.381 232.759 114.696 219.643 111.506C206.527 108.315 203.337 121.431 187.385 117.177Z" fill="#A66A45" style="fill:#A66A45;fill:color(display-p3 0.6499 0.4139 0.2686);fill-opacity:1;"/>
<path d="M178.58 125.731C153.452 119.03 154.569 115.121 130 132.431C177.835 134.107 270.713 136.452 259.546 132.431C245.586 127.406 250.053 121.822 229.393 116.797C208.733 111.771 203.707 132.431 178.58 125.731Z" fill="#86451D" style="fill:#86451D;fill:color(display-p3 0.5255 0.2706 0.1137);fill-opacity:1;"/>
<path d="M184.376 134.52C159.15 129.342 152.666 130.123 128 143.5C144.257 145.658 166.998 147.281 189.982 146.85C231.334 147.25 274.057 136.614 266.5 134.52C252.485 130.636 256.131 131.499 235.389 127.616C214.648 123.732 209.602 139.698 184.376 134.52Z" fill="#A66A45" style="fill:#A66A45;fill:color(display-p3 0.6499 0.4139 0.2686);fill-opacity:1;"/>
<defs>
<clipPath id="clip0_71_1966">
<rect width="133.626" height="68.1232" fill="white" style="fill:white;fill-opacity:1;" transform="translate(131.21 60.4673)"/>
</clipPath>
</defs>
</svg>
